<svg width="480" height="480" viewBox="0 0 480 480" fill="none" xmlns="http://www.w3.org/2000/svg">
<g clip-path="url(#clip0)">
<path d="M458.791 293.196C458.264 294.444 457.715 295.67 457.148 296.89C435.404 343.569 384.824 372.559 299.522 357.216C251.089 348.09 230.462 381.564 210.489 415.852C210.148 416.444 209.806 417.036 209.459 417.627C188.543 453.583 167.835 489.639 116.057 477.654C61.1665 466.959 27.2902 412.037 22.0481 353.401C21.9843 352.688 21.9266 351.968 21.8744 351.255C18.9294 313.239 28.0307 273.874 51.2494 244.157C65.2746 226.211 85.2012 216.678 105.77 216.978C111.963 217.12 118.153 216.554 124.262 215.288C125.61 214.996 126.918 214.675 128.19 214.311C154.395 206.932 166.47 184.993 173.876 158.22C174.049 157.586 174.223 156.951 174.391 156.31C191.396 92.4614 183.532 2.84577 275.98 16.029C358.706 23.5438 419.418 80.0697 449.198 145.287C449.493 145.943 449.788 146.599 450.077 147.255C458.262 165.35 464.103 184.91 467.389 205.228C467.574 206.369 467.742 207.509 467.898 208.65C472.11 238.938 469.35 268.377 458.791 293.196Z" fill="#F2F2F2"/>
<path d="M450.077 147.255C444.142 155.947 437.454 163.815 430.133 170.719C401.615 197.67 365.493 212.286 329.858 215.352C311.544 216.939 293.141 215.398 275.17 210.775C256.886 206.055 239.447 197.741 222.558 188.03C206.132 178.583 190.192 167.931 173.876 158.22C174.049 157.586 174.223 156.951 174.391 156.31C192.182 166.862 209.61 178.491 227.609 188.544C244.568 198.019 262.122 205.748 280.481 209.884C298.798 213.981 317.492 214.884 336.014 212.564C371.551 208.158 407.701 192.002 435.022 163.097C440.152 157.671 444.895 151.712 449.198 145.287C449.493 145.943 449.788 146.599 450.077 147.255Z" fill="white"/>
<path d="M326.606 0.670679C326.564 0.670679 326.523 0.672309 326.481 0.675573C282.629 4.06109 248.278 49.1669 248.278 103.364C248.278 157.561 282.629 202.667 326.481 206.052C326.743 206.073 327.006 206.028 327.253 205.919C327.5 205.809 327.726 205.638 327.917 205.416C328.108 205.198 328.259 204.933 328.363 204.639C328.466 204.345 328.519 204.027 328.518 203.707V3.02084C328.516 2.39696 328.314 1.79911 327.956 1.35851C327.598 0.917902 327.112 0.670523 326.606 0.670654L326.606 0.670679Z" fill="#CCCCCC"/>
<path d="M393.653 171.939C393.003 171.938 392.379 171.62 391.919 171.054L335.218 101.183C334.99 100.904 334.81 100.571 334.686 100.205C334.563 99.839 334.5 99.4464 334.501 99.05V3.02097C334.5 2.60891 334.568 2.20096 334.701 1.82281C334.834 1.44466 335.028 1.10447 335.273 0.823646C335.519 0.539342 335.809 0.320134 336.126 0.179602C336.442 0.0390688 336.779 -0.0197919 337.116 0.00664859C381.253 3.41405 415.828 48.8141 415.828 103.364C415.83 128.142 408.621 152.1 395.511 170.888C395.29 171.203 395.02 171.458 394.716 171.639C394.412 171.819 394.081 171.921 393.744 171.937C393.713 171.938 393.683 171.939 393.653 171.939Z" fill="#CCCCCC"/>
<path d="M336.959 206.727C336.333 206.727 335.731 206.433 335.274 205.906C335.029 205.625 334.834 205.284 334.701 204.906C334.568 204.527 334.5 204.119 334.501 203.706V117.063C334.501 116.466 334.645 115.883 334.914 115.387C335.183 114.891 335.565 114.504 336.012 114.276C336.46 114.048 336.952 113.988 337.427 114.104C337.901 114.221 338.338 114.508 338.68 114.929L388.158 175.901C388.393 176.191 388.578 176.536 388.701 176.917C388.824 177.298 388.883 177.705 388.875 178.115C388.866 178.525 388.79 178.928 388.651 179.3C388.512 179.673 388.313 180.006 388.066 180.281C373.979 195.909 356.027 205.225 337.111 206.721C337.061 206.725 337.01 206.727 336.959 206.727Z" fill="#F59B00"/>
<path d="M467.898 208.65C459.96 225.997 448.752 241.298 435.919 253.426C407.401 280.377 371.279 294.993 335.644 298.059C317.33 299.646 298.927 298.105 280.956 293.482C262.672 288.762 245.233 280.448 228.344 270.737C211.149 260.848 194.479 249.633 177.359 239.558C160.256 229.491 142.678 220.906 124.262 215.288C125.61 214.996 126.918 214.675 128.19 214.311C129.394 214.696 130.593 215.095 131.789 215.509C167.8 227.915 199.583 252.363 233.395 271.251C250.354 280.726 267.908 288.455 286.267 292.59C304.584 296.688 323.278 297.591 341.8 295.271C377.337 290.865 413.487 274.709 440.808 245.804C451.622 234.413 460.634 220.657 467.389 205.228C467.574 206.369 467.742 207.509 467.898 208.65Z" fill="white"/>
<path d="M110.381 360.959C145.86 373.18 177.232 397.093 210.489 415.852C210.147 416.444 209.806 417.036 209.459 417.627C208.614 417.15 207.775 416.672 206.936 416.187C189.741 406.298 173.072 395.083 155.951 385.008C138.483 374.727 120.524 365.993 101.679 360.381C75.6308 352.65 48.7225 350.291 22.0481 353.401C21.9843 352.688 21.9267 351.968 21.8744 351.255C51.61 347.796 81.6084 351.085 110.381 360.959Z" fill="white"/>
<path d="M252.981 429.753H0.662254C0.486614 429.753 0.318166 429.667 0.193969 429.514C0.0697725 429.361 0 429.153 0 428.937C0 428.72 0.0697725 428.513 0.193969 428.36C0.318166 428.207 0.486614 428.121 0.662254 428.121H252.981C253.157 428.121 253.325 428.207 253.449 428.36C253.574 428.513 253.643 428.72 253.643 428.937C253.643 429.153 253.574 429.361 253.449 429.514C253.325 429.667 253.157 429.753 252.981 429.753Z" fill="#CCCCCC"/>
<path d="M102.728 319.659C111.712 319.659 118.994 310.685 118.994 299.615C118.994 288.545 111.712 279.571 102.728 279.571C93.7451 279.571 86.4628 288.545 86.4628 299.615C86.4628 310.685 93.7451 319.659 102.728 319.659Z" fill="#A0616A"/>
<path d="M163.589 441.048L163.969 451.043L132.867 457.604L132.307 442.854L163.589 441.048Z" fill="#A0616A"/>
<path d="M171.354 438.046L172.217 460.766L171.887 460.785C169.332 460.992 166.786 460.234 164.59 458.61C162.605 457.051 161.462 454.892 161.372 452.53V452.529L160.845 438.652L171.354 438.046Z" fill="#2F2E41"/>
<path d="M162.719 457.494L170.838 457.493L174.701 418.902L162.718 418.903L162.719 457.494Z" fill="#A0616A"/>
<path d="M160.648 454.227L176.638 454.227H176.638C177.977 454.227 179.302 454.551 180.538 455.182C181.774 455.813 182.898 456.738 183.844 457.904C184.79 459.07 185.541 460.454 186.053 461.978C186.565 463.501 186.828 465.134 186.828 466.783V467.191L160.649 467.192L160.648 454.227Z" fill="#2F2E41"/>
<path d="M86.0682 448.146C86.9578 447.482 87.7183 446.585 88.2963 445.52C88.8743 444.454 89.2557 443.245 89.4136 441.978C89.5715 440.712 89.5021 439.418 89.2103 438.187C88.9184 436.957 88.4112 435.821 87.7244 434.858L94.2048 355.409L78.7708 356.738L77.2539 434.417C76.0183 435.946 75.2807 437.98 75.1809 440.134C75.0812 442.289 75.6262 444.413 76.7126 446.105C77.7991 447.798 79.3515 448.94 81.0758 449.316C82.8001 449.692 84.5764 449.276 86.0682 448.146V448.146Z" fill="#A0616A"/>
<path d="M94.1293 369.18L78.1365 366.779C77.6814 366.71 77.2437 366.522 76.853 366.226C76.4624 365.931 76.1281 365.535 75.8728 365.066C75.6175 364.597 75.4473 364.065 75.3737 363.507C75.3002 362.95 75.325 362.379 75.4465 361.835L79.7052 342.75C80.0021 339.883 81.2094 337.278 83.0625 335.506C84.9157 333.734 87.2633 332.94 89.5906 333.298C91.918 333.656 94.0352 335.137 95.478 337.416C96.9207 339.695 97.5713 342.585 97.2871 345.454L97.7041 365.177C97.7159 365.742 97.6288 366.303 97.4487 366.823C97.2687 367.342 96.9999 367.808 96.6606 368.187C96.3214 368.567 95.9196 368.853 95.4828 369.024C95.046 369.195 94.5844 369.249 94.1293 369.18V369.18Z" fill="#F59B00"/>
<path d="M91.8921 459.4C89.9541 459.236 88.0854 458.445 86.4749 457.107C84.8645 455.768 83.5693 453.929 82.7203 451.776C81.8713 449.623 81.4986 447.232 81.6398 444.845C81.781 442.457 82.4312 440.158 83.5246 438.18L93.9712 424.815L132.051 382.787L152.409 361.969C153.597 360.755 155.015 359.932 156.532 359.577C158.049 359.223 159.613 359.349 161.08 359.944C162.546 360.538 163.866 361.582 164.915 362.977C165.964 364.372 166.709 366.072 167.08 367.919L177.715 420.939C177.894 421.821 177.8 422.753 177.452 423.555C177.104 424.356 176.526 424.97 175.832 425.276L164.237 430.42C163.848 430.592 163.435 430.663 163.024 430.628C162.612 430.594 162.211 430.454 161.845 430.218C161.479 429.982 161.158 429.655 160.9 429.258C160.642 428.861 160.454 428.402 160.348 427.911L155.937 407.529L131.395 436.44L139.052 439.913C139.755 440.235 140.333 440.871 140.674 441.693C141.014 442.516 141.092 443.466 140.891 444.356L138.417 455.159C138.246 455.912 137.884 456.579 137.383 457.06C136.883 457.541 136.27 457.812 135.635 457.832L91.8921 459.4Z" fill="#2F2E41"/>
<path d="M90.852 429.265L89.8447 383.928L83.4908 364.043C82.1935 359.986 81.6314 355.629 81.8438 351.276C82.0563 346.924 83.0381 342.681 84.7206 338.845C86.4031 335.009 88.7456 331.672 91.5841 329.069C94.4227 326.465 97.6887 324.658 101.154 323.773C101.677 323.639 102.198 323.508 102.718 323.381C106.042 322.568 109.467 322.622 112.773 323.538C116.079 324.454 119.193 326.213 121.914 328.702C124.635 331.19 126.903 334.353 128.573 337.986C130.242 341.62 131.276 345.644 131.608 349.8L134.594 383.931L134.581 383.996C129.82 410.092 116.043 424.454 91.2235 429.194L90.852 429.265Z" fill="#F59B00"/>
<path d="M105.879 397.773C106.241 397.704 106.607 397.671 106.974 397.673L125.357 364.134L121.876 355.288L132.024 347.068L139.422 361.991C140.02 363.197 140.284 364.609 140.175 366.015C140.066 367.422 139.59 368.747 138.818 369.791L113.657 403.833C114.053 405.503 114.026 407.281 113.581 408.932C113.135 410.583 112.293 412.028 111.165 413.074C110.037 414.121 108.678 414.719 107.267 414.79C105.857 414.861 104.462 414.401 103.269 413.471C102.076 412.542 101.14 411.187 100.587 409.586C100.034 407.985 99.89 406.215 100.173 404.511C100.457 402.807 101.154 401.249 102.174 400.046C103.193 398.842 104.485 398.049 105.879 397.773V397.773Z" fill="#A0616A"/>
<path d="M123.749 363.511C123.336 363.369 122.953 363.119 122.626 362.778C122.299 362.438 122.036 362.014 121.854 361.536L115.496 344.852C114.284 342.604 113.844 339.854 114.274 337.207C114.705 334.56 115.969 332.231 117.79 330.73C119.611 329.23 121.841 328.681 123.991 329.203C126.14 329.725 128.034 331.276 129.257 333.516L139.302 347.253C139.589 347.645 139.804 348.109 139.932 348.612C140.06 349.116 140.098 349.647 140.045 350.171C139.991 350.694 139.847 351.198 139.621 351.646C139.395 352.095 139.094 352.478 138.737 352.77L126.2 363.033C125.843 363.325 125.44 363.519 125.017 363.602C124.593 363.684 124.161 363.653 123.749 363.511V363.511Z" fill="#F59B00"/>
<path d="M318.467 315.163H264.778C264.004 315.163 263.262 314.784 262.715 314.11C262.168 313.435 261.86 312.521 261.86 311.567C261.86 310.613 262.168 309.699 262.715 309.025C263.262 308.35 264.004 307.971 264.778 307.971H318.467C319.241 307.971 319.983 308.35 320.53 309.025C321.077 309.699 321.385 310.613 321.385 311.567C321.385 312.521 321.077 313.435 320.53 314.11C319.983 314.784 319.241 315.163 318.467 315.163V315.163Z" fill="#CCCCCC"/>
<path d="M248.73 318.758C247.518 318.758 246.333 318.316 245.326 317.486C244.318 316.656 243.532 315.477 243.069 314.097C242.605 312.717 242.484 311.199 242.72 309.735C242.956 308.27 243.54 306.924 244.397 305.868C245.254 304.812 246.346 304.093 247.534 303.802C248.723 303.51 249.955 303.66 251.075 304.231C252.194 304.803 253.151 305.771 253.825 307.013C254.498 308.254 254.857 309.714 254.857 311.208C254.856 313.21 254.209 315.129 253.061 316.544C251.912 317.96 250.354 318.756 248.73 318.758Z" fill="#3F3D56"/>
<path d="M318.467 336.737H264.778C264.004 336.737 263.262 336.358 262.715 335.684C262.168 335.009 261.86 334.095 261.86 333.141C261.86 332.187 262.168 331.273 262.715 330.599C263.262 329.924 264.004 329.545 264.778 329.545H318.467C319.241 329.545 319.983 329.924 320.53 330.599C321.077 331.273 321.385 332.187 321.385 333.141C321.385 334.095 321.077 335.009 320.53 335.684C319.983 336.358 319.241 336.737 318.467 336.737V336.737Z" fill="#CCCCCC"/>
<path d="M248.73 340.332C247.518 340.332 246.333 339.89 245.325 339.06C244.318 338.23 243.532 337.051 243.068 335.671C242.605 334.291 242.483 332.773 242.72 331.308C242.956 329.844 243.54 328.498 244.397 327.442C245.254 326.386 246.346 325.667 247.534 325.376C248.723 325.084 249.955 325.234 251.075 325.805C252.194 326.377 253.151 327.345 253.825 328.587C254.498 329.828 254.857 331.288 254.857 332.782C254.855 334.784 254.209 336.703 253.06 338.118C251.912 339.534 250.354 340.33 248.73 340.332Z" fill="#3F3D56"/>
<path d="M318.467 358.311H264.778C264.004 358.311 263.262 357.932 262.715 357.258C262.168 356.583 261.86 355.669 261.86 354.715C261.86 353.762 262.168 352.847 262.715 352.173C263.262 351.498 264.004 351.12 264.778 351.12H318.467C319.241 351.12 319.983 351.498 320.53 352.173C321.077 352.847 321.385 353.762 321.385 354.715C321.385 355.669 321.077 356.583 320.53 357.258C319.983 357.932 319.241 358.311 318.467 358.311V358.311Z" fill="#CCCCCC"/>
<path d="M248.73 361.906C247.518 361.906 246.333 361.464 245.326 360.634C244.318 359.804 243.532 358.625 243.069 357.245C242.605 355.865 242.484 354.347 242.72 352.883C242.956 351.418 243.54 350.072 244.397 349.016C245.254 347.96 246.346 347.241 247.534 346.95C248.723 346.658 249.955 346.808 251.075 347.379C252.194 347.951 253.151 348.919 253.825 350.161C254.498 351.402 254.857 352.862 254.857 354.356C254.856 356.358 254.209 358.277 253.061 359.692C251.912 361.108 250.354 361.904 248.73 361.906Z" fill="#3F3D56"/>
<path d="M333.892 333.044H356.068C356.223 333.044 356.371 332.968 356.481 332.834C356.59 332.699 356.652 332.516 356.652 332.325V163.386C356.652 163.195 356.59 163.012 356.481 162.877C356.371 162.742 356.223 162.667 356.068 162.667C355.914 162.667 355.765 162.742 355.656 162.877C355.546 163.012 355.485 163.195 355.485 163.386V331.606H333.892C333.816 331.606 333.74 331.624 333.668 331.66C333.597 331.696 333.533 331.749 333.479 331.816C333.424 331.883 333.381 331.962 333.352 332.049C333.322 332.137 333.307 332.23 333.307 332.325C333.307 332.42 333.322 332.513 333.352 332.601C333.381 332.688 333.424 332.768 333.479 332.834C333.533 332.901 333.597 332.954 333.668 332.99C333.74 333.026 333.816 333.044 333.892 333.044V333.044Z" fill="#3F3D56"/>
<path d="M428.917 52.969C427.434 53.1162 425.949 52.7182 424.65 51.8254C423.35 50.9326 422.295 49.5851 421.617 47.9532C420.939 46.3214 420.669 44.4785 420.842 42.6576C421.014 40.8367 421.62 39.1196 422.584 37.7234C423.548 36.3272 424.827 35.3147 426.258 34.8138C427.689 34.313 429.208 34.3463 430.624 34.9096C432.04 35.4728 433.288 36.5408 434.211 37.9783C435.134 39.4159 435.691 41.1585 435.81 42.9858C435.97 45.4361 435.334 47.8645 434.041 49.7367C432.748 51.6089 430.905 52.7716 428.917 52.969V52.969ZM428.824 51.5476C430.078 51.423 431.275 50.8428 432.262 49.8802C433.249 48.9176 433.983 47.616 434.369 46.1399C434.756 44.6637 434.779 43.0794 434.435 41.5873C434.091 40.0951 433.396 38.7621 432.437 37.7569C431.479 36.7517 430.299 36.1193 429.049 35.9398C427.799 35.7604 426.533 36.0418 425.413 36.7486C424.292 37.4553 423.367 38.5557 422.754 39.9105C422.141 41.2652 421.868 42.8136 421.969 44.3598C422.036 45.3864 422.266 46.3867 422.647 47.3035C423.028 48.2203 423.552 49.0358 424.188 49.7032C424.825 50.3707 425.562 50.8771 426.357 51.1935C427.152 51.51 427.991 51.6303 428.824 51.5476V51.5476Z" fill="#CCCCCC"/>
<path d="M454.817 29.1859C457.373 29.1859 459.445 26.6322 459.445 23.482C459.445 20.3318 457.373 17.7781 454.817 17.7781C452.26 17.7781 450.188 20.3318 450.188 23.482C450.188 26.6322 452.26 29.1859 454.817 29.1859Z" fill="#CCCCCC"/>
<path d="M477.568 8.55797C478.911 8.55797 480 7.21652 480 5.56176C480 3.907 478.911 2.56555 477.568 2.56555C476.226 2.56555 475.137 3.907 475.137 5.56176C475.137 7.21652 476.226 8.55797 477.568 8.55797Z" fill="#CCCCCC"/>
<path d="M393.574 235.409C392.754 236.938 391.584 238.134 390.213 238.844C388.841 239.554 387.33 239.747 385.869 239.399C384.409 239.051 383.065 238.176 382.008 236.887C380.95 235.597 380.227 233.95 379.929 232.154C379.632 230.358 379.773 228.493 380.335 226.796C380.897 225.099 381.855 223.645 383.088 222.619C384.32 221.593 385.772 221.04 387.26 221.03C388.748 221.021 390.204 221.555 391.445 222.566V222.566C393.108 223.923 394.266 226.037 394.665 228.445C395.064 230.853 394.672 233.357 393.574 235.409V235.409ZM381.989 225.975C381.295 227.27 380.928 228.788 380.934 230.34C380.941 231.891 381.32 233.405 382.025 234.69C382.73 235.975 383.728 236.974 384.893 237.56C386.059 238.147 387.339 238.294 388.573 237.983C389.806 237.673 390.937 236.919 391.822 235.816C392.708 234.714 393.308 233.313 393.547 231.79C393.786 230.267 393.654 228.691 393.166 227.261C392.678 225.831 391.858 224.611 390.807 223.756V223.756C389.399 222.611 387.679 222.202 386.026 222.619C384.372 223.035 382.921 224.242 381.989 225.975V225.975Z" fill="#CCCCCC"/>
<path d="M402.585 269.497C405.141 269.497 407.214 266.943 407.214 263.793C407.214 260.643 405.141 258.089 402.585 258.089C400.029 258.089 397.956 260.643 397.956 263.793C397.956 266.943 400.029 269.497 402.585 269.497Z" fill="#CCCCCC"/>
<path d="M415.496 296.014C416.839 296.014 417.928 294.672 417.928 293.017C417.928 291.363 416.839 290.021 415.496 290.021C414.154 290.021 413.065 291.363 413.065 293.017C413.065 294.672 414.154 296.014 415.496 296.014Z" fill="#CCCCCC"/>
<path d="M206.807 79.7369C206.145 78.0953 205.893 76.2485 206.083 74.4303C206.272 72.6121 206.895 70.904 207.873 69.522C208.85 68.14 210.138 67.1463 211.574 66.6664C213.01 66.1866 214.529 66.2422 215.939 66.8261C217.349 67.4101 218.587 68.4963 219.496 69.9472C220.406 71.3982 220.945 73.1488 221.047 74.9777C221.149 76.8066 220.808 78.6317 220.068 80.2221C219.328 81.8125 218.223 83.0968 216.89 83.9126V83.9126C215.103 85.0037 213.038 85.1769 211.148 84.3941C209.258 83.6113 207.697 81.9364 206.807 79.7369V79.7369ZM219.243 72.1219C218.682 70.7328 217.8 69.5795 216.708 68.808C215.616 68.0365 214.363 67.6814 213.107 67.7876C211.852 67.8938 210.65 68.4564 209.653 69.4045C208.657 70.3525 207.911 71.6433 207.51 73.1137C207.109 74.5841 207.071 76.168 207.4 77.6651C207.73 79.1621 208.412 80.5052 209.361 81.5244C210.31 82.5436 211.483 83.1932 212.731 83.391C213.98 83.5887 215.248 83.3259 216.375 82.6355C217.886 81.7081 219.036 80.0803 219.573 78.1093C220.111 76.1383 219.992 73.985 219.243 72.1219Z" fill="#CCCCCC"/>
<path d="M182.362 80.8018C184.918 80.8018 186.99 78.248 186.99 75.0978C186.99 71.9477 184.918 69.3939 182.362 69.3939C179.805 69.3939 177.733 71.9477 177.733 75.0978C177.733 78.248 179.805 80.8018 182.362 80.8018Z" fill="#CCCCCC"/>
<path d="M155.369 77.1909C156.712 77.1909 157.801 75.8495 157.801 74.1947C157.801 72.5399 156.712 71.1985 155.369 71.1985C154.027 71.1985 152.938 72.5399 152.938 74.1947C152.938 75.8495 154.027 77.1909 155.369 77.1909Z" fill="#CCCCCC"/>
<path d="M119.917 301.369L119.239 299.239C117.369 293.365 112.896 288.849 108.11 288.003C105.721 287.618 103.294 288.076 101.109 289.324C98.9235 290.573 97.071 292.56 95.7664 295.055C94.6592 297.422 93.7851 299.943 93.1625 302.565C92.9492 303.346 92.7341 303.911 92.321 304.081C91.8559 304.288 91.3931 303.935 90.6261 303.349C90.455 303.218 90.2574 303.15 90.0562 303.153C89.855 303.156 89.6586 303.229 89.4899 303.364C89.3212 303.499 89.1871 303.69 89.1033 303.916C89.0195 304.141 88.9894 304.391 89.0166 304.637L89.8209 311.712L89.1478 310.974C84.7687 306.171 83.869 297.132 87.0325 291.397L79.8329 293.22L80.1573 292.457C83.1473 285.346 88.301 279.982 94.4913 277.54L87.5951 275.668L88.2922 275.139C94.4678 270.451 102.615 270.583 109.047 275.468C112.277 278.018 114.953 281.502 116.841 285.618C118.729 289.734 119.772 294.356 119.879 299.081L119.917 301.369Z" fill="#2F2E41"/>
</g>
<defs>
<clipPath id="clip0">
<rect width="480" height="480" fill="white"/>
</clipPath>
</defs>
</svg>
