<svg width="480" height="480" viewBox="0 0 480 480" fill="none" xmlns="http://www.w3.org/2000/svg">
<g clip-path="url(#clip0)">
<path d="M68.7796 480C106.766 480 137.559 476.413 137.559 471.989C137.559 467.564 106.766 463.977 68.7796 463.977C30.7937 463.977 0 467.564 0 471.989C0 476.413 30.7937 480 68.7796 480Z" fill="#E6E6E6"/>
<path d="M91.056 120.581L63.6166 109.152C70.9437 98.5934 74.1311 88.6463 73.1788 79.3112H91.056V120.581Z" fill="#9F616A"/>
<path d="M93.9664 441.851L85.1031 443.755L74.426 293.915L57.3803 443.12L48.2338 443.755V254.549H104.776L93.9664 441.851Z" fill="#2F2E41"/>
<path d="M52.8369 472.057C54.2281 472.118 55.5926 471.466 56.713 470.205C57.8335 468.944 58.6454 467.147 59.0195 465.1L59.6669 450.345L58.3618 439.882C54.9185 435.56 51.4374 435.65 47.921 439.882L46.7998 461.799C46.734 463.085 46.84 464.378 47.1114 465.599C47.3827 466.821 47.8138 467.945 48.3784 468.904C48.9429 469.864 49.6292 470.638 50.3957 471.18C51.1621 471.722 51.9926 472.02 52.8369 472.057V472.057Z" fill="#2F2E41"/>
<path d="M89.4228 472.057C90.814 472.118 92.1785 471.466 93.299 470.205C94.4194 468.944 95.2314 467.147 95.6055 465.1L96.2529 450.345L94.9478 439.882C91.5044 435.56 88.0233 435.65 84.507 439.882L83.3858 461.799C83.32 463.085 83.426 464.378 83.6973 465.599C83.9687 466.821 84.3997 467.945 84.9643 468.904C85.5289 469.864 86.2152 470.638 86.9816 471.18C87.7481 471.722 88.5786 472.02 89.4228 472.057V472.057Z" fill="#2F2E41"/>
<path d="M87.3142 98.9937C96.0395 98.9937 103.113 88.1917 103.113 74.8667C103.113 61.5418 96.0395 50.7397 87.3142 50.7397C78.589 50.7397 71.5157 61.5418 71.5157 74.8667C71.5157 88.1917 78.589 98.9937 87.3142 98.9937Z" fill="#9F616A"/>
<path d="M107.27 257.724H46.9866C54.8 202.424 54.7781 157.886 48.5543 121.866C48.1579 119.573 48.3299 117.137 49.0372 115.025C49.7445 112.914 50.9375 111.276 52.3871 110.425L68.6055 100.898C73.4747 110.501 80.3457 114.696 91.056 108.517L99.5548 111.18C101.624 111.824 103.471 113.592 104.752 116.156C106.034 118.72 106.663 121.906 106.524 125.124C105.899 139.212 106.145 153.407 105.607 165.66C103.941 203.606 103.221 233.188 107.27 257.724Z" fill="#E6E6E6"/>
<path d="M78.9993 43.1208C78.9993 43.1208 88.1458 27.2478 98.9553 42.4859L101.866 43.7557L99.7868 46.2954C99.7868 46.2954 110.596 53.9144 109.765 69.7874C109.765 69.7874 108.102 69.1525 107.27 69.7874C106.439 70.4223 106.023 77.4065 106.023 77.4065C106.023 77.4065 104.776 72.3271 104.36 71.6922C103.944 71.0573 98.1238 78.6763 88.5615 67.2477C88.5615 67.2477 85.6513 78.6763 82.3253 77.4065C78.9994 76.1366 74.4261 76.7715 72.3473 85.0255C72.3473 85.0255 61.122 48.2001 78.9993 43.1208Z" fill="#2F2E41"/>
<path d="M110.181 243.756L104.844 254.68C104.288 255.817 103.886 257.113 103.661 258.49C103.436 259.867 103.392 261.299 103.533 262.702C103.674 264.106 103.996 265.452 104.48 266.663C104.965 267.875 105.602 268.927 106.356 269.758V269.758C107.326 270.829 108.459 271.503 109.648 271.715C110.837 271.927 112.042 271.671 113.148 270.971C114.254 270.27 115.223 269.149 115.965 267.714C116.707 266.279 117.195 264.578 117.384 262.773L118.911 248.2L121.821 185.343L119.743 153.597L106.439 161.216L110.181 188.518V243.756Z" fill="#9F616A"/>
<path d="M104.776 168.835L120.99 157.406L120.158 148.411C120.158 140.963 118.684 133.689 115.929 127.544C113.173 121.399 109.265 116.67 104.719 113.978L99.7867 111.057L104.776 168.835Z" fill="#E6E6E6"/>
<path d="M45.7394 241.216L51.0763 252.14C51.6321 253.278 52.0343 254.573 52.2593 255.95C52.4844 257.327 52.5278 258.759 52.387 260.163C52.2463 261.566 51.9243 262.912 51.4397 264.124C50.9551 265.335 50.3175 266.387 49.5642 267.218V267.218C48.594 268.289 47.4604 268.963 46.2715 269.175C45.0825 269.388 43.8778 269.131 42.7721 268.431C41.6663 267.731 40.6965 266.61 39.9548 265.175C39.2132 263.74 38.7246 262.038 38.5354 260.233L37.0086 245.66L34.0984 182.803L36.1771 151.057L49.4811 158.676L45.7394 185.978V241.216Z" fill="#9F616A"/>
<path d="M51.1442 166.295L34.9299 154.867L35.7614 145.871C35.7614 138.423 37.2359 131.15 39.9914 125.005C42.7468 118.86 46.6544 114.131 51.2014 111.438L56.1332 108.518L51.1442 166.295Z" fill="#E6E6E6"/>
<path d="M475.628 409.233H198.178C197.019 409.231 195.908 408.527 195.089 407.275C194.269 406.024 193.808 404.327 193.807 402.557V218.295C193.808 216.525 194.269 214.828 195.089 213.576C195.908 212.324 197.019 211.62 198.178 211.619H475.628C476.787 211.62 477.899 212.324 478.718 213.576C479.538 214.828 479.999 216.525 480 218.295V402.557C479.999 404.327 479.538 406.024 478.718 407.275C477.899 408.527 476.787 409.231 475.628 409.233V409.233ZM198.178 214.289C197.483 214.29 196.816 214.713 196.325 215.464C195.833 216.214 195.556 217.233 195.556 218.295V402.557C195.556 403.619 195.833 404.637 196.325 405.388C196.816 406.139 197.483 406.561 198.178 406.562H475.628C476.324 406.561 476.99 406.139 477.482 405.388C477.974 404.637 478.251 403.619 478.251 402.557V218.295C478.251 217.233 477.974 216.214 477.482 215.464C476.99 214.713 476.324 214.29 475.628 214.289H198.178Z" fill="#E6E6E6"/>
<path d="M209.545 234.318C208.849 234.318 208.182 234.74 207.69 235.491C207.198 236.242 206.922 237.261 206.922 238.323C206.922 239.386 207.198 240.404 207.69 241.156C208.182 241.907 208.849 242.329 209.545 242.329H246.266C246.962 242.329 247.629 241.907 248.121 241.156C248.613 240.404 248.889 239.386 248.889 238.323C248.889 237.261 248.613 236.242 248.121 235.491C247.629 234.74 246.962 234.318 246.266 234.318H209.545Z" fill="#E6E6E6"/>
<path d="M460.934 262.175V336.458H213.31V297.347C215.025 295.665 216.75 293.991 218.49 292.373C225.924 285.425 233.881 278.928 242.553 276.52C246.655 275.352 250.857 275.272 254.976 276.283C259.328 277.381 263.493 279.67 267.616 281.968C271.683 284.241 275.76 286.586 280.013 287.904C284.158 289.147 288.412 289.275 292.586 288.283C300.548 286.46 308.029 281.573 315.478 277.152C322.974 272.707 330.698 268.507 338.811 267.954C346.82 267.401 354.73 270.291 362.33 273.875C377.825 281.178 393.646 292.01 410.052 284.581C426.712 277.049 442.036 255.306 460.499 261.757C460.674 261.806 460.83 261.956 460.934 262.175V262.175Z" fill="#E6E6E6"/>
<path d="M460.934 263.47C460.855 263.696 460.729 263.875 460.575 263.979C460.421 264.082 460.249 264.103 460.086 264.038C457.886 263.268 455.633 262.913 453.376 262.98C435.215 263.47 421.252 285.797 403.495 289.136C387.484 292.144 372.415 280.254 357.361 274.041C349.539 270.812 341.475 269.099 333.426 271.294C325.439 273.465 317.943 278.454 310.416 282.883C303.168 287.147 295.636 291.11 287.788 291.307C279.16 291.528 271.39 286.097 263.388 281.96C259.226 279.804 254.956 278.099 250.547 277.933C246.249 277.855 241.972 278.866 237.891 280.925C229.387 285.054 221.726 292.412 214.266 299.723C214.138 299.861 213.983 299.925 213.827 299.905C213.666 299.872 213.515 299.765 213.395 299.598C213.275 299.431 213.19 299.213 213.153 298.971C213.116 298.73 213.128 298.477 213.188 298.246C213.247 298.015 213.351 297.817 213.486 297.678L213.827 297.347C215.538 295.665 217.259 293.991 218.996 292.373C226.415 285.425 234.355 278.928 243.009 276.52C247.102 275.352 251.296 275.272 255.406 276.283C259.749 277.381 263.905 279.67 268.02 281.968C272.078 284.241 276.146 286.586 280.391 287.904C284.527 289.147 288.773 289.275 292.937 288.283C300.883 286.46 308.348 281.573 315.782 277.152C323.262 272.707 330.97 268.507 339.066 267.954C347.058 267.401 354.952 270.291 362.536 273.875C377.998 281.178 393.786 292.01 410.158 284.581C426.784 277.049 442.076 255.306 460.5 261.757C460.675 261.806 460.83 261.956 460.934 262.175C461.014 262.369 461.056 262.593 461.056 262.822C461.056 263.051 461.014 263.276 460.934 263.47V263.47Z" fill="#F59B00"/>
<path d="M247.429 282.773C249.428 282.773 251.048 280.299 251.048 277.246C251.048 274.194 249.428 271.72 247.429 271.72C245.431 271.72 243.811 274.194 243.811 277.246C243.811 280.299 245.431 282.773 247.429 282.773Z" fill="#F59B00"/>
<path d="M338.931 275.667C340.93 275.667 342.55 273.193 342.55 270.141C342.55 267.089 340.93 264.615 338.931 264.615C336.933 264.615 335.312 267.089 335.312 270.141C335.312 273.193 336.933 275.667 338.931 275.667Z" fill="#F59B00"/>
<path d="M450.595 268.562C452.594 268.562 454.214 266.088 454.214 263.036C454.214 259.983 452.594 257.509 450.595 257.509C448.596 257.509 446.976 259.983 446.976 263.036C446.976 266.088 448.596 268.562 450.595 268.562Z" fill="#F59B00"/>
<path d="M245.392 367.841C244.696 367.841 244.029 368.263 243.537 369.014C243.045 369.765 242.769 370.784 242.769 371.846C242.769 372.909 243.045 373.928 243.537 374.679C244.029 375.43 244.696 375.852 245.392 375.852H282.113C282.808 375.852 283.476 375.43 283.968 374.679C284.459 373.928 284.736 372.909 284.736 371.846C284.736 370.784 284.459 369.765 283.968 369.014C283.476 368.263 282.808 367.841 282.113 367.841H245.392Z" fill="#E6E6E6"/>
<path d="M221.785 386.534C227.258 386.534 231.694 379.759 231.694 371.401C231.694 363.044 227.258 356.269 221.785 356.269C216.312 356.269 211.876 363.044 211.876 371.401C211.876 379.759 216.312 386.534 221.785 386.534Z" fill="#F59B00"/>
<path d="M333.989 367.841C333.294 367.841 332.626 368.263 332.134 369.014C331.643 369.765 331.366 370.784 331.366 371.846C331.366 372.909 331.643 373.928 332.134 374.679C332.626 375.43 333.294 375.852 333.989 375.852H370.71C371.406 375.852 372.073 375.43 372.565 374.679C373.057 373.928 373.333 372.909 373.333 371.846C373.333 370.784 373.057 369.765 372.565 369.014C372.073 368.263 371.406 367.841 370.71 367.841H333.989Z" fill="#E6E6E6"/>
<path d="M310.383 386.534C315.855 386.534 320.292 379.759 320.292 371.401C320.292 363.044 315.855 356.269 310.383 356.269C304.91 356.269 300.474 363.044 300.474 371.401C300.474 379.759 304.91 386.534 310.383 386.534Z" fill="#F59B00"/>
<path d="M422.587 367.841C421.891 367.841 421.224 368.263 420.732 369.014C420.24 369.765 419.964 370.784 419.964 371.846C419.964 372.909 420.24 373.928 420.732 374.679C421.224 375.43 421.891 375.852 422.587 375.852H459.308C460.004 375.852 460.671 375.43 461.163 374.679C461.654 373.928 461.931 372.909 461.931 371.846C461.931 370.784 461.654 369.765 461.163 369.014C460.671 368.263 460.004 367.841 459.308 367.841H422.587Z" fill="#E6E6E6"/>
<path d="M398.98 386.534C404.453 386.534 408.889 379.759 408.889 371.401C408.889 363.044 404.453 356.269 398.98 356.269C393.507 356.269 389.071 363.044 389.071 371.401C389.071 379.759 393.507 386.534 398.98 386.534Z" fill="#F59B00"/>
<path d="M456.638 161.867H319.756C317.087 161.867 314.925 159.515 314.922 156.616V111.18C314.925 108.281 317.087 105.928 319.756 105.928H456.638C459.306 105.928 461.468 108.281 461.471 111.18V156.615C461.469 159.514 459.306 161.864 456.638 161.867ZM319.756 108.027C318.154 108.027 316.857 109.439 316.855 111.178V156.613C316.855 158.352 318.154 159.762 319.756 159.764H456.638C458.239 159.764 459.536 158.352 459.538 156.613V111.18C459.538 109.441 458.239 108.031 456.638 108.029L319.756 108.027Z" fill="#E6E6E6"/>
<path d="M350.705 131.749C349.933 131.751 349.192 132.22 348.646 133.054C348.099 133.889 347.792 135.02 347.791 136.2V167.355C347.792 168.535 348.099 169.667 348.646 170.501C349.192 171.335 349.933 171.805 350.705 171.806H455.041C455.813 171.805 456.554 171.335 457.1 170.501C457.647 169.667 457.954 168.535 457.955 167.355V136.2C457.954 135.02 457.647 133.889 457.1 133.054C456.554 132.22 455.813 131.751 455.041 131.749H350.705Z" fill="#F59B00"/>
<path d="M365.277 162.014C368.818 162.014 371.689 157.631 371.689 152.223C371.689 146.815 368.818 142.431 365.277 142.431C361.736 142.431 358.866 146.815 358.866 152.223C358.866 157.631 361.736 162.014 365.277 162.014Z" fill="white"/>
<path d="M394.498 147.973C393.803 147.973 393.135 148.395 392.644 149.146C392.152 149.897 391.875 150.916 391.875 151.978C391.875 153.041 392.152 154.059 392.644 154.811C393.135 155.562 393.803 155.984 394.498 155.984H431.22C431.915 155.984 432.582 155.562 433.074 154.811C433.566 154.059 433.842 153.041 433.842 151.978C433.842 150.916 433.566 149.897 433.074 149.146C432.582 148.395 431.915 147.973 431.22 147.973H394.498Z" fill="white"/>
<path d="M354.051 55.9391H217.169C214.501 55.9391 212.338 53.5864 212.335 50.6872V5.25192C212.338 2.35269 214.501 0 217.169 0H354.051C356.72 0 358.882 2.35269 358.885 5.25192V50.6863C358.883 53.5855 356.72 55.9355 354.051 55.9391ZM217.169 2.09898C215.568 2.09898 214.271 3.51076 214.269 5.25012V50.6845C214.269 52.4238 215.568 53.8338 217.169 53.8356H354.051C355.652 53.8356 356.95 52.4238 356.952 50.6845V5.25192C356.952 3.51256 355.652 2.10254 354.051 2.10076L217.169 2.09898Z" fill="#E6E6E6"/>
<path d="M248.119 25.8208C247.346 25.8222 246.606 26.2916 246.059 27.1259C245.513 27.9603 245.205 29.0916 245.205 30.2716V61.427C245.205 62.6069 245.513 63.7382 246.059 64.5726C246.606 65.407 247.346 65.8763 248.119 65.8777H352.454C353.227 65.8763 353.968 65.407 354.514 64.5726C355.06 63.7382 355.368 62.6069 355.369 61.427V30.2716C355.368 29.0916 355.06 27.9603 354.514 27.1259C353.968 26.2916 353.227 25.8222 352.454 25.8208H248.119Z" fill="#F59B00"/>
<path d="M262.691 56.0861C266.232 56.0861 269.103 51.7022 269.103 46.2944C269.103 40.8866 266.232 36.5027 262.691 36.5027C259.15 36.5027 256.279 40.8866 256.279 46.2944C256.279 51.7022 259.15 56.0861 262.691 56.0861Z" fill="white"/>
<path d="M291.912 42.0443C291.216 42.0443 290.549 42.4663 290.057 43.2175C289.565 43.9688 289.289 44.9876 289.289 46.05C289.289 47.1124 289.565 48.1312 290.057 48.8825C290.549 49.6337 291.216 50.0557 291.912 50.0557H328.633C329.328 50.0557 329.996 49.6337 330.488 48.8825C330.979 48.1312 331.256 47.1124 331.256 46.05C331.256 44.9876 330.979 43.9688 330.488 43.2175C329.996 42.4663 329.328 42.0443 328.633 42.0443H291.912Z" fill="white"/>
</g>
<defs>
<clipPath id="clip0">
<rect width="480" height="480" fill="white"/>
</clipPath>
</defs>
</svg>
