<svg width="480" height="480" viewBox="0 0 480 480" fill="none" xmlns="http://www.w3.org/2000/svg">
<path d="M313.27 209.588C312.717 214.007 312.053 218.38 311.28 222.708C311.196 223.211 311.102 223.706 311.008 224.208H300.248C299.331 224.21 298.453 224.764 297.805 225.748C297.156 226.732 296.792 228.067 296.791 229.459V276.057C296.465 276.979 296.134 277.895 295.803 278.81C294.095 283.535 292.317 288.209 290.499 292.822C260.867 367.801 219.537 430.545 170.159 475.514L173.083 465.493C172.011 465.38 170.935 465.268 169.863 465.155C146.53 462.732 123.118 460.047 100.332 452.08C76.4955 443.747 53.1773 429.292 34.4958 405.325C15.8093 381.351 2.11074 347.116 0.209462 310.075C-0.424512 297.345 0.423061 284.544 2.71331 272.261C7.09335 248.617 16.6639 227.344 30.4712 214.757C52.16 194.991 80.4512 199.019 103.315 215.462C126.174 231.897 144.782 259.104 162.95 285.838C144.606 238.058 119.067 197.564 88.4264 167.679C78.2734 157.807 67.4982 149.016 58.8661 136.226C50.2389 123.444 43.8734 105.524 45.3995 87.3635C47.1327 66.7651 58.239 51.1326 69.3647 39.0781C73.8092 34.2623 78.3968 29.6941 83.1277 25.4934C96.4757 13.6115 110.915 4.6475 126.164 1.32446C146.821 -3.18377 169.132 3.65734 184.969 24.3007C202.811 47.562 210.129 85.0756 209.433 120.961C220.426 96.6875 237.379 78.107 256.524 77.3193C276.401 76.5092 295.295 95.5848 305.25 121.734C315.201 147.876 316.988 179.921 313.27 209.588Z" fill="#E6E6E6"/>
<path d="M187.513 310.401C199.155 308.844 209.909 307.024 221.19 302.175C232.125 297.475 242.648 289.607 250.432 276.76C258.805 262.941 263.324 244.995 266.513 227.131C268.291 217.171 269.752 207.071 271.13 196.968C272.626 186.007 273.955 174.997 275.117 163.938C277.43 141.926 279.082 119.784 280.071 97.5119C280.191 94.8084 280.301 92.104 280.4 89.3987C280.462 87.7298 278.753 87.7352 278.692 89.3987C277.879 111.352 276.416 133.22 274.304 155.002C272.22 176.403 269.553 197.712 266.17 218.729C263.303 236.534 259.592 254.617 252.241 269.439C245.347 283.339 235.391 292.421 224.64 297.852C213.7 303.378 202.166 305.584 190.734 307.225C189.332 307.426 188.916 307.618 187.513 307.806C186.426 307.951 186.416 310.548 187.513 310.401L187.513 310.401Z" fill="white"/>
<path d="M3.69947 274.176C18.3876 275.413 32.9264 279.305 47.0083 285.768C61.0963 292.219 74.6343 301.17 87.3421 312.437C99.621 323.332 111.02 336.369 121.307 351.282C131.291 365.765 140.19 381.881 147.839 399.337C155.524 416.836 161.892 435.59 166.825 455.246C167.427 457.651 168.006 460.069 168.563 462.5C168.923 464.067 170.575 463.393 170.211 461.81C165.596 441.739 159.512 422.518 152.073 404.51C144.636 386.5 135.908 369.797 126.049 354.708C116.031 339.385 104.882 325.87 92.8239 314.432C67.5049 290.475 38.806 275.982 9.08387 272.144C7.29097 271.916 5.49617 271.728 3.69948 271.58C2.60072 271.489 2.6041 274.085 3.69948 274.176L3.69947 274.176Z" fill="white"/>
<path d="M83.5893 28.5359C92.9807 33.0729 101.882 39.6805 110.01 48.1473C118.314 56.8579 125.888 67.075 132.564 78.5723C139.598 90.6671 145.852 103.76 151.24 117.67C156.955 132.357 161.919 147.688 166.089 163.529C170.384 179.792 173.996 196.451 176.903 213.408C179.859 230.566 182.168 247.966 183.818 265.523C185.46 282.894 186.454 300.392 186.795 317.933C187.138 334.707 186.812 351.497 185.817 368.21C184.908 383.803 183.247 399.273 180.848 414.497C178.717 428.247 175.715 441.651 171.882 454.521C170.995 457.442 170.053 460.323 169.057 463.163C168.54 464.637 170.014 465.949 170.532 464.473C174.767 452.18 178.149 439.251 180.623 425.895C183.398 411.026 185.41 395.854 186.64 380.513C188.004 363.869 188.668 347.11 188.628 330.337C188.604 312.717 187.913 295.113 186.56 277.613C185.207 259.894 183.197 242.306 180.541 224.93C177.891 207.527 174.529 190.391 170.476 173.623C166.569 157.39 161.892 141.609 156.48 126.406C151.326 111.898 145.32 98.127 138.534 85.261C132.09 73.0106 124.733 61.9359 116.61 52.2584C108.777 42.9548 100.122 35.3711 90.8988 29.7303C88.6449 28.3676 86.3598 27.1352 84.0435 26.0332C82.9921 25.5307 82.5423 28.0356 83.5893 28.5359H83.5893Z" fill="white"/>
<path d="M184.94 480C252.441 480 307.161 476.642 307.161 472.499C307.161 468.356 252.441 464.998 184.94 464.998C117.438 464.998 62.7178 468.356 62.7178 472.499C62.7178 476.642 117.438 480 184.94 480Z" fill="#E6E6E6"/>
<path d="M292.924 237.553C292.863 237.957 292.824 238.369 292.806 238.783L271.592 257.372L266.436 252.863L260.939 263.794L271.97 275.737L296.171 246.735C297.158 247.29 298.233 247.375 299.253 246.979C300.272 246.584 301.189 245.726 301.88 244.52C302.571 243.314 303.003 241.817 303.121 240.228C303.238 238.639 303.034 237.034 302.536 235.626C302.038 234.217 301.269 233.072 300.332 232.344C299.396 231.615 298.335 231.337 297.292 231.546C296.248 231.755 295.271 232.442 294.491 233.515C293.711 234.588 293.164 235.996 292.924 237.553V237.553Z" fill="#FFB8B8"/>
<path d="M244.612 248.958L261.315 267.041L268.785 252.813L252.548 233.023C251.85 232.172 251.044 231.546 250.181 231.184C249.317 230.822 248.414 230.732 247.527 230.918C246.64 231.105 245.787 231.565 245.021 232.27C244.255 232.975 243.592 233.91 243.072 235.018V235.018C242.059 237.176 241.653 239.858 241.941 242.472C242.23 245.086 243.19 247.419 244.612 248.958Z" fill="#F59B00"/>
<path d="M210.132 455.292L215.989 457.623L224.695 424.419L216.051 420.978L210.132 455.292Z" fill="#FFB8B8"/>
<path d="M225.858 470.379L207.452 463.053L209.316 452.251L220.61 456.746C222.496 457.497 224.109 459.355 225.093 461.912C226.077 464.468 226.352 467.514 225.858 470.379V470.379V470.379Z" fill="#2F2E41"/>
<path d="M262.192 461.626L268.152 460.009L266.882 424.32L258.086 426.707L262.192 461.626Z" fill="#FFB8B8"/>
<path d="M280.635 465.297L261.904 470.379L260.611 459.386L272.105 456.267C273.056 456.009 274.03 456.038 274.973 456.353C275.916 456.667 276.809 457.26 277.601 458.099C278.393 458.937 279.069 460.004 279.589 461.239C280.11 462.474 280.465 463.853 280.635 465.297V465.297V465.297Z" fill="#2F2E41"/>
<path d="M250.457 199.164C251.925 199.707 253.12 201.98 253.838 204.613C254.5 207.379 254.948 210.253 255.173 213.176C255.737 218.619 256.278 224.512 255.112 229.554C253.746 235.463 250.104 238.557 246.945 237.103C243.786 235.649 241.274 230.189 240.415 223.905C239.634 217.556 240.137 210.995 241.859 205.089C242.757 201.986 243.994 199.123 245.637 197.723C246.444 196.982 247.405 196.733 248.327 197.024C249.25 197.316 250.065 198.128 250.609 199.296" fill="#2F2E41"/>
<path d="M258.766 297.72L270.113 452.091L260.742 457.496L243.458 353.979L219.395 448.628L209.137 449.494C209.137 449.494 223.211 302.221 233.641 298.874L258.766 297.72Z" fill="#2F2E41"/>
<path d="M249.236 218.864C255.935 218.864 261.365 210.616 261.365 200.441C261.365 190.265 255.935 182.017 249.236 182.017C242.537 182.017 237.107 190.265 237.107 200.441C237.107 210.616 242.537 218.864 249.236 218.864Z" fill="#FFB8B8"/>
<path d="M254.442 226.594L241.335 223.997C241.335 223.997 232.787 239.578 233.356 266.413C233.926 293.247 231.932 301.471 231.932 301.471L259.26 302.221C255.31 293.97 271.834 246.579 254.442 226.594Z" fill="#F59B00"/>
<path d="M261.482 305.972C261.209 305.975 260.937 306.01 260.667 306.078L243.899 278.964L245.609 270.308L237.346 264.682L232.217 283.725L256.341 312.875C256.211 314.461 256.403 316.07 256.89 317.488C257.377 318.905 258.136 320.063 259.067 320.809C259.998 321.555 261.056 321.852 262.101 321.662C263.146 321.472 264.129 320.803 264.917 319.744C265.706 318.685 266.263 317.287 266.516 315.735C266.769 314.183 266.704 312.551 266.331 311.056C265.959 309.561 265.295 308.273 264.429 307.365C263.563 306.457 262.535 305.971 261.482 305.972V305.972Z" fill="#FFB8B8"/>
<path d="M243.117 237.143L235.351 265.98L246.178 273.771L255.145 245.232C255.531 244.004 255.748 242.67 255.782 241.31C255.816 239.951 255.668 238.595 255.345 237.326C255.022 236.057 254.533 234.901 253.905 233.93C253.278 232.958 252.527 232.192 251.699 231.676V231.676C250.899 231.179 250.042 230.927 249.178 230.932C248.314 230.938 247.459 231.202 246.663 231.71C245.866 232.217 245.143 232.958 244.534 233.891C243.926 234.823 243.444 235.928 243.117 237.143V237.143Z" fill="#F59B00"/>
<path d="M246.063 217.19C247.964 215.525 248.166 211.508 247.908 208.198C247.65 204.888 247.218 201.199 248.499 198.493C250.028 195.263 253.098 195.199 255.716 195.094C258.334 194.988 261.522 193.824 262.2 189.982C262.648 187.443 261.689 184.719 260.313 183.126C258.937 181.532 257.216 180.828 255.543 180.158C251.8 178.66 247.935 177.15 244.103 177.973C240.307 178.789 236.874 181.841 234.549 186.471C232.224 191.101 231.192 196.936 231.677 202.712C232.297 210.102 233.197 213.329 232.606 216.587C231.506 222.655 226.764 226.554 226.669 232.847C226.595 237.769 229.458 241.566 232.25 244.066C234.465 246.048 236.856 247.73 239.409 248.194C241.961 248.659 244.71 247.77 246.611 245.142C249.064 241.752 249.671 236.089 248.968 231.166C248.264 226.244 246.46 221.873 244.675 217.627" fill="#2F2E41"/>
<path d="M475.556 222.708H300.248C299.069 222.711 297.94 223.423 297.107 224.688C296.274 225.954 295.805 227.669 295.803 229.459V400.487C295.805 402.277 296.274 403.992 297.107 405.258C297.94 406.523 299.069 407.235 300.248 407.238H475.556C476.734 407.235 477.863 406.523 478.696 405.258C479.529 403.992 479.998 402.277 480 400.487V229.459C479.998 227.669 479.529 225.954 478.696 224.688C477.863 223.423 476.734 222.711 475.556 222.708V222.708ZM479.012 400.487C479.011 401.879 478.647 403.214 477.999 404.198C477.351 405.183 476.472 405.736 475.556 405.738H300.248C299.331 405.736 298.453 405.183 297.804 404.198C297.156 403.214 296.792 401.879 296.791 400.487V229.459C296.792 228.067 297.156 226.732 297.804 225.748C298.453 224.764 299.331 224.21 300.248 224.208H475.556C476.472 224.21 477.351 224.764 477.999 225.748C478.647 226.732 479.011 228.067 479.012 229.459V400.487Z" fill="#3F3D56"/>
<path d="M337.667 307.844H310.013C308.9 307.842 307.833 307.169 307.047 305.974C306.26 304.779 305.817 303.158 305.816 301.467V259.461C305.817 257.77 306.26 256.15 307.047 254.954C307.833 253.759 308.9 253.087 310.013 253.085H337.667C338.78 253.087 339.847 253.759 340.634 254.954C341.421 256.15 341.864 257.77 341.865 259.461V301.467C341.864 303.158 341.421 304.779 340.634 305.974C339.847 307.169 338.78 307.842 337.667 307.844V307.844Z" fill="#F59B00"/>
<path d="M466.425 352.483H309.389C308.538 352.483 307.721 351.969 307.119 351.055C306.517 350.14 306.179 348.9 306.179 347.607C306.179 346.314 306.517 345.074 307.119 344.159C307.721 343.245 308.538 342.731 309.389 342.731H466.425C467.277 342.731 468.093 343.245 468.695 344.159C469.297 345.074 469.635 346.314 469.635 347.607C469.635 348.9 469.297 350.14 468.695 351.055C468.093 351.969 467.277 352.483 466.425 352.483V352.483Z" fill="#CCCCCC"/>
<path d="M466.531 328.854H309.494C308.643 328.854 307.827 328.34 307.225 327.426C306.623 326.512 306.284 325.271 306.284 323.978C306.284 322.685 306.623 321.445 307.225 320.531C307.827 319.616 308.643 319.102 309.494 319.102H466.531C467.382 319.102 468.198 319.616 468.8 320.531C469.402 321.445 469.741 322.685 469.741 323.978C469.741 325.271 469.402 326.512 468.8 327.426C468.198 328.34 467.382 328.854 466.531 328.854V328.854Z" fill="#CCCCCC"/>
<path d="M389 296.591H365.79C364.939 296.591 364.123 296.078 363.521 295.163C362.919 294.249 362.581 293.009 362.581 291.716C362.581 290.422 362.919 289.182 363.521 288.268C364.123 287.354 364.939 286.84 365.79 286.84H389C389.852 286.84 390.668 287.354 391.27 288.268C391.872 289.182 392.21 290.422 392.21 291.716C392.21 293.009 391.872 294.249 391.27 295.163C390.668 296.078 389.852 296.591 389 296.591V296.591Z" fill="#CCCCCC"/>
<path d="M466.531 272.595H365.79C364.939 272.595 364.123 272.081 363.521 271.167C362.919 270.252 362.581 269.012 362.581 267.719C362.581 266.426 362.919 265.186 363.521 264.271C364.123 263.357 364.939 262.843 365.79 262.843H466.531C467.382 262.843 468.198 263.357 468.8 264.271C469.402 265.186 469.741 266.426 469.741 267.719C469.741 269.012 469.402 270.252 468.8 271.167C468.198 272.081 467.382 272.595 466.531 272.595V272.595Z" fill="#CCCCCC"/>
<path d="M385.05 376.487H309.389C308.538 376.487 307.721 375.973 307.119 375.059C306.517 374.144 306.179 372.904 306.179 371.611C306.179 370.318 306.517 369.078 307.119 368.163C307.721 367.249 308.538 366.735 309.389 366.735H385.05C385.901 366.735 386.717 367.249 387.319 368.163C387.921 369.078 388.259 370.318 388.259 371.611C388.259 372.904 387.921 374.144 387.319 375.059C386.717 375.973 385.901 376.487 385.05 376.487V376.487Z" fill="#CCCCCC"/>
</svg>
