<svg width="480" height="480" viewBox="0 0 480 480" fill="none" xmlns="http://www.w3.org/2000/svg">
<g clip-path="url(#clip0)">
<path d="M32.2103 480L31.6244 478.466C39.4813 472.449 49.2598 464.961 54.3671 452.673C59.4019 440.559 59.5148 424.11 54.6619 409.744C50.532 397.517 42.9457 386.564 32.7231 378.066C30.7067 376.39 28.59 374.802 26.543 373.265C21.5951 369.552 16.4787 365.713 12.2599 360.265C6.44935 352.762 2.05295 340.171 5.32974 328.956C6.4074 325.376 8.1723 322.296 10.4241 320.065C12.6758 317.834 15.3242 316.542 18.0685 316.335L18.138 318.077C15.6239 318.266 13.1975 319.449 11.1342 321.492C9.07085 323.535 7.45322 326.355 6.46486 329.634C3.41986 340.056 7.59757 351.883 13.0901 358.976C17.1936 364.274 22.2399 368.062 27.12 371.724C29.1786 373.269 31.3075 374.867 33.347 376.562C43.7822 385.236 51.5372 396.449 55.7735 408.991C60.8008 423.873 60.6689 440.951 55.429 453.558C50.1476 466.264 40.2019 473.881 32.2103 480Z" fill="#F1F1F1"/>
<path d="M25.8775 325.531C31.8318 325.531 36.6587 322.211 36.6587 318.116C36.6587 314.021 31.8318 310.701 25.8775 310.701C19.9232 310.701 15.0963 314.021 15.0963 318.116C15.0963 322.211 19.9232 325.531 25.8775 325.531Z" fill="#F1F1F1"/>
<path d="M34.5025 374.382C40.4568 374.382 45.2837 371.062 45.2837 366.967C45.2837 362.872 40.4568 359.552 34.5025 359.552C28.5482 359.552 23.7213 362.872 23.7213 366.967C23.7213 371.062 28.5482 374.382 34.5025 374.382Z" fill="#F1F1F1"/>
<path d="M14.7883 382.233C20.7426 382.233 25.5695 378.913 25.5695 374.818C25.5695 370.723 20.7426 367.403 14.7883 367.403C8.83398 367.403 4.00708 370.723 4.00708 374.818C4.00708 378.913 8.83398 382.233 14.7883 382.233Z" fill="#F1F1F1"/>
<path d="M45.5917 423.233C51.546 423.233 56.3729 419.914 56.3729 415.818C56.3729 411.723 51.546 408.404 45.5917 408.404C39.6374 408.404 34.8105 411.723 34.8105 415.818C34.8105 419.914 39.6374 423.233 45.5917 423.233Z" fill="#F1F1F1"/>
<path d="M67.1541 423.233C73.1084 423.233 77.9353 419.914 77.9353 415.818C77.9353 411.723 73.1084 408.404 67.1541 408.404C61.1998 408.404 56.3729 411.723 56.3729 415.818C56.3729 419.914 61.1998 423.233 67.1541 423.233Z" fill="#F1F1F1"/>
<path d="M464.313 404.768H288.836C284.677 404.762 280.689 402.419 277.748 398.255C274.807 394.09 273.153 388.444 273.148 382.555V22.2133C273.153 16.324 274.807 10.6778 277.748 6.51347C280.689 2.34911 284.677 0.00664729 288.836 0H464.313C468.472 0.0066496 472.459 2.34911 475.4 6.51347C478.341 10.6778 479.995 16.324 480 22.2133V382.555C479.995 388.444 478.341 394.09 475.4 398.255C472.459 402.419 468.472 404.762 464.313 404.768V404.768Z" fill="#E6E6E6"/>
<path d="M464.621 390.596H288.527C287.245 390.594 286.016 389.872 285.109 388.588C284.203 387.304 283.693 385.564 283.691 383.748V21.02C283.693 19.2046 284.203 17.4641 285.109 16.1804C286.016 14.8967 287.245 14.1746 288.527 14.1725H464.621C465.903 14.1746 467.133 14.8967 468.039 16.1804C468.946 17.4641 469.456 19.2046 469.457 21.02V383.748C469.456 385.564 468.946 387.304 468.039 388.588C467.133 389.872 465.903 390.594 464.621 390.596V390.596Z" fill="white"/>
<path d="M375.907 8.6925C376.644 8.6925 377.242 7.84646 377.242 6.80282C377.242 5.75918 376.644 4.91315 375.907 4.91315C375.17 4.91315 374.573 5.75918 374.573 6.80282C374.573 7.84646 375.17 8.6925 375.907 8.6925Z" fill="white"/>
<path d="M447.552 253.024H305.597C305.479 253.024 305.366 252.957 305.282 252.839C305.199 252.721 305.152 252.561 305.152 252.394V156.052C305.152 155.885 305.199 155.725 305.282 155.607C305.366 155.489 305.479 155.423 305.597 155.423C305.714 155.423 305.827 155.489 305.911 155.607C305.994 155.725 306.041 155.885 306.041 156.052V251.765H447.552C447.669 251.766 447.782 251.833 447.865 251.951C447.948 252.068 447.995 252.228 447.995 252.394C447.995 252.561 447.948 252.721 447.865 252.838C447.782 252.956 447.669 253.023 447.552 253.024V253.024Z" fill="#3F3D56"/>
<path d="M335.926 246.104H323.015C322.665 246.103 322.33 245.906 322.083 245.556C321.836 245.206 321.696 244.732 321.696 244.237V219.034C321.696 218.539 321.836 218.065 322.083 217.715C322.33 217.365 322.665 217.168 323.015 217.167H335.926C336.276 217.168 336.611 217.365 336.858 217.715C337.105 218.065 337.245 218.539 337.245 219.034V244.237C337.245 244.732 337.105 245.206 336.858 245.556C336.611 245.906 336.276 246.103 335.926 246.104Z" fill="#F59B00"/>
<path d="M359.472 246.104H346.56C346.211 246.103 345.876 245.906 345.628 245.556C345.381 245.206 345.242 244.732 345.242 244.237V195.13C345.242 194.635 345.381 194.16 345.628 193.81C345.876 193.46 346.211 193.263 346.56 193.263H359.472C359.822 193.263 360.157 193.46 360.404 193.81C360.651 194.16 360.79 194.635 360.791 195.13V244.237C360.79 244.732 360.651 245.206 360.404 245.556C360.157 245.906 359.822 246.103 359.472 246.104V246.104Z" fill="#F59B00"/>
<path d="M383.017 246.104H370.106C369.756 246.103 369.421 245.906 369.174 245.556C368.927 245.206 368.788 244.732 368.787 244.237V219.034C368.788 218.539 368.927 218.065 369.174 217.715C369.421 217.365 369.756 217.168 370.106 217.167H383.017C383.367 217.168 383.702 217.365 383.949 217.715C384.197 218.065 384.336 218.539 384.336 219.034V244.237C384.336 244.732 384.197 245.206 383.949 245.556C383.702 245.906 383.367 246.103 383.017 246.104V246.104Z" fill="#F59B00"/>
<path d="M406.563 246.104H393.652C393.31 246.114 392.979 245.933 392.732 245.598C392.485 245.264 392.341 244.805 392.333 244.321V185.609C392.341 185.126 392.485 184.666 392.732 184.332C392.979 183.998 393.31 183.816 393.652 183.827H406.563C406.905 183.816 407.235 183.998 407.482 184.332C407.73 184.666 407.873 185.126 407.882 185.609V244.321C407.873 244.805 407.73 245.264 407.482 245.598C407.235 245.933 406.905 246.114 406.563 246.104V246.104Z" fill="#F59B00"/>
<path d="M430.108 246.104H417.197C416.847 246.103 416.512 245.906 416.265 245.556C416.018 245.206 415.879 244.732 415.878 244.237V168.709C415.879 168.214 416.018 167.74 416.265 167.39C416.512 167.04 416.847 166.843 417.197 166.842H430.108C430.458 166.843 430.793 167.04 431.04 167.39C431.288 167.74 431.427 168.214 431.427 168.709V244.237C431.427 244.732 431.288 245.206 431.04 245.556C430.793 245.906 430.458 246.103 430.108 246.104V246.104Z" fill="#F59B00"/>
<path d="M329.47 209.618C330.943 209.618 332.136 207.929 332.136 205.844C332.136 203.759 330.943 202.07 329.47 202.07C327.998 202.07 326.805 203.759 326.805 205.844C326.805 207.929 327.998 209.618 329.47 209.618Z" fill="#3F3D56"/>
<path d="M353.016 185.085C354.488 185.085 355.682 183.395 355.682 181.311C355.682 179.226 354.488 177.536 353.016 177.536C351.544 177.536 350.351 179.226 350.351 181.311C350.351 183.395 351.544 185.085 353.016 185.085Z" fill="#3F3D56"/>
<path d="M376.562 209.618C378.034 209.618 379.227 207.929 379.227 205.844C379.227 203.759 378.034 202.07 376.562 202.07C375.09 202.07 373.896 203.759 373.896 205.844C373.896 207.929 375.09 209.618 376.562 209.618Z" fill="#3F3D56"/>
<path d="M400.107 173.133C401.579 173.133 402.773 171.443 402.773 169.358C402.773 167.274 401.579 165.584 400.107 165.584C398.635 165.584 397.442 167.274 397.442 169.358C397.442 171.443 398.635 173.133 400.107 173.133Z" fill="#3F3D56"/>
<path d="M423.653 159.293C425.125 159.293 426.318 157.604 426.318 155.519C426.318 153.435 425.125 151.745 423.653 151.745C422.181 151.745 420.987 153.435 420.987 155.519C420.987 157.604 422.181 159.293 423.653 159.293Z" fill="#3F3D56"/>
<path d="M376.618 206.689L353.016 181.658L329.737 206.347L329.204 205.341L353.016 180.085L376.506 204.999L399.847 168.829L399.941 168.774L423.487 155.341L423.819 156.508L400.367 169.888L376.618 206.689Z" fill="#3F3D56"/>
<path d="M169.189 195.829C168.289 195.828 167.398 196.107 166.582 196.648C165.766 197.188 165.044 197.976 164.467 198.955L136.861 197.733L135.78 191.143L121.494 201.015L123.342 219.063L165.414 211.435C166.188 212.287 167.094 212.864 168.058 213.12C169.022 213.375 170.014 213.302 170.954 212.904C171.893 212.507 172.752 211.798 173.459 210.837C174.166 209.875 174.7 208.688 175.018 207.375C175.335 206.062 175.427 204.66 175.285 203.287C175.143 201.913 174.772 200.607 174.202 199.478C173.632 198.349 172.88 197.429 172.008 196.794C171.136 196.159 170.17 195.828 169.189 195.829H169.189Z" fill="#9F616A"/>
<path d="M118.055 468.524H125.608L129.202 427.272L118.054 427.273L118.055 468.524Z" fill="#9F616A"/>
<path d="M116.129 465.032L131.003 465.031H131.004C133.518 465.031 135.929 466.446 137.706 468.963C139.484 471.48 140.483 474.894 140.483 478.453V478.89L116.129 478.891L116.129 465.032Z" fill="#2F2E41"/>
<path d="M89.5559 460.019L96.812 462.989L108.352 424.771L97.643 420.389L89.5559 460.019Z" fill="#9F616A"/>
<path d="M88.3895 455.907L102.679 461.754L102.68 461.755C105.095 462.743 107.134 465.049 108.348 468.166C109.562 471.283 109.852 474.956 109.155 478.376L109.069 478.795L85.6726 469.221L88.3895 455.907Z" fill="#2F2E41"/>
<path d="M108.78 289.399C108.78 289.399 106.094 300.012 110.332 314.493L113.602 374.133L114.57 458.953H128.339L136.672 372.484L141.677 294.08L108.78 289.399Z" fill="#2F2E41"/>
<path d="M101.036 289.399C101.036 289.399 98.3492 300.012 102.587 314.493L105.857 374.133L89.5753 454.915H103.345L128.928 372.484L133.932 294.08L101.036 289.399Z" fill="#2F2E41"/>
<path d="M141.429 152.606C149.786 152.606 156.56 143.014 156.56 131.18C156.56 119.347 149.786 109.755 141.429 109.755C133.072 109.755 126.298 119.347 126.298 131.18C126.298 143.014 133.072 152.606 141.429 152.606Z" fill="#9F616A"/>
<path d="M143.453 183.298L140.386 163.124L124.773 150.571L121.607 156.847C121.607 156.847 99.2651 165.161 101.967 201.487C104.669 237.814 103.437 255.26 103.437 255.26L97.2762 295.388C97.2762 295.388 99.1726 295.85 142.699 306.617L144.547 219.382L143.453 183.298Z" fill="#CBCBCB"/>
<path opacity="0.1" d="M128.306 379.619L114.127 420.173V431.798L128.306 379.619Z" fill="black"/>
<path d="M125.114 137.957C126.557 143.428 132.016 144.187 133.942 139.022C134.091 138.621 134.213 138.201 134.306 137.767C134.833 135.286 134.502 132.554 135.476 130.182C135.713 129.589 136.053 129.091 136.464 128.736C139.702 126.031 142.89 134.613 145.901 132.212C147.747 130.74 147.353 126.465 148.996 124.57C151.164 122.069 154.297 125.794 157.077 125.368C160.171 124.895 161.635 119.346 160.962 115.044C160.142 109.797 157.243 105.539 153.842 103.157C150.44 100.774 146.575 100.055 142.782 99.9213C138.471 99.7696 133.961 100.417 130.316 103.68C125.884 107.647 123.387 115.032 122.834 122.416C122.498 126.907 123.936 133.49 125.114 137.957Z" fill="#2F2E41"/>
<path d="M199.261 285.023C199.283 285.024 199.306 285.023 199.328 285.021C210.728 284.177 221.473 277.216 229.378 265.553C237.282 253.891 241.753 238.404 241.881 222.24C242.009 206.077 237.785 190.451 230.067 178.541C222.349 166.63 211.716 159.33 200.333 158.124C200.192 158.108 200.05 158.134 199.917 158.199C199.783 158.265 199.661 158.369 199.557 158.504C199.454 158.638 199.371 158.8 199.314 158.981C199.257 159.162 199.227 159.357 199.226 159.555L198.244 283.555C198.242 283.94 198.348 284.311 198.538 284.587C198.729 284.862 198.989 285.019 199.261 285.023V285.023Z" fill="#3F3D56"/>
<path d="M164.046 178.628C164.396 178.634 164.729 178.836 164.974 179.189L195.121 222.845C195.242 223.02 195.338 223.227 195.402 223.454C195.467 223.681 195.499 223.924 195.496 224.169L195.027 283.504C195.025 283.758 194.987 284.01 194.914 284.242C194.84 284.475 194.734 284.683 194.601 284.855C194.467 285.028 194.31 285.161 194.139 285.245C193.968 285.329 193.787 285.363 193.606 285.344C185.224 284.456 177.183 280.275 170.386 273.272C163.59 266.269 158.307 256.721 155.132 245.7C151.957 234.68 151.015 222.624 152.412 210.888C153.81 199.151 157.491 188.199 163.042 179.261C163.162 179.069 163.309 178.913 163.473 178.804C163.637 178.695 163.816 178.636 163.997 178.628C164.013 178.628 164.03 178.628 164.046 178.628Z" fill="#E6E6E6"/>
<path d="M194.701 157.617C195.038 157.623 195.36 157.809 195.603 158.139C195.734 158.315 195.837 158.527 195.907 158.762C195.977 158.997 196.011 159.25 196.008 159.505L195.585 213.04C195.582 213.408 195.502 213.767 195.355 214.072C195.207 214.376 195 214.611 194.758 214.749C194.517 214.886 194.252 214.919 193.997 214.843C193.742 214.767 193.509 214.586 193.327 214.322L167.02 176.227C166.899 176.051 166.804 175.844 166.739 175.616C166.675 175.388 166.643 175.145 166.645 174.9C166.647 174.654 166.683 174.412 166.751 174.187C166.819 173.961 166.918 173.757 167.042 173.585C167.058 173.563 167.074 173.542 167.091 173.521C174.742 163.985 184.441 158.383 194.62 157.619C194.647 157.617 194.674 157.617 194.701 157.617Z" fill="#F59B00"/>
<path d="M153.788 220.254C152.887 220.253 151.997 220.533 151.181 221.073C150.365 221.613 149.642 222.401 149.065 223.381L121.459 222.159L120.379 215.569L106.093 225.44L107.941 243.488L150.012 235.861C150.786 236.712 151.693 237.29 152.656 237.546C153.62 237.801 154.613 237.727 155.552 237.33C156.491 236.933 157.35 236.224 158.057 235.262C158.764 234.301 159.298 233.114 159.616 231.801C159.934 230.487 160.026 229.086 159.884 227.712C159.742 226.339 159.37 225.033 158.8 223.904C158.23 222.775 157.478 221.854 156.606 221.22C155.734 220.585 154.768 220.254 153.788 220.254H153.788Z" fill="#9F616A"/>
<path d="M103.765 232.874L102.998 179.109C102.971 177.227 103.207 175.357 103.694 173.606C104.181 171.855 104.908 170.258 105.833 168.907C106.759 167.556 107.864 166.479 109.085 165.736C110.307 164.994 111.62 164.603 112.949 164.583C114.278 164.564 115.596 164.919 116.828 165.626C118.059 166.333 119.18 167.378 120.124 168.702C121.069 170.026 121.819 171.602 122.33 173.339C122.842 175.076 123.105 176.939 123.105 178.821V218.114L103.765 232.874Z" fill="#CBCBCB"/>
<path d="M235.338 479.79H0.616068C0.452676 479.79 0.295977 479.698 0.180442 479.534C0.0649065 479.371 0 479.149 0 478.918C0 478.686 0.0649065 478.464 0.180442 478.301C0.295977 478.137 0.452676 478.045 0.616068 478.045H235.338C235.501 478.045 235.658 478.137 235.774 478.301C235.889 478.464 235.954 478.686 235.954 478.918C235.954 479.149 235.889 479.371 235.774 479.534C235.658 479.698 235.501 479.79 235.338 479.79Z" fill="#CBCBCB"/>
</g>
<defs>
<clipPath id="clip0">
<rect width="480" height="480" fill="white"/>
</clipPath>
</defs>
</svg>
