<svg width="480" height="480" viewBox="0 0 480 480" fill="none" xmlns="http://www.w3.org/2000/svg">
<path d="M289.631 424.974L272.317 432.551L289.756 415.057C289.381 387.168 283.414 358.249 283.414 358.249C283.414 358.249 246.143 375.863 236.362 406.363C226.58 436.863 234.28 456.998 247.991 468.7C261.702 480.401 276.232 479.238 286.014 448.738C288.191 441.949 289.269 433.698 289.631 424.974Z" fill="#F2F2F2"/>
<path d="M269.007 430.936L268.524 432.44C262.865 449.868 256.686 461.961 250.062 468.536C249.966 468.635 249.868 468.722 249.773 468.821L249.502 468.088L249.248 467.377C256.506 460.366 262.597 446.899 267.535 431.7C267.698 431.213 267.862 430.718 268.017 430.215C270.073 423.751 271.925 417.017 273.571 410.345C273.701 409.831 273.829 409.305 273.957 408.779C276.101 399.954 277.889 391.299 279.322 383.677C279.425 383.14 279.523 382.598 279.619 382.063C282.012 369.147 283.34 359.445 283.624 357.289C283.662 357.027 283.68 356.881 283.685 356.848L284.183 357.017L284.189 357.013L284.692 357.186C284.687 357.22 284.628 357.71 284.503 358.608C284.046 361.972 282.749 371.055 280.609 382.672C280.511 383.195 280.413 383.736 280.31 384.274C279.151 390.461 277.766 397.299 276.149 404.336C275.744 406.105 275.333 407.84 274.915 409.54C274.792 410.07 274.664 410.596 274.534 411.111C272.755 418.323 270.913 424.932 269.007 430.936Z" fill="white"/>
<path d="M280.609 382.672C280.282 382.478 279.951 382.28 279.619 382.063C278.718 381.477 277.836 380.816 276.977 380.083C273.312 376.965 270.122 372.546 267.643 367.15C267.325 367.381 267.006 367.612 266.681 367.846C269.27 373.582 272.628 378.276 276.499 381.572C277.417 382.354 278.359 383.057 279.322 383.678C279.649 383.89 279.981 384.088 280.31 384.274C283.023 385.837 285.865 386.719 288.74 386.89C288.675 386.313 288.613 385.748 288.552 385.194C285.843 384.996 283.166 384.146 280.609 382.672V382.672Z" fill="white"/>
<path d="M274.915 409.54C274.591 409.301 274.272 409.048 273.957 408.779C273.859 408.705 273.758 408.619 273.662 408.537C269.694 405.15 266.286 400.248 263.729 394.248C261.173 388.249 259.544 381.33 258.981 374.081C258.658 374.365 258.334 374.648 258.013 374.943C258.652 382.336 260.361 389.375 263 395.476C265.638 401.577 269.13 406.564 273.185 410.026C273.313 410.135 273.44 410.244 273.571 410.345C273.892 410.61 274.212 410.864 274.534 411.111C279.536 414.861 285.094 416.182 290.544 414.915C290.539 414.351 290.533 413.788 290.524 413.22C285.212 414.497 279.788 413.218 274.915 409.54V409.54Z" fill="white"/>
<path d="M269.007 430.936C268.673 430.708 268.344 430.465 268.017 430.215C267.668 429.945 267.321 429.668 266.979 429.376C261.649 424.815 257.369 417.56 254.778 408.698C252.188 399.836 251.426 389.844 252.608 380.217C252.21 380.645 251.813 381.065 251.424 381.5C250.438 391.27 251.364 401.297 254.07 410.159C256.777 419.021 261.127 426.266 266.502 430.865C266.844 431.157 267.188 431.441 267.535 431.7C267.864 431.961 268.193 432.204 268.524 432.439C275.239 437.122 282.794 437.466 289.658 433.403C289.739 432.771 289.804 432.134 289.871 431.49C283.137 435.738 275.653 435.539 269.007 430.936V430.936Z" fill="white"/>
<path d="M62.2613 427.62L79.5753 435.196L62.136 417.702C62.5111 389.813 68.4784 360.895 68.4784 360.895C68.4784 360.895 105.748 378.508 115.53 409.008C125.312 439.508 117.612 459.643 103.901 471.345C90.1899 483.046 75.6595 481.883 65.8779 451.383C63.7006 444.594 62.6234 436.343 62.2613 427.62Z" fill="#F2F2F2"/>
<path d="M82.8853 433.581L83.3675 435.085C89.0267 452.513 95.2062 464.606 101.83 471.181C101.926 471.28 102.023 471.367 102.119 471.466L102.389 470.733L102.644 470.022C95.3863 463.011 89.2949 449.545 84.3564 434.345C84.1943 433.858 84.0298 433.363 83.8745 432.86C81.8187 426.396 79.9672 419.663 78.3214 412.991C78.1912 412.476 78.0632 411.95 77.9353 411.424C75.7907 402.599 74.0028 393.944 72.5697 386.323C72.4669 385.785 72.3687 385.243 72.2729 384.709C69.8796 371.792 68.5521 362.09 68.2675 359.935C68.23 359.673 68.2123 359.527 68.2073 359.493L67.7094 359.662L67.7025 359.658L67.2 359.831C67.205 359.865 67.2635 360.355 67.3888 361.253C67.8458 364.617 69.1434 373.7 71.2825 385.317C71.3805 385.84 71.4787 386.382 71.5815 386.92C72.7405 393.107 74.1257 399.944 75.7433 406.981C76.1479 408.75 76.559 410.485 76.9765 412.186C77.1 412.715 77.2279 413.241 77.3581 413.756C79.1367 420.969 80.9791 427.577 82.8853 433.581Z" fill="white"/>
<path d="M63.3397 387.839C63.2792 388.393 63.2164 388.959 63.1516 389.535C66.0265 389.365 68.8689 388.483 71.5814 386.92C71.911 386.733 72.2427 386.535 72.5697 386.323C73.5327 385.702 74.475 385 75.3926 384.217C79.2635 380.922 82.6217 376.227 85.2105 370.492C84.8855 370.257 84.5674 370.026 84.2492 369.795C81.7701 375.191 78.5804 379.611 74.9152 382.728C74.0557 383.462 73.1737 384.123 72.2728 384.709C71.9413 384.925 71.6096 385.123 71.2824 385.317C68.7254 386.791 66.049 387.641 63.3397 387.839V387.839Z" fill="white"/>
<path d="M61.3683 415.866C61.3586 416.433 61.3534 416.997 61.3482 417.561C66.7981 418.827 72.3562 417.506 77.3581 413.756C77.68 413.51 77.9996 413.256 78.3214 412.991C78.4515 412.889 78.5792 412.78 78.707 412.671C82.7624 409.21 86.2539 404.222 88.8923 398.121C91.5307 392.02 93.24 384.981 93.8788 377.588C93.5576 377.293 93.2343 377.01 92.911 376.727C92.348 383.975 90.7189 390.894 88.1625 396.894C85.6062 402.893 82.1983 407.796 78.2296 411.183C78.1338 411.264 78.0334 411.35 77.9352 411.424C77.6204 411.693 77.3008 411.947 76.9765 412.186C72.1041 415.864 66.6797 417.143 61.3683 415.866V415.866Z" fill="white"/>
<path d="M62.0208 434.135C62.0879 434.779 62.1526 435.416 62.2334 436.049C69.0981 440.111 76.6527 439.767 83.3675 435.085C83.6988 434.849 84.0277 434.607 84.3564 434.345C84.7035 434.087 85.0481 433.802 85.3903 433.51C90.7651 428.911 95.1149 421.666 97.8216 412.804C100.528 403.943 101.454 393.915 100.468 384.146C100.079 383.71 99.6823 383.29 99.2836 382.863C100.466 392.489 99.7044 402.482 97.1138 411.344C94.5231 420.206 90.2426 427.46 84.9129 432.022C84.5708 432.314 84.2238 432.591 83.8744 432.861C83.5479 433.111 83.219 433.354 82.8853 433.581C76.2392 438.185 68.7551 438.383 62.0208 434.135V434.135Z" fill="white"/>
<path d="M143.436 448.976L153.743 453.487L143.361 443.072C143.585 426.469 147.137 409.253 147.137 409.253C147.137 409.253 169.325 419.739 175.148 437.896C180.971 456.054 176.388 468.041 168.225 475.007C160.062 481.973 151.412 481.281 145.589 463.123C144.293 459.082 143.651 454.17 143.436 448.976Z" fill="#F2F2F2"/>
<path d="M155.714 452.526L156.001 453.421C159.37 463.796 163.049 470.995 166.992 474.91C167.049 474.968 167.107 475.02 167.164 475.079L167.325 474.643L167.477 474.22C163.156 470.046 159.53 462.029 156.59 452.98C156.493 452.69 156.395 452.396 156.303 452.096C155.079 448.248 153.976 444.239 152.997 440.267C152.919 439.961 152.843 439.648 152.767 439.335C151.49 434.081 150.426 428.929 149.573 424.391C149.511 424.071 149.453 423.748 149.396 423.43C147.971 415.741 147.181 409.965 147.011 408.682C146.989 408.526 146.978 408.439 146.976 408.419L146.679 408.519L146.675 408.517L146.376 408.62C146.379 408.64 146.414 408.932 146.488 409.467C146.76 411.469 147.533 416.877 148.806 423.792C148.865 424.104 148.923 424.426 148.984 424.747C149.674 428.43 150.499 432.5 151.462 436.69C151.703 437.743 151.947 438.776 152.196 439.788C152.27 440.103 152.346 440.417 152.423 440.723C153.482 445.017 154.579 448.951 155.714 452.526Z" fill="white"/>
<path d="M144.078 425.294C144.042 425.624 144.004 425.96 143.966 426.304C145.677 426.202 147.369 425.677 148.984 424.747C149.18 424.636 149.378 424.518 149.573 424.391C150.146 424.022 150.707 423.603 151.253 423.138C153.558 421.176 155.557 418.381 157.098 414.966C156.905 414.827 156.715 414.689 156.526 414.552C155.05 417.764 153.151 420.395 150.969 422.251C150.457 422.688 149.932 423.081 149.396 423.43C149.199 423.559 149.001 423.677 148.806 423.792C147.284 424.67 145.691 425.176 144.078 425.294V425.294Z" fill="white"/>
<path d="M142.904 441.979C142.898 442.317 142.895 442.652 142.892 442.988C146.137 443.742 149.446 442.956 152.423 440.723C152.615 440.576 152.805 440.425 152.997 440.267C153.074 440.207 153.15 440.142 153.226 440.077C155.641 438.016 157.719 435.047 159.29 431.415C160.861 427.783 161.878 423.593 162.258 419.191C162.067 419.016 161.875 418.847 161.682 418.678C161.347 422.994 160.377 427.113 158.855 430.684C157.334 434.256 155.305 437.175 152.942 439.191C152.885 439.24 152.825 439.291 152.767 439.335C152.579 439.495 152.389 439.646 152.196 439.788C149.295 441.978 146.066 442.739 142.904 441.979V441.979Z" fill="white"/>
<path d="M143.293 452.855C143.333 453.239 143.371 453.618 143.419 453.994C147.506 456.413 152.003 456.208 156.001 453.421C156.198 453.281 156.394 453.136 156.59 452.98C156.796 452.826 157.001 452.657 157.205 452.483C160.405 449.745 162.994 445.432 164.606 440.157C166.217 434.881 166.768 428.911 166.181 423.095C165.949 422.836 165.713 422.586 165.476 422.331C166.18 428.062 165.727 434.011 164.184 439.287C162.642 444.563 160.094 448.882 156.921 451.597C156.717 451.771 156.511 451.936 156.303 452.096C156.108 452.245 155.912 452.39 155.714 452.526C151.757 455.266 147.302 455.384 143.293 452.855V452.855Z" fill="white"/>
<path d="M349.317 296.326L349.273 296.32C341.075 294.112 331.967 294.113 321.431 296.323H321.426C321.163 296.328 320.903 296.248 320.659 296.088C320.415 295.928 320.193 295.69 320.005 295.39C319.818 295.089 319.669 294.731 319.567 294.335C319.465 293.94 319.412 293.516 319.411 293.087V277.521C319.411 276.662 319.621 275.839 319.993 275.232C320.365 274.624 320.87 274.283 321.396 274.282C330.675 272.308 340.072 272.309 349.35 274.285H349.354C349.874 274.298 350.371 274.645 350.735 275.25C351.1 275.856 351.304 276.672 351.302 277.521V293.087C351.302 293.946 351.092 294.769 350.72 295.376C350.348 295.984 349.843 296.325 349.317 296.326V296.326Z" fill="white"/>
<path d="M349.317 296.326L349.273 296.32C341.075 294.112 331.967 294.113 321.431 296.323H321.426C321.163 296.328 320.903 296.248 320.659 296.088C320.415 295.928 320.193 295.69 320.005 295.39C319.818 295.089 319.669 294.731 319.567 294.335C319.465 293.94 319.412 293.516 319.411 293.087V277.521C319.411 276.662 319.621 275.839 319.993 275.232C320.365 274.624 320.87 274.283 321.396 274.282C330.675 272.308 340.072 272.309 349.35 274.285H349.354C349.874 274.298 350.371 274.645 350.735 275.25C351.1 275.856 351.304 276.672 351.302 277.521V293.087C351.302 293.946 351.092 294.769 350.72 295.376C350.348 295.984 349.843 296.325 349.317 296.326V296.326ZM335.002 273.686C330.464 273.673 325.93 274.165 321.433 275.159C321.24 275.154 321.049 275.212 320.87 275.328C320.691 275.444 320.528 275.617 320.39 275.836C320.253 276.056 320.143 276.318 320.067 276.607C319.992 276.896 319.953 277.207 319.951 277.521V293.087C319.951 293.712 320.104 294.311 320.375 294.753C320.646 295.195 321.013 295.444 321.396 295.444C331.942 293.229 341.093 293.228 349.338 295.444C349.717 295.434 350.079 295.182 350.346 294.741C350.612 294.3 350.761 293.706 350.762 293.087V277.521C350.761 276.896 350.609 276.297 350.338 275.855C350.067 275.413 349.7 275.164 349.317 275.164C344.568 274.192 339.788 273.699 335.002 273.686V273.686Z" fill="#F59B00"/>
<path d="M335.356 290.733C337.446 290.733 339.14 287.97 339.14 284.561C339.14 281.152 337.446 278.389 335.356 278.389C333.267 278.389 331.573 281.152 331.573 284.561C331.573 287.97 333.267 290.733 335.356 290.733Z" fill="#F59B00"/>
<path d="M325.627 281.336H322.383C322.168 281.336 321.962 281.196 321.81 280.948C321.658 280.7 321.573 280.364 321.573 280.013V278.25C321.573 277.899 321.658 277.563 321.81 277.315C321.962 277.067 322.168 276.928 322.383 276.927H325.627C325.842 276.928 326.048 277.067 326.2 277.315C326.352 277.563 326.437 277.899 326.438 278.25V280.013C326.437 280.364 326.352 280.7 326.2 280.948C326.048 281.196 325.842 281.336 325.627 281.336V281.336Z" fill="#F59B00"/>
<path d="M348.329 293.681H345.086C344.871 293.68 344.665 293.541 344.513 293.293C344.361 293.045 344.276 292.709 344.275 292.358V290.595C344.276 290.244 344.361 289.908 344.513 289.66C344.665 289.412 344.871 289.272 345.086 289.272H348.329C348.544 289.272 348.751 289.412 348.903 289.66C349.055 289.908 349.14 290.244 349.14 290.595V292.358C349.14 292.709 349.055 293.045 348.903 293.293C348.751 293.541 348.544 293.68 348.329 293.681V293.681Z" fill="#F59B00"/>
<path d="M344.702 289.888L344.663 289.855C337.637 282.619 329.246 276.843 319.012 272.194L319.008 272.192C318.765 272.03 318.543 271.79 318.357 271.488C318.17 271.186 318.022 270.826 317.921 270.431C317.82 270.035 317.769 269.61 317.769 269.181C317.769 268.752 317.821 268.328 317.922 267.932L321.633 253.591C321.838 252.8 322.228 252.175 322.715 251.851C323.203 251.528 323.749 251.533 324.235 251.866C333.253 255.935 341.91 261.897 349.987 269.603L349.991 269.606C350.467 269.947 350.842 270.582 351.034 271.371C351.225 272.161 351.218 273.041 351.015 273.823L347.304 288.164C347.098 288.954 346.709 289.58 346.222 289.903C345.734 290.227 345.187 290.221 344.702 289.888V289.888Z" fill="white"/>
<path d="M344.702 289.888L344.663 289.855C337.637 282.619 329.246 276.843 319.012 272.194L319.008 272.192C318.765 272.03 318.543 271.79 318.357 271.488C318.17 271.186 318.022 270.826 317.921 270.431C317.82 270.035 317.769 269.61 317.769 269.181C317.769 268.752 317.821 268.328 317.922 267.932L321.633 253.591C321.838 252.8 322.228 252.175 322.715 251.851C323.203 251.528 323.749 251.533 324.235 251.866C333.253 255.935 341.91 261.897 349.987 269.603L349.991 269.606C350.467 269.947 350.842 270.582 351.034 271.371C351.225 272.161 351.218 273.041 351.015 273.823L347.304 288.164C347.098 288.954 346.709 289.58 346.222 289.903C345.734 290.227 345.187 290.221 344.702 289.888V289.888ZM336.911 259.949C332.734 257.058 328.44 254.635 324.059 252.698C323.883 252.571 323.693 252.503 323.501 252.496C323.308 252.49 323.117 252.546 322.937 252.661C322.758 252.776 322.595 252.947 322.456 253.166C322.318 253.384 322.207 253.645 322.131 253.934L318.42 268.275C318.272 268.851 318.269 269.499 318.413 270.078C318.558 270.657 318.837 271.119 319.19 271.363C329.433 276.012 337.864 281.817 344.932 289.089C345.284 289.32 345.678 289.317 346.028 289.08C346.378 288.843 346.658 288.391 346.806 287.821L350.517 273.48C350.665 272.904 350.668 272.255 350.523 271.676C350.379 271.097 350.1 270.635 349.747 270.391C345.604 266.484 341.317 262.997 336.911 259.949V259.949Z" fill="#F59B00"/>
<path d="M334.646 276.365C336.735 276.365 338.429 273.602 338.429 270.193C338.429 266.784 336.735 264.02 334.646 264.02C332.556 264.02 330.862 266.784 330.862 270.193C330.862 273.602 332.556 276.365 334.646 276.365Z" fill="#F59B00"/>
<path d="M326.45 261.049L323.462 258.992C323.265 258.855 323.108 258.596 323.027 258.271C322.946 257.946 322.947 257.582 323.031 257.259L323.451 255.634C323.535 255.311 323.694 255.056 323.893 254.924C324.092 254.792 324.315 254.794 324.514 254.93L327.502 256.987C327.699 257.124 327.856 257.383 327.937 257.708C328.018 258.033 328.017 258.397 327.933 258.72L327.513 260.345C327.429 260.668 327.27 260.923 327.071 261.055C326.872 261.187 326.649 261.185 326.45 261.049V261.049Z" fill="#F59B00"/>
<path d="M344.423 286.825L341.435 284.767C341.237 284.63 341.081 284.371 341 284.046C340.919 283.721 340.92 283.357 341.004 283.034L341.424 281.409C341.508 281.086 341.667 280.831 341.866 280.699C342.065 280.567 342.288 280.569 342.486 280.705L345.474 282.763C345.672 282.899 345.829 283.159 345.91 283.484C345.991 283.808 345.989 284.172 345.906 284.496L345.485 286.12C345.402 286.443 345.243 286.699 345.044 286.831C344.844 286.963 344.621 286.961 344.423 286.825Z" fill="#F59B00"/>
<path d="M352.148 281.366C352.829 280.698 353.412 279.794 353.856 278.718C354.299 277.643 354.593 276.422 354.716 275.141C354.839 273.86 354.788 272.551 354.567 271.306C354.346 270.061 353.961 268.91 353.438 267.934L363.01 240.565L352.993 241.62L345.439 267.448C344.492 268.99 343.925 271.045 343.845 273.224C343.765 275.402 344.177 277.553 345.004 279.269C345.831 280.984 347.015 282.145 348.332 282.532C349.649 282.918 351.007 282.504 352.148 281.366V281.366Z" fill="#FFB6B6"/>
<path d="M425.836 467.943H419.209L416.056 426.246L425.837 426.247L425.836 467.943Z" fill="#FFB6B6"/>
<path d="M427.526 478.423L406.158 478.421V477.98C406.158 474.382 407.034 470.932 408.594 468.387C410.154 465.843 412.269 464.414 414.475 464.413H414.475L427.526 464.414L427.526 478.423Z" fill="#2F2E41"/>
<path d="M380.43 467.943H373.803L370.651 426.246L380.431 426.247L380.43 467.943Z" fill="#FFB6B6"/>
<path d="M382.12 478.423L360.752 478.421V477.98C360.752 474.382 361.629 470.932 363.189 468.387C364.748 465.843 366.864 464.414 369.069 464.413H369.07L382.121 464.414L382.12 478.423Z" fill="#2F2E41"/>
<path d="M363.39 241.741C363.39 241.741 361.567 284.085 365.157 305.41C368.747 326.736 369.388 455.701 369.388 455.701H381.421L391.851 280.152L415.895 456.32L427.357 455.034L421.071 247.444L363.39 241.741Z" fill="#2F2E41"/>
<path d="M416.099 99.0013L406.899 88.0505L391.485 93.5259L387.312 109.7L380.122 115.515C377.758 117.427 375.714 120.247 374.165 123.732C372.617 127.218 371.61 131.264 371.232 135.524L360.96 251.235L421.071 247.445L428.349 111.173C428.425 109.749 428.325 108.315 428.055 106.956C427.785 105.596 427.351 104.339 426.778 103.258C426.205 102.177 425.505 101.295 424.72 100.663C423.934 100.031 423.079 99.6631 422.204 99.5802L416.099 99.0013Z" fill="#E4E4E4"/>
<path d="M376.318 124.553L370.766 136.762L346.585 257.076L357.92 264.479L376.07 208.415L376.318 124.553Z" fill="#E4E4E4"/>
<path d="M396.195 80.9754C406.356 80.9754 414.593 67.538 414.593 50.9622C414.593 34.3864 406.356 20.9491 396.195 20.9491C386.034 20.9491 377.796 34.3864 377.796 50.9622C377.796 67.538 386.034 80.9754 396.195 80.9754Z" fill="#2F2E41"/>
<path d="M396.444 82.3333C403.858 82.3333 409.869 72.5277 409.869 60.4319C409.869 48.336 403.858 38.5304 396.444 38.5304C389.029 38.5304 383.018 48.336 383.018 60.4319C383.018 72.5277 389.029 82.3333 396.444 82.3333Z" fill="#FFB9B9"/>
<path d="M406.637 57.5928C398.088 52.5626 395.195 49.4724 385.753 57.5928L382.272 34.8801H410.118L406.637 57.5928Z" fill="#2F2E41"/>
<path d="M394.703 38.1248C400.47 38.1248 405.146 30.4982 405.146 21.0903C405.146 11.6824 400.47 4.05579 394.703 4.05579C388.936 4.05579 384.261 11.6824 384.261 21.0903C384.261 30.4982 388.936 38.1248 394.703 38.1248Z" fill="#2F2E41"/>
<path d="M382.272 17.0345C382.273 12.6598 383.307 8.45389 385.159 5.28964C387.01 2.12538 389.538 0.245787 392.217 0.040943C392.051 0.0281572 391.888 0 391.72 0C388.95 0 386.294 1.7947 384.336 4.98928C382.377 8.18387 381.277 12.5166 381.277 17.0345C381.277 21.5523 382.377 25.8851 384.336 29.0797C386.294 32.2743 388.95 34.069 391.72 34.069C391.888 34.069 392.051 34.0408 392.217 34.028C389.538 33.8232 387.01 31.9436 385.159 28.7793C383.307 25.6151 382.273 21.4092 382.272 17.0345V17.0345Z" fill="#2F2E41"/>
<path opacity="0.1" d="M420.588 131.482L416.842 192.4L403.612 234.932L420.588 131.482Z" fill="black"/>
<path d="M24.5946 318.97H21.3514V323.379H24.5946V318.97Z" fill="#F0F0F0"/>
<path d="M331.367 323.379H324.976V318.97H331.367V323.379ZM318.585 323.379H312.194V318.97H318.585V323.379ZM305.803 323.379H299.412V318.97H305.803V323.379ZM293.021 323.379H286.63V318.97H293.021V323.379ZM280.239 323.379H273.848V318.97H280.239V323.379ZM267.456 323.379H261.065V318.97H267.456L267.456 323.379ZM254.674 323.379H248.283V318.97H254.674V323.379ZM241.892 323.379H235.501V318.97H241.892V323.379ZM229.11 323.379H222.719V318.97H229.11V323.379ZM216.328 323.379H209.936V318.97H216.328L216.328 323.379ZM203.545 323.379H197.154V318.97H203.545L203.545 323.379ZM190.763 323.379H184.372V318.97H190.763L190.763 323.379ZM177.981 323.379H171.59V318.97H177.981L177.981 323.379ZM165.199 323.379H158.808V318.97H165.199L165.199 323.379ZM152.417 323.379H146.026V318.97H152.417L152.417 323.379ZM139.634 323.379H133.243V318.97H139.634L139.634 323.379ZM126.852 323.379H120.461V318.97H126.852L126.852 323.379ZM114.07 323.379H107.679V318.97H114.07L114.07 323.379ZM101.288 323.379H94.8968V318.97H101.288L101.288 323.379ZM88.5055 323.379H82.1146V318.97H88.5056L88.5055 323.379ZM75.7233 323.379H69.3325V318.97H75.7234L75.7233 323.379ZM62.9411 323.379H56.5501V318.97H62.9413L62.9411 323.379ZM50.159 323.379H43.768V318.97H50.1592L50.159 323.379ZM37.3768 323.379H30.9858V318.97H37.377L37.3768 323.379Z" fill="#F0F0F0"/>
<path d="M24.5946 206.985H21.3514V211.394H24.5946V206.985Z" fill="#F0F0F0"/>
<path d="M331.367 211.394H324.976V206.985H331.367V211.394ZM318.585 211.394H312.194V206.985H318.585V211.394ZM305.803 211.394H299.412V206.985H305.803V211.394ZM293.021 211.394H286.63V206.985H293.021V211.394ZM280.239 211.394H273.848V206.985H280.239V211.394ZM267.456 211.394H261.065V206.985H267.456L267.456 211.394ZM254.674 211.394H248.283V206.985H254.674V211.394ZM241.892 211.394H235.501V206.985H241.892V211.394ZM229.11 211.394H222.719V206.985H229.11V211.394ZM216.328 211.394H209.936V206.985H216.328L216.328 211.394ZM203.545 211.394H197.154V206.985H203.545L203.545 211.394ZM190.763 211.394H184.372V206.985H190.763L190.763 211.394ZM177.981 211.394H171.59V206.985H177.981L177.981 211.394ZM165.199 211.394H158.808V206.985H165.199L165.199 211.394ZM152.417 211.394H146.026V206.985H152.417L152.417 211.394ZM139.634 211.394H133.243V206.985H139.634L139.634 211.394ZM126.852 211.394H120.461V206.985H126.852L126.852 211.394ZM114.07 211.394H107.679V206.985H114.07L114.07 211.394ZM101.288 211.394H94.8968V206.985H101.288L101.288 211.394ZM88.5055 211.394H82.1146V206.985H88.5056L88.5055 211.394ZM75.7233 211.394H69.3325V206.985H75.7234L75.7233 211.394ZM62.9411 211.394H56.5501V206.985H62.9413L62.9411 211.394ZM50.159 211.394H43.768V206.985H50.1592L50.159 211.394ZM37.3768 211.394H30.9858V206.985H37.377L37.3768 211.394Z" fill="#F0F0F0"/>
<path d="M24.5946 94.9995H21.3514V99.4084H24.5946V94.9995Z" fill="#F0F0F0"/>
<path d="M331.367 99.4084H324.976V94.9995H331.367V99.4084ZM318.585 99.4084H312.194V94.9995H318.585V99.4084ZM305.803 99.4084H299.412V94.9995H305.803V99.4084ZM293.021 99.4084H286.63V94.9995H293.021V99.4084ZM280.239 99.4084H273.848V94.9995H280.239V99.4084ZM267.456 99.4084H261.065V94.9995H267.456L267.456 99.4084ZM254.674 99.4084H248.283V94.9995H254.674V99.4084ZM241.892 99.4084H235.501V94.9995H241.892V99.4084ZM229.11 99.4084H222.719V94.9995H229.11V99.4084ZM216.328 99.4084H209.936V94.9995H216.328L216.328 99.4084ZM203.545 99.4084H197.154V94.9995H203.545L203.545 99.4084ZM190.763 99.4084H184.372V94.9995H190.763L190.763 99.4084ZM177.981 99.4084H171.59V94.9995H177.981L177.981 99.4084ZM165.199 99.4084H158.808V94.9995H165.199L165.199 99.4084ZM152.417 99.4084H146.026V94.9995H152.417L152.417 99.4084ZM139.634 99.4084H133.243V94.9995H139.634L139.634 99.4084ZM126.852 99.4084H120.461V94.9995H126.852L126.852 99.4084ZM114.07 99.4084H107.679V94.9995H114.07L114.07 99.4084ZM101.288 99.4084H94.8968V94.9995H101.288L101.288 99.4084ZM88.5055 99.4084H82.1146V94.9995H88.5056L88.5055 99.4084ZM75.7233 99.4084H69.3325V94.9995H75.7234L75.7233 99.4084ZM62.9411 99.4084H56.5501V94.9995H62.9413L62.9411 99.4084ZM50.159 99.4084H43.768V94.9995H50.1592L50.159 99.4084ZM37.3768 99.4084H30.9858V94.9995H37.377L37.3768 99.4084Z" fill="#F0F0F0"/>
<path d="M127.027 320.293H100.541V479.012H127.027V320.293Z" fill="#3F3D56"/>
<path d="M131.892 320.293H105.405V479.012H131.892V320.293Z" fill="#F59B00"/>
<path d="M189.73 208.307H163.243V479.012H189.73V208.307Z" fill="#3F3D56"/>
<path d="M194.595 208.307H168.108V479.012H194.595V208.307Z" fill="#F59B00"/>
<path d="M252.432 96.3221H225.946V479.012H252.432V96.3221Z" fill="#3F3D56"/>
<path d="M257.297 96.3221H230.811V479.012H257.297V96.3221Z" fill="#F59B00"/>
<path d="M21.6216 107.785C25.204 107.785 28.1081 103.048 28.1081 97.2038C28.1081 91.36 25.204 86.6226 21.6216 86.6226C18.0392 86.6226 15.1351 91.36 15.1351 97.2038C15.1351 103.048 18.0392 107.785 21.6216 107.785Z" fill="#F0F0F0"/>
<path d="M21.6216 219.77C25.204 219.77 28.1081 215.033 28.1081 209.189C28.1081 203.345 25.204 198.608 21.6216 198.608C18.0392 198.608 15.1351 203.345 15.1351 209.189C15.1351 215.033 18.0392 219.77 21.6216 219.77Z" fill="#F0F0F0"/>
<path d="M21.6216 331.756C25.204 331.756 28.1081 327.018 28.1081 321.175C28.1081 315.331 25.204 310.593 21.6216 310.593C18.0392 310.593 15.1351 315.331 15.1351 321.175C15.1351 327.018 18.0392 331.756 21.6216 331.756Z" fill="#F0F0F0"/>
<path d="M480 478.024H0V480H480V478.024Z" fill="#3F3D56"/>
<path d="M404.993 276.927L404.948 276.921C396.75 274.713 387.643 274.714 377.106 276.924H377.102C376.839 276.929 376.578 276.849 376.334 276.689C376.091 276.529 375.869 276.291 375.681 275.991C375.494 275.69 375.345 275.331 375.243 274.936C375.14 274.541 375.087 274.117 375.086 273.688V258.122C375.087 257.263 375.296 256.44 375.668 255.833C376.041 255.225 376.545 254.884 377.072 254.883C386.351 252.909 395.747 252.91 405.026 254.886H405.029C405.55 254.899 406.046 255.245 406.411 255.851C406.776 256.457 406.98 257.273 406.978 258.122V273.688C406.978 274.547 406.768 275.37 406.396 275.977C406.024 276.585 405.519 276.926 404.993 276.927Z" fill="white"/>
<path d="M404.993 276.927L404.948 276.921C396.75 274.713 387.643 274.714 377.106 276.924H377.102C376.839 276.929 376.578 276.849 376.334 276.689C376.091 276.529 375.869 276.291 375.681 275.991C375.494 275.69 375.345 275.331 375.243 274.936C375.14 274.541 375.087 274.117 375.086 273.688V258.122C375.087 257.263 375.296 256.44 375.668 255.833C376.041 255.225 376.545 254.884 377.072 254.883C386.351 252.909 395.747 252.91 405.026 254.886H405.029C405.55 254.899 406.046 255.245 406.411 255.851C406.776 256.457 406.98 257.273 406.978 258.122V273.688C406.978 274.547 406.768 275.37 406.396 275.977C406.024 276.585 405.519 276.926 404.993 276.927ZM390.678 254.287C386.139 254.274 381.606 254.766 377.109 255.76C376.916 255.755 376.725 255.813 376.546 255.929C376.367 256.045 376.204 256.218 376.066 256.437C375.928 256.657 375.819 256.919 375.743 257.208C375.668 257.497 375.628 257.808 375.627 258.122V273.688C375.627 274.313 375.78 274.912 376.05 275.354C376.321 275.796 376.689 276.045 377.072 276.045C387.617 273.83 396.769 273.829 405.014 276.045C405.393 276.035 405.755 275.783 406.021 275.342C406.288 274.901 406.437 274.307 406.438 273.688V258.122C406.437 257.497 406.285 256.898 406.014 256.456C405.743 256.014 405.376 255.765 404.993 255.765C400.244 254.793 395.463 254.3 390.678 254.287V254.287Z" fill="#F59B00"/>
<path d="M391.032 271.334C393.122 271.334 394.816 268.571 394.816 265.162C394.816 261.753 393.122 258.99 391.032 258.99C388.942 258.99 387.248 261.753 387.248 265.162C387.248 268.571 388.942 271.334 391.032 271.334Z" fill="#F59B00"/>
<path d="M381.302 261.937H378.059C377.844 261.937 377.638 261.797 377.486 261.549C377.334 261.301 377.249 260.965 377.248 260.614V258.851C377.249 258.5 377.334 258.164 377.486 257.916C377.638 257.668 377.844 257.528 378.059 257.528H381.302C381.517 257.528 381.723 257.668 381.875 257.916C382.027 258.164 382.113 258.5 382.113 258.851V260.614C382.113 260.965 382.027 261.301 381.875 261.549C381.723 261.797 381.517 261.937 381.302 261.937V261.937Z" fill="#F59B00"/>
<path d="M404.005 274.282H400.762C400.547 274.281 400.341 274.142 400.189 273.894C400.037 273.646 399.951 273.31 399.951 272.959V271.196C399.951 270.845 400.037 270.509 400.189 270.261C400.341 270.013 400.547 269.873 400.762 269.873H404.005C404.22 269.873 404.426 270.013 404.578 270.261C404.73 270.509 404.816 270.845 404.816 271.196V272.959C404.816 273.31 404.73 273.646 404.578 273.894C404.426 274.142 404.22 274.281 404.005 274.282V274.282Z" fill="#F59B00"/>
<path d="M398.916 256.523C398.86 255.229 398.979 253.932 399.264 252.722C399.549 251.512 399.993 250.419 400.565 249.519C401.137 248.619 401.823 247.935 402.575 247.515C403.326 247.094 404.126 246.948 404.916 247.086L413.152 218.584L418.376 232.566L409.753 257.488C409.523 259.638 408.818 261.576 407.771 262.934C406.724 264.293 405.407 264.977 404.071 264.858C402.736 264.739 401.473 263.825 400.523 262.288C399.572 260.752 399 258.701 398.916 256.523V256.523Z" fill="#FFB6B6"/>
<path d="M421.309 107.435L424.701 100.218C424.701 100.218 432.966 97.4722 434.37 115.991L433.486 198.318L415.375 244.82L403.612 239.921L418.991 184.68L421.309 107.435Z" fill="#E4E4E4"/>
</svg>
