<svg width="480" height="480" viewBox="0 0 480 480" fill="none" xmlns="http://www.w3.org/2000/svg">
<g clip-path="url(#clip0)">
<path d="M93.8515 478.084C98.6728 473.504 101.601 466.27 100.833 459.228C100.065 452.185 95.3085 445.711 89.1383 444.215C82.9681 442.72 75.9344 446.86 74.0603 453.635C73.0289 440.572 71.8404 426.962 65.6622 415.839C60.0679 405.766 50.3786 398.559 39.8775 397.269C29.3765 395.98 18.3202 400.85 11.7711 410.167C5.22197 419.484 3.61844 433.028 8.20527 443.725C11.5842 451.604 17.8095 457.469 24.332 462.239C45.141 477.46 70.9546 482.602 95.5166 478.539L93.8515 478.084Z" fill="#F2F2F2"/>
<path d="M22.1554 401.12C30.82 409.053 38.769 417.926 45.8872 427.61C53.0065 437.283 59.2743 447.711 64.6025 458.745C67.5808 464.935 70.2562 471.303 72.6169 477.82C73.0982 479.146 71.1829 479.723 70.707 478.412C66.5257 466.922 61.3526 455.919 55.2619 445.563C49.2009 435.245 42.2636 425.611 34.5477 416.799C30.1835 411.817 25.579 407.108 20.7549 402.694C19.7661 401.789 21.1747 400.222 22.1554 401.12H22.1554Z" fill="white"/>
<path d="M439.003 198.602H373.05C372.055 198.6 371.101 198.156 370.398 197.365C369.694 196.574 369.298 195.501 369.297 194.383V185.488C369.298 184.37 369.694 183.297 370.398 182.506C371.101 181.716 372.055 181.271 373.05 181.269H439.003C439.998 181.271 440.952 181.716 441.656 182.506C442.359 183.297 442.755 184.37 442.756 185.488V194.383C442.755 195.501 442.359 196.574 441.656 197.365C440.952 198.156 439.998 198.6 439.003 198.602V198.602Z" fill="#F59B00"/>
<path d="M430.103 185.001L401.996 156.513C401.391 155.899 400.613 155.544 399.798 155.508C398.983 155.473 398.183 155.761 397.537 156.321L336.025 179.151C335.148 179.477 334.422 180.182 334.007 181.109C333.591 182.037 333.52 183.112 333.809 184.099L336.29 192.545C336.432 193.034 336.66 193.487 336.958 193.877C337.257 194.267 337.621 194.587 338.03 194.819C338.439 195.05 338.885 195.188 339.342 195.226C339.798 195.263 340.257 195.199 340.692 195.037L397.117 174.094L420.137 197.426C420.775 198.076 421.605 198.435 422.466 198.434C422.528 198.434 422.589 198.432 422.651 198.428C423.108 198.403 423.556 198.276 423.97 198.055C424.383 197.834 424.753 197.523 425.059 197.14L430.358 190.533C430.976 189.761 431.296 188.745 431.248 187.708C431.201 186.671 430.789 185.697 430.103 185.001V185.001Z" fill="#F59B00"/>
<path d="M118.865 398.024C118.012 398.025 117.194 398.406 116.591 399.084C115.988 399.762 115.649 400.681 115.648 401.64V475.777C115.649 476.735 115.988 477.654 116.591 478.332C117.194 479.01 118.012 479.392 118.865 479.393H126.778C127.631 479.392 128.449 479.01 129.052 478.332C129.655 477.654 129.994 476.735 129.995 475.777V401.64C129.994 400.681 129.655 399.762 129.052 399.084C128.449 398.406 127.631 398.025 126.778 398.024H118.865Z" fill="#F59B00"/>
<path d="M143.502 479.995H135.588C134.593 479.994 133.639 479.549 132.936 478.758C132.232 477.967 131.836 476.895 131.835 475.777V401.64C131.836 400.522 132.232 399.449 132.936 398.658C133.639 397.868 134.593 397.423 135.588 397.421H143.502C144.497 397.423 145.45 397.868 146.154 398.658C146.858 399.449 147.253 400.522 147.255 401.64V475.777C147.253 476.895 146.858 477.967 146.154 478.758C145.45 479.549 144.497 479.994 143.502 479.995V479.995Z" fill="#F59B00"/>
<path d="M156.457 407.388C156.457 407.388 159.447 437.608 129.265 436.581C99.0826 435.555 110.825 405.861 110.825 405.861C110.825 405.861 117.133 400.289 133.077 405.678C149.021 411.066 156.457 407.388 156.457 407.388Z" fill="#CCCCCC"/>
<path d="M143.487 355.958C141.829 355.961 140.215 355.364 138.883 354.254C137.551 353.144 136.573 351.581 136.094 349.797C135.615 348.013 135.661 346.103 136.224 344.35C136.787 342.598 137.838 341.096 139.221 340.067L190.92 301.605C191.331 301.299 191.791 301.088 192.275 300.982C192.759 300.876 193.256 300.879 193.739 300.989C194.222 301.1 194.681 301.316 195.09 301.626C195.498 301.936 195.849 302.333 196.121 302.795L200.488 310.212C201.036 311.146 201.233 312.286 201.034 313.382C200.836 314.478 200.259 315.44 199.43 316.059L147.731 354.521C146.473 355.459 144.997 355.959 143.487 355.958V355.958Z" fill="#F59B00"/>
<path d="M134.1 320.353C149.202 320.353 161.443 306.592 161.443 289.617C161.443 272.642 149.202 258.881 134.1 258.881C118.999 258.881 106.757 272.642 106.757 289.617C106.757 306.592 118.999 320.353 134.1 320.353Z" fill="#F59B00"/>
<path d="M134.12 302.519C135.893 302.464 138.099 302.395 139.798 301C140.304 300.567 140.72 300.015 141.016 299.383C141.313 298.751 141.482 298.053 141.514 297.34C141.545 296.832 141.471 296.324 141.297 295.854C141.124 295.385 140.857 294.966 140.516 294.632C139.629 293.789 138.333 293.591 136.936 294.052L138.383 282.164L137.321 282.001L135.619 295.977L136.507 295.519C137.535 294.989 138.947 294.719 139.824 295.552C140.04 295.77 140.208 296.041 140.315 296.344C140.422 296.646 140.466 296.973 140.442 297.297C140.416 297.829 140.289 298.347 140.068 298.818C139.848 299.289 139.54 299.701 139.166 300.026C137.843 301.112 136.085 301.252 134.091 301.315L134.12 302.519Z" fill="#2F2E41"/>
<path d="M149.412 283.19H143.637V284.395H149.412V283.19Z" fill="#2F2E41"/>
<path d="M131.183 283.19H125.408V284.395H131.183V283.19Z" fill="#2F2E41"/>
<path d="M106.48 413.755C106.48 413.755 104.119 323.527 137.171 329.719C170.223 335.911 156.451 423.043 156.451 423.043C156.451 423.043 149.369 438.965 132.056 421.274C114.743 403.582 106.48 413.755 106.48 413.755Z" fill="#2F2E41"/>
<path d="M118.678 263.656C123.998 259.596 130.713 262.354 135.882 265.252C140.903 268.066 146.561 271.647 152.241 268.936C154.46 267.878 156.263 265.807 156.577 263.036C156.95 259.736 155.174 256.646 153.2 254.402C151.053 252.093 148.553 250.241 145.819 248.934C143.14 247.579 140.317 246.614 137.419 246.063C131.68 244.948 125.786 245.391 120.23 247.355C114.674 249.318 109.615 252.746 105.475 257.352C101.471 261.943 98.3769 267.435 96.397 273.468C94.4171 279.5 93.5963 285.935 93.9885 292.35C94.4403 299.187 96.3829 306.159 100.28 311.527C103.937 316.563 109.413 320.103 115.256 320.399C116.688 320.474 118.123 320.343 119.525 320.009C120.535 319.767 120.966 321.51 119.953 321.752C113.866 323.211 107.561 321.044 102.734 316.775C97.652 312.282 94.534 305.48 93.1669 298.471C90.5508 285.059 93.8281 270.625 101.339 259.887C105.047 254.539 109.851 250.278 115.341 247.467C121.011 244.621 127.205 243.343 133.405 243.741C139.587 244.09 145.585 246.226 150.818 249.943C155.499 253.343 160.774 260.552 156.957 266.929C155.529 269.314 153.159 270.767 150.699 271.364C147.876 271.982 144.955 271.696 142.269 270.539C136.153 268.111 130.497 262.687 123.652 263.509C122.161 263.683 120.73 264.27 119.489 265.217C118.631 265.873 117.825 264.307 118.678 263.656H118.678Z" fill="#2F2E41"/>
<path d="M352.29 123.668C351.052 122.773 350.077 121.487 349.489 119.97C348.902 118.453 348.728 116.774 348.989 115.146C349.25 113.518 349.935 112.013 350.956 110.822C351.978 109.632 353.291 108.808 354.729 108.457L415.307 93.6332C416.21 93.4133 417.154 93.6051 417.931 94.1664C418.708 94.7278 419.256 95.613 419.453 96.6276L419.191 96.6917L419.453 96.6276L421.136 105.319C421.234 105.822 421.242 106.341 421.161 106.847C421.08 107.354 420.911 107.837 420.663 108.27C420.416 108.703 420.095 109.076 419.719 109.37C419.343 109.663 418.92 109.871 418.473 109.98L357.895 124.803C357.632 124.868 357.367 124.916 357.1 124.949C355.413 125.156 353.715 124.703 352.29 123.668Z" fill="#F59B00"/>
<path d="M347.33 118.755C347.294 118.593 347.262 118.43 347.234 118.265C346.736 115.315 347.646 112.21 349.796 109.521C352.131 106.728 355.179 104.819 358.521 104.058L386.138 97.2657C386.593 97.1538 387.064 97.1456 387.522 97.2415C387.979 97.3375 388.416 97.5356 388.804 97.8242C389.193 98.1128 389.526 98.4861 389.784 98.9219C390.042 99.3578 390.22 99.8473 390.307 100.362L392.716 114.629C392.891 115.632 392.707 116.671 392.206 117.524C391.705 118.376 390.926 118.973 390.038 119.186L362.246 126.021C360.993 126.332 359.713 126.49 358.43 126.493C352.955 126.493 348.397 123.495 347.33 118.755Z" fill="#2F2E41"/>
<path d="M352.163 86.8301C367.265 86.8301 379.507 73.0691 379.507 56.0941C379.507 39.1191 367.265 25.3581 352.163 25.3581C337.062 25.3581 324.82 39.1191 324.82 56.0941C324.82 73.0691 337.062 86.8301 352.163 86.8301Z" fill="#F59B00"/>
<path d="M375.238 67.1885C377.01 67.1332 379.216 67.0641 380.915 65.6686C381.421 65.2361 381.837 64.6843 382.134 64.0521C382.43 63.4199 382.6 62.7225 382.631 62.0088C382.662 61.5015 382.588 60.9932 382.415 60.5234C382.242 60.0537 381.974 59.6353 381.634 59.3009C380.746 58.4578 379.45 58.26 378.053 58.7215L379.5 46.8335L378.438 46.6699L376.737 60.6457L377.624 60.1881C378.652 59.6579 380.064 59.388 380.941 60.2214C381.157 60.4393 381.325 60.7101 381.432 61.0127C381.539 61.3154 381.583 61.6417 381.559 61.9664C381.533 62.4976 381.406 63.0163 381.186 63.4872C380.965 63.9581 380.657 64.3701 380.283 64.6952C378.96 65.781 377.202 65.9211 375.208 65.9838L375.238 67.1885Z" fill="#2F2E41"/>
<path d="M372.3 47.8588H366.525V49.0641H372.3V47.8588Z" fill="#2F2E41"/>
<path d="M350.25 25.2671C350.049 21.6338 349.156 18.0916 347.631 14.8801C346.106 11.6687 343.985 8.86316 341.411 6.65341C338.752 4.44004 335.684 2.9288 332.434 2.23203C329.183 1.53526 325.835 1.67087 322.638 2.6288C319.462 3.55664 316.514 5.28298 314.018 7.67767C311.521 10.0724 309.54 13.0729 308.226 16.4531C306.902 19.8082 306.242 23.446 306.29 27.1158C306.436 31.1064 307.318 35.0195 308.88 38.6069C310.492 42.5556 312.526 46.2603 314.292 50.1204C316.031 53.9268 317.532 57.8652 318.783 61.9067C321.329 70.1417 322.831 78.7385 323.245 87.444C323.901 101.167 322.733 121.202 308.951 126.469C305.447 127.808 301.666 128.057 297.991 128.046C294.121 128.099 290.261 127.591 286.507 126.534C280.001 124.581 273.824 119.995 271.052 112.871C270.413 111.225 269.985 109.487 269.78 107.706C269.722 107.218 270.191 106.807 270.584 106.802C270.796 106.808 270.997 106.905 271.147 107.073C271.297 107.242 271.383 107.468 271.388 107.706C272.286 115.299 277.914 121.121 284.025 123.739C287.595 125.193 291.347 126.009 295.142 126.156C298.92 126.371 302.842 126.337 306.541 125.36C309.834 124.559 312.83 122.645 315.127 119.874C317.175 117.224 318.702 114.119 319.609 110.76C321.784 103.296 322.012 95.0897 321.63 87.3102C321.197 78.6332 319.663 70.0704 317.074 61.8816C315.766 57.7472 314.188 53.727 312.354 49.8537C310.562 46.0652 308.572 42.3837 307.062 38.4348C305.588 34.8052 304.778 30.8799 304.679 26.8917C304.667 23.2084 305.32 19.5606 306.596 16.1684C307.851 12.7627 309.733 9.69397 312.118 7.16368C314.503 4.63339 317.337 2.69879 320.434 1.48689C323.585 0.253945 326.931 -0.224801 330.256 0.0813838C333.582 0.387569 336.813 1.47192 339.744 3.26484C342.532 5.06618 344.974 7.47073 346.93 10.3395C348.886 13.2083 350.317 16.4844 351.14 19.9785C351.539 21.7091 351.781 23.4813 351.859 25.2671C351.912 26.43 350.303 26.4268 350.251 25.2671H350.25Z" fill="#2F2E41"/>
<path d="M344.903 25.9019C344.465 22.5485 342.97 19.4835 340.691 17.2639C338.269 14.9817 335.164 13.8232 332.008 14.0243C330.974 14.0825 330.976 12.2743 332.008 12.2163C335.438 12.0425 338.805 13.2917 341.468 15.7265C344.132 18.1612 345.906 21.6116 346.454 25.4212C346.609 26.5595 345.059 27.0502 344.903 25.9019V25.9019Z" fill="#2F2E41"/>
<path d="M341.524 26.0065C341.279 25.1717 341.339 24.2617 341.69 23.4766C342.042 22.6914 342.657 22.0955 343.4 21.8199L351.036 18.9855C351.779 18.7099 352.588 18.7771 353.287 19.1725C353.985 19.5679 354.516 20.2589 354.761 21.0936C355.006 21.9284 354.946 22.8384 354.594 23.6236C354.243 24.4087 353.628 25.0046 352.885 25.2802L345.249 28.1147C344.881 28.2513 344.493 28.3051 344.107 28.2731C343.72 28.2411 343.344 28.1239 342.998 27.9281C342.652 27.7323 342.344 27.4619 342.091 27.1321C341.838 26.8024 341.645 26.4199 341.524 26.0065V26.0065Z" fill="#2F2E41"/>
<path d="M401.159 67.77C400.666 67.8871 400.212 68.1582 399.849 68.552C399.486 68.9459 399.23 69.4467 399.109 69.997C398.987 70.5473 399.007 71.1248 399.164 71.6634C399.322 72.2019 399.611 72.6797 399.999 73.042L411.8 84.0639C411.973 84.228 412.115 84.4282 412.22 84.6533C412.317 84.8808 412.372 85.1283 412.38 85.3805L413.117 105.594C413.13 106.256 413.341 106.893 413.715 107.403C414.09 107.914 414.606 108.268 415.181 108.409L415.202 108.414C415.77 108.57 416.368 108.508 416.901 108.238C417.434 107.968 417.871 107.505 418.143 106.923L422.4 98.1965C422.543 97.9093 422.752 97.671 423.006 97.5073C423.26 97.3436 423.549 97.2606 423.841 97.2672C424.057 97.2684 424.27 97.3198 424.466 97.418C424.663 97.5162 424.84 97.6591 424.985 97.8378L445.413 122.339C445.707 122.695 446.075 122.965 446.483 123.125C446.891 123.285 447.328 123.332 447.756 123.26C448.182 123.188 448.587 123.003 448.936 122.719C449.285 122.435 449.569 122.061 449.763 121.628L479.715 54.2673C479.941 53.7601 480.036 53.1914 479.988 52.6265C479.939 52.0617 479.75 51.5236 479.442 51.0742C479.134 50.6248 478.719 50.2822 478.245 50.086C477.772 49.8898 477.258 49.8479 476.764 49.965L475.795 50.1929L401.159 67.77L401.159 67.77ZM400.681 72.1162C400.449 71.8982 400.275 71.611 400.181 71.2875C400.087 70.964 400.076 70.6173 400.15 70.2871C400.223 69.9569 400.377 69.6565 400.595 69.4204C400.813 69.1842 401.086 69.0218 401.382 68.9518L475.994 51.3811L476.987 51.1468C477.283 51.0783 477.59 51.1046 477.873 51.2227C478.156 51.3407 478.404 51.5459 478.589 51.8147C478.774 52.0835 478.887 52.4052 478.917 52.7431C478.947 53.0809 478.892 53.4215 478.758 53.7259L448.806 121.087C448.689 121.347 448.519 121.572 448.309 121.742C448.099 121.912 447.856 122.023 447.599 122.065C447.343 122.107 447.082 122.079 446.837 121.983C446.593 121.887 446.373 121.726 446.195 121.513L425.768 97.0121C425.569 96.767 425.333 96.5625 425.071 96.4075L476.976 54.0799C477.18 53.9169 477.327 53.6789 477.392 53.4069C477.456 53.135 477.434 52.8463 477.33 52.5907C477.225 52.3351 477.044 52.1288 476.818 52.0073C476.592 51.8859 476.336 51.857 476.093 51.9256C476.033 51.9415 475.975 51.9639 475.92 51.9925L412.897 83.6151C412.775 83.4391 412.636 83.2792 412.482 83.1382L400.681 72.1163V72.1162Z" fill="#CCCCCC"/>
<path d="M401.159 67.77C400.666 67.8871 400.212 68.1582 399.849 68.552C399.486 68.9459 399.23 69.4467 399.109 69.997C398.987 70.5473 399.007 71.1248 399.164 71.6634C399.322 72.2019 399.611 72.6797 399.999 73.042L411.8 84.0639C411.973 84.228 412.115 84.4282 412.22 84.6533C412.317 84.8808 412.372 85.1283 412.38 85.3805L413.117 105.594C413.13 106.256 413.341 106.893 413.715 107.403C414.09 107.914 414.606 108.268 415.181 108.409L415.202 108.414C415.77 108.57 416.368 108.508 416.901 108.238C417.434 107.968 417.871 107.505 418.143 106.923L422.4 98.1965C422.543 97.9093 422.752 97.671 423.006 97.5073C423.26 97.3436 423.549 97.2606 423.841 97.2672C424.057 97.2684 424.27 97.3198 424.466 97.418C424.663 97.5162 424.84 97.6591 424.985 97.8378L445.413 122.339C445.707 122.695 446.075 122.965 446.483 123.125C446.891 123.285 447.328 123.332 447.756 123.26C448.182 123.188 448.587 123.003 448.936 122.719C449.285 122.435 449.569 122.061 449.763 121.628L479.715 54.2673C479.941 53.7601 480.036 53.1914 479.988 52.6265C479.939 52.0617 479.75 51.5236 479.442 51.0742C479.134 50.6248 478.719 50.2822 478.245 50.086C477.772 49.8898 477.258 49.8479 476.764 49.965L475.795 50.1929L401.159 67.77L401.159 67.77ZM400.681 72.1162C400.449 71.8982 400.275 71.611 400.181 71.2875C400.087 70.964 400.076 70.6173 400.15 70.2871C400.223 69.9569 400.377 69.6565 400.595 69.4204C400.813 69.1842 401.086 69.0218 401.382 68.9518L475.994 51.3811L476.987 51.1468C477.283 51.0783 477.59 51.1046 477.873 51.2227C478.156 51.3407 478.404 51.5459 478.589 51.8147C478.774 52.0835 478.887 52.4052 478.917 52.7431C478.947 53.0809 478.892 53.4215 478.758 53.7259L448.806 121.087C448.689 121.347 448.519 121.572 448.309 121.742C448.099 121.912 447.856 122.023 447.599 122.065C447.343 122.107 447.082 122.079 446.837 121.983C446.593 121.886 446.373 121.726 446.195 121.513L425.768 97.012C425.568 96.767 425.333 96.5625 425.071 96.4074C424.697 96.1818 424.28 96.0623 423.855 96.0593C423.795 96.0563 423.734 96.0593 423.673 96.0621L423.668 96.0608C423.213 96.0874 422.771 96.2442 422.385 96.5165C421.999 96.7888 421.681 97.1675 421.462 97.6166L417.204 106.349C417.041 106.699 416.778 106.978 416.457 107.139C416.136 107.3 415.775 107.335 415.435 107.238L415.424 107.235C415.078 107.153 414.767 106.941 414.543 106.634C414.318 106.328 414.193 105.944 414.188 105.547L413.451 85.3329C413.445 85.1193 413.418 84.9071 413.37 84.7003L413.371 84.6944C413.326 84.4959 413.262 84.3033 413.18 84.1201C413.102 83.9409 413.007 83.7716 412.897 83.6151C412.775 83.4391 412.636 83.2792 412.482 83.1382L400.681 72.1163V72.1162Z" fill="#3F3D56"/>
<path d="M412.897 83.6151L475.92 51.9925C475.975 51.9639 476.033 51.9415 476.093 51.9256C476.335 51.857 476.592 51.8859 476.818 52.0073C477.044 52.1288 477.225 52.3352 477.329 52.5907C477.434 52.8463 477.456 53.135 477.392 53.407C477.327 53.6789 477.18 53.9169 476.976 54.0799L425.071 96.4075L424.156 97.1559L423.528 96.1797L423.668 96.0609L423.673 96.0622L476.344 53.1024L413.371 84.6944L413.37 84.7003L413.096 84.8341L412.659 83.7334L412.897 83.6151Z" fill="#3F3D56"/>
<path d="M334.157 179.571C333.375 179.572 332.626 179.921 332.073 180.543C331.52 181.164 331.209 182.006 331.208 182.885V194.939C331.209 195.817 331.52 196.66 332.073 197.281C332.626 197.903 333.375 198.252 334.157 198.253H368.47C369.252 198.252 370.001 197.903 370.554 197.281C371.107 196.66 371.418 195.817 371.419 194.939V182.885C371.418 182.006 371.107 181.164 370.554 180.543C370.001 179.921 369.252 179.572 368.47 179.571H334.157Z" fill="#2F2E41"/>
<path d="M330.112 118.43C328.473 123.768 328.168 129.508 329.228 135.027C331.955 150.055 330.94 167.819 328.26 186.803C328.26 188.8 329.497 190.419 331.024 190.419H372.944C374.471 190.419 375.708 188.8 375.708 186.803V130.453C375.708 113.802 365.638 100.175 353.043 99.4521C352.693 99.4279 352.338 99.4159 351.984 99.4159C342.158 99.4159 333.709 107.269 330.112 118.43Z" fill="#2F2E41"/>
<path d="M343.462 191.564V121.875C343.462 119.657 344.246 117.529 345.642 115.96C347.038 114.392 348.93 113.51 350.904 113.51C352.878 113.51 354.77 114.392 356.166 115.96C357.562 117.529 358.346 119.657 358.346 121.875V191.564C358.345 192.603 357.977 193.598 357.324 194.333C356.67 195.067 355.785 195.48 354.861 195.482H346.947C346.023 195.48 345.138 195.067 344.484 194.333C343.831 193.598 343.464 192.603 343.462 191.564V191.564Z" fill="#F59B00"/>
<path d="M356.192 141.649L344.944 141.093C344.021 141.046 343.152 140.589 342.528 139.823C341.904 139.057 341.576 138.045 341.615 137.007L342.405 116.837C342.455 115.491 342.741 114.169 343.246 112.947C343.751 111.725 344.466 110.627 345.349 109.716C346.232 108.805 347.266 108.099 348.393 107.638C349.519 107.176 350.715 106.97 351.913 107.029C353.11 107.088 354.286 107.412 355.371 107.983C356.457 108.554 357.432 109.359 358.241 110.354C359.049 111.349 359.675 112.513 360.083 113.78C360.491 115.047 360.672 116.392 360.616 117.738L359.826 137.908C359.787 138.916 359.403 139.867 358.756 140.565C358.108 141.262 357.246 141.652 356.349 141.653C356.297 141.653 356.244 141.652 356.192 141.649Z" fill="#2F2E41"/>
<path d="M375.708 154.56C377.04 154.56 378.121 150.647 378.121 145.821C378.121 140.995 377.04 137.083 375.708 137.083C374.376 137.083 373.295 140.995 373.295 145.821C373.295 150.647 374.376 154.56 375.708 154.56Z" fill="#2F2E41"/>
<path d="M243.488 254.603C250.891 254.603 256.892 247.857 256.892 239.536C256.892 231.215 250.891 224.469 243.488 224.469C236.086 224.469 230.085 231.215 230.085 239.536C230.085 247.857 236.086 254.603 243.488 254.603Z" fill="#CCCCCC"/>
<path d="M376.037 254.603H273.098C271.961 254.603 270.87 254.095 270.065 253.19C269.261 252.286 268.809 251.06 268.809 249.781C268.809 248.503 269.261 247.276 270.065 246.372C270.87 245.468 271.961 244.96 273.098 244.96H376.037C377.175 244.96 378.266 245.468 379.07 246.372C379.875 247.276 380.326 248.503 380.326 249.781C380.326 251.06 379.875 252.286 379.07 253.19C378.266 254.095 377.175 254.603 376.037 254.603Z" fill="#CCCCCC"/>
<path d="M348.158 234.112H273.098C271.961 234.112 270.87 233.604 270.065 232.7C269.261 231.796 268.809 230.569 268.809 229.291C268.809 228.012 269.261 226.786 270.065 225.881C270.87 224.977 271.961 224.469 273.098 224.469H348.158C349.296 224.469 350.386 224.977 351.191 225.881C351.995 226.786 352.447 228.012 352.447 229.291C352.447 230.569 351.995 231.796 351.191 232.7C350.386 233.604 349.296 234.112 348.158 234.112Z" fill="#CCCCCC"/>
<path d="M243.488 311.856C250.891 311.856 256.892 305.11 256.892 296.789C256.892 288.468 250.891 281.723 243.488 281.723C236.086 281.723 230.085 288.468 230.085 296.789C230.085 305.11 236.086 311.856 243.488 311.856Z" fill="#CCCCCC"/>
<path d="M376.037 311.856H273.098C271.961 311.856 270.87 311.348 270.065 310.444C269.261 309.54 268.809 308.313 268.809 307.035C268.809 305.756 269.261 304.53 270.065 303.625C270.87 302.721 271.961 302.213 273.098 302.213H376.037C377.175 302.213 378.266 302.721 379.07 303.625C379.875 304.53 380.326 305.756 380.326 307.035C380.326 308.313 379.875 309.54 379.07 310.444C378.266 311.348 377.175 311.856 376.037 311.856Z" fill="#CCCCCC"/>
<path d="M348.158 291.365H273.098C271.961 291.365 270.87 290.857 270.065 289.953C269.261 289.049 268.809 287.823 268.809 286.544C268.809 285.265 269.261 284.039 270.065 283.135C270.87 282.231 271.961 281.723 273.098 281.723H348.158C349.296 281.723 350.386 282.231 351.191 283.135C351.995 284.039 352.447 285.265 352.447 286.544C352.447 287.823 351.995 289.049 351.191 289.953C350.386 290.857 349.296 291.365 348.158 291.365Z" fill="#CCCCCC"/>
<path d="M243.488 369.712C250.891 369.712 256.892 362.966 256.892 354.645C256.892 346.324 250.891 339.579 243.488 339.579C236.086 339.579 230.085 346.324 230.085 354.645C230.085 362.966 236.086 369.712 243.488 369.712Z" fill="#CCCCCC"/>
<path d="M376.037 369.712H273.098C271.961 369.712 270.87 369.204 270.065 368.3C269.261 367.396 268.809 366.169 268.809 364.891C268.809 363.612 269.261 362.386 270.065 361.481C270.87 360.577 271.961 360.069 273.098 360.069H376.037C377.175 360.069 378.266 360.577 379.07 361.481C379.875 362.386 380.326 363.612 380.326 364.891C380.326 366.169 379.875 367.396 379.07 368.3C378.266 369.204 377.175 369.712 376.037 369.712Z" fill="#CCCCCC"/>
<path d="M348.158 349.221H273.098C271.961 349.221 270.87 348.713 270.065 347.809C269.261 346.905 268.809 345.679 268.809 344.4C268.809 343.121 269.261 341.895 270.065 340.991C270.87 340.087 271.961 339.579 273.098 339.579H348.158C349.296 339.579 350.386 340.087 351.191 340.991C351.995 341.895 352.447 343.121 352.447 344.4C352.447 345.679 351.995 346.905 351.191 347.809C350.386 348.713 349.296 349.221 348.158 349.221Z" fill="#CCCCCC"/>
<path d="M411.898 396.832H198.514C196.097 396.829 193.78 395.749 192.072 393.828C190.363 391.907 189.402 389.303 189.399 386.587V207.595C189.402 204.878 190.363 202.274 192.072 200.353C193.78 198.433 196.097 197.352 198.514 197.349H411.898C414.314 197.352 416.631 198.433 418.339 200.353C420.048 202.274 421.009 204.878 421.012 207.595V386.587C421.009 389.303 420.048 391.907 418.339 393.828C416.631 395.749 414.314 396.829 411.898 396.832ZM198.514 198.555C196.381 198.557 194.337 199.511 192.83 201.205C191.322 202.9 190.474 205.198 190.471 207.595V386.587C190.474 388.983 191.322 391.281 192.83 392.976C194.337 394.671 196.381 395.624 198.514 395.627H411.898C414.03 395.624 416.074 394.671 417.581 392.976C419.089 391.281 419.937 388.983 419.94 386.587V207.595C419.937 205.198 419.089 202.9 417.581 201.205C416.074 199.511 414.03 198.557 411.898 198.555H198.514Z" fill="#3F3D56"/>
<path d="M193.152 234.112C209.734 234.112 223.176 219.002 223.176 200.363C223.176 181.723 209.734 166.613 193.152 166.613C176.57 166.613 163.128 181.723 163.128 200.363C163.128 219.002 176.57 234.112 193.152 234.112Z" fill="#F59B00"/>
<path d="M190.176 213.237C189.501 213.239 188.843 212.993 188.302 212.538L188.269 212.509L181.213 206.437C180.886 206.155 180.612 205.804 180.406 205.404C180.2 205.003 180.066 204.561 180.012 204.102C179.958 203.643 179.985 203.177 180.091 202.73C180.197 202.283 180.381 201.864 180.631 201.497C180.882 201.129 181.194 200.821 181.55 200.589C181.907 200.358 182.3 200.207 182.708 200.147C183.116 200.086 183.531 200.116 183.929 200.235C184.327 200.355 184.699 200.561 185.026 200.843L189.596 204.782L200.397 188.949C200.647 188.582 200.959 188.274 201.316 188.042C201.672 187.811 202.066 187.66 202.474 187.6C202.882 187.539 203.297 187.57 203.694 187.689C204.092 187.809 204.465 188.015 204.792 188.297L204.724 188.4L204.793 188.299C205.452 188.868 205.884 189.708 205.992 190.634C206.101 191.56 205.879 192.497 205.374 193.239L192.67 211.862C192.376 212.291 191.998 212.638 191.566 212.877C191.133 213.115 190.658 213.239 190.176 213.237V213.237Z" fill="white"/>
<path d="M192.922 402.158C192.394 402.158 191.872 402.032 191.391 401.788H191.391L134.826 373.264C133.901 372.799 133.067 372.133 132.372 371.306C131.676 370.478 131.133 369.504 130.772 368.44C130.411 367.377 130.241 366.243 130.27 365.105C130.299 363.967 130.528 362.847 130.942 361.808C131.357 360.769 131.949 359.832 132.686 359.051C133.423 358.27 134.289 357.659 135.236 357.255C136.183 356.85 137.191 356.659 138.204 356.693C139.216 356.726 140.213 356.984 141.137 357.451L197.702 385.975C198.152 386.201 198.557 386.525 198.895 386.928C199.234 387.331 199.498 387.805 199.673 388.323C199.849 388.84 199.932 389.392 199.917 389.946C199.903 390.499 199.792 391.045 199.59 391.55L196.351 399.666C196.054 400.408 195.572 401.038 194.963 401.481C194.355 401.923 193.646 402.158 192.922 402.158V402.158Z" fill="#F59B00"/>
<path d="M204.806 480H0.536141C0.393947 480 0.257577 479.937 0.157032 479.824C0.0564857 479.71 0 479.557 0 479.397C0 479.238 0.0564857 479.084 0.157032 478.971C0.257577 478.858 0.393947 478.795 0.536141 478.795H204.806C204.948 478.795 205.084 478.858 205.185 478.971C205.285 479.084 205.342 479.238 205.342 479.397C205.342 479.557 205.285 479.71 205.185 479.824C205.084 479.937 204.948 480 204.806 480Z" fill="#3F3D56"/>
</g>
<defs>
<clipPath id="clip0">
<rect width="480" height="480" fill="white"/>
</clipPath>
</defs>
</svg>
