<svg width="480" height="480" viewBox="0 0 480 480" fill="none" xmlns="http://www.w3.org/2000/svg">
<path d="M392.051 301.03H82.9025C80.7922 301.027 78.769 299.83 77.2768 297.701C75.7845 295.573 74.9451 292.688 74.9427 289.678V17.815C74.9445 15.61 75.5594 13.4961 76.6526 11.937C77.7458 10.3778 79.228 9.50077 80.7741 9.49823H394.078C395.651 9.50078 397.159 10.393 398.271 11.9791C399.383 13.5652 400.009 15.7157 400.011 17.9587V289.678C400.008 292.688 399.169 295.573 397.677 297.701C396.184 299.83 394.161 301.027 392.051 301.03V301.03Z" fill="#F2F2F2"/>
<path d="M380.773 284.954H92.6552C88.4317 284.954 84.9957 280.365 84.9957 274.725V37.9826C84.9957 33.7996 87.5418 30.3962 90.6715 30.3962H382.663C385.844 30.3962 388.433 33.8557 388.433 38.1076V274.725C388.433 280.365 384.997 284.954 380.773 284.954Z" fill="white"/>
<path d="M399.9 17.1656H74.831V11.3862C74.8341 8.36648 75.6769 5.47183 77.1746 3.33726C78.6722 1.20268 80.7024 0.00249476 82.8198 0H391.911C394.028 0.00248022 396.059 1.20266 397.556 3.33724C399.054 5.47182 399.897 8.36647 399.9 11.3862V17.1656Z" fill="#CCCCCC"/>
<path d="M89.3494 11.5469C90.4906 11.5469 91.4158 10.2275 91.4158 8.59992C91.4158 6.97236 90.4906 5.65295 89.3494 5.65295C88.2082 5.65295 87.283 6.97236 87.283 8.59992C87.283 10.2275 88.2082 11.5469 89.3494 11.5469Z" fill="white"/>
<path d="M97.1928 11.5469C98.3341 11.5469 99.2592 10.2275 99.2592 8.59992C99.2592 6.97236 98.3341 5.65295 97.1928 5.65295C96.0516 5.65295 95.1265 6.97236 95.1265 8.59992C95.1265 10.2275 96.0516 11.5469 97.1928 11.5469Z" fill="white"/>
<path d="M105.036 11.5469C106.178 11.5469 107.103 10.2275 107.103 8.59992C107.103 6.97236 106.178 5.65295 105.036 5.65295C103.895 5.65295 102.97 6.97236 102.97 8.59992C102.97 10.2275 103.895 11.5469 105.036 11.5469Z" fill="white"/>
<path d="M349.06 245.248H125.781C123.543 245.245 121.397 243.975 119.815 241.718C118.232 239.461 117.342 236.401 117.339 233.208V79.6801C117.341 77.2928 118.007 75.004 119.19 73.3159C120.374 71.6278 121.979 70.6782 123.653 70.6754H351.088C352.788 70.6782 354.419 71.643 355.622 73.358C356.824 75.0731 357.501 77.3985 357.502 79.8239V233.208C357.5 236.401 356.61 239.461 355.027 241.718C353.444 243.975 351.298 245.245 349.06 245.248V245.248ZM123.653 72.0514C122.235 72.0537 120.875 72.8582 119.872 74.2884C118.87 75.7186 118.306 77.6576 118.304 79.6801V233.208C118.306 236.036 119.095 238.746 120.497 240.745C121.898 242.745 123.799 243.869 125.781 243.872H349.06C351.043 243.869 352.943 242.745 354.345 240.745C355.747 238.746 356.535 236.036 356.538 233.208V79.8239C356.536 77.7633 355.961 75.7876 354.94 74.3305C353.918 72.8734 352.533 72.0537 351.088 72.0514H123.653Z" fill="#CCCCCC"/>
<path d="M133.5 233.209H341.342C343.389 233.209 345.352 232.049 346.799 229.984C348.247 227.92 349.06 225.12 349.06 222.201V93.857C349.06 90.9375 348.247 88.1376 346.799 86.0732C345.352 84.0088 343.389 82.8491 341.342 82.8491H133.5C131.453 82.8491 129.49 84.0088 128.042 86.0732C126.595 88.1376 125.781 90.9375 125.781 93.857V222.201C125.781 225.12 126.595 227.92 128.042 229.984C129.49 232.049 131.453 233.209 133.5 233.209Z" fill="#F2F2F2"/>
<path d="M157.099 120.189C159.497 120.189 161.441 117.417 161.441 113.997C161.441 110.578 159.497 107.805 157.099 107.805C154.701 107.805 152.757 110.578 152.757 113.997C152.757 117.417 154.701 120.189 157.099 120.189Z" fill="#CCCCCC"/>
<path d="M157.099 143.581C159.497 143.581 161.441 140.809 161.441 137.389C161.441 133.969 159.497 131.197 157.099 131.197C154.701 131.197 152.757 133.969 152.757 137.389C152.757 140.809 154.701 143.581 157.099 143.581Z" fill="#CCCCCC"/>
<path d="M157.099 166.973C159.497 166.973 161.441 164.201 161.441 160.781C161.441 157.361 159.497 154.589 157.099 154.589C154.701 154.589 152.757 157.361 152.757 160.781C152.757 164.201 154.701 166.973 157.099 166.973Z" fill="#CCCCCC"/>
<path d="M157.099 190.364C159.497 190.364 161.441 187.592 161.441 184.173C161.441 180.753 159.497 177.981 157.099 177.981C154.701 177.981 152.757 180.753 152.757 184.173C152.757 187.592 154.701 190.364 157.099 190.364Z" fill="#CCCCCC"/>
<path d="M321.602 114.685H178.808C178.68 114.685 178.557 114.613 178.467 114.484C178.376 114.355 178.325 114.18 178.325 113.997C178.325 113.815 178.376 113.64 178.467 113.511C178.557 113.382 178.68 113.309 178.808 113.309H321.602C321.73 113.309 321.852 113.382 321.943 113.511C322.033 113.64 322.084 113.815 322.084 113.997C322.084 114.18 322.033 114.355 321.943 114.484C321.852 114.613 321.73 114.685 321.602 114.685Z" fill="#CCCCCC"/>
<path d="M321.602 138.077H178.808C178.68 138.077 178.557 138.004 178.467 137.875C178.376 137.746 178.325 137.571 178.325 137.389C178.325 137.206 178.376 137.031 178.467 136.902C178.557 136.773 178.68 136.701 178.808 136.701H321.602C321.73 136.701 321.852 136.773 321.943 136.902C322.033 137.031 322.084 137.206 322.084 137.389C322.084 137.571 322.033 137.746 321.943 137.875C321.852 138.004 321.73 138.077 321.602 138.077Z" fill="#CCCCCC"/>
<path d="M321.602 161.469H178.808C178.68 161.469 178.557 161.396 178.467 161.267C178.376 161.138 178.325 160.963 178.325 160.781C178.325 160.598 178.376 160.423 178.467 160.294C178.557 160.165 178.68 160.093 178.808 160.093H321.602C321.73 160.093 321.852 160.165 321.943 160.294C322.033 160.423 322.084 160.598 322.084 160.781C322.084 160.963 322.033 161.138 321.943 161.267C321.852 161.396 321.73 161.469 321.602 161.469Z" fill="#CCCCCC"/>
<path d="M321.602 184.861H178.808C178.68 184.861 178.557 184.788 178.467 184.659C178.376 184.53 178.325 184.355 178.325 184.173C178.325 183.99 178.376 183.815 178.467 183.686C178.557 183.557 178.68 183.485 178.808 183.485H321.602C321.73 183.485 321.852 183.557 321.943 183.686C322.033 183.815 322.084 183.99 322.084 184.173C322.084 184.355 322.033 184.53 321.943 184.659C321.852 184.788 321.73 184.861 321.602 184.861Z" fill="#CCCCCC"/>
<path d="M205.823 208.252H191.833C191.193 208.251 190.58 207.889 190.128 207.244C189.676 206.599 189.422 205.724 189.421 204.812V186.237C189.422 185.325 189.676 184.45 190.128 183.805C190.58 183.16 191.193 182.798 191.833 182.797H205.823C206.462 182.798 207.075 183.16 207.528 183.805C207.98 184.45 208.234 185.325 208.235 186.237V204.812C208.234 205.724 207.98 206.599 207.528 207.244C207.075 207.889 206.462 208.251 205.823 208.252V208.252Z" fill="#F59B00"/>
<path d="M237.18 208.252H223.19C222.55 208.251 221.937 207.889 221.485 207.244C221.033 206.599 220.778 205.724 220.778 204.812V162.845C220.778 161.933 221.033 161.058 221.485 160.413C221.937 159.769 222.55 159.406 223.19 159.405H237.18C237.819 159.406 238.432 159.769 238.884 160.413C239.337 161.058 239.591 161.933 239.592 162.845V204.812C239.591 205.724 239.337 206.599 238.884 207.244C238.432 207.889 237.819 208.251 237.18 208.252V208.252Z" fill="#F59B00"/>
<path d="M269.019 208.252H255.029C254.389 208.251 253.776 207.888 253.324 207.244C252.872 206.599 252.618 205.724 252.617 204.812V139.453C252.618 138.541 252.872 137.667 253.324 137.022C253.776 136.377 254.389 136.014 255.029 136.013H269.019C269.658 136.014 270.271 136.377 270.724 137.022C271.176 137.667 271.43 138.541 271.431 139.453V204.812C271.43 205.724 271.176 206.599 270.724 207.244C270.271 207.888 269.658 208.251 269.019 208.252V208.252Z" fill="#F59B00"/>
<path d="M301.823 208.252H287.833C287.193 208.251 286.58 207.889 286.128 207.244C285.676 206.599 285.422 205.724 285.421 204.812V116.749C285.422 115.837 285.676 114.963 286.128 114.318C286.58 113.673 287.193 113.31 287.833 113.309H301.823C302.462 113.31 303.075 113.673 303.528 114.318C303.98 114.963 304.234 115.837 304.235 116.749V204.812C304.234 205.724 303.98 206.599 303.528 207.244C303.075 207.889 302.462 208.251 301.823 208.252V208.252Z" fill="#F59B00"/>
<path d="M321.602 208.252H178.808C178.68 208.252 178.557 208.18 178.467 208.051C178.376 207.922 178.325 207.747 178.325 207.564C178.325 207.382 178.376 207.207 178.467 207.078C178.557 206.949 178.68 206.876 178.808 206.876H321.602C321.73 206.876 321.852 206.949 321.943 207.078C322.033 207.207 322.084 207.382 322.084 207.564C322.084 207.747 322.033 207.922 321.943 208.051C321.852 208.18 321.73 208.252 321.602 208.252Z" fill="#3F3D56"/>
<path d="M384.338 336.596C384.729 335.752 385.245 335.041 385.85 334.512C386.454 333.983 387.133 333.65 387.837 333.535C388.542 333.421 389.256 333.528 389.928 333.85C390.6 334.171 391.215 334.699 391.729 335.396L407.048 324.121L406.095 336.824L391.694 345.584C390.816 346.738 389.671 347.392 388.478 347.422C387.284 347.453 386.124 346.858 385.217 345.75C384.31 344.642 383.72 343.098 383.558 341.411C383.396 339.724 383.674 338.01 384.338 336.596Z" fill="#FFB8B8"/>
<path d="M397.519 341.334C397.172 340.945 396.915 340.414 396.784 339.812L395.566 334.198C395.435 333.59 395.438 332.939 395.575 332.334C395.712 331.728 395.976 331.197 396.331 330.813L408.748 317.438L422.195 281.86C422.758 280.825 423.459 279.959 424.257 279.311C425.055 278.662 425.934 278.245 426.845 278.081C427.757 277.917 428.682 278.011 429.567 278.358C430.453 278.704 431.282 279.296 432.008 280.099C432.733 280.902 433.34 281.901 433.795 283.039C434.25 284.178 434.543 285.432 434.657 286.732C434.772 288.031 434.706 289.35 434.463 290.613C434.22 291.877 433.805 293.059 433.242 294.094L425.592 317.121C423.27 324.111 419.248 329.66 414.273 332.736L399.722 341.737C399.442 341.91 399.14 341.997 398.835 341.992C398.53 341.987 398.229 341.891 397.952 341.71C397.798 341.609 397.653 341.483 397.519 341.334V341.334Z" fill="#3F3D56"/>
<path d="M433.58 267.012C440.124 267.012 445.429 259.446 445.429 250.114C445.429 240.781 440.124 233.216 433.58 233.216C427.036 233.216 421.732 240.781 421.732 250.114C421.732 259.446 427.036 267.012 433.58 267.012Z" fill="#FFB8B8"/>
<path d="M428.774 471.783L422.86 471.782L420.047 439.248L428.776 439.249L428.774 471.783Z" fill="#FFB8B8"/>
<path d="M418.635 469.372H430.041V479.614H411.453C411.453 478.269 411.639 476.937 412 475.694C412.361 474.452 412.89 473.323 413.557 472.372C414.224 471.42 415.015 470.666 415.887 470.151C416.758 469.637 417.692 469.372 418.635 469.372Z" fill="#2F2E41"/>
<path d="M448.07 471.784L442.156 471.783L439.343 439.249L448.073 439.25L448.07 471.784Z" fill="#FFB8B8"/>
<path d="M437.931 469.373H449.337V479.615H430.75C430.75 478.27 430.936 476.938 431.296 475.695C431.657 474.453 432.186 473.324 432.853 472.373C433.52 471.422 434.312 470.667 435.183 470.152C436.054 469.638 436.988 469.373 437.931 469.373V469.373Z" fill="#2F2E41"/>
<path d="M448.502 463.528L441.572 463.528C441.094 463.527 440.631 463.302 440.252 462.888C439.873 462.474 439.6 461.894 439.476 461.237L429.5 408.468C429.484 408.385 429.448 408.314 429.397 408.268C429.347 408.222 429.287 408.204 429.228 408.218C429.169 408.231 429.116 408.276 429.078 408.342C429.041 408.409 429.022 408.493 429.026 408.578L431.041 458.624C431.059 459.067 431.01 459.509 430.897 459.922C430.785 460.336 430.612 460.71 430.389 461.019C430.166 461.328 429.9 461.566 429.607 461.715C429.315 461.865 429.003 461.923 428.693 461.886L420.904 460.96C420.404 460.899 419.935 460.595 419.575 460.098C419.215 459.601 418.987 458.942 418.928 458.233L411.831 353.145L414.577 355.495L440.303 349.266L450.654 460.023C450.695 460.461 450.67 460.905 450.581 461.328C450.491 461.75 450.34 462.14 450.136 462.472C449.932 462.804 449.681 463.07 449.399 463.252C449.118 463.434 448.812 463.528 448.502 463.528H448.502Z" fill="#2F2E41"/>
<path d="M420.435 364.237C417.597 364.205 414.816 363.089 412.383 361.005C412.008 360.688 411.709 360.217 411.525 359.654C411.341 359.09 411.281 358.461 411.352 357.848C412.257 349.945 416.989 309.408 421.294 287.308C423.047 278.307 426.924 273.459 432.817 272.899C441.437 272.093 449.098 281.711 449.896 294.365C451.304 316.689 445.587 348.407 443.063 361.008C442.966 361.494 442.786 361.939 442.539 362.304C442.293 362.668 441.987 362.94 441.65 363.097C441.312 363.253 440.953 363.29 440.603 363.202C440.253 363.114 439.924 362.906 439.644 362.594L434.501 356.888C434.185 356.544 433.793 356.368 433.395 356.391C432.997 356.415 432.618 356.637 432.322 357.018C427.987 362.532 423.869 364.237 420.435 364.237Z" fill="#3F3D56"/>
<path opacity="0.2" d="M437.445 305.289L441.786 331.433L435.514 353.448L439.857 332.121L437.445 305.289Z" fill="black"/>
<path d="M440.341 264.01C441.395 264.038 442.442 263.768 443.423 263.215C443.854 262.978 444.302 262.783 444.732 262.546C448.535 260.451 451.039 254.676 451.129 248.864C451.219 243.053 449.109 237.412 445.975 233.694C442.842 229.976 438.783 228.067 434.719 227.626C430.341 227.15 425.411 228.733 422.964 233.933C422.313 235.317 421.857 236.996 422.243 238.667C422.359 239.172 422.565 239.624 422.842 239.979C423.934 241.365 425.024 240.323 426.137 240.231C427.668 240.104 429.043 241.871 429.537 243.942C430.031 246.012 429.814 248.291 429.415 250.402C429.11 251.673 428.919 252.992 428.844 254.331C428.812 255.002 428.9 255.673 429.101 256.282C429.302 256.891 429.608 257.416 429.991 257.808C430.948 258.633 432.204 258.156 433.161 257.333C434.118 256.509 434.945 255.365 435.979 254.759C437.013 254.153 438.402 254.288 439.004 255.631C439.195 256.12 439.325 256.653 439.386 257.206C439.926 260.711 439.802 260.505 440.341 264.01V264.01Z" fill="#2F2E41"/>
<path d="M421.976 448.181L347.783 411.331C346.51 410.697 345.465 409.368 344.878 407.636C344.291 405.904 344.21 403.912 344.652 402.094L363.932 323.141C364.258 321.811 364.941 320.72 365.83 320.107C366.72 319.493 367.744 319.408 368.677 319.87L445.378 357.965C446.327 358.438 447.106 359.429 447.543 360.719C447.98 362.01 448.041 363.495 447.712 364.849L428.453 443.716C428.008 445.531 427.076 447.021 425.862 447.858C424.648 448.695 423.25 448.811 421.976 448.181V448.181Z" fill="#E6E6E6"/>
<path d="M354.114 406.794L418.991 439.016C420.226 439.63 421.582 439.519 422.76 438.707C423.938 437.895 424.841 436.449 425.271 434.687L440.84 370.933C441.27 369.171 441.192 367.237 440.622 365.557C440.053 363.878 439.039 362.589 437.804 361.976L372.927 329.753C371.692 329.14 370.336 329.251 369.158 330.063C367.98 330.875 367.077 332.321 366.647 334.083L351.078 397.837C350.865 398.71 350.775 399.633 350.812 400.556C350.849 401.478 351.014 402.381 351.296 403.212C351.577 404.044 351.971 404.788 352.455 405.403C352.939 406.018 353.503 406.49 354.114 406.794Z" fill="white"/>
<path d="M370.406 362.001L367.193 360.405C367.018 360.318 366.876 360.137 366.795 359.9C366.715 359.663 366.704 359.39 366.764 359.142L367.883 354.559C367.944 354.311 368.072 354.107 368.238 353.993C368.404 353.878 368.595 353.862 368.769 353.948L371.982 355.544C372.156 355.631 372.299 355.813 372.38 356.05C372.46 356.287 372.471 356.559 372.411 356.808L371.292 361.39C371.231 361.639 371.103 361.842 370.937 361.957C370.771 362.071 370.58 362.087 370.406 362.001V362.001Z" fill="#F59B00"/>
<path d="M367.506 373.873L364.294 372.277C364.119 372.191 363.976 372.009 363.896 371.772C363.816 371.535 363.805 371.262 363.865 371.014L364.984 366.432C365.045 366.183 365.172 365.979 365.339 365.865C365.505 365.75 365.696 365.734 365.87 365.821L369.083 367.416C369.257 367.503 369.4 367.685 369.481 367.922C369.561 368.159 369.572 368.432 369.512 368.68L368.393 373.262C368.332 373.511 368.204 373.715 368.038 373.829C367.872 373.944 367.681 373.96 367.506 373.873V373.873Z" fill="#3F3D56"/>
<path d="M364.607 385.745L361.394 384.149C361.22 384.063 361.077 383.881 360.997 383.644C360.917 383.407 360.906 383.134 360.966 382.886L362.085 378.304C362.146 378.055 362.273 377.851 362.439 377.737C362.606 377.622 362.797 377.606 362.971 377.693L366.184 379.289C366.358 379.375 366.501 379.557 366.582 379.794C366.662 380.031 366.673 380.304 366.612 380.552L365.493 385.134C365.433 385.383 365.305 385.587 365.139 385.701C364.973 385.816 364.782 385.832 364.607 385.745V385.745Z" fill="#CCCCCC"/>
<path d="M391.996 370.155L376.515 362.466C376.428 362.424 376.348 362.357 376.28 362.27C376.212 362.184 376.156 362.079 376.116 361.961C376.076 361.844 376.053 361.716 376.047 361.586C376.042 361.456 376.055 361.325 376.085 361.202C376.115 361.078 376.162 360.965 376.223 360.867C376.284 360.77 376.357 360.691 376.44 360.634C376.522 360.577 376.612 360.544 376.703 360.537C376.795 360.53 376.886 360.548 376.973 360.592L392.453 368.281C392.54 368.323 392.62 368.39 392.688 368.476C392.757 368.563 392.812 368.668 392.852 368.786C392.892 368.903 392.916 369.031 392.921 369.161C392.926 369.291 392.914 369.422 392.883 369.545C392.853 369.668 392.806 369.782 392.745 369.879C392.685 369.977 392.611 370.056 392.528 370.113C392.446 370.17 392.356 370.202 392.265 370.21C392.173 370.217 392.082 370.198 391.996 370.155V370.155Z" fill="#CCCCCC"/>
<path d="M389.097 382.027L373.616 374.338C373.441 374.252 373.298 374.07 373.218 373.833C373.138 373.596 373.127 373.323 373.187 373.075C373.248 372.826 373.376 372.622 373.542 372.508C373.708 372.393 373.899 372.377 374.073 372.464L389.554 380.153C389.641 380.195 389.72 380.262 389.789 380.349C389.857 380.435 389.913 380.54 389.953 380.658C389.993 380.775 390.016 380.903 390.022 381.033C390.027 381.163 390.014 381.294 389.984 381.417C389.954 381.54 389.907 381.654 389.846 381.751C389.785 381.849 389.711 381.928 389.629 381.985C389.547 382.041 389.457 382.074 389.366 382.082C389.274 382.089 389.183 382.071 389.097 382.027V382.027Z" fill="#CCCCCC"/>
<path d="M386.197 393.9L370.717 386.211C370.542 386.124 370.399 385.942 370.319 385.705C370.239 385.468 370.228 385.196 370.288 384.947C370.349 384.698 370.476 384.494 370.643 384.38C370.809 384.265 371 384.25 371.174 384.336L386.655 392.025C386.829 392.112 386.972 392.293 387.053 392.53C387.133 392.767 387.144 393.04 387.083 393.289C387.023 393.537 386.895 393.741 386.729 393.856C386.563 393.97 386.372 393.986 386.197 393.9V393.9Z" fill="#CCCCCC"/>
<path d="M427.395 400.332C427.508 399.946 427.614 399.554 427.711 399.154C428.984 393.943 428.753 388.225 427.069 383.258C425.385 378.29 422.387 374.48 418.733 372.665L413.645 393.503L427.395 400.332Z" fill="#F59B00"/>
<path d="M412.165 394.77L417.253 373.933C414.564 372.597 411.66 372.413 408.898 373.403C406.137 374.393 403.639 376.515 401.712 379.505C399.786 382.496 398.516 386.225 398.058 390.233C397.6 394.241 397.974 398.353 399.135 402.061C400.296 405.769 402.193 408.912 404.591 411.101C406.989 413.29 409.784 414.431 412.631 414.382C415.479 414.333 418.254 413.096 420.614 410.825C422.974 408.553 424.817 405.347 425.915 401.599L412.165 394.77Z" fill="#3F3D56"/>
<path d="M430.381 364.879C430.324 363.871 430.422 362.857 430.669 361.909C430.916 360.961 431.305 360.102 431.81 359.392C432.315 358.681 432.923 358.138 433.592 357.799C434.26 357.46 434.972 357.335 435.678 357.431L442.853 335.076L447.6 345.911L440.059 365.478C439.867 367.159 439.25 368.68 438.323 369.755C437.397 370.83 436.227 371.383 435.034 371.309C433.841 371.235 432.708 370.54 431.851 369.355C430.994 368.17 430.471 366.577 430.381 364.879V364.879Z" fill="#FFB8B8"/>
<path d="M442.803 357.007C442.361 357.007 441.93 356.815 441.567 356.456L438.179 353.111C437.812 352.748 437.533 352.233 437.379 351.636C437.225 351.039 437.203 350.389 437.316 349.773L441.298 328.322L436.484 288.492C436.479 287.181 436.654 285.882 437.001 284.668C437.348 283.454 437.859 282.349 438.506 281.418C439.152 280.486 439.921 279.745 440.768 279.237C441.615 278.729 442.525 278.464 443.444 278.458C444.363 278.452 445.274 278.704 446.124 279.2C446.975 279.696 447.749 280.426 448.402 281.349C449.054 282.272 449.573 283.37 449.928 284.579C450.283 285.788 450.467 287.084 450.471 288.395L454.415 313.248C455.613 320.791 454.85 328.697 452.266 335.497L444.711 355.385C444.566 355.768 444.365 356.102 444.123 356.367C443.882 356.631 443.603 356.821 443.307 356.922C443.142 356.978 442.973 357.007 442.803 357.007V357.007Z" fill="#3F3D56"/>
<path d="M479.518 480H387.859C387.731 480 387.609 479.928 387.518 479.798C387.428 479.669 387.377 479.494 387.377 479.312C387.377 479.13 387.428 478.955 387.518 478.826C387.609 478.697 387.731 478.624 387.859 478.624H479.518C479.646 478.624 479.768 478.697 479.859 478.826C479.949 478.955 480 479.13 480 479.312C480 479.494 479.949 479.669 479.859 479.798C479.768 479.928 479.646 480 479.518 480Z" fill="#CCCCCC"/>
<path d="M236.643 471.44L242.557 471.439L245.371 438.906H236.642L236.643 471.44Z" fill="#A0616A"/>
<path d="M235.134 468.686L246.782 468.686H246.782C247.757 468.686 248.722 468.959 249.623 469.491C250.523 470.023 251.341 470.803 252.031 471.786C252.72 472.769 253.267 473.936 253.64 475.22C254.013 476.504 254.205 477.881 254.205 479.271V479.615L235.135 479.616L235.134 468.686Z" fill="#2F2E41"/>
<path d="M213.005 471.44L218.919 471.439L221.732 438.906H213.004L213.005 471.44Z" fill="#A0616A"/>
<path d="M211.496 468.686L223.143 468.686H223.144C224.119 468.686 225.084 468.959 225.984 469.491C226.885 470.023 227.703 470.803 228.393 471.786C229.082 472.769 229.629 473.936 230.002 475.22C230.375 476.504 230.567 477.881 230.567 479.271V479.615L211.497 479.616L211.496 468.686Z" fill="#2F2E41"/>
<path d="M237.823 246.204C244.367 246.204 249.672 238.639 249.672 229.306C249.672 219.974 244.367 212.408 237.823 212.408C231.28 212.408 225.975 219.974 225.975 229.306C225.975 238.639 231.28 246.204 237.823 246.204Z" fill="#A0616A"/>
<path d="M245.791 464.418H234.816C234.529 464.418 234.244 464.337 233.979 464.179C233.714 464.021 233.474 463.789 233.272 463.498C233.07 463.207 232.91 462.861 232.803 462.481C232.695 462.101 232.642 461.694 232.645 461.285L233.283 386.96C233.285 386.696 233.217 386.441 233.091 386.247C232.965 386.053 232.793 385.935 232.608 385.917C232.423 385.899 232.241 385.983 232.098 386.152C231.955 386.32 231.863 386.56 231.841 386.822L225.454 461.696C225.389 462.447 225.134 463.138 224.738 463.639C224.341 464.141 223.829 464.418 223.299 464.418H212.218C211.919 464.418 211.623 464.33 211.348 464.159C211.074 463.988 210.828 463.738 210.624 463.425C210.421 463.111 210.265 462.741 210.167 462.338C210.069 461.935 210.03 461.507 210.054 461.081L217.371 327.559L217.57 327.528L252.607 322.131L247.96 461.469C247.934 462.264 247.694 463.015 247.29 463.564C246.886 464.113 246.349 464.419 245.791 464.418V464.418Z" fill="#2F2E41"/>
<path d="M217.797 335.755C217.234 335.753 216.694 335.44 216.29 334.88C215.887 334.321 215.651 333.559 215.634 332.757C215.443 324.314 215.115 295.101 218.925 273.654C219.965 267.796 222.299 262.57 225.582 258.749C228.866 254.928 232.924 252.715 237.157 252.438V252.438C241.323 252.113 245.456 253.668 248.968 256.882C252.48 260.095 255.193 264.805 256.723 270.342C263.127 293.529 269.178 322.11 261.634 326.593C251.747 332.468 225.683 335.087 217.93 335.749C217.886 335.753 217.841 335.755 217.797 335.755Z" fill="#3F3D56"/>
<path d="M263.082 212.227C263.268 212.5 263.469 212.752 263.683 212.979L262.439 247.053L257.266 250.831L260.243 262.711L269.857 257.293C270.634 256.855 271.29 256.07 271.727 255.055C272.164 254.04 272.359 252.851 272.281 251.665L269.763 213.014C270.587 212.137 271.204 210.923 271.533 209.533C271.861 208.143 271.886 206.644 271.602 205.234C271.319 203.824 270.741 202.571 269.946 201.641C269.151 200.711 268.176 200.148 267.151 200.028C266.126 199.907 265.1 200.234 264.208 200.966C263.317 201.698 262.603 202.799 262.161 204.123C261.72 205.447 261.571 206.932 261.736 208.38C261.9 209.828 262.37 211.17 263.082 212.227V212.227Z" fill="#A0616A"/>
<path d="M262.537 248.322L266.177 263.071C266.28 263.491 266.319 263.938 266.291 264.381C266.262 264.824 266.167 265.253 266.012 265.639C265.857 266.025 265.645 266.359 265.392 266.617C265.138 266.876 264.848 267.054 264.542 267.138L253.81 270.102C252.302 270.846 250.648 270.706 249.212 269.713C247.775 268.72 246.673 266.956 246.148 264.806C245.623 262.657 245.716 260.298 246.409 258.246C247.101 256.195 248.335 254.619 249.841 253.864L259.477 246.611C259.753 246.403 260.057 246.283 260.368 246.258C260.68 246.233 260.991 246.304 261.282 246.467C261.572 246.629 261.835 246.879 262.051 247.199C262.268 247.519 262.434 247.902 262.537 248.322V248.322Z" fill="#3F3D56"/>
<path d="M211.76 212.227C211.573 212.5 211.373 212.752 211.159 212.979L212.402 247.053L217.576 250.831L214.599 262.711L204.985 257.293C204.208 256.855 203.552 256.07 203.115 255.055C202.677 254.04 202.483 252.851 202.56 251.665L205.079 213.014C204.255 212.137 203.637 210.923 203.309 209.533C202.98 208.143 202.956 206.644 203.24 205.234C203.523 203.824 204.101 202.571 204.896 201.641C205.691 200.711 206.666 200.148 207.691 200.028C208.716 199.907 209.742 200.234 210.633 200.966C211.524 201.698 212.238 202.799 212.68 204.123C213.122 205.447 213.27 206.932 213.106 208.38C212.942 209.828 212.472 211.17 211.76 212.227H211.76Z" fill="#A0616A"/>
<path d="M213.56 246.467C213.85 246.304 214.162 246.233 214.473 246.258C214.785 246.283 215.089 246.403 215.365 246.611L225 253.864C226.506 254.619 227.741 256.195 228.433 258.246C229.125 260.297 229.219 262.656 228.694 264.806C228.168 266.956 227.066 268.72 225.63 269.713C224.194 270.706 222.54 270.846 221.031 270.102L210.3 267.138C209.993 267.054 209.704 266.876 209.45 266.617C209.196 266.358 208.984 266.025 208.829 265.639C208.674 265.253 208.579 264.824 208.551 264.381C208.522 263.938 208.561 263.491 208.665 263.071L212.304 248.321C212.408 247.902 212.573 247.519 212.79 247.199C213.007 246.878 213.269 246.629 213.56 246.467V246.467Z" fill="#3F3D56"/>
<path d="M242.425 232.187C242.363 230.031 242.742 227.896 243.517 226.043C244.291 224.19 245.428 222.699 246.787 221.751C250.388 219.1 252.651 213.444 251.659 208.279C250.39 201.668 244.081 197.381 238.969 199.655C237.586 200.356 236.252 201.24 234.984 202.297L231.645 204.85C230.218 205.868 228.842 207.026 227.528 208.316C225.558 210.385 224.015 213.171 223.059 216.381C222.102 219.592 221.768 223.11 222.091 226.568C222.748 233.289 225.835 239.453 230.059 243.672C231.675 245.394 233.541 246.577 235.519 247.134C237.544 247.61 239.798 247.069 241.279 245.273C243.593 242.466 243.354 237.766 242.605 233.841C242.507 233.299 242.446 232.745 242.425 232.187Z" fill="#2F2E41"/>
<path d="M282.693 480H191.035C190.907 480 190.785 479.928 190.694 479.798C190.604 479.669 190.553 479.494 190.553 479.312C190.553 479.13 190.604 478.955 190.694 478.826C190.785 478.697 190.907 478.624 191.035 478.624H282.693C282.821 478.624 282.944 478.697 283.035 478.826C283.125 478.955 283.176 479.13 283.176 479.312C283.176 479.494 283.125 479.669 283.035 479.798C282.944 479.928 282.821 480 282.693 480Z" fill="#CCCCCC"/>
<path d="M133.102 354.491L57.471 398.741C56.1721 399.498 54.7156 399.49 53.4209 398.718C52.1263 397.946 51.0993 396.473 50.5652 394.622L27.4133 314.139C27.0242 312.782 27.0284 311.26 27.425 309.907C27.8216 308.554 28.5783 307.481 29.529 306.923L107.717 261.178C108.685 260.613 109.771 260.619 110.735 261.195C111.7 261.77 112.466 262.868 112.864 264.247L135.99 344.642C136.521 346.495 136.516 348.572 135.974 350.418C135.433 352.265 134.4 353.729 133.102 354.491V354.491Z" fill="#E6E6E6"/>
<path d="M60.2105 388.979L126.345 350.286C127.604 349.549 128.607 348.129 129.132 346.338C129.657 344.547 129.662 342.531 129.145 340.735L110.45 275.745C110.194 274.856 109.818 274.047 109.343 273.365C108.868 272.683 108.304 272.141 107.682 271.771C107.06 271.4 106.393 271.207 105.719 271.204C105.045 271.201 104.377 271.387 103.754 271.752L37.6195 310.445C36.9959 310.81 36.4288 311.346 35.9506 312.024C35.4724 312.701 35.0924 313.506 34.8323 314.393C34.5723 315.28 34.4373 316.231 34.435 317.192C34.4327 318.154 34.5632 319.106 34.819 319.995L53.514 384.985C53.7698 385.875 54.146 386.683 54.6209 387.365C55.0959 388.047 55.6605 388.589 56.2823 388.96C56.9041 389.331 57.5711 389.524 58.2451 389.527C58.9191 389.53 59.587 389.344 60.2105 388.979V388.979Z" fill="white"/>
<path d="M110.085 293.469L109.112 294.038L109.179 294.269L110.151 293.7L110.085 293.469Z" fill="#E6E6E6"/>
<path d="M107.215 295.418L105.25 296.568L105.184 296.336L107.148 295.187L107.215 295.418ZM103.286 297.717L101.322 298.866L101.255 298.635L103.22 297.486L103.286 297.717ZM99.3577 300.015L97.3934 301.165L97.3269 300.933L99.2912 299.784L99.3577 300.015ZM95.4291 302.314L93.4649 303.463L93.3984 303.232L95.3626 302.083L95.4291 302.314ZM91.5006 304.612L89.5364 305.762L89.4699 305.53L91.4341 304.381L91.5006 304.612ZM87.5721 306.911L85.6078 308.06L85.5413 307.829L87.5056 306.68L87.5721 306.911ZM83.6435 309.209L81.6793 310.359L81.6128 310.127L83.5771 308.978L83.6435 309.209ZM79.715 311.508L77.7508 312.657L77.6843 312.426L79.6485 311.277L79.715 311.508ZM75.7865 313.806L73.8222 314.955L73.7558 314.724L75.72 313.575L75.7865 313.806ZM71.858 316.105L69.8937 317.254L69.8272 317.023L71.7915 315.874L71.858 316.105ZM67.9294 318.403L65.9652 319.552L65.8987 319.321L67.8629 318.172L67.9294 318.403ZM64.0009 320.702L62.0366 321.851L61.9702 321.62L63.9344 320.471L64.0009 320.702ZM60.0724 323L58.1081 324.149L58.0416 323.918L60.0059 322.769L60.0724 323ZM56.1438 325.299L54.1796 326.448L54.1131 326.217L56.0774 325.068L56.1438 325.299ZM52.2153 327.597L50.2511 328.746L50.1846 328.515L52.1488 327.366L52.2153 327.597ZM48.2868 329.896L46.3225 331.045L46.256 330.814L48.2203 329.665L48.2868 329.896Z" fill="#E6E6E6"/>
<path d="M44.2918 331.963L43.3195 332.532L43.3859 332.763L44.3582 332.194L44.2918 331.963Z" fill="#E6E6E6"/>
<path d="M84.3433 333.64L83.371 334.209L83.4375 334.44L84.4098 333.872L84.3433 333.64Z" fill="#E6E6E6"/>
<path d="M81.5024 335.573L79.5673 336.705L79.5008 336.474L81.4359 335.342L81.5024 335.573ZM77.6322 337.837L75.6971 338.969L75.6306 338.738L77.5657 337.606L77.6322 337.837ZM73.762 340.101L71.827 341.234L71.7605 341.002L73.6956 339.87L73.762 340.101ZM69.8919 342.366L67.9568 343.498L67.8903 343.267L69.8254 342.135L69.8919 342.366ZM66.0217 344.63L64.0866 345.762L64.0201 345.531L65.9552 344.399L66.0217 344.63ZM62.1515 346.894L60.2164 348.027L60.1499 347.796L62.085 346.663L62.1515 346.894ZM58.2813 349.159L56.3462 350.291L56.2797 350.06L58.2148 348.928L58.2813 349.159ZM54.4111 351.423L52.4761 352.555L52.4096 352.324L54.3447 351.192L54.4111 351.423Z" fill="#E6E6E6"/>
<path d="M50.4745 353.456L49.5022 354.025L49.5687 354.256L50.541 353.687L50.4745 353.456Z" fill="#E6E6E6"/>
<path d="M68.3085 354.902L67.3362 355.471L67.4026 355.702L68.3749 355.133L68.3085 354.902Z" fill="#E6E6E6"/>
<path d="M65.4117 356.867L63.4208 358.032L63.3543 357.801L65.3453 356.636L65.4117 356.867ZM61.4299 359.197L59.439 360.362L59.3725 360.131L61.3634 358.966L61.4299 359.197ZM57.4481 361.527L55.4571 362.691L55.3907 362.46L57.3816 361.295L57.4481 361.527Z" fill="#E6E6E6"/>
<path d="M53.3997 363.625L52.4274 364.194L52.4939 364.425L53.4662 363.856L53.3997 363.625Z" fill="#E6E6E6"/>
<path d="M73.3004 372.256L72.3281 372.825L72.3945 373.056L73.3669 372.487L73.3004 372.256Z" fill="#E6E6E6"/>
<path d="M70.4036 374.221L68.4127 375.385L68.3462 375.154L70.3371 373.99L70.4036 374.221ZM66.4218 376.55L64.4308 377.715L64.3644 377.484L66.3553 376.319L66.4218 376.55ZM62.4399 378.88L60.449 380.045L60.3825 379.814L62.3735 378.649L62.4399 378.88Z" fill="#E6E6E6"/>
<path d="M58.3916 380.979L57.4193 381.547L57.4858 381.778L58.4581 381.21L58.3916 380.979Z" fill="#E6E6E6"/>
<path d="M63.0187 378.749L119.063 345.959C120.419 345.162 121.499 343.631 122.065 341.702C122.631 339.772 122.637 337.601 122.081 335.664L110.758 296.3L110.648 296.37L96.8953 343.268L86.6948 337.186C86.5066 337.073 86.3026 337.024 86.0988 337.042C85.8949 337.06 85.6968 337.145 85.5199 337.291C85.2543 337.519 85.0488 337.865 84.9352 338.277L77.7274 362.853L70.2693 358.407C70.1084 358.311 69.9358 358.261 69.7613 358.26C69.5869 358.259 69.414 358.307 69.2526 358.402C69.0912 358.496 68.9445 358.635 68.8207 358.81C68.6969 358.986 68.5986 359.194 68.5314 359.424C68.4836 359.591 63.8851 375.681 63.0187 378.749Z" fill="#F59B00"/>
<path d="M62.8462 379.119L62.6846 379.023L68.4516 359.356C68.6043 358.836 68.8951 358.425 69.2603 358.211C69.6255 357.998 70.0352 357.999 70.3995 358.216L77.7103 362.576L84.8771 338.135C85.0297 337.616 85.3206 337.204 85.6858 336.991C86.051 336.777 86.4607 336.779 86.825 336.995L96.8781 342.991L110.702 295.848L110.864 295.944L96.9721 343.318L86.7574 337.226C86.5983 337.131 86.4276 337.082 86.2551 337.081C86.0825 337.08 85.9116 337.128 85.752 337.221C85.5924 337.314 85.4472 337.452 85.3248 337.625C85.2024 337.798 85.1052 338.005 85.0386 338.232L77.8043 362.903L70.332 358.446C70.0105 358.255 69.649 358.254 69.3268 358.442C69.0046 358.631 68.7479 358.994 68.6132 359.452L62.8462 379.119Z" fill="#3F3D56"/>
<path d="M68.3417 356.767C69.0189 356.767 69.5678 355.984 69.5678 355.018C69.5678 354.052 69.0189 353.269 68.3417 353.269C67.6645 353.269 67.1156 354.052 67.1156 355.018C67.1156 355.984 67.6645 356.767 68.3417 356.767Z" fill="#3F3D56"/>
<path d="M84.3766 335.505C85.0537 335.505 85.6027 334.722 85.6027 333.756C85.6027 332.79 85.0537 332.007 84.3766 332.007C83.6994 332.007 83.1505 332.79 83.1505 333.756C83.1505 334.722 83.6994 335.505 84.3766 335.505Z" fill="#3F3D56"/>
<path d="M109.345 295.271C110.022 295.271 110.571 294.489 110.571 293.523C110.571 292.557 110.022 291.774 109.345 291.774C108.667 291.774 108.119 292.557 108.119 293.523C108.119 294.489 108.667 295.271 109.345 295.271Z" fill="#3F3D56"/>
<path d="M40.7161 353.034C41.3535 352.581 41.9136 351.935 42.3569 351.141C42.8003 350.346 43.1161 349.423 43.2821 348.436C43.4482 347.448 43.4604 346.421 43.3179 345.426C43.1755 344.431 42.8818 343.493 42.4576 342.678L46.0991 291.901H38.2294L35.3354 341.482C34.422 342.589 33.8252 344.135 33.658 345.828C33.4907 347.521 33.7647 349.242 34.4279 350.666C35.0912 352.09 36.0976 353.118 37.2566 353.554C38.4155 353.99 39.6465 353.805 40.7161 353.034Z" fill="#FFB8B8"/>
<path d="M47.9419 263.878C54.0911 263.878 59.076 256.769 59.076 247.999C59.076 239.23 54.0911 232.12 47.9419 232.12C41.7927 232.12 36.8078 239.23 36.8078 247.999C36.8078 256.769 41.7927 263.878 47.9419 263.878Z" fill="#FFB8B8"/>
<path d="M50.038 321.472C49.5923 321.471 49.159 321.263 48.8045 320.877C48.45 320.492 48.1939 319.952 48.0755 319.339C47.1835 314.717 44.8627 306.902 41.1776 296.11C40.3461 293.671 39.8857 291.008 39.8265 288.297C39.7673 285.586 40.1107 282.887 40.8342 280.379C41.5577 277.87 42.6449 275.608 44.0244 273.741C45.404 271.874 47.0448 270.444 48.8392 269.545C50.5397 268.689 52.3433 268.327 54.1433 268.483C55.9433 268.638 57.7033 269.306 59.319 270.449C60.9347 271.591 62.3733 273.184 63.5498 275.133C64.7263 277.082 65.6167 279.348 66.1683 281.797C69.0246 294.568 68.8867 308.248 68.6948 313.536C68.671 314.173 68.5014 314.781 68.2121 315.268C67.9227 315.754 67.5295 316.092 67.0928 316.229L50.4755 321.404C50.3318 321.449 50.1851 321.472 50.038 321.472Z" fill="#FF6584"/>
<path d="M66.13 472.256H71.6874L74.3315 441.684L66.129 441.684L66.13 472.256Z" fill="#FFB8B8"/>
<path d="M82.4061 479.615L64.9392 479.616L64.9389 469.992L75.6572 469.991C76.5435 469.991 77.421 470.24 78.2398 470.723C79.0586 471.207 79.8026 471.916 80.4293 472.81C81.056 473.703 81.5531 474.764 81.8923 475.932C82.2315 477.1 82.4061 478.351 82.4061 479.615Z" fill="#2F2E41"/>
<path d="M10.5562 461.984L15.4266 465.803L28.0716 440.83L20.8841 435.194L10.5562 461.984Z" fill="#FFB8B8"/>
<path d="M22.3328 479.616L7.02655 467.615L10.2778 459.181L19.6702 466.546C21.2387 467.775 22.4003 469.843 22.8996 472.294C23.399 474.746 23.195 477.379 22.3328 479.616V479.616V479.616Z" fill="#2F2E41"/>
<path d="M65.8703 455.287C65.3751 455.287 64.8969 455.029 64.525 454.563C64.1531 454.096 63.9129 453.453 63.8493 452.752L56.8988 376.368C56.868 376.03 56.7633 375.715 56.5994 375.467C56.4354 375.219 56.2208 375.052 55.9861 374.988C55.7514 374.925 55.5086 374.968 55.2925 375.113C55.0763 375.258 54.8978 375.497 54.7824 375.796L25.8157 450.746C25.5766 451.358 25.1916 451.827 24.7305 452.068C24.2694 452.31 23.7628 452.307 23.303 452.061L16.9891 448.63C16.7351 448.492 16.5031 448.283 16.3065 448.016C16.11 447.748 15.9529 447.427 15.8446 447.072C15.7362 446.716 15.6787 446.333 15.6755 445.946C15.6723 445.558 15.7235 445.174 15.8259 444.815L35.8919 374.515C35.9427 374.337 35.9772 374.149 35.9944 373.958C38.7123 343.958 45.6273 328.702 47.6819 324.741C47.832 324.45 47.9307 324.111 47.9699 323.754C48.009 323.397 47.9873 323.032 47.9067 322.69L47.6243 321.481C47.5114 321.002 47.4883 320.488 47.5572 319.992C47.626 319.496 47.7844 319.034 48.0168 318.652C55.4202 306.625 68.324 313.188 68.4535 313.255L68.5181 313.289L68.5586 313.368C83.0276 341.668 77.6779 433.583 76.4586 451.721C76.4131 452.403 76.2 453.04 75.857 453.519C75.5141 453.998 75.0633 454.289 74.5846 454.34L66.0287 455.279C65.9755 455.285 65.9227 455.287 65.8703 455.287Z" fill="#2F2E41"/>
<path d="M91.2271 266.444C91.1715 266.793 91.1352 267.148 91.1186 267.505L71.645 283.527L66.9117 279.64L61.8656 289.062L69.7763 297.103C70.4154 297.752 71.185 298.089 71.9695 298.061C72.7541 298.034 73.5112 297.645 74.1274 296.951L94.2081 274.359C95.1143 274.837 96.1012 274.911 97.0375 274.57C97.9737 274.229 98.815 273.489 99.4494 272.45C100.084 271.41 100.481 270.12 100.589 268.75C100.697 267.381 100.509 265.997 100.052 264.783C99.5947 263.569 98.8891 262.582 98.029 261.954C97.1689 261.325 96.1951 261.086 95.2371 261.266C94.2791 261.446 93.3822 262.039 92.6659 262.964C91.9496 263.889 91.4478 265.103 91.2271 266.444V266.444Z" fill="#FFB8B8"/>
<path d="M70.994 284.285L64.7001 295.919C64.5211 296.25 64.2941 296.522 64.0346 296.716C63.7752 296.911 63.4893 297.023 63.1966 297.046C62.9039 297.069 62.6112 297.002 62.3384 296.849C62.0656 296.696 61.8191 296.461 61.6158 296.16L54.4907 285.608C53.3085 284.292 52.5405 282.36 52.3551 280.238C52.1697 278.115 52.5821 275.974 53.5018 274.285C54.4215 272.595 55.7734 271.494 57.2613 271.224C58.7491 270.954 60.2514 271.536 61.4387 272.843L70.375 279.969C70.6308 280.173 70.8528 280.454 71.0258 280.791C71.1988 281.129 71.3187 281.516 71.3775 281.925C71.4362 282.335 71.4323 282.758 71.3662 283.165C71.3 283.572 71.173 283.954 70.994 284.285V284.285Z" fill="#FF6584"/>
<path d="M46.6 304.497L36.461 301.886C36.1725 301.811 35.8987 301.649 35.6581 301.41C35.4175 301.172 35.2158 300.862 35.0668 300.502C34.9177 300.142 34.8249 299.74 34.7945 299.324C34.7641 298.908 34.797 298.488 34.8908 298.092L38.1776 284.213C38.4524 282.11 39.3007 280.249 40.5366 279.036C41.7724 277.824 43.2949 277.36 44.7701 277.747C46.2454 278.133 47.553 279.338 48.4063 281.097C49.2596 282.856 49.589 285.026 49.322 287.131L49.0014 301.726C48.9921 302.144 48.9198 302.554 48.7894 302.928C48.6589 303.302 48.4735 303.632 48.2456 303.895C48.0177 304.158 47.7527 304.348 47.4687 304.452C47.1848 304.556 46.8884 304.571 46.6 304.497H46.6Z" fill="#FF6584"/>
<path d="M49.7042 244.347C52.5659 247.14 56.3234 250.012 59.2462 247.037C60.1604 246.044 60.8246 244.656 61.1393 243.079C61.4539 241.503 61.4022 239.824 60.9917 238.293C59.5922 232.585 55.747 230.072 52.0701 228.146C47.2901 225.642 42.0853 223.65 37.1507 225.444C32.2161 227.237 27.855 234.05 28.7458 241.201C29.4622 246.951 33.2654 251.736 32.7255 257.525C32.1821 263.351 27.5876 266.418 23.5314 267.46C19.4752 268.501 14.9362 268.835 12.0212 272.991C8.30255 278.291 9.23116 287.765 12.7303 293.362C16.2294 298.958 21.5097 301.495 26.6264 303.22C33.4056 305.504 40.7379 306.705 47.1765 302.913C53.6151 299.121 58.6255 288.913 56.7603 279.342C55.9725 275.298 54.1166 271.881 52.3229 268.555C50.5293 265.228 48.7131 261.75 48.0289 257.668C47.4587 254.267 47.8807 250.318 49.4622 247.767C49.7499 247.321 49.9309 246.756 49.9793 246.153C50.0277 245.551 49.941 244.942 49.7317 244.414L49.7042 244.347Z" fill="#2F2E41"/>
<path d="M92.1407 480H0.482412C0.354468 480 0.231765 479.928 0.141295 479.798C0.050825 479.669 0 479.494 0 479.312C0 479.13 0.050825 478.955 0.141295 478.826C0.231765 478.697 0.354468 478.624 0.482412 478.624H92.1407C92.2686 478.624 92.3913 478.697 92.4818 478.826C92.5723 478.955 92.6231 479.13 92.6231 479.312C92.6231 479.494 92.5723 479.669 92.4818 479.798C92.3913 479.928 92.2686 480 92.1407 480Z" fill="#CCCCCC"/>
</svg>
