<svg width="480" height="480" viewBox="0 0 480 480" fill="none" xmlns="http://www.w3.org/2000/svg">
<g clip-path="url(#clip0)">
<path d="M422.003 462.143C427.251 474.134 438.721 479.492 438.721 479.492C438.721 479.492 441.681 465.407 436.433 453.416C431.185 441.424 419.715 436.067 419.715 436.067C419.715 436.067 416.754 450.151 422.003 462.143Z" fill="#F1F1F1"/>
<path d="M425.809 458.324C435.523 465.498 439.08 479.39 439.08 479.39C439.08 479.39 426.889 481.65 417.175 474.476C407.461 467.302 403.903 453.409 403.903 453.409C403.903 453.409 416.095 451.149 425.809 458.324Z" fill="#F1F1F1"/>
<path d="M289.308 471.19H282.496L279.256 440.304L289.31 440.305L289.308 471.19Z" fill="#FFB7B7"/>
<path d="M291.045 478.952L269.081 478.951V478.625C269.081 475.959 269.981 473.403 271.585 471.519C273.188 469.634 275.363 468.575 277.63 468.575H277.63L291.046 468.576L291.045 478.952Z" fill="#2F2E41"/>
<path d="M331.537 471.19H324.725L321.484 440.304L331.538 440.305L331.537 471.19Z" fill="#FFB7B7"/>
<path d="M333.274 478.952L311.309 478.951V478.625C311.309 475.959 312.21 473.403 313.813 471.519C315.417 469.634 317.591 468.575 319.859 468.575H319.859L333.274 468.576L333.274 478.952Z" fill="#2F2E41"/>
<path d="M311.756 297.22L298.353 265.516L301.805 239.218L285.692 233.993L284.025 269.263L304.921 302.644C304.771 303.894 304.933 305.169 305.386 306.313C305.84 307.458 306.566 308.423 307.477 309.092C308.388 309.762 309.444 310.106 310.518 310.084C311.592 310.062 312.637 309.674 313.528 308.967C314.418 308.261 315.115 307.266 315.534 306.104C315.953 304.941 316.076 303.661 315.889 302.417C315.701 301.174 315.211 300.021 314.478 299.099C313.744 298.176 312.799 297.524 311.756 297.22V297.22Z" fill="#FFB7B7"/>
<path d="M340.751 297.22L354.153 265.516L350.702 239.218L366.815 233.993L368.482 269.263L347.586 302.644C347.736 303.894 347.574 305.169 347.121 306.313C346.667 307.458 345.941 308.423 345.03 309.092C344.119 309.762 343.063 310.106 341.989 310.084C340.915 310.062 339.87 309.674 338.979 308.967C338.089 308.261 337.392 307.266 336.973 306.104C336.554 304.941 336.431 303.661 336.618 302.417C336.806 301.174 337.296 300.021 338.029 299.099C338.763 298.176 339.708 297.524 340.751 297.22V297.22Z" fill="#FFB7B7"/>
<path d="M331.805 188.865C339.901 188.865 346.464 181.15 346.464 171.633C346.464 162.117 339.901 154.401 331.805 154.401C323.708 154.401 317.145 162.117 317.145 171.633C317.145 181.15 323.708 188.865 331.805 188.865Z" fill="#FFB9B9"/>
<path d="M317.256 171.541C317.256 171.541 315.666 168.737 316.277 165.717C316.643 164.002 316.787 162.232 316.705 160.467C317.39 157.851 318.249 155.302 319.275 152.845C320.559 150.112 319.948 148.962 323.985 148.099C328.023 147.236 326.371 141.052 337.015 147.739C337.374 148.329 337.874 148.78 338.451 149.036C339.028 149.292 339.657 149.341 340.257 149.177C342.46 148.674 343.255 152.27 343.255 152.27C343.255 152.27 344.723 151.263 345.274 152.701C345.824 154.139 349.75 151.838 349.75 161.546C349.75 171.253 345.283 179.925 345.283 179.925C345.283 179.925 342.146 191.56 334.866 189.906C327.586 188.252 326.531 189.253 321.53 178.149C320.507 181.62 318.935 168.443 317.256 171.541Z" fill="#2F2E41"/>
<path d="M299.583 282.979L297.883 290.813C297.883 290.813 289.877 295.36 286.673 336.196L282.358 397.425L275.771 461.594L289.463 462.842L298.957 422.188L319.468 336.708L323.357 401.375L319.03 459.98L333.477 460.634L343.478 395.319C343.478 395.319 358.8 299.651 348.917 296.867L347.924 286.898L299.583 282.979Z" fill="#2F2E41"/>
<path d="M296.413 209.345L319.997 194.069L340.012 195.324L363.919 211.958L353.955 285.105C353.955 285.105 359.666 292.611 342.404 290.408C325.142 288.204 297.242 286.416 297.242 286.416C297.242 286.416 294.998 281.183 299.791 280.448C304.584 279.713 300.576 279.885 300.576 279.885C300.576 279.885 297.68 268.953 300.576 266.822L301.977 244.371L296.413 209.345Z" fill="#3F3D56"/>
<path d="M302.917 210.48L296.413 209.345L282.635 238.238L305.021 249.84L302.917 210.48Z" fill="#3F3D56"/>
<path d="M356.258 215.705L363.919 211.958L371.538 252.608L350.861 257.211L356.258 215.705Z" fill="#3F3D56"/>
<path d="M179.389 480H479.386C479.549 480 479.705 479.924 479.82 479.789C479.935 479.654 480 479.47 480 479.279C480 479.088 479.935 478.904 479.82 478.769C479.705 478.634 479.549 478.558 479.386 478.558H179.389C179.226 478.558 179.07 478.634 178.955 478.769C178.84 478.904 178.775 479.088 178.775 479.279C178.775 479.47 178.84 479.654 178.955 479.789C179.07 479.924 179.226 480 179.389 480Z" fill="#CBCBCB"/>
<path d="M147.238 286.733H69.3246V332.886H147.238V286.733Z" fill="white"/>
<path d="M138.033 298.547H78.5301V300.918H138.033V298.547Z" fill="#F59B00"/>
<path d="M138.033 308.624H78.5301V310.995H138.033V308.624Z" fill="#F59B00"/>
<path d="M138.033 318.701H78.5301V321.072H138.033V318.701Z" fill="#F59B00"/>
<path d="M147.852 333.607H68.7112V286.011H147.852V333.607ZM69.9382 332.165H146.625V287.454H69.9382V332.165Z" fill="#3F3D56"/>
<path d="M91.2493 229.408C74.7543 229.423 58.5829 224.027 44.5554 213.826L44.1991 213.566L44.4194 213.147L91.0155 124.502H180.074V124.995C180.074 182.569 140.228 229.408 91.2493 229.408Z" fill="#F59B00"/>
<path d="M34.1104 191.769L33.8241 191.561C18.1028 180.134 6.76918 161.979 2.21183 140.923C-2.34551 119.866 0.229362 97.5522 9.3938 78.6834L9.56094 78.3405L71.7694 120.126L34.1104 191.769Z" fill="#F1F1F1"/>
<path d="M180.074 110.517H90.7272L109.988 7.94652L110.397 8.05219C130.152 13.1848 147.826 26.0888 160.496 44.6306C173.165 63.1724 180.072 86.2416 180.074 110.024V110.517Z" fill="#F59B00"/>
<path d="M76.4961 94.3624L15.9581 53.6989L16.1208 53.365C23.4601 38.2946 34.7016 26.3728 48.2073 19.3366C61.713 12.3004 76.7773 10.5176 91.2052 14.2479L91.5249 14.3304L76.4961 94.3624Z" fill="#F1F1F1"/>
<path d="M303.068 0.721252H225.154V46.8747H303.068V0.721252Z" fill="white"/>
<path d="M293.862 12.5358H234.36V14.9068H293.862V12.5358Z" fill="#F59B00"/>
<path d="M293.862 22.6124H234.36V24.9834H293.862V22.6124Z" fill="#F59B00"/>
<path d="M293.862 32.6891H234.36V35.0601H293.862V32.6891Z" fill="#F59B00"/>
<path d="M303.681 47.5957H224.541V0H303.681V47.5957ZM225.768 46.1534H302.454V1.44229H225.768V46.1534Z" fill="#3F3D56"/>
<path d="M109.062 167.284H107.835V286.011H109.062V167.284Z" fill="#3F3D56"/>
<path d="M224.851 23.8514L132.741 72.8241L133.246 74.1382L225.357 25.1656L224.851 23.8514Z" fill="#3F3D56"/>
</g>
<defs>
<clipPath id="clip0">
<rect width="480" height="480" fill="white"/>
</clipPath>
</defs>
</svg>
