<svg width="480" height="480" viewBox="0 0 480 480" fill="none" xmlns="http://www.w3.org/2000/svg">
<g clip-path="url(#clip0)">
<path d="M480 0.292053H149.433V330.252H480V0.292053Z" fill="#E6E6E6"/>
<path d="M470.547 41.6772H158.885V310.731H470.547V41.6772Z" fill="white"/>
<path d="M479.859 0H149.292V21.8878H479.859V0Z" fill="#F59B00"/>
<path d="M159.728 15.2469C161.165 15.2469 162.331 13.4306 162.331 11.1902C162.331 8.94968 161.165 7.13342 159.728 7.13342C158.29 7.13342 157.125 8.94968 157.125 11.1902C157.125 13.4306 158.29 15.2469 159.728 15.2469Z" fill="white"/>
<path d="M169.608 15.2469C171.045 15.2469 172.211 13.4306 172.211 11.1902C172.211 8.94968 171.045 7.13342 169.608 7.13342C168.17 7.13342 167.005 8.94968 167.005 11.1902C167.005 13.4306 168.17 15.2469 169.608 15.2469Z" fill="white"/>
<path d="M179.488 15.2469C180.925 15.2469 182.091 13.4306 182.091 11.1902C182.091 8.94968 180.925 7.13342 179.488 7.13342C178.05 7.13342 176.885 8.94968 176.885 11.1902C176.885 13.4306 178.05 15.2469 179.488 15.2469Z" fill="white"/>
<path d="M382.361 66.8776H280.894C280.678 66.8331 280.479 66.6674 280.335 66.4114C280.191 66.1554 280.111 65.8265 280.111 65.486C280.111 65.1455 280.191 64.8166 280.335 64.5606C280.479 64.3046 280.678 64.1389 280.894 64.0944H382.361C382.578 64.1389 382.777 64.3046 382.921 64.5606C383.065 64.8166 383.144 65.1455 383.144 65.486C383.144 65.8265 383.065 66.1554 382.921 66.4114C382.777 66.6674 382.578 66.8331 382.361 66.8776V66.8776Z" fill="#CCCCCC"/>
<path d="M312.055 82.1851H247.542C247.325 82.1406 247.126 81.9749 246.982 81.7189C246.838 81.4629 246.759 81.134 246.759 80.7935C246.759 80.453 246.838 80.1241 246.982 79.8681C247.126 79.6121 247.325 79.4464 247.542 79.4019H312.055C312.271 79.4464 312.47 79.6121 312.614 79.8681C312.758 80.1241 312.837 80.453 312.837 80.7935C312.837 81.134 312.758 81.4629 312.614 81.7189C312.47 81.9749 312.271 82.1406 312.055 82.1851V82.1851Z" fill="#CCCCCC"/>
<path d="M382.361 82.4635H317.848C317.632 82.419 317.433 82.2533 317.289 81.9973C317.145 81.7413 317.065 81.4124 317.065 81.0719C317.065 80.7314 317.145 80.4025 317.289 80.1465C317.433 79.8905 317.632 79.7248 317.848 79.6803H382.361C382.578 79.7248 382.777 79.8905 382.921 80.1465C383.065 80.4025 383.144 80.7314 383.144 81.0719C383.144 81.4124 383.065 81.7413 382.921 81.9973C382.777 82.2533 382.578 82.419 382.361 82.4635H382.361Z" fill="#CCCCCC"/>
<path d="M312.211 97.4926H247.698C247.482 97.4482 247.283 97.2825 247.139 97.0265C246.995 96.7704 246.915 96.4416 246.915 96.1011C246.915 95.7606 246.995 95.4317 247.139 95.1757C247.283 94.9196 247.482 94.754 247.698 94.7095H312.211C312.428 94.754 312.627 94.9196 312.771 95.1757C312.915 95.4317 312.994 95.7606 312.994 96.1011C312.994 96.4416 312.915 96.7704 312.771 97.0265C312.627 97.2825 312.428 97.4482 312.211 97.4926V97.4926Z" fill="#CCCCCC"/>
<path d="M312.368 112.8H247.855C247.638 112.756 247.439 112.59 247.295 112.334C247.151 112.078 247.072 111.749 247.072 111.409C247.072 111.068 247.151 110.739 247.295 110.483C247.439 110.227 247.638 110.061 247.855 110.017H312.368C312.584 110.061 312.783 110.227 312.927 110.483C313.071 110.739 313.151 111.068 313.151 111.409C313.151 111.749 313.071 112.078 312.927 112.334C312.783 112.59 312.584 112.756 312.368 112.8V112.8Z" fill="#CCCCCC"/>
<path d="M341.649 97.4926H323.172C322.955 97.4482 322.757 97.2825 322.613 97.0265C322.469 96.7704 322.389 96.4416 322.389 96.1011C322.389 95.7606 322.469 95.4317 322.613 95.1757C322.757 94.9196 322.955 94.754 323.172 94.7095H341.649C341.866 94.754 342.065 94.9196 342.209 95.1757C342.353 95.4317 342.432 95.7606 342.432 96.1011C342.432 96.4416 342.353 96.7704 342.209 97.0265C342.065 97.2825 341.866 97.4482 341.649 97.4926V97.4926Z" fill="#CCCCCC"/>
<path d="M341.649 112.522H323.172C322.955 112.477 322.757 112.312 322.613 112.056C322.469 111.8 322.389 111.471 322.389 111.13C322.389 110.79 322.469 110.461 322.613 110.205C322.757 109.949 322.955 109.783 323.172 109.739H341.649C341.866 109.783 342.065 109.949 342.209 110.205C342.353 110.461 342.432 110.79 342.432 111.13C342.432 111.471 342.353 111.8 342.209 112.056C342.065 112.312 341.866 112.477 341.649 112.522V112.522Z" fill="#CCCCCC"/>
<path d="M372.653 112.522H354.176C353.959 112.477 353.76 112.312 353.616 112.056C353.472 111.8 353.393 111.471 353.393 111.13C353.393 110.79 353.472 110.461 353.616 110.205C353.76 109.949 353.959 109.783 354.176 109.739H372.653C372.869 109.783 373.068 109.949 373.212 110.205C373.356 110.461 373.436 110.79 373.436 111.13C373.436 111.471 373.356 111.8 373.212 112.056C373.068 112.312 372.869 112.477 372.653 112.522V112.522Z" fill="#CCCCCC"/>
<path d="M265.549 66.8776H247.072C246.855 66.8331 246.656 66.6674 246.512 66.4114C246.368 66.1554 246.289 65.8265 246.289 65.486C246.289 65.1455 246.368 64.8166 246.512 64.5606C246.656 64.3046 246.855 64.1389 247.072 64.0944H265.549C265.765 64.1389 265.964 64.3046 266.108 64.5606C266.252 64.8166 266.332 65.1455 266.332 65.486C266.332 65.8265 266.252 66.1554 266.108 66.4114C265.964 66.6674 265.765 66.8331 265.549 66.8776Z" fill="#CCCCCC"/>
<path d="M311.82 242.392H247.307C247.09 242.347 246.891 242.181 246.747 241.925C246.603 241.669 246.524 241.34 246.524 241C246.524 240.659 246.603 240.331 246.747 240.075C246.891 239.819 247.09 239.653 247.307 239.608H311.82C312.036 239.653 312.235 239.819 312.379 240.075C312.523 240.331 312.603 240.659 312.603 241C312.603 241.34 312.523 241.669 312.379 241.925C312.235 242.181 312.036 242.347 311.82 242.392H311.82Z" fill="#CCCCCC"/>
<path d="M311.506 273.007H246.993C246.777 272.962 246.578 272.796 246.434 272.54C246.29 272.284 246.211 271.955 246.211 271.615C246.211 271.274 246.29 270.946 246.434 270.69C246.578 270.434 246.777 270.268 246.993 270.223H311.507C311.723 270.268 311.922 270.434 312.066 270.69C312.21 270.946 312.289 271.274 312.289 271.615C312.289 271.955 312.21 272.284 312.066 272.54C311.922 272.796 311.723 272.962 311.507 273.007H311.506Z" fill="#CCCCCC"/>
<path d="M311.663 288.314H247.15C246.934 288.27 246.735 288.104 246.591 287.848C246.447 287.592 246.367 287.263 246.367 286.922C246.367 286.582 246.447 286.253 246.591 285.997C246.735 285.741 246.934 285.575 247.15 285.531H311.663C311.88 285.575 312.079 285.741 312.223 285.997C312.367 286.253 312.446 286.582 312.446 286.922C312.446 287.263 312.367 287.592 312.223 287.848C312.079 288.104 311.88 288.27 311.663 288.314H311.663Z" fill="#CCCCCC"/>
<path d="M339.222 273.285H320.745C320.528 273.24 320.33 273.075 320.185 272.819C320.041 272.563 319.962 272.234 319.962 271.893C319.962 271.553 320.041 271.224 320.185 270.968C320.33 270.712 320.528 270.546 320.745 270.502H339.222C339.439 270.546 339.637 270.712 339.781 270.968C339.926 271.224 340.005 271.553 340.005 271.893C340.005 272.234 339.926 272.563 339.781 272.819C339.637 273.075 339.439 273.24 339.222 273.285V273.285Z" fill="#CCCCCC"/>
<path d="M339.222 288.314H320.745C320.528 288.27 320.33 288.104 320.185 287.848C320.041 287.592 319.962 287.263 319.962 286.922C319.962 286.582 320.041 286.253 320.185 285.997C320.33 285.741 320.528 285.575 320.745 285.531H339.222C339.439 285.575 339.637 285.741 339.781 285.997C339.926 286.253 340.005 286.582 340.005 286.922C340.005 287.263 339.926 287.592 339.781 287.848C339.637 288.104 339.439 288.27 339.222 288.314V288.314Z" fill="#CCCCCC"/>
<path d="M370.226 273.285H351.749C351.532 273.24 351.333 273.075 351.189 272.819C351.045 272.563 350.966 272.234 350.966 271.893C350.966 271.553 351.045 271.224 351.189 270.968C351.333 270.712 351.532 270.546 351.749 270.502H370.226C370.442 270.546 370.641 270.712 370.785 270.968C370.929 271.224 371.009 271.553 371.009 271.893C371.009 272.234 370.929 272.563 370.785 272.819C370.641 273.075 370.442 273.24 370.226 273.285V273.285Z" fill="#CCCCCC"/>
<path d="M382.439 257.699H280.972C280.756 257.655 280.557 257.489 280.413 257.233C280.269 256.977 280.19 256.648 280.19 256.307C280.19 255.967 280.269 255.638 280.413 255.382C280.557 255.126 280.756 254.96 280.972 254.916H382.439C382.656 254.96 382.855 255.126 382.999 255.382C383.143 255.638 383.222 255.967 383.222 256.307C383.222 256.648 383.143 256.977 382.999 257.233C382.855 257.489 382.656 257.655 382.439 257.699V257.699Z" fill="#CCCCCC"/>
<path d="M265.627 257.699H247.15C246.934 257.655 246.735 257.489 246.591 257.233C246.447 256.977 246.367 256.648 246.367 256.307C246.367 255.967 246.447 255.638 246.591 255.382C246.735 255.126 246.934 254.96 247.15 254.916H265.627C265.844 254.96 266.043 255.126 266.187 255.382C266.331 255.638 266.41 255.967 266.41 256.307C266.41 256.648 266.331 256.977 266.187 257.233C266.043 257.489 265.844 257.655 265.627 257.699V257.699Z" fill="#CCCCCC"/>
<path d="M296.24 137.526L271.186 176.086L296.24 214.645L301.877 205.86L282.93 176.33L302.033 146.556L296.24 137.526Z" fill="#E6E6E6"/>
<path d="M333.194 137.526L358.247 176.086L333.194 214.645L327.557 205.86L346.503 176.33L327.4 146.556L333.194 137.526Z" fill="#E6E6E6"/>
<path d="M296.24 137.526L271.186 176.086L296.24 214.645L301.877 205.86L282.93 176.33L302.033 146.556L296.24 137.526Z" fill="#F59B00"/>
<path d="M333.194 137.526L358.247 176.086L333.194 214.645L327.557 205.86L346.503 176.33L327.4 146.556L333.194 137.526Z" fill="#F59B00"/>
<path d="M254.416 460.078C262.212 476.349 278.394 478.061 278.394 478.061C278.394 478.061 281.937 453.393 274.141 437.122C266.346 420.851 250.164 419.139 250.164 419.139C250.164 419.139 246.621 443.807 254.416 460.078Z" fill="#E6E6E6"/>
<path d="M294.128 466.194C288.984 476.931 278.306 478.061 278.306 478.061C278.306 478.061 275.968 461.783 281.112 451.047C286.256 440.31 296.935 439.18 296.935 439.18C296.935 439.18 299.272 455.458 294.128 466.194Z" fill="#E6E6E6"/>
<path d="M80.9981 388.424V430.659H73.2553L68.0941 386.412L80.9981 388.424Z" fill="#FFB9B9"/>
<path d="M19.7028 388.424V430.659H11.9606L6.79883 386.412L19.7028 388.424Z" fill="#FFB9B9"/>
<path d="M60.5479 77.081C60.5479 77.081 48.1062 63.1436 46.5509 69.8093C44.9957 76.475 55.8823 88.5945 55.8823 88.5945L60.5479 77.081Z" fill="#FFB9B9"/>
<path d="M16.4185 94.9571C16.4185 119.053 23.075 119.802 33.9189 119.802C44.7629 119.802 55.6878 119.053 55.6878 94.9571C55.6878 70.861 46.8971 51.3271 36.0531 51.3271C25.2092 51.3271 16.4185 70.861 16.4185 94.9571Z" fill="#2F2E41"/>
<path d="M43.0517 94.6542C43.0517 94.6542 41.4965 112.833 48.8838 114.045C56.2711 115.257 24.7778 118.893 24.7778 118.893C24.7778 118.893 32.9428 107.38 28.6659 98.29C24.389 89.2004 43.0517 94.6542 43.0517 94.6542Z" fill="#FFB9B9"/>
<path d="M82.3211 419.455L85.0427 455.207C85.0427 455.207 98.6509 481.264 90.0972 479.446C81.5435 477.628 76.1002 479.833 76.1002 477.409C76.1002 474.985 75.8991 466.325 74.7327 466.325C73.5662 466.325 72.6009 480 72.6009 480C72.6009 480 69.1017 479.587 68.7129 478.981C68.3241 478.375 67.9353 443.694 67.9353 443.694C67.9353 443.694 66.7689 433.393 69.1017 428.545C71.4345 423.697 71.0457 419.455 71.0457 419.455L82.3211 419.455Z" fill="#2F2E41"/>
<path d="M20.3807 419.062L23.1024 454.814C23.1024 454.814 36.7106 480.871 28.1568 479.053C19.6031 477.235 14.1598 479.44 14.1598 477.016C14.1598 474.592 13.9587 465.932 12.7923 465.932C11.6259 465.932 10.6606 479.607 10.6606 479.607C10.6606 479.607 7.16133 479.194 6.77252 478.588C6.38371 477.982 5.99491 443.301 5.99491 443.301C5.99491 443.301 4.8285 432.999 7.16133 428.152C9.49416 423.304 9.10535 419.062 9.10535 419.062H20.3807Z" fill="#2F2E41"/>
<path d="M62.1032 206.759C62.1032 206.759 74.545 261.902 75.3226 274.022C76.1002 286.141 74.545 327.347 74.545 327.347C74.545 327.347 85.8203 398.544 83.4875 399.15C81.1547 399.756 68.1634 402.629 67.7746 399.599C67.3858 396.569 65.9996 391.878 66.3884 390.061C66.7772 388.243 65.222 381.577 65.222 377.941C65.222 374.305 59.7703 355.222 60.1591 352.192C60.5479 349.162 53.5494 304.321 52.383 300.685C51.2166 297.049 48.1061 271.598 48.1061 271.598C48.1061 271.598 30.6099 346.133 30.2211 347.951C29.8323 349.768 28.277 352.798 29.0546 353.404C29.8323 354.01 27.8882 358.252 27.8882 358.252C27.8882 358.252 23.8594 383.395 23.8594 384.607C23.8594 385.819 24.637 399.537 23.0818 400.143C21.5265 400.749 5.64066 400.71 4.86305 396.468C4.08543 392.226 13.1136 343.103 13.1136 343.103C13.1136 343.103 19.7233 312.198 17.7793 304.321C15.8352 296.443 19.7233 249.177 21.2785 245.541C22.8338 241.905 23.2226 220.09 23.2226 220.09L62.1032 206.759Z" fill="#2F2E41"/>
<path d="M36.2476 104.653C43.119 104.653 48.6894 95.971 48.6894 85.2616C48.6894 74.5522 43.119 65.8705 36.2476 65.8705C29.3762 65.8705 23.8058 74.5522 23.8058 85.2616C23.8058 95.971 29.3762 104.653 36.2476 104.653Z" fill="#FFB9B9"/>
<path d="M43.0517 109.803C43.0517 109.803 29.0547 110.409 28.277 108.592C27.4994 106.774 8.05914 112.833 8.05914 124.953C8.05914 137.072 19.3345 184.338 19.3345 184.338C19.3345 184.338 23.6114 218.272 22.445 221.908C21.2785 225.544 65.6024 214.031 64.436 207.971C63.2696 201.911 56.6599 188.58 65.2136 177.066C73.7673 165.553 77.2666 153.433 77.2666 153.433L67.1576 111.621C67.1576 111.621 57.0487 109.197 54.7158 111.621C52.383 114.045 43.0517 109.803 43.0517 109.803Z" fill="#F59B00"/>
<path d="M74.5449 156.463L77.2666 153.433C77.2666 153.433 102.539 112.227 95.9292 104.35C89.3195 96.472 79.5994 89.2004 74.9337 88.5944C70.2681 87.9884 66.38 82.5347 66.38 82.5347C66.38 82.5347 61.3256 68.5973 57.4375 77.6869C53.5494 86.7765 49.2726 89.8063 54.7158 92.8362C60.1591 95.8661 63.6584 94.6541 66.38 97.684C69.1017 100.714 79.5994 105.562 74.9337 107.38C72.2583 108.39 69.6536 109.811 67.1576 111.621L62.1031 125.559L74.5449 156.463Z" fill="#F59B00"/>
<path d="M30.6099 258.873C30.6099 258.873 40.7189 281.899 33.3316 280.688C25.9443 279.476 22.445 263.72 22.445 263.72L30.6099 258.873Z" fill="#FFB9B9"/>
<path d="M10.7808 121.923L8.05918 124.953C8.05918 124.953 -0.883358 201.305 8.05918 221.302C17.0017 241.299 17.7793 240.087 17.7793 240.087C17.7793 240.087 19.3345 238.269 20.1122 250.389C20.8898 262.508 19.7234 267.356 22.0562 267.356C24.389 267.356 34.8868 263.72 34.1092 260.69C33.3316 257.661 28.2771 240.087 27.8883 235.846C27.4995 231.604 25.5554 221.908 24.7778 216.455C24.0002 211.001 28.2771 207.971 26.3331 196.457C24.389 184.944 21.6674 164.341 21.6674 160.099C21.6674 155.857 10.7808 121.923 10.7808 121.923Z" fill="#F59B00"/>
<path d="M24.1946 67.9914C24.1946 74.5174 29.9391 79.8078 37.0252 79.8078C44.1114 79.8078 50.6334 83.304 50.6334 76.778C50.6334 70.2519 44.1114 56.1749 37.0252 56.1749C29.9391 56.1749 24.1946 61.4653 24.1946 67.9914Z" fill="#2F2E41"/>
<path d="M55.5714 99.0468C55.5714 99.0468 56.0951 121.014 42.0889 119.802C28.0827 118.59 43.9817 101.025 43.9817 101.025L55.5714 99.0468Z" fill="#2F2E41"/>
<path d="M380.003 478.061H0V479.949H380.003V478.061Z" fill="#3F3D56"/>
</g>
<defs>
<clipPath id="clip0">
<rect width="480" height="480" fill="white"/>
</clipPath>
</defs>
</svg>
