<svg width="480" height="480" viewBox="0 0 480 480" fill="none" xmlns="http://www.w3.org/2000/svg">
<g clip-path="url(#clip0)">
<path d="M445.92 480V425.494C445.92 425.494 461.536 464.137 445.92 480Z" fill="#F1F1F1"/>
<path d="M446.884 479.99L417.365 443.13C417.365 443.13 448.854 453.615 446.884 479.99Z" fill="#F1F1F1"/>
<path d="M319.361 336.023C319.295 335.026 319.391 334.02 319.642 333.078C319.893 332.136 320.292 331.281 320.812 330.571C321.333 329.862 321.961 329.317 322.653 328.974C323.345 328.631 324.084 328.498 324.818 328.585L330.139 314.698L337.132 317.038L329.415 336.506C329.225 338.173 328.593 339.688 327.637 340.763C326.682 341.838 325.469 342.399 324.23 342.339C322.991 342.28 321.811 341.604 320.913 340.44C320.016 339.276 319.463 337.704 319.361 336.023H319.361Z" fill="#FFB7B7"/>
<path d="M351.125 471.313L345.224 471.312L342.417 440.353L351.126 440.354L351.125 471.313Z" fill="#FFB7B7"/>
<path d="M352.63 479.093L333.603 479.092V478.765C333.603 476.093 334.383 473.531 335.772 471.642C337.161 469.753 339.044 468.692 341.008 468.692H341.009L352.63 468.692L352.63 479.093Z" fill="#2F2E41"/>
<path d="M398.585 465.317L392.892 467.428L384.194 438.564L392.597 435.448L398.585 465.317Z" fill="#FFB7B7"/>
<path d="M401.542 472.284L383.185 479.093L383.122 478.777C382.605 476.2 382.862 473.449 383.837 471.129C384.811 468.81 386.423 467.112 388.318 466.408L388.319 466.408L399.53 462.25L401.542 472.284Z" fill="#2F2E41"/>
<path d="M340.352 337.577L337.408 398.378L343.732 466.592L354.088 462.292L354.525 401.343L362.81 366.198L387.341 460.068L398.57 454.432L389.303 393.484L384.07 336.243L340.352 337.577Z" fill="#2F2E41"/>
<path d="M368.969 230.812L351.528 234.311L345.245 242.763L343.294 273.133L344.506 300.033L339.454 347.47C339.454 347.47 352.156 337.879 362 349.885C371.844 361.891 385.617 352.007 385.901 344.02L368.969 230.812Z" fill="#CBCBCB"/>
<path d="M360.113 268.901L360.112 268.867L368.777 230.452L368.889 230.442C369.505 230.388 384.032 229.223 387.281 238.979L387.296 239.026L386.31 278.947L387.669 341.469L360.802 349.384L360.607 349.442L360.113 268.901Z" fill="#2F2E41"/>
<path d="M350.511 266.245L352.1 233.68C340.796 234.636 340.967 245.538 340.98 246.013L340.856 294.725L338.592 346.837L346.824 345.998L350.511 266.245Z" fill="#2F2E41"/>
<path d="M325.021 325.501L335.057 293.82L342.062 276.323L345.719 307.885L333.021 333.792L325.021 325.501Z" fill="#2F2E41"/>
<path d="M366.497 313.844C366.651 312.865 366.961 311.942 367.405 311.143C367.849 310.344 368.416 309.686 369.067 309.218C369.718 308.749 370.436 308.48 371.172 308.43C371.908 308.379 372.642 308.549 373.325 308.927L381.421 297.793L387.596 302.835L375.999 318.34C375.457 319.857 374.524 321.05 373.378 321.694C372.231 322.338 370.951 322.387 369.78 321.833C368.609 321.279 367.628 320.16 367.023 318.687C366.418 317.215 366.231 315.492 366.497 313.844V313.844Z" fill="#FFB7B7"/>
<path d="M373.306 304.862L389.814 280.23L378.886 259.021L380.011 248.651L386.452 237.83L386.577 238.051C387.264 239.259 403.396 267.767 403.859 278.559C404.323 289.391 381.136 316.791 380.149 317.952L380.011 318.114L373.306 304.862Z" fill="#2F2E41"/>
<path d="M358.905 228.144C365.385 228.144 370.638 220.999 370.638 212.185C370.638 203.371 365.385 196.225 358.905 196.225C352.425 196.225 347.172 203.371 347.172 212.185C347.172 220.999 352.425 228.144 358.905 228.144Z" fill="#FFB7B7"/>
<path d="M369.94 199.426L370.509 197.869L367.647 195.935C367.647 195.935 364.49 188.947 358.776 190.911C353.063 192.874 350.492 194.05 350.492 194.05L347.637 196.003L349.07 197.943L346.5 199.118L348.217 200.278L346.219 201.841L347.294 209.849C347.294 209.849 349.081 203.775 352.516 206.096C355.95 208.417 362.232 204.896 362.232 204.896L367.69 219.264C367.69 219.264 368.816 214.227 370.824 215.57C370.824 215.57 375.953 204.46 369.94 199.426Z" fill="#2F2E41"/>
<path d="M237.179 289.781L58.7543 356.713L0 66.9314L178.425 0L237.179 289.781Z" fill="white"/>
<path d="M237.179 289.781L58.7543 356.713L0 66.9314L178.425 0L237.179 289.781ZM61.0339 351.25L233.163 286.68L176.145 5.46224L4.01579 70.0321L61.0339 351.25Z" fill="#F1F1F1"/>
<path d="M139.595 129.817L94.87 146.595C94.2391 146.83 93.5652 146.716 92.9962 146.277C92.4272 145.837 92.0096 145.109 91.8349 144.251L79.5002 83.4157C79.327 82.5575 79.4111 81.6409 79.7341 80.8669C80.0571 80.093 80.5926 79.5249 81.2231 79.2873L125.949 62.5097C126.58 62.2741 127.253 62.3885 127.822 62.8278C128.391 63.2672 128.809 63.9956 128.984 64.8532L141.318 125.689C141.492 126.547 141.408 127.464 141.085 128.238C140.762 129.012 140.226 129.58 139.595 129.817V129.817ZM81.4855 80.5817C81.1072 80.7243 80.7859 81.0651 80.5921 81.5295C80.3983 81.9939 80.3478 82.5438 80.4518 83.0588L92.7865 143.894C92.8912 144.409 93.1418 144.846 93.4832 145.11C93.8246 145.373 94.229 145.442 94.6075 145.3L139.333 128.523C139.711 128.38 140.033 128.039 140.226 127.575C140.42 127.111 140.471 126.561 140.367 126.046L128.032 65.2103C127.927 64.6957 127.677 64.2586 127.335 63.995C126.994 63.7314 126.59 63.6628 126.211 63.8042L81.4855 80.5817Z" fill="#E5E5E5"/>
<path d="M128.258 142.079L83.5324 158.857C82.9645 159.069 82.358 158.966 81.8459 158.57C81.3338 158.175 80.9579 157.519 80.8007 156.747L68.466 95.9118C68.3101 95.1394 68.3858 94.3145 68.6765 93.6179C68.9672 92.9214 69.4492 92.4101 70.0167 92.1963L114.742 75.4187C115.31 75.2066 115.916 75.3096 116.429 75.705C116.941 76.1004 117.317 76.7559 117.474 77.5278L129.808 138.363C129.964 139.136 129.889 139.961 129.598 140.657C129.307 141.354 128.825 141.865 128.258 142.079V142.079Z" fill="#F59B00"/>
<path d="M180.07 150.384L55.2587 197.204L56.5889 203.764L181.4 156.944L180.07 150.384Z" fill="#F1F1F1"/>
<path d="M183.538 167.489L58.7269 214.309L60.057 220.869L184.868 174.05L183.538 167.489Z" fill="#F1F1F1"/>
<path d="M187.006 184.594L62.195 231.414L63.5252 237.974L188.337 191.155L187.006 184.594Z" fill="#F1F1F1"/>
<path d="M193.11 214.699L68.2989 261.519L69.629 268.08L194.44 221.26L193.11 214.699Z" fill="#F1F1F1"/>
<path d="M196.578 231.804L71.767 278.624L73.0972 285.185L197.909 238.365L196.578 231.804Z" fill="#F1F1F1"/>
<path d="M200.047 248.91L75.2352 295.729L76.5653 302.29L201.377 255.47L200.047 248.91Z" fill="#F1F1F1"/>
<path d="M294.294 355.744H109.208V55.1452H294.294V355.744Z" fill="white"/>
<path d="M294.294 355.744H109.208V55.1452H294.294V355.744ZM112.473 351.303H291.029V59.5865H112.473V351.303Z" fill="#E5E5E5"/>
<path d="M260.596 184.369H154.775V191.174H260.596V184.369Z" fill="#F59B00"/>
<path d="M260.596 202.063H154.775V208.868H260.596V202.063Z" fill="#F59B00"/>
<path d="M260.596 219.757H154.775V226.562H260.596V219.757Z" fill="#F59B00"/>
<path d="M146.172 193.21C147.975 193.21 149.437 191.222 149.437 188.769C149.437 186.316 147.975 184.327 146.172 184.327C144.368 184.327 142.906 186.316 142.906 188.769C142.906 191.222 144.368 193.21 146.172 193.21Z" fill="#F59B00"/>
<path d="M260.596 108.126H154.775V114.932H260.596V108.126Z" fill="#E5E5E5"/>
<path d="M260.596 125.82H154.775V132.625H260.596V125.82Z" fill="#E5E5E5"/>
<path d="M260.596 143.514H154.775V150.319H260.596V143.514Z" fill="#E5E5E5"/>
<path d="M146.172 116.227C147.975 116.227 149.437 114.239 149.437 111.786C149.437 109.333 147.975 107.344 146.172 107.344C144.368 107.344 142.906 109.333 142.906 111.786C142.906 114.239 144.368 116.227 146.172 116.227Z" fill="#E5E5E5"/>
<path d="M260.596 261.352H154.775V268.157H260.596V261.352Z" fill="#E5E5E5"/>
<path d="M260.596 279.046H154.775V285.851H260.596V279.046Z" fill="#E5E5E5"/>
<path d="M260.596 296.74H154.775V303.545H260.596V296.74Z" fill="#E5E5E5"/>
<path d="M146.172 269.453C147.975 269.453 149.437 267.464 149.437 265.012C149.437 262.559 147.975 260.57 146.172 260.57C144.368 260.57 142.906 262.559 142.906 265.012C142.906 267.464 144.368 269.453 146.172 269.453Z" fill="#E5E5E5"/>
<path d="M285.653 381.629C306.546 381.629 323.483 358.591 323.483 330.172C323.483 301.754 306.546 278.716 285.653 278.716C264.76 278.716 247.823 301.754 247.823 330.172C247.823 358.591 264.76 381.629 285.653 381.629Z" fill="#F59B00"/>
<path d="M296.134 326.89V317.044C296.135 315.171 295.865 313.316 295.338 311.585C294.812 309.854 294.04 308.282 293.067 306.957C292.094 305.632 290.938 304.581 289.666 303.864C288.393 303.146 287.03 302.777 285.653 302.777C284.276 302.777 282.912 303.146 281.64 303.864C280.368 304.581 279.212 305.632 278.239 306.957C277.265 308.282 276.494 309.854 275.967 311.585C275.441 313.316 275.171 315.171 275.172 317.044V326.89C273.771 326.976 272.448 327.793 271.479 329.171C270.509 330.55 269.968 332.384 269.967 334.291V357.558H301.339V334.291C301.338 332.384 300.797 330.55 299.827 329.171C298.858 327.793 297.535 326.976 296.134 326.89V326.89ZM285.653 307.807C287.453 307.81 289.179 308.784 290.452 310.516C291.725 312.248 292.441 314.595 292.443 317.044V326.873H278.862V317.044C278.864 314.595 279.58 312.248 280.853 310.516C282.127 308.784 283.853 307.81 285.653 307.807Z" fill="white"/>
<path d="M288.473 338.38C288.473 337.718 288.347 337.068 288.108 336.492C287.869 335.916 287.525 335.434 287.108 335.093C286.692 334.752 286.218 334.563 285.732 334.544C285.246 334.526 284.764 334.679 284.335 334.988C283.905 335.297 283.541 335.752 283.279 336.309C283.016 336.866 282.864 337.505 282.837 338.166C282.81 338.826 282.909 339.485 283.125 340.077C283.34 340.67 283.665 341.177 284.067 341.549V349.887H287.239V341.549C287.619 341.198 287.93 340.726 288.145 340.173C288.36 339.621 288.473 339.005 288.473 338.38V338.38Z" fill="#F59B00"/>
<path d="M479.446 479.694H268.396C268.249 479.694 268.108 479.615 268.004 479.473C267.9 479.332 267.842 479.14 267.842 478.94C267.842 478.741 267.9 478.549 268.004 478.408C268.108 478.266 268.249 478.187 268.396 478.187H479.446C479.593 478.187 479.734 478.266 479.838 478.408C479.942 478.549 480 478.741 480 478.94C480 479.14 479.942 479.332 479.838 479.473C479.734 479.615 479.593 479.694 479.446 479.694Z" fill="#CBCBCB"/>
</g>
<defs>
<clipPath id="clip0">
<rect width="480" height="480" fill="white"/>
</clipPath>
</defs>
</svg>
