<svg width="650" height="528" viewBox="0 0 650 528" fill="none" xmlns="http://www.w3.org/2000/svg">
<g clip-path="url(#clip0)">
<path d="M491.28 280.703C514.498 269.229 545.437 266.831 567.801 279.457C539.88 286.823 515.942 302.296 500.223 323.139C494.195 331.196 488.483 340.688 477.778 343.692C471.117 345.562 463.682 344.409 457.358 341.837C451.033 339.265 445.611 335.378 440.265 331.534L438.558 331.201C451.476 311.266 468.063 292.177 491.28 280.703Z" fill="#F0F0F0"/>
<path d="M567.554 279.886C545.354 278.463 523.189 282.987 504.205 292.815C500.074 294.869 496.352 297.461 493.176 300.495C490.195 303.535 488.232 307.194 487.491 311.091C486.713 314.714 486.414 318.495 484.607 321.895C483.652 323.624 482.275 325.162 480.567 326.41C478.859 327.657 476.858 328.585 474.696 329.134C469.349 330.618 463.691 330.39 458.166 330.006C452.032 329.578 445.669 329.052 439.796 330.981C439.084 331.215 438.697 330.268 439.407 330.035C449.626 326.679 460.586 330.469 471.08 328.872C475.977 328.127 480.637 326.13 483.052 322.301C485.164 318.953 485.477 315.053 486.227 311.38C486.884 307.568 488.636 303.951 491.329 300.844C494.312 297.683 497.91 294.974 501.968 292.834C511.014 287.891 520.923 284.181 531.333 281.84C543.196 279.112 555.524 278.119 567.783 278.903C568.542 278.952 568.308 279.935 567.554 279.886L567.554 279.886Z" fill="white"/>
<path d="M510.097 289.346C508.578 286.431 508.335 283.155 509.411 280.102C510.487 277.049 512.812 274.419 515.971 272.681C516.612 272.331 517.285 273.156 516.644 273.506C513.699 275.12 511.533 277.57 510.538 280.415C509.543 283.259 509.784 286.31 511.217 289.018C511.528 289.607 510.406 289.932 510.097 289.346H510.097Z" fill="white"/>
<path d="M487.599 309.211C494.756 311.623 502.726 311.668 509.92 309.335C510.633 309.104 511.021 310.05 510.309 310.282C502.817 312.697 494.523 312.637 487.081 310.112C486.372 309.871 486.893 308.971 487.599 309.211V309.211Z" fill="white"/>
<path d="M542.972 280.426C543.282 281.658 543.948 282.805 544.912 283.765C545.876 284.725 547.107 285.467 548.495 285.926C549.207 286.159 548.685 287.059 547.978 286.827C546.448 286.315 545.089 285.493 544.021 284.434C542.954 283.376 542.209 282.113 541.852 280.755C541.806 280.629 541.818 280.493 541.886 280.375C541.954 280.257 542.073 280.164 542.218 280.117C542.367 280.074 542.529 280.083 542.67 280.141C542.812 280.199 542.92 280.301 542.972 280.426V280.426Z" fill="white"/>
<path d="M577.072 356.01C576.622 355.875 576.172 355.74 575.714 355.61C569.657 353.821 563.438 352.451 557.119 351.514C556.632 351.435 556.136 351.361 555.648 351.294C540.394 349.172 524.807 349.462 509.678 352.149C503.659 353.223 497.746 354.682 491.989 356.514C484.039 359.044 475.657 362.322 467.424 362.481C466.566 362.505 465.706 362.485 464.85 362.42L438.209 332.987C438.189 332.895 438.16 332.807 438.138 332.714L437.011 331.58C437.3 331.468 437.603 331.357 437.892 331.245C438.059 331.179 438.233 331.12 438.4 331.055C438.514 331.013 438.627 330.972 438.727 330.929C438.765 330.915 438.803 330.901 438.832 330.892C438.932 330.849 439.03 330.818 439.122 330.78C440.811 330.156 442.509 329.541 444.216 328.935C444.224 328.93 444.224 328.93 444.237 328.932C457.252 324.342 470.833 320.63 484.65 318.779C485.066 318.723 485.489 318.662 485.917 318.62C492.151 317.814 498.452 317.441 504.757 317.503C508.21 317.546 511.657 317.737 515.087 318.075C523.947 318.962 532.586 321.022 540.689 324.178C556.84 330.471 570.429 341.059 576.612 354.945C576.77 355.3 576.922 355.649 577.072 356.01Z" fill="#F0F0F0"/>
<path d="M576.57 356.23C559.859 343.8 538.938 336.135 516.778 334.324C512.016 333.863 507.197 334.039 502.499 334.845C497.953 335.756 493.779 337.678 490.41 340.413C487.208 342.91 484.275 345.777 480.41 347.573C478.416 348.467 476.22 348.995 473.968 349.122C471.715 349.249 469.456 348.972 467.339 348.31C462.012 346.775 457.656 343.714 453.52 340.597C448.926 337.135 444.221 333.477 438.157 332.03C437.422 331.854 437.787 330.901 438.521 331.076C449.071 333.595 455.121 342.197 464.638 346.261C469.079 348.158 474.223 348.935 478.879 347.106C482.951 345.507 485.979 342.552 489.195 340.001C492.436 337.292 496.412 335.295 500.776 334.184C505.41 333.178 510.212 332.845 514.978 333.201C525.722 333.857 536.278 335.936 546.258 339.362C557.673 343.219 568.224 348.698 577.453 355.562C578.025 355.987 577.137 356.652 576.57 356.23H576.57Z" fill="white"/>
<path d="M523.954 334.552C524.818 331.452 526.958 328.712 529.993 326.822C533.027 324.932 536.757 324.015 540.518 324.234C540.671 324.245 540.814 324.305 540.916 324.402C541.018 324.499 541.071 324.626 541.064 324.756C541.058 324.886 540.992 325.008 540.88 325.098C540.769 325.187 540.621 325.236 540.467 325.235C536.965 325.025 533.491 325.88 530.67 327.645C527.848 329.41 525.867 331.969 525.082 334.86C524.911 335.488 523.783 335.177 523.954 334.552V334.552Z" fill="white"/>
<path d="M491.836 338.967C495.832 344.534 502.164 348.625 509.57 350.422C510.304 350.6 509.939 351.553 509.206 351.376C501.503 349.493 494.924 345.225 490.781 339.423C490.387 338.87 491.444 338.416 491.836 338.967V338.967Z" fill="white"/>
<path d="M556.558 344.155C555.928 345.296 555.643 346.551 555.728 347.808C555.814 349.065 556.268 350.284 557.049 351.356C557.452 351.905 556.394 352.358 555.994 351.812C555.137 350.625 554.638 349.278 554.54 347.889C554.442 346.501 554.747 345.113 555.43 343.848C555.482 343.724 555.589 343.621 555.727 343.561C555.866 343.501 556.026 343.488 556.176 343.525C556.325 343.566 556.449 343.655 556.52 343.774C556.592 343.892 556.606 344.029 556.558 344.155V344.155Z" fill="white"/>
<path d="M39.2071 460.306C41.9311 437.695 57.883 415.167 83.1388 407.35C73.7143 430.748 74.3879 456.208 85.0403 479.227C89.1865 488.091 94.8905 497.586 91.4497 506.664C89.3088 512.312 83.823 516.706 77.6352 519.506C71.4471 522.305 64.5348 523.714 57.7088 525.096L56.3837 526.065C44.9472 505.493 36.4832 482.917 39.2071 460.306Z" fill="#F0F0F0"/>
<path d="M83.4026 407.771C68.9521 422.082 60.2054 439.877 58.4048 458.628C57.9324 462.658 58.2148 466.727 59.2417 470.683C60.3894 474.51 62.7289 478.007 66.0171 480.812C69.0209 483.479 72.4589 485.913 74.6432 489.15C75.7321 490.821 76.3907 492.668 76.5758 494.569C76.7608 496.471 76.4681 498.384 75.7169 500.183C73.983 504.707 70.429 508.434 66.8035 511.977C62.778 515.912 58.523 519.944 56.9035 525.09C56.7073 525.713 55.5738 525.419 55.7698 524.797C58.5875 515.844 68.6729 510.599 73.3349 502.496C75.5102 498.715 76.3503 494.357 74.1144 490.451C72.1593 487.035 68.6165 484.522 65.5475 481.844C62.2923 479.148 59.8679 475.82 58.4859 472.15C57.224 468.25 56.7565 464.198 57.1036 460.166C57.7137 451.078 60.011 442.127 63.9114 433.642C68.2993 423.938 74.6195 414.939 82.5986 407.035C83.0927 406.546 83.8934 407.286 83.4026 407.771V407.771Z" fill="white"/>
<path d="M58.5641 452.561C54.8821 451.879 51.607 450.113 49.3237 447.578C47.0404 445.044 45.8977 441.906 46.0995 438.725C46.1095 438.596 46.1784 438.475 46.2919 438.387C46.4053 438.3 46.5545 438.253 46.7079 438.257C46.8613 438.26 47.0071 438.314 47.1147 438.407C47.2223 438.499 47.2832 438.623 47.2848 438.753C47.0904 441.715 48.1552 444.637 50.2871 446.994C52.419 449.35 55.4775 450.985 58.9106 451.603C59.6564 451.738 59.3057 452.695 58.5641 452.561V452.561Z" fill="white"/>
<path d="M64.2834 479.629C70.8098 476.167 75.5522 470.754 77.5652 464.469C77.764 463.846 78.8975 464.14 78.6989 464.762C76.5897 471.299 71.6408 476.924 64.8399 480.513C64.1914 480.855 63.6383 479.969 64.2833 479.629H64.2834Z" fill="white"/>
<path d="M69.4239 424.866C70.7834 425.38 72.273 425.602 73.7589 425.51C75.2447 425.418 76.6804 425.016 77.9368 424.34C78.5799 423.991 79.1323 424.878 78.4934 425.224C77.1011 425.966 75.515 426.409 73.8736 426.513C72.2322 426.618 70.5855 426.381 69.0773 425.823C68.93 425.781 68.8073 425.693 68.7342 425.577C68.661 425.46 68.643 425.325 68.6837 425.198C68.7304 425.072 68.8343 424.966 68.9729 424.903C69.1114 424.841 69.2735 424.827 69.4239 424.866V424.866Z" fill="white"/>
<path d="M161.774 446.164C161.38 446.391 160.985 446.618 160.591 446.854C155.31 449.933 150.333 453.37 145.711 457.13C145.348 457.415 144.985 457.71 144.633 458.004C133.611 467.163 124.696 477.972 118.343 489.88C115.821 494.621 113.728 499.517 112.084 504.526C109.815 511.444 108.005 519.097 103.302 524.809C102.82 525.41 102.293 525.984 101.726 526.53L57.8852 527.355C57.7845 527.315 57.6834 527.283 57.5822 527.243L55.8336 527.343C55.897 527.08 55.9695 526.808 56.0329 526.545C56.0689 526.392 56.1147 526.239 56.1508 526.086C56.1779 525.984 56.2055 525.882 56.2231 525.788C56.2319 525.754 56.2413 525.72 56.2504 525.695C56.268 525.602 56.296 525.516 56.3138 525.431C56.714 523.91 57.1275 522.389 57.5543 520.867C57.5541 520.859 57.5541 520.859 57.5637 520.85C60.8511 509.262 65.3123 497.804 71.6897 487.283C71.8817 486.967 72.073 486.642 72.285 486.325C75.1908 481.596 78.5492 477.075 82.3266 472.809C84.4038 470.478 86.6194 468.238 88.9647 466.096C95.0373 460.573 102.1 455.891 109.895 452.223C125.434 444.911 143.567 441.881 160.485 445.85C160.917 445.952 161.341 446.054 161.774 446.164Z" fill="#F0F0F0"/>
<path d="M161.688 446.636C139.953 450.711 120.29 460.469 105.493 474.524C102.244 477.502 99.5703 480.894 97.5712 484.576C95.7609 488.215 95.137 492.198 95.7643 496.11C96.2625 499.767 97.2733 503.46 96.7106 507.156C96.3894 509.044 95.5994 510.854 94.3924 512.466C93.1854 514.078 91.5887 515.457 89.7071 516.511C85.0994 519.241 79.6057 520.409 74.1863 521.394C68.1691 522.487 61.8986 523.542 56.9392 526.827C56.3383 527.225 55.6426 526.413 56.2426 526.016C64.8712 520.301 76.6608 521.245 86.1569 517.146C90.5879 515.234 94.3638 512.182 95.3617 507.925C96.2344 504.203 95.1959 500.395 94.6536 496.695C93.9754 492.887 94.4112 488.996 95.923 485.362C97.6938 481.606 100.208 478.133 103.358 475.09C110.32 468.144 118.532 462.167 127.692 457.376C138.11 451.86 149.568 447.89 161.57 445.639C162.313 445.5 162.426 446.498 161.688 446.636H161.688Z" fill="white"/>
<path d="M109.942 469.761C107.489 467.343 106.132 464.267 106.115 461.082C106.097 457.897 107.421 454.81 109.848 452.373C110.341 451.881 111.269 452.506 110.775 452.998C108.509 455.264 107.277 458.139 107.3 461.105C107.324 464.071 108.601 466.933 110.902 469.173C111.401 469.66 110.439 470.246 109.942 469.761Z" fill="white"/>
<path d="M95.2227 494.283C102.9 494.84 110.544 492.93 116.629 488.936C117.232 488.54 117.928 489.351 117.326 489.746C110.984 493.893 103.025 495.866 95.0369 495.273C94.2756 495.216 94.4655 494.227 95.2227 494.283V494.283Z" fill="white"/>
<path d="M138.347 453.173C139.065 454.276 140.097 455.21 141.349 455.893C142.6 456.576 144.033 456.985 145.518 457.084C146.28 457.133 146.09 458.122 145.333 458.073C143.692 457.957 142.111 457.504 140.726 456.752C139.341 456.001 138.194 454.974 137.387 453.762C137.3 453.653 137.265 453.52 137.289 453.39C137.314 453.26 137.396 453.143 137.519 453.062C137.646 452.985 137.805 452.953 137.96 452.974C138.115 452.994 138.254 453.066 138.347 453.173V453.173Z" fill="white"/>
<path d="M377.094 62.1468L141.091 42.5314C138.357 42.2916 135.715 41.5627 133.34 40.3933C130.89 39.1886 128.718 37.619 126.93 35.7604C123.085 31.7877 120.976 26.8178 120.957 21.6859C120.954 20.4359 121.086 19.1883 121.35 17.9584C121.603 16.7803 121.989 15.6255 122.503 14.51C123.001 13.4306 123.629 12.3972 124.376 11.4259C125.111 10.4716 125.967 9.5872 126.927 8.78816C127.861 8.00979 128.896 7.32317 130.012 6.7414C132.186 5.60909 134.643 4.9226 137.187 4.7369C138.487 4.64268 139.796 4.67104 141.089 4.82145L377.094 31.7971C378.895 32.0232 380.601 32.6269 382.055 33.5531C383.648 34.5631 385.01 35.8099 386.074 37.2323C387.26 38.7991 388.167 40.5044 388.767 42.2938C389.422 44.221 389.753 46.2162 389.752 48.2211C389.753 49.198 389.673 50.1738 389.512 51.1412C389.358 52.063 389.122 52.9736 388.805 53.8651C388.504 54.7139 388.119 55.5396 387.654 56.3337C387.21 57.0921 386.682 57.8132 386.076 58.487C385.51 59.1186 384.864 59.6961 384.15 60.2091C383.487 60.6844 382.757 61.0877 381.976 61.4096C380.461 62.0343 378.77 62.2893 377.093 62.146L377.094 62.1468Z" fill="#E4E4E4"/>
<path d="M272.197 53.4288L141.091 42.5314C138.357 42.2916 135.715 41.5627 133.34 40.3933C130.89 39.1886 128.718 37.6189 126.93 35.7604C123.085 31.7876 120.976 26.8177 120.957 21.6859C120.954 20.4359 121.086 19.1883 121.35 17.9584C121.603 16.7803 121.989 15.6255 122.503 14.5099C123.001 13.4306 123.629 12.3971 124.376 11.4258C125.111 10.4715 125.967 9.58716 126.927 8.78813C127.861 8.00976 128.896 7.32314 130.012 6.74137C132.186 5.60906 134.643 4.92257 137.187 4.73687C138.487 4.64265 139.796 4.67101 141.089 4.82142L272.194 19.8099L272.197 53.4288Z" fill="#F59B00"/>
<path d="M271.862 55.9051C271.256 55.8516 270.673 55.6778 270.161 55.3978C269.621 55.1037 269.151 54.7272 268.774 54.2878C268.365 53.8129 268.047 53.2858 267.834 52.7263C267.605 52.1306 267.488 51.508 267.488 50.8816V21.4221C267.483 20.8181 267.6 20.2178 267.833 19.6467C268.039 19.1416 268.358 18.675 268.774 18.2729C269.153 17.9029 269.63 17.6133 270.165 17.4275C270.705 17.2466 271.291 17.1883 271.866 17.2584C272.473 17.3342 273.052 17.5269 273.557 17.8214C274.093 18.135 274.559 18.5273 274.932 18.9797C275.335 19.4631 275.649 19.9964 275.86 20.5606C276.085 21.1556 276.2 21.7764 276.2 22.4011V51.623C276.204 52.2267 276.089 52.8267 275.86 53.3984C275.656 53.9089 275.342 54.3826 274.932 54.795C274.556 55.1734 274.085 55.4754 273.553 55.6785C273.022 55.8759 272.439 55.9539 271.862 55.9051Z" fill="#3F3D56"/>
<path d="M62.1373 31.7236C61.9037 31.7033 61.6721 31.6697 61.4439 31.6229C61.2103 31.5749 60.9807 31.5139 60.7566 31.4403C60.5261 31.3648 60.3016 31.277 60.0843 31.1774C59.8594 31.0743 59.6422 30.9597 59.4339 30.8342C58.1746 30.0759 57.2781 28.9618 56.9067 27.6934C56.7835 27.2716 56.7213 26.8387 56.7216 26.4042V4.28291C56.7197 3.86115 56.782 3.44092 56.9067 3.03253C57.0239 2.64698 57.204 2.27708 57.4419 1.93348C57.9085 1.26222 58.6028 0.724739 59.4349 0.390595C59.853 0.221582 60.2984 0.105639 60.7566 0.0465108C61.214 -0.0118908 61.6788 -0.0153137 62.1373 0.0363584C62.611 0.0900725 63.0742 0.196393 63.515 0.352552C63.9815 0.517891 64.4223 0.730827 64.8276 0.986617L85.7361 14.1118C86.1098 14.3467 86.452 14.6155 86.7566 14.9132C87.3601 15.5028 87.8073 16.1946 88.0682 16.9422C88.199 17.3171 88.2812 17.7029 88.3134 18.0928C88.3134 18.1239 88.3157 18.155 88.3204 18.1858C88.325 18.2167 88.325 18.248 88.3204 18.2788V18.4657C88.322 18.8775 88.2629 19.2879 88.1443 19.6873C88.0322 20.0638 87.8605 20.4258 87.634 20.7635C87.4139 21.0909 87.1393 21.3899 86.8186 21.6512C86.4978 21.9136 86.1331 22.1347 85.7361 22.3073L64.8256 31.3034C64.6174 31.3929 64.4017 31.4694 64.1803 31.5325C63.962 31.5948 63.7386 31.6437 63.512 31.6787C63.2859 31.7136 63.0572 31.7348 62.8276 31.7422C62.5973 31.7495 62.3666 31.7433 62.1373 31.7236V31.7236Z" fill="#CACACA"/>
<path d="M377.14 158.47L141.162 162.23C138.489 162.272 135.84 161.804 133.412 160.86C130.977 159.907 128.796 158.547 127.002 156.862C125.116 155.096 123.637 153.048 122.638 150.825C120.493 146.027 120.493 140.732 122.638 135.934C123.637 133.71 125.116 131.662 127.002 129.895C128.796 128.209 130.977 126.847 133.412 125.892C135.84 124.947 138.489 124.477 141.162 124.518L377.14 128.122C378.898 128.159 380.612 128.598 382.101 129.39C383.691 130.238 385.058 131.353 386.119 132.664C387.314 134.13 388.223 135.749 388.811 137.459C390.124 141.266 390.124 145.311 388.811 149.119C388.223 150.829 387.314 152.448 386.119 153.915C385.059 155.23 383.691 156.348 382.101 157.2C380.612 157.993 378.898 158.431 377.14 158.47V158.47Z" fill="#E4E4E4"/>
<path d="M233.395 160.761L141.162 162.23C138.489 162.272 135.84 161.804 133.412 160.86C130.977 159.907 128.796 158.547 127.002 156.862C125.116 155.096 123.637 153.048 122.638 150.825C121.568 148.447 121.023 145.924 121.03 143.38C121.029 142.117 121.16 140.857 121.423 139.614C121.679 138.399 122.065 137.207 122.576 136.052C123.079 134.915 123.706 133.821 124.449 132.783C125.187 131.752 126.041 130.784 126.999 129.892C127.931 129.021 128.965 128.232 130.084 127.536C131.161 126.868 132.318 126.298 133.536 125.837C135.932 124.927 138.536 124.477 141.162 124.518L233.395 125.926V160.761Z" fill="#F59B00"/>
<path d="M234.472 162.965C233.842 162.976 233.219 162.857 232.655 162.618C232.082 162.373 231.575 162.029 231.167 161.609C230.726 161.157 230.385 160.641 230.159 160.087C229.912 159.485 229.787 158.852 229.789 158.215V127.729C229.787 127.092 229.912 126.458 230.159 125.856C230.385 125.302 230.726 124.786 231.167 124.334C231.575 123.915 232.082 123.573 232.655 123.328C233.219 123.09 233.842 122.971 234.472 122.982C235.106 122.995 235.727 123.135 236.283 123.392C236.853 123.657 237.355 124.016 237.759 124.447C238.193 124.908 238.529 125.429 238.752 125.987C238.995 126.589 239.118 127.22 239.117 127.856V158.088C239.118 158.724 238.995 159.356 238.752 159.958C238.529 160.516 238.193 161.037 237.759 161.499C237.355 161.931 236.854 162.29 236.283 162.555C235.727 162.812 235.106 162.952 234.472 162.965V162.965Z" fill="#3F3D56"/>
<path d="M62.2173 159.242C61.7513 159.248 61.2866 159.199 60.8366 159.096C60.6074 159.044 60.3828 158.978 60.1643 158.9C59.9406 158.82 59.7237 158.726 59.515 158.621C59.097 158.412 58.7141 158.156 58.3764 157.86C58.0423 157.566 57.7554 157.237 57.523 156.88C57.2872 156.517 57.1073 156.131 56.9877 155.73C56.8639 155.315 56.8017 154.889 56.8026 154.462V132.34C56.8017 131.913 56.8639 131.487 56.9877 131.072C57.1075 130.672 57.2874 130.286 57.523 129.924C57.9904 129.203 58.6788 128.602 59.516 128.183C59.9284 127.973 60.3732 127.812 60.8376 127.704C61.7423 127.497 62.6976 127.509 63.595 127.737C64.057 127.855 64.4981 128.025 64.9066 128.242L85.8171 139.295L85.8921 139.335L85.9672 139.377L86.0412 139.419L86.1143 139.462C86.4499 139.667 86.7564 139.904 87.0277 140.169C87.2986 140.432 87.5335 140.721 87.728 141.029C87.9243 141.341 88.0796 141.67 88.1913 142.01C88.3063 142.36 88.3767 142.72 88.4014 143.082V143.391C88.4022 143.808 88.3431 144.224 88.2253 144.629C88.1111 145.021 87.9397 145.399 87.715 145.755C87.4936 146.106 87.2199 146.432 86.9006 146.723C86.578 147.017 86.211 147.272 85.8091 147.484L64.9066 158.557C64.6998 158.667 64.4846 158.765 64.2623 158.85C64.0455 158.934 63.8222 159.005 63.594 159.062C63.3697 159.119 63.141 159.163 62.9096 159.193C62.6805 159.223 62.4492 159.24 62.2173 159.242V159.242Z" fill="#CACACA"/>
<path d="M377.094 254.471L141.091 281.53C138.527 281.842 135.913 281.646 133.454 280.956C130.996 280.267 128.762 279.103 126.929 277.556C125.032 275.962 123.546 274.054 122.564 271.95C121.484 269.632 120.938 267.159 120.957 264.667C120.976 259.535 123.085 254.564 126.93 250.591C128.718 248.732 130.89 247.161 133.34 245.956C135.714 244.785 138.357 244.056 141.091 243.815L377.094 224.122C378.801 223.977 380.522 224.245 382.055 224.896C383.639 225.584 385.014 226.571 386.074 227.781C387.279 229.145 388.191 230.678 388.767 232.31C389.433 234.168 389.764 236.101 389.752 238.042C389.753 240.047 389.422 242.042 388.767 243.97C388.167 245.759 387.26 247.465 386.074 249.032C385.01 250.455 383.648 251.702 382.055 252.713C380.601 253.64 378.895 254.244 377.094 254.471V254.471Z" fill="#E4E4E4"/>
<path d="M339.985 258.725L141.091 281.529C138.527 281.842 135.913 281.645 133.454 280.956C130.996 280.266 128.762 279.102 126.929 277.556C125.032 275.962 123.546 274.053 122.564 271.95C121.485 269.632 120.939 267.161 120.957 264.67C120.957 263.394 121.089 262.121 121.35 260.865C122.131 257.091 124.052 253.551 126.927 250.588C127.859 249.626 128.892 248.736 130.012 247.93C131.083 247.158 132.238 246.474 133.463 245.887C134.645 245.321 135.893 244.858 137.186 244.504C138.454 244.158 139.762 243.927 141.088 243.815L339.985 227.218V258.725Z" fill="#F59B00"/>
<path d="M62.1363 286.336C61.9064 286.362 61.6748 286.374 61.4429 286.373C61.2132 286.371 60.9838 286.356 60.7566 286.327C60.2984 286.268 59.853 286.152 59.4349 285.983C58.6022 285.648 57.9079 285.109 57.4419 284.437C57.204 284.093 57.0239 283.723 56.9066 283.337C56.7824 282.931 56.7202 282.512 56.7215 282.092V259.968C56.7215 259.534 56.7837 259.102 56.9066 258.681C57.2787 257.412 58.1755 256.298 59.4349 255.539C59.8438 255.291 60.2879 255.088 60.7566 254.933C61.1998 254.787 61.6642 254.692 62.1373 254.65C62.5967 254.609 63.0605 254.624 63.5149 254.694C63.971 254.764 64.4125 254.89 64.8256 255.068L85.736 264.058L85.8121 264.091L85.8871 264.125L85.9612 264.161L86.0342 264.197C86.3514 264.36 86.6437 264.554 86.9046 264.777C87.1646 264.999 87.3924 265.247 87.583 265.514C87.7777 265.788 87.9351 266.08 88.0522 266.384C88.1744 266.702 88.2562 267.03 88.2963 267.362C88.3017 267.406 88.3063 267.45 88.3103 267.494C88.3143 267.538 88.3177 267.583 88.3203 267.628C88.3203 267.672 88.3223 267.717 88.3263 267.762C88.3304 267.808 88.3304 267.853 88.3263 267.898C88.3263 268.322 88.2672 268.743 88.1503 269.155C87.9207 269.972 87.4712 270.734 86.8366 271.382C86.5117 271.708 86.1423 272 85.736 272.253L64.8256 285.385C64.6191 285.515 64.4036 285.634 64.1803 285.742C63.9646 285.846 63.7414 285.939 63.512 286.02C63.2892 286.099 63.0605 286.165 62.8276 286.219C62.6005 286.271 62.3696 286.31 62.1363 286.336V286.336Z" fill="#CACACA"/>
<path d="M338.55 236.092C340.006 235.915 341.49 236.01 342.898 236.369C344.306 236.729 345.603 237.345 346.699 238.175C347.794 239.004 348.661 240.026 349.238 241.169C349.816 242.313 350.09 243.549 350.04 244.791L383.407 255.643L368.29 264.77L338.922 253.065C336.458 252.857 334.17 251.892 332.491 250.354C330.813 248.815 329.86 246.81 329.814 244.718C329.769 242.626 330.633 240.592 332.243 239.002C333.853 237.413 336.097 236.377 338.55 236.092H338.55Z" fill="#FFB6B6"/>
<path d="M465.242 230.765L470.887 239.437C469.523 244.937 465.997 249.886 460.883 253.479C452.241 259.638 407.052 282.576 407.052 282.576L350.004 258.376L359.984 247.17L404.772 259.853L430.039 239.692L465.242 230.765Z" fill="#3F3D56"/>
<path d="M470.426 366.75L464.527 367.689L500.097 527.203L505.996 526.264L470.426 366.75Z" fill="#CACACA"/>
<path d="M411.709 526.264L417.609 527.203L453.179 367.689L447.279 366.75L411.709 526.264Z" fill="#CACACA"/>
<path d="M454.746 374.265C479.335 374.265 499.268 368.777 499.268 362.007C499.268 355.236 479.335 349.748 454.746 349.748C430.157 349.748 410.224 355.236 410.224 362.007C410.224 368.777 430.157 374.265 454.746 374.265Z" fill="#CACACA"/>
<path d="M360.184 517.156L347.918 517.155L342.083 477.177L360.186 477.178L360.184 517.156Z" fill="#FFB6B6"/>
<path d="M363.312 527.203L323.761 527.202V526.779C323.761 523.329 325.383 520.02 328.27 517.581C331.157 515.142 335.073 513.771 339.155 513.771H339.156L363.312 513.772L363.312 527.203Z" fill="#2F2E41"/>
<path d="M419.728 462.76L409.013 467.806L380.879 435.288L396.692 427.84L419.728 462.76Z" fill="#FFB6B6"/>
<path d="M428.249 470.248L393.703 486.52L393.46 486.151C391.472 483.138 390.982 479.58 392.098 476.262C393.214 472.943 395.844 470.135 399.41 468.455L399.411 468.455L420.51 458.517L428.249 470.248Z" fill="#2F2E41"/>
<path d="M489.396 332.036C489.396 332.036 495.343 347.606 458.853 367.297L411.857 406.868L363.026 505.57L334.036 494.587L378.618 394.032L404.688 355.46L405.444 334.531L411.857 319.777L458.38 305.828L489.396 332.036Z" fill="#2F2E41"/>
<path d="M393.977 462.113L345.473 400.32C343.246 397.477 342.26 394.067 342.684 390.676C343.109 387.285 344.917 384.124 347.8 381.737L396.91 341.144L405.237 334.108H423.871L415.133 361.348L384.821 390.382L419.863 442.78L393.977 462.113Z" fill="#2F2E41"/>
<path d="M429.625 247.373L444.241 229.698L477.636 227.428C477.636 227.428 506.346 250.285 501.122 280.381C495.899 310.477 490.897 340.067 490.897 340.067C490.897 340.067 438.871 308.787 411.857 319.777L429.625 247.373Z" fill="#3F3D56"/>
<path d="M419.703 339.58C419.962 338.357 420.535 337.196 421.383 336.18C422.23 335.165 423.331 334.318 424.607 333.7C425.883 333.083 427.304 332.709 428.77 332.606C430.236 332.502 431.71 332.672 433.09 333.102L455.781 309.755L461.276 324.752L438.886 344.623C437.877 346.534 436.073 348.066 433.817 348.928C431.56 349.79 429.008 349.923 426.644 349.302C424.279 348.68 422.267 347.347 420.987 345.555C419.708 343.764 419.251 341.638 419.703 339.58V339.58Z" fill="#FFB6B6"/>
<path d="M448.269 338.063L438.275 325.865L466.654 293.893L452.035 267.422L453.099 235.935L465.18 234.049L465.33 234.113C471.203 236.969 475.743 241.438 478.195 246.776C481.209 253.142 487.937 277.041 491.679 290.719C492.414 293.37 492.333 296.136 491.445 298.753C490.557 301.37 488.891 303.751 486.605 305.67L448.269 338.063Z" fill="#3F3D56"/>
<path d="M473.746 214.23C480.249 204.985 476.652 193.036 465.712 187.54C454.771 182.045 440.63 185.084 434.127 194.329C427.623 203.574 431.22 215.523 442.16 221.018C453.101 226.514 467.242 223.474 473.746 214.23Z" fill="#FFB6B6"/>
<path d="M468.67 197.287C468.426 200.115 471.565 210.541 471.565 210.541C473.865 207.272 470.251 218.138 470.251 218.138C508.001 195.903 478.173 173.564 466.506 175.55C466.749 172.723 457.233 173.843 457.233 173.843C453.607 169.071 445.661 175.405 445.661 175.405L447.194 173.225C441.025 174.551 434.927 190.663 434.927 190.663C437.019 197.614 468.913 194.46 468.67 197.287Z" fill="#2F2E41"/>
<path d="M339.101 260.84C338.594 260.901 338.078 260.843 337.609 260.671C337.133 260.491 336.714 260.218 336.387 259.874C336.017 259.49 335.736 259.05 335.557 258.578C335.353 258.039 335.251 257.476 335.257 256.91V229.297C335.255 228.711 335.356 228.129 335.557 227.568C335.743 227.049 336.023 226.557 336.387 226.109C336.714 225.702 337.129 225.35 337.61 225.072C338.054 224.815 338.566 224.656 339.101 224.608C339.611 224.566 340.125 224.642 340.587 224.83C341.061 225.027 341.476 225.313 341.8 225.665C342.163 226.059 342.44 226.504 342.616 226.98C342.818 227.518 342.92 228.08 342.917 228.645V256.05C342.916 256.634 342.815 257.214 342.616 257.774C342.433 258.297 342.158 258.795 341.8 259.25C341.476 259.666 341.065 260.03 340.587 260.323C340.148 260.594 339.638 260.772 339.101 260.84V260.84Z" fill="#3F3D56"/>
<path d="M648.809 528H1.19127C0.875918 527.999 0.573789 527.893 0.351126 527.704C0.128463 527.515 0.00344849 527.26 0.00344849 526.993C0.00344849 526.727 0.128463 526.471 0.351126 526.283C0.573789 526.094 0.875918 525.988 1.19127 525.987H648.809C649.125 525.987 649.428 526.093 649.651 526.282C649.875 526.47 650 526.726 650 526.993C650 527.26 649.875 527.516 649.651 527.705C649.428 527.894 649.125 528 648.809 528Z" fill="#CACACA"/>
</g>
<defs>
<clipPath id="clip0">
<rect width="650" height="528" fill="white"/>
</clipPath>
</defs>
</svg>
