<svg width="656" height="512" viewBox="0 0 656 512" fill="none" xmlns="http://www.w3.org/2000/svg">
<g clip-path="url(#clip0)">
<path d="M437.794 180.033H218.405C214.639 180.029 211.029 178.738 208.366 176.442C205.703 174.146 204.205 171.033 204.201 167.786V19.2201C204.204 16.8412 205.301 14.5606 207.252 12.8785C209.203 11.1963 211.848 10.2501 214.607 10.2474H441.412C444.219 10.2501 446.91 11.2127 448.894 12.9239C450.879 14.6351 451.995 16.9552 451.999 19.3752V167.786C451.994 171.033 450.496 174.146 447.833 176.442C445.17 178.738 441.56 180.029 437.794 180.033V180.033Z" fill="#F2F2F2"/>
<path d="M232.18 167.786H424.02C427.673 167.786 431.176 166.535 433.76 164.307C436.343 162.08 437.794 159.059 437.794 155.91V41.9376C437.794 38.7878 436.343 35.7671 433.76 33.5399C431.176 31.3127 427.673 30.0614 424.02 30.0614H232.18C228.527 30.0614 225.023 31.3127 222.44 33.5399C219.857 35.7671 218.405 38.7878 218.405 41.9376V155.91C218.405 159.059 219.857 162.08 222.44 164.307C225.023 166.535 228.527 167.786 232.18 167.786Z" fill="white"/>
<path d="M451.801 18.5195H204.001V12.2842C204.007 9.02638 205.511 5.90343 208.184 3.60049C210.856 1.29756 214.479 0.00270136 218.258 0H437.544C441.323 0.00267584 444.946 1.29752 447.619 3.60046C450.291 5.90341 451.795 9.02637 451.801 12.2842V18.5195Z" fill="#CCCCCC"/>
<path d="M229.91 12.4576C231.947 12.4576 233.598 11.0342 233.598 9.27822C233.598 7.52228 231.947 6.09882 229.91 6.09882C227.874 6.09882 226.223 7.52228 226.223 9.27822C226.223 11.0342 227.874 12.4576 229.91 12.4576Z" fill="white"/>
<path d="M243.907 12.4576C245.944 12.4576 247.595 11.0342 247.595 9.27822C247.595 7.52228 245.944 6.09882 243.907 6.09882C241.871 6.09882 240.22 7.52228 240.22 9.27822C240.22 11.0342 241.871 12.4576 243.907 12.4576Z" fill="white"/>
<path d="M257.904 12.4576C259.941 12.4576 261.592 11.0342 261.592 9.27822C261.592 7.52228 259.941 6.09882 257.904 6.09882C255.868 6.09882 254.217 7.52228 254.217 9.27822C254.217 11.0342 255.868 12.4576 257.904 12.4576Z" fill="white"/>
<path d="M246.297 83.4714H236.796C236.281 83.4709 235.787 83.2942 235.423 82.9801C235.058 82.6659 234.853 82.24 234.853 81.7958V73.6042C234.853 73.16 235.058 72.7341 235.423 72.42C235.787 72.1059 236.281 71.9292 236.796 71.9287H246.297C246.812 71.9292 247.306 72.1059 247.67 72.42C248.035 72.7341 248.24 73.16 248.24 73.6042V81.7958C248.24 82.24 248.035 82.6659 247.67 82.98C247.306 83.2942 246.812 83.4709 246.297 83.4714V83.4714Z" fill="#F59B00"/>
<path d="M246.297 104.695H236.796C236.281 104.694 235.787 104.518 235.423 104.204C235.058 103.89 234.853 103.464 234.853 103.019V94.8278C234.853 94.3836 235.058 93.9577 235.423 93.6436C235.787 93.3295 236.281 93.1528 236.796 93.1523H246.297C246.812 93.1528 247.306 93.3295 247.67 93.6436C248.035 93.9577 248.24 94.3836 248.24 94.8278V103.019C248.24 103.464 248.035 103.89 247.67 104.204C247.306 104.518 246.812 104.694 246.297 104.695Z" fill="#3F3D56"/>
<path d="M246.297 125.919H236.796C236.281 125.918 235.787 125.741 235.423 125.427C235.058 125.113 234.853 124.687 234.853 124.243V116.051C234.853 115.607 235.058 115.181 235.423 114.867C235.787 114.553 236.281 114.376 236.796 114.376H246.297C246.812 114.376 247.306 114.553 247.67 114.867C248.035 115.181 248.24 115.607 248.24 116.051V124.243C248.24 124.687 248.035 125.113 247.67 125.427C247.306 125.741 246.812 125.918 246.297 125.919V125.919Z" fill="#CCCCCC"/>
<path d="M308.484 79.3756H262.707C262.193 79.3746 261.699 79.1977 261.336 78.8836C260.972 78.5694 260.768 78.1438 260.768 77.7C260.768 77.2562 260.972 76.8306 261.336 76.5165C261.699 76.2024 262.193 76.0254 262.707 76.0245H308.484C308.74 76.024 308.993 76.067 309.229 76.151C309.465 76.235 309.68 76.3583 309.861 76.514C310.042 76.6696 310.185 76.8545 310.283 77.058C310.381 77.2615 310.432 77.4797 310.432 77.7C310.432 77.9204 310.381 78.1385 310.283 78.342C310.185 78.5456 310.042 78.7304 309.861 78.8861C309.68 79.0417 309.465 79.165 309.229 79.249C308.993 79.333 308.74 79.376 308.484 79.3756V79.3756Z" fill="#CCCCCC"/>
<path d="M308.484 100.599H262.707C262.193 100.598 261.699 100.421 261.336 100.107C260.972 99.793 260.768 99.3674 260.768 98.9236C260.768 98.4798 260.972 98.0542 261.336 97.7401C261.699 97.4259 262.193 97.249 262.707 97.2481H308.484C308.999 97.2481 309.494 97.4246 309.858 97.7388C310.223 98.053 310.427 98.4792 310.427 98.9236C310.427 99.368 310.223 99.7942 309.858 100.108C309.494 100.423 308.999 100.599 308.484 100.599Z" fill="#CCCCCC"/>
<path d="M308.484 121.823H262.707C262.193 121.822 261.699 121.645 261.336 121.331C260.972 121.017 260.768 120.591 260.768 120.147C260.768 119.703 260.972 119.278 261.336 118.964C261.699 118.65 262.193 118.473 262.707 118.472H308.484C308.74 118.471 308.993 118.514 309.229 118.598C309.465 118.682 309.68 118.806 309.861 118.961C310.042 119.117 310.185 119.302 310.283 119.505C310.381 119.709 310.432 119.927 310.432 120.147C310.432 120.368 310.381 120.586 310.283 120.789C310.185 120.993 310.042 121.178 309.861 121.333C309.68 121.489 309.465 121.612 309.229 121.696C308.993 121.78 308.74 121.823 308.484 121.823V121.823Z" fill="#CCCCCC"/>
<path d="M421.27 99.4558C421.319 98.7514 421.347 98.0421 421.347 97.3272C421.347 88.0123 417.055 79.0789 409.416 72.4922C401.776 65.9056 391.415 62.2052 380.611 62.2052V99.4558H421.27Z" fill="#F59B00"/>
<path d="M377.525 102.649V65.3981C369.574 65.3979 361.796 67.4041 355.151 71.1695C348.506 74.9349 343.284 80.2947 340.13 86.5881C336.976 92.8815 336.027 99.8332 337.4 106.586C338.774 113.339 342.409 119.598 347.859 124.59C353.308 129.583 360.333 133.091 368.068 134.683C375.802 136.274 383.907 135.879 391.385 133.546C398.862 131.213 405.383 127.045 410.146 121.554C414.908 116.064 417.702 109.492 418.184 102.649H377.525Z" fill="#3F3D56"/>
<path d="M655.139 512H0.860892C0.63257 512 0.413598 511.922 0.252149 511.783C0.0907003 511.643 0 511.455 0 511.258C0 511.061 0.0907003 510.872 0.252149 510.733C0.413598 510.594 0.63257 510.515 0.860892 510.515H655.139C655.367 510.515 655.586 510.594 655.748 510.733C655.909 510.872 656 511.061 656 511.258C656 511.455 655.909 511.643 655.748 511.783C655.586 511.922 655.367 512 655.139 512Z" fill="#CCCCCC"/>
<path d="M434.484 306.497C434.771 306.834 435.027 307.189 435.25 307.56L478.392 311.742L484.666 304.433L498.698 311.156L486.346 328.91L433.492 316.95C432.147 318.065 430.44 318.801 428.598 319.059C426.757 319.317 424.868 319.086 423.182 318.395C421.497 317.705 420.095 316.589 419.163 315.196C418.232 313.802 417.814 312.197 417.966 310.593C418.119 308.99 418.833 307.465 420.015 306.22C421.198 304.976 422.791 304.071 424.584 303.626C426.377 303.182 428.285 303.218 430.053 303.731C431.822 304.244 433.367 305.209 434.484 306.497V306.497Z" fill="#FFB8B8"/>
<path d="M214.351 296.894C213.26 297.447 212.042 297.787 210.782 297.89C209.522 297.993 208.251 297.857 207.059 297.49C205.867 297.124 204.782 296.537 203.882 295.77C202.981 295.004 202.287 294.076 201.847 293.053L171.09 293.606L179.61 281.943L207.512 283.206C209.554 282.683 211.748 282.824 213.678 283.603C215.608 284.382 217.14 285.744 217.983 287.431C218.826 289.118 218.922 291.013 218.253 292.757C217.583 294.502 216.195 295.973 214.351 296.894V296.894Z" fill="#FFB8B8"/>
<path d="M200.833 293.556C200.589 294.259 200.083 294.873 199.395 295.304C198.706 295.735 197.872 295.959 197.021 295.941L140.73 294.708L89.7594 281.696C88.3569 281.338 87.0508 280.744 85.9172 279.947C84.7837 279.15 83.8452 278.166 83.1563 277.054C82.4675 275.941 82.0421 274.721 81.9048 273.466C81.7675 272.21 81.9211 270.944 82.3566 269.74C82.7921 268.536 83.5009 267.418 84.4417 266.453C85.3825 265.487 86.5366 264.692 87.8369 264.115C89.1371 263.537 90.5576 263.188 92.0157 263.088C93.4739 262.988 94.9405 263.139 96.3304 263.532L142.38 276.549L197.65 281.148C198.618 281.233 199.514 281.627 200.163 282.253C200.811 282.878 201.163 283.691 201.152 284.53L200.992 292.658C200.986 292.962 200.933 293.264 200.833 293.556V293.556Z" fill="#3F3D56"/>
<path d="M119.2 502.212L129.754 502.212L134.775 467.112L119.198 467.113L119.2 502.212Z" fill="#FFB8B8"/>
<path d="M116.508 499.241L137.293 499.24H137.294C139.033 499.24 140.756 499.536 142.363 500.11C143.97 500.684 145.43 501.525 146.66 502.585C147.89 503.646 148.866 504.905 149.531 506.29C150.197 507.676 150.54 509.161 150.54 510.661V511.032L116.508 511.033L116.508 499.241Z" fill="#2F2E41"/>
<path d="M88.2079 502.212L98.7616 502.212L103.783 467.112L88.2062 467.113L88.2079 502.212Z" fill="#FFB8B8"/>
<path d="M85.5154 499.241L106.301 499.24H106.301C108.041 499.24 109.763 499.536 111.371 500.11C112.978 500.684 114.438 501.525 115.668 502.585C116.898 503.646 117.874 504.905 118.539 506.29C119.205 507.676 119.548 509.161 119.548 510.661V511.032L85.5161 511.033L85.5154 499.241Z" fill="#2F2E41"/>
<path d="M81.1245 360.361L83.6447 489.287C83.6527 489.695 83.7582 490.097 83.9548 490.469C84.1514 490.84 84.4347 491.173 84.7871 491.446C85.1395 491.719 85.5534 491.926 86.0029 492.054C86.4524 492.183 86.9279 492.23 87.3995 492.193L99.7501 491.225C100.56 491.162 101.318 490.853 101.889 490.354C102.461 489.855 102.809 489.197 102.872 488.498L110.102 408.078C110.119 407.889 110.219 407.713 110.382 407.585C110.545 407.458 110.758 407.389 110.977 407.393C111.197 407.397 111.407 407.473 111.564 407.606C111.72 407.738 111.812 407.918 111.821 408.107L115.435 490.368C115.468 491.136 115.846 491.862 116.487 492.395C117.129 492.927 117.985 493.225 118.876 493.225H132.121C132.998 493.225 133.842 492.937 134.481 492.419C135.119 491.9 135.505 491.192 135.558 490.437L144.831 359.619L89.7334 347.742L81.1245 360.361Z" fill="#2F2E41"/>
<path d="M121.088 239.301C132.766 239.301 142.233 231.139 142.233 221.071C142.233 211.002 132.766 202.84 121.088 202.84C109.41 202.84 99.9438 211.002 99.9438 221.071C99.9438 231.139 109.41 239.301 121.088 239.301Z" fill="#FFB8B8"/>
<path d="M144.02 365.141C143.999 365.141 143.979 365.14 143.958 365.14L94.5166 364.484C93.5663 364.471 92.6544 364.158 91.9546 363.603C91.2548 363.049 90.8159 362.292 90.7214 361.476L90.1617 356.65C90.1511 356.558 90.1013 356.473 90.0222 356.411C89.943 356.35 89.8401 356.315 89.7334 356.315C89.6266 356.315 89.5237 356.35 89.4445 356.411C89.3654 356.473 89.3157 356.558 89.305 356.65L88.7268 361.635C88.6372 362.416 88.2314 363.144 87.5807 363.692C86.9301 364.24 86.0762 364.573 85.1691 364.632L81.6751 364.864C81.0593 364.905 80.4411 364.819 79.872 364.612C79.303 364.405 78.7995 364.084 78.4037 363.675C78.0079 363.266 77.7313 362.781 77.5968 362.262C77.4623 361.742 77.4739 361.202 77.6306 360.687L80.6391 350.797C86.8647 330.243 87.3655 308.71 82.1007 287.957L80.6057 282.094C79.4788 277.714 79.9946 273.138 82.0788 269.027C84.163 264.916 87.7079 261.482 92.2021 259.22L101.913 254.312L106.319 248.614C107.172 247.514 108.319 246.608 109.665 245.972C111.01 245.335 112.514 244.989 114.048 244.96C120.194 244.844 130.737 245.815 132.718 253.563C137.627 255.01 141.878 257.76 144.861 261.42C147.843 265.079 149.404 269.46 149.318 273.932L147.892 361.847C147.877 362.724 147.463 363.561 146.739 364.178C146.014 364.794 145.038 365.14 144.02 365.141V365.141Z" fill="#3F3D56"/>
<path d="M119.434 231.579C119.348 234.156 117.272 235.647 114.725 236.997C112.177 238.347 109.199 238.932 106.281 239.497C105.889 239.676 105.45 239.766 105.007 239.756C104.563 239.747 104.13 239.639 103.749 239.443C103.368 239.247 103.051 238.97 102.831 238.638C102.61 238.307 102.492 237.931 102.489 237.549L99.8127 228.773C98.8661 225.969 98.1772 223.106 97.7526 220.209C97.1081 214.636 98.6401 208.64 103.152 204.61C107.664 200.58 115.49 199.148 120.897 202.253C127.313 195.187 156.644 210.799 149.409 215.713C148.121 216.587 146.154 215.481 144.52 215.373C142.886 215.266 141.055 215.514 140.018 216.607C138.662 218.035 139.252 220.163 138.694 221.945C138.462 222.572 138.09 223.153 137.597 223.655C137.104 224.157 136.5 224.57 135.821 224.87C135.143 225.17 134.401 225.351 133.641 225.403C132.88 225.455 132.115 225.376 131.39 225.172C130.039 224.598 128.769 223.894 127.602 223.073C126.349 222.353 124.766 221.821 123.355 222.275C121.495 222.873 120.835 224.836 120.667 226.541C120.383 228.242 119.972 229.925 119.434 231.579V231.579Z" fill="#2F2E41"/>
<path opacity="0.2" d="M124.372 280.439L127.816 316.81L145.895 354.665L119.207 317.552L124.372 280.439Z" fill="black"/>
<path d="M346.784 479.607L158.102 383.094C154.865 381.434 152.524 378.735 151.593 375.589C150.661 372.443 151.215 369.106 153.133 366.312L241.051 238.54C242.462 236.495 244.755 235.017 247.428 234.428C250.102 233.84 252.937 234.19 255.311 235.401L450.372 335.177C452.784 336.414 454.529 338.426 455.223 340.771C455.917 343.115 455.504 345.602 454.075 347.685L366.248 475.323C364.323 478.114 361.193 480.132 357.544 480.935C353.895 481.738 350.025 481.261 346.784 479.607Z" fill="#F2F2F2"/>
<path d="M177.196 378.62L342.185 463.015C345.327 464.622 349.081 465.087 352.62 464.308C356.16 463.529 359.196 461.569 361.06 458.86L428.506 360.84C430.37 358.131 430.91 354.895 430.006 351.843C429.103 348.791 426.83 346.174 423.688 344.567L258.699 260.172C255.557 258.565 251.803 258.1 248.263 258.879C244.724 259.658 241.688 261.618 239.824 264.327L172.377 362.347C170.514 365.056 169.974 368.292 170.878 371.344C171.781 374.396 174.054 377.013 177.196 378.62V378.62Z" fill="white"/>
<path d="M454.411 346.862L241.294 237.85L244.984 232.487C246.917 229.688 250.059 227.663 253.72 226.859C257.382 226.054 261.264 226.534 264.515 228.194L453.11 324.662C456.358 326.327 458.707 329.034 459.643 332.191C460.579 335.347 460.024 338.695 458.101 341.499L454.411 346.862Z" fill="#CCCCCC"/>
<path d="M269.046 244.479C271.082 244.479 272.733 243.056 272.733 241.3C272.733 239.544 271.082 238.12 269.046 238.12C267.009 238.12 265.358 239.544 265.358 241.3C265.358 243.056 267.009 244.479 269.046 244.479Z" fill="white"/>
<path d="M281.084 250.637C283.12 250.637 284.771 249.213 284.771 247.457C284.771 245.701 283.12 244.278 281.084 244.278C279.047 244.278 277.396 245.701 277.396 247.457C277.396 249.213 279.047 250.637 281.084 250.637Z" fill="white"/>
<path d="M293.122 256.794C295.158 256.794 296.809 255.371 296.809 253.615C296.809 251.859 295.158 250.435 293.122 250.435C291.085 250.435 289.434 251.859 289.434 253.615C289.434 255.371 291.085 256.794 293.122 256.794Z" fill="white"/>
<path d="M406.993 365.47L406.753 365.819L409.179 367.06L409.418 366.711L406.993 365.47Z" fill="#E6E6E6"/>
<path d="M401.853 363.312L396.952 360.806L397.192 360.457L402.092 362.964L401.853 363.312ZM392.052 358.299L387.151 355.792L387.391 355.444L392.292 357.95L392.052 358.299ZM382.251 353.286L377.351 350.779L377.59 350.431L382.491 352.937L382.251 353.286ZM372.45 348.273L367.55 345.766L367.79 345.417L372.69 347.924L372.45 348.273ZM362.649 343.259L357.749 340.753L357.989 340.404L362.889 342.911L362.649 343.259ZM352.849 338.246L347.948 335.74L348.188 335.391L353.089 337.898L352.849 338.246ZM343.048 333.233L338.148 330.726L338.387 330.378L343.288 332.884L343.048 333.233ZM333.247 328.22L328.347 325.713L328.587 325.365L333.487 327.871L333.247 328.22ZM323.446 323.207L318.546 320.7L318.786 320.351L323.686 322.858L323.446 323.207ZM313.646 318.193L308.745 315.687L308.985 315.338L313.885 317.845L313.646 318.193ZM303.845 313.18L298.945 310.674L299.184 310.325L304.085 312.832L303.845 313.18ZM294.044 308.167L289.144 305.66L289.384 305.312L294.284 307.818L294.044 308.167ZM284.243 303.154L279.343 300.647L279.583 300.299L284.483 302.805L284.243 303.154ZM274.443 298.14L269.542 295.634L269.782 295.285L274.682 297.792L274.443 298.14ZM264.642 293.127L259.741 290.621L259.981 290.272L264.882 292.779L264.642 293.127ZM254.841 288.114L249.941 285.607L250.18 285.259L255.081 287.765L254.841 288.114Z" fill="#E6E6E6"/>
<path d="M242.854 281.511L242.615 281.86L245.04 283.101L245.28 282.752L242.854 281.511Z" fill="#E6E6E6"/>
<path d="M305.043 357.149L304.804 357.497L307.229 358.738L307.469 358.389L305.043 357.149Z" fill="#E6E6E6"/>
<path d="M299.976 355.028L295.148 352.558L295.388 352.21L300.216 354.679L299.976 355.028ZM290.321 350.089L285.493 347.62L285.733 347.271L290.561 349.74L290.321 350.089ZM280.666 345.15L275.838 342.681L276.078 342.332L280.905 344.802L280.666 345.15ZM271.01 340.211L266.183 337.742L266.423 337.394L271.25 339.863L271.01 340.211ZM261.355 335.273L256.528 332.803L256.767 332.455L261.595 334.924L261.355 335.273ZM251.7 330.334L246.872 327.865L247.112 327.516L251.94 329.985L251.7 330.334ZM242.045 325.395L237.217 322.926L237.457 322.577L242.285 325.047L242.045 325.395ZM232.39 320.456L227.562 317.987L227.802 317.638L232.629 320.108L232.39 320.456Z" fill="#E6E6E6"/>
<path d="M220.549 313.928L220.309 314.277L222.734 315.518L222.974 315.169L220.549 313.928Z" fill="#E6E6E6"/>
<path d="M247.189 348.291L246.949 348.639L249.375 349.88L249.615 349.531L247.189 348.291Z" fill="#E6E6E6"/>
<path d="M241.983 346.099L237.016 343.558L237.256 343.209L242.222 345.75L241.983 346.099ZM232.049 341.017L227.082 338.477L227.322 338.128L232.289 340.669L232.049 341.017ZM222.115 335.936L217.148 333.395L217.388 333.047L222.355 335.587L222.115 335.936Z" fill="#E6E6E6"/>
<path d="M209.995 329.266L209.756 329.614L212.181 330.855L212.421 330.506L209.995 329.266Z" fill="#E6E6E6"/>
<path d="M229.18 374.464L228.94 374.812L231.366 376.053L231.606 375.705L229.18 374.464Z" fill="#E6E6E6"/>
<path d="M223.973 372.272L219.006 369.731L219.246 369.383L224.213 371.923L223.973 372.272ZM214.039 367.19L209.072 364.65L209.312 364.301L214.279 366.842L214.039 367.19ZM204.106 362.109L199.139 359.569L199.379 359.22L204.345 361.761L204.106 362.109Z" fill="#E6E6E6"/>
<path d="M191.986 355.439L191.746 355.787L194.172 357.028L194.412 356.679L191.986 355.439Z" fill="#E6E6E6"/>
<path d="M205.238 363.05L345.055 434.568C348.443 436.297 352.488 436.796 356.302 435.957C360.116 435.117 363.388 433.007 365.4 430.091L406.252 370.72L405.971 370.586L313.283 390.984L305.941 366.197C305.807 365.739 305.551 365.314 305.195 364.955C304.838 364.596 304.39 364.313 303.885 364.129C303.114 363.861 302.261 363.819 301.459 364.011L252.887 374.699L247.518 356.577C247.402 356.186 247.198 355.818 246.917 355.495C246.637 355.172 246.285 354.9 245.883 354.694C245.48 354.488 245.034 354.352 244.571 354.295C244.107 354.237 243.635 354.259 243.182 354.359C242.854 354.434 211.247 361.655 205.238 363.05Z" fill="#F59B00"/>
<path d="M204.402 363.093L204.286 362.701L243.155 354.146C244.182 353.921 245.27 354.056 246.181 354.522C247.092 354.988 247.752 355.747 248.015 356.631L253.275 374.397L301.578 363.766C302.605 363.541 303.693 363.676 304.604 364.142C305.515 364.608 306.174 365.367 306.438 366.252L313.671 390.682L406.842 370.175L406.958 370.567L313.332 391.175L305.982 366.352C305.868 365.965 305.666 365.601 305.388 365.282C305.111 364.962 304.763 364.693 304.365 364.489C303.967 364.286 303.526 364.152 303.068 364.095C302.609 364.038 302.143 364.06 301.694 364.158L252.936 374.89L247.559 356.732C247.327 355.951 246.745 355.282 245.941 354.871C245.137 354.459 244.177 354.34 243.271 354.538L204.402 363.093Z" fill="#3F3D56"/>
<path d="M249.495 352.543C251.312 352.543 252.786 351.273 252.786 349.706C252.786 348.139 251.312 346.869 249.495 346.869C247.678 346.869 246.205 348.139 246.205 349.706C246.205 351.273 247.678 352.543 249.495 352.543Z" fill="#3F3D56"/>
<path d="M307.349 361.401C309.167 361.401 310.64 360.131 310.64 358.564C310.64 356.997 309.167 355.727 307.349 355.727C305.532 355.727 304.059 356.997 304.059 358.564C304.059 360.131 305.532 361.401 307.349 361.401Z" fill="#3F3D56"/>
<path d="M408.142 368.233C409.959 368.233 411.432 366.963 411.432 365.396C411.432 363.829 409.959 362.559 408.142 362.559C406.325 362.559 404.851 363.829 404.851 365.396C404.851 366.963 406.325 368.233 408.142 368.233Z" fill="#3F3D56"/>
<path d="M150.122 368.762C149.135 368.079 148.334 367.217 147.775 366.238C147.216 365.259 146.913 364.187 146.887 363.096C146.861 362.005 147.112 360.922 147.624 359.924C148.136 358.926 148.895 358.037 149.849 357.319L138.331 332.724L154.001 335.452L162.536 358.39C163.828 359.851 164.454 361.67 164.295 363.502C164.135 365.334 163.202 367.052 161.672 368.33C160.142 369.609 158.121 370.359 155.992 370.438C153.863 370.518 151.775 369.921 150.122 368.762V368.762Z" fill="#FFB8B8"/>
<path d="M149.931 358.105C149.082 358.158 148.237 357.969 147.525 357.566C146.813 357.164 146.274 356.571 145.991 355.879L127.347 310.068L123.362 264.365C123.252 263.107 123.433 261.843 123.895 260.647C124.357 259.45 125.09 258.344 126.052 257.394C127.014 256.444 128.185 255.668 129.498 255.112C130.811 254.555 132.239 254.229 133.699 254.153C135.159 254.077 136.622 254.251 138.003 254.667C139.384 255.083 140.656 255.731 141.744 256.574C142.832 257.417 143.714 258.438 144.34 259.578C144.966 260.718 145.323 261.954 145.391 263.214L147.622 304.953L162.254 351.135C162.506 351.946 162.397 352.808 161.949 353.552C161.5 354.297 160.745 354.87 159.831 355.158L150.961 357.914C150.629 358.018 150.283 358.082 149.931 358.105V358.105Z" fill="#3F3D56"/>
<path d="M495.632 317.514C495.285 317.383 494.961 317.208 494.671 316.997L477.332 304.404C476.915 304.101 476.576 303.727 476.335 303.305C476.095 302.884 475.958 302.424 475.934 301.954C475.91 301.485 476 301.017 476.197 300.578C476.394 300.14 476.694 299.742 477.079 299.409L492.813 285.787C493.474 285.211 494.353 284.858 495.29 284.793C496.227 284.729 497.16 284.957 497.919 285.437L509.817 292.887C510.56 293.352 511.091 294.026 511.318 294.793C511.546 295.56 511.456 296.371 511.064 297.086L500.77 315.852C500.332 316.65 499.551 317.27 498.592 317.58C497.633 317.891 496.571 317.867 495.632 317.514L495.632 317.514Z" fill="#F59B00"/>
<path d="M563.261 495.628L552.906 498.057L537.109 464.774L552.393 461.189L563.261 495.628Z" fill="#FFB8B8"/>
<path d="M544.495 497.29L564.675 492.556L568.097 503.398L535.55 511.033L535.493 510.853C534.601 508.026 535.048 505.008 536.736 502.464C538.424 499.921 541.215 498.06 544.495 497.29Z" fill="#2F2E41"/>
<path d="M474.731 502.441L463.999 502.44L458.894 466.749L474.734 466.75L474.731 502.441Z" fill="#FFB8B8"/>
<path d="M456.117 499.796H477.031V511.033H443.302V510.846C443.302 507.916 444.652 505.105 447.055 503.033C449.459 500.961 452.718 499.796 456.117 499.796V499.796Z" fill="#2F2E41"/>
<path d="M490.899 266.788C502.774 266.788 512.4 258.488 512.4 248.25C512.4 238.012 502.774 229.712 490.899 229.712C479.024 229.712 469.398 238.012 469.398 248.25C469.398 258.488 479.024 266.788 490.899 266.788Z" fill="#FFB8B8"/>
<path d="M474.075 476.993H459.408C458.406 476.991 457.441 476.661 456.711 476.07C455.98 475.478 455.538 474.669 455.473 473.806C451.103 413.907 453.659 370.939 463.518 338.587C463.561 338.445 463.614 338.306 463.677 338.17L464.463 336.477C464.753 335.846 465.257 335.304 465.91 334.923C466.562 334.542 467.333 334.34 468.121 334.342H498.28C498.848 334.341 499.41 334.447 499.926 334.652C500.442 334.857 500.901 335.156 501.271 335.528L505.367 339.649C505.447 339.729 505.522 339.811 505.594 339.897C524.066 362.107 540.62 405.527 559.792 463.889C560.075 464.737 559.963 465.647 559.479 466.425C558.995 467.203 558.178 467.787 557.202 468.053L541.441 472.402C540.536 472.647 539.559 472.605 538.687 472.282C537.816 471.959 537.108 471.377 536.692 470.642L495.791 397.499C495.505 396.988 495.035 396.57 494.452 396.307C493.869 396.043 493.203 395.949 492.553 396.038C491.902 396.126 491.303 396.393 490.842 396.798C490.381 397.204 490.084 397.726 489.995 398.289L477.978 474.056C477.846 474.869 477.378 475.613 476.661 476.152C475.945 476.692 475.026 476.99 474.075 476.993V476.993Z" fill="#2F2E41"/>
<path d="M503.714 339.95C503.673 339.95 503.632 339.95 503.59 339.949L466.956 338.952C466.014 338.929 465.113 338.615 464.418 338.067C463.722 337.519 463.278 336.774 463.167 335.967C458.523 303.556 471.259 294.874 476.95 292.645C477.426 292.46 477.838 292.172 478.147 291.81C478.455 291.447 478.65 291.022 478.712 290.575L479.204 287.178C479.288 286.578 479.557 286.008 479.983 285.528C488.906 275.561 501.091 272.37 507.56 271.355C508.085 271.274 508.623 271.285 509.143 271.389C509.662 271.492 510.152 271.686 510.581 271.958C511.011 272.229 511.373 272.574 511.644 272.969C511.914 273.365 512.089 273.805 512.157 274.26L512.895 279.138C512.97 279.604 513.185 280.044 513.519 280.415C532.13 301.392 511.397 332.364 507.052 338.359C506.697 338.846 506.204 339.247 505.621 339.525C505.037 339.804 504.381 339.95 503.714 339.95V339.95Z" fill="#F59B00"/>
<path d="M514.555 236.721C512.959 232.547 511.78 228.263 511.032 223.915C510.797 221.384 511.549 218.661 513.687 216.914C517.688 213.646 524.486 215.203 528.67 218.296C534.717 222.766 537.733 229.636 538.873 236.433C540.012 243.23 539.511 250.142 539.785 257.006C540.06 263.87 541.198 270.927 545.257 276.837C549.315 282.746 556.847 287.283 564.791 286.78C567.997 286.63 571.042 285.518 573.397 283.635C574.553 282.687 575.428 281.514 575.949 280.214C576.471 278.914 576.623 277.525 576.394 276.164C580.454 282.433 578.396 290.929 572.339 295.857C566.283 300.785 556.967 302.178 549.005 300.074C541.043 297.97 534.491 292.694 530.576 286.357C526.662 280.019 525.228 272.699 525.436 265.521C525.595 260.009 526.682 254.452 525.602 249.018C524.522 243.583 520.577 238.065 514.357 236.786L514.555 236.721Z" fill="#2F2E41"/>
<path d="M486.622 243.866C485.561 246.92 481.505 248.804 477.856 248.287C476.039 247.961 474.359 247.218 472.993 246.135C471.627 245.052 470.626 243.671 470.097 242.138C469.094 239.031 469.505 235.712 471.244 232.857C472.203 231.146 473.543 229.615 475.189 228.351C476.835 227.087 478.754 226.115 480.835 225.491C482.929 224.893 485.159 224.738 487.336 225.038C489.514 225.338 491.577 226.085 493.35 227.215C493.539 226.529 493.936 225.899 494.502 225.389C495.067 224.879 495.779 224.509 496.566 224.315C498.15 223.947 499.822 223.969 501.393 224.377C505.919 225.489 509.841 227.949 512.461 231.319C515.048 234.68 516.76 238.483 517.478 242.469C518.713 248.445 518.257 254.976 514.364 260.034C510.471 265.093 502.506 268.079 496.044 265.668C495.641 263.892 496.596 262.104 497.7 260.565C498.804 259.026 500.113 257.527 500.537 255.755C500.962 253.982 500.148 251.814 498.16 251.235C496.464 250.74 494.655 251.542 492.868 251.638C491.854 251.693 490.84 251.517 489.929 251.128C489.018 250.738 488.242 250.149 487.678 249.419C487.115 248.689 486.784 247.845 486.719 246.97C486.653 246.095 486.856 245.221 487.306 244.435L486.622 243.866Z" fill="#2F2E41"/>
<path d="M432.13 320.235C432.485 320.518 432.815 320.826 433.114 321.154L476.397 318.249L480.961 310.051L496.211 314.373L487.963 333.817L433.441 330.662C432.364 331.975 430.848 332.975 429.096 333.528C427.344 334.08 425.438 334.16 423.632 333.756C421.826 333.353 420.206 332.484 418.986 331.267C417.766 330.05 417.005 328.541 416.804 326.942C416.603 325.343 416.971 323.729 417.86 322.314C418.749 320.9 420.116 319.752 421.78 319.024C423.444 318.296 425.325 318.022 427.174 318.238C429.022 318.454 430.751 319.151 432.13 320.235V320.235Z" fill="#FFB8B8"/>
<path d="M495.977 327.324C495.612 327.234 495.263 327.1 494.943 326.925L475.775 316.486C475.314 316.235 474.919 315.904 474.614 315.515C474.309 315.126 474.101 314.686 474.003 314.224C473.905 313.762 473.92 313.287 474.046 312.83C474.172 312.373 474.406 311.943 474.735 311.568L488.169 296.224C488.732 295.575 489.548 295.122 490.466 294.948C491.384 294.775 492.345 294.891 493.172 295.277L506.137 301.259C506.946 301.633 507.579 302.238 507.925 302.971C508.272 303.704 508.311 304.518 508.036 305.273L500.804 325.073C500.496 325.915 499.82 326.621 498.919 327.042C498.018 327.462 496.963 327.563 495.977 327.324V327.324Z" fill="#F59B00"/>
</g>
<defs>
<clipPath id="clip0">
<rect width="656" height="512" fill="white"/>
</clipPath>
</defs>
</svg>
