<svg width="656" height="512" viewBox="0 0 656 512" fill="none" xmlns="http://www.w3.org/2000/svg">
<g clip-path="url(#clip0)">
<path d="M60.0944 456.631C58.9061 449.79 56.5879 443.144 53.2154 436.911L52.7238 436.003L49.0723 439.618L51.7779 434.233L51.601 433.921C49.2134 429.701 46.5674 425.601 43.6749 421.641L43.1385 420.907L42.4229 421.616L42.9239 420.618L42.673 420.282C39.0906 415.484 36.3383 412.45 36.3111 412.419L35.5327 411.564L35.0322 412.584C34.9403 412.771 25.8437 431.488 24.6386 449.984L24.6196 450.272L30.7419 456.88L24.4983 453.38L24.5091 454.65C24.5281 456.824 24.6938 458.995 25.0052 461.151C25.2802 463.005 25.6038 464.816 25.9761 466.583C26.5663 466.599 27.1404 466.759 27.6363 467.045C27.205 465.071 26.8331 463.042 26.5204 460.958C26.2793 459.295 26.1273 457.605 26.0669 455.92L38.1435 462.691L26.1841 449.782C27.273 434.145 34.0314 418.39 35.9288 414.231C36.9471 415.411 38.8681 417.7 41.1661 420.758L36.9886 429.074L42.9444 423.177C45.5266 426.766 47.905 430.469 50.0709 434.272L43.638 447.077L52.3356 438.465C55.3736 444.298 57.4764 450.485 58.5823 456.842C60.1045 467.11 59.8074 476.973 57.7454 484.616C55.7703 491.938 52.2894 496.438 48.1947 496.964C47.352 497.068 46.4946 497.022 45.6716 496.83C45.0116 497.248 44.2175 497.465 43.4081 497.447H43.185C44.4551 498.076 45.8789 498.418 47.3313 498.441C47.6902 498.441 48.0486 498.418 48.4038 498.372C53.2177 497.755 57.0622 492.992 59.2284 484.963C61.3367 477.147 61.6455 467.091 60.0944 456.631Z" fill="#E6E6E6"/>
<path d="M46.6213 497.901C40.3243 497.901 31.2451 494.808 22.2399 489.177C20.9144 488.342 19.6487 487.433 18.4503 486.457L17.4416 485.634L21.2552 484.653L16.1773 484.487L15.963 484.287C6.4449 475.385 0.521921 462.812 0.46294 462.687L6.10352e-05 461.694L1.20355 461.742C1.32337 461.747 4.18464 461.868 8.48493 462.412L8.75295 462.446V462.444L9.69588 462.572C13.2074 463.049 16.6862 463.702 20.1155 464.528L20.4817 464.616L21.6258 467.133L21.4523 464.876L22.502 465.146C27.4772 466.429 32.2026 468.385 36.5134 470.947C50.2083 479.51 57.7861 490.213 53.7803 495.32C52.411 497.066 49.8906 497.9 46.6213 497.901ZM20.519 486.263C21.3556 486.896 22.2261 487.498 23.119 488.06C35.6619 495.903 49.1295 498.869 52.5275 494.538C55.9248 490.206 48.1962 479.919 35.6514 472.075C31.7812 469.776 27.5647 467.98 23.1283 466.74L23.8066 475.558L19.351 465.758C16.4166 465.063 13.4146 464.491 10.4092 464.054L10.9016 470.454L7.83498 463.71C5.45899 463.418 3.54364 463.26 2.3786 463.18C3.96695 466.294 9.2154 475.912 16.8555 483.143L30.8688 483.601L20.519 486.263Z" fill="#E6E6E6"/>
<path d="M247.98 497.131H0.257935V498.66H247.98V497.131Z" fill="#3F3D56"/>
<path d="M594.156 118.063H591.099V43.2815C591.099 37.5977 589.845 31.9696 587.409 26.7184C584.973 21.4673 581.403 16.696 576.902 12.6769C572.401 8.65783 567.058 5.46973 561.177 3.29463C555.296 1.11952 548.993 6.27541e-06 542.628 1.05674e-10H365.199C352.343 -2.53471e-05 340.015 4.55995 330.925 12.6768C321.835 20.7936 316.728 31.8024 316.728 43.2814V453.539C316.728 465.017 321.835 476.026 330.925 484.143C340.014 492.26 352.343 496.82 365.198 496.82H542.628C555.483 496.82 567.812 492.26 576.902 484.143C585.992 476.026 591.098 465.018 591.098 453.539V171.294H594.156L594.156 118.063Z" fill="#E6E6E6"/>
<path d="M544.584 11.2604H521.423C522.488 13.5921 522.895 16.1219 522.607 18.6269C522.319 21.132 521.346 23.5354 519.773 25.6255C518.2 27.7155 516.076 29.4281 513.587 30.6123C511.098 31.7965 508.321 32.4159 505.501 32.4161H403.854C401.034 32.416 398.257 31.7965 395.768 30.6123C393.279 29.4281 391.155 27.7155 389.582 25.6255C388.009 23.5354 387.035 21.132 386.748 18.6269C386.46 16.1218 386.866 13.592 387.932 11.2603H366.3C361.546 11.2603 356.839 12.0964 352.448 13.7207C348.056 15.345 344.066 17.7258 340.704 20.7272C337.343 23.7286 334.677 27.2918 332.858 31.2133C331.039 35.1348 330.102 39.3378 330.102 43.5824V453.238C330.102 457.482 331.039 461.685 332.858 465.607C334.677 469.528 337.343 473.091 340.704 476.093C344.065 479.094 348.056 481.475 352.447 483.099C356.839 484.724 361.546 485.56 366.3 485.56H544.584C549.337 485.56 554.044 484.724 558.436 483.099C562.827 481.475 566.818 479.094 570.179 476.093C573.54 473.091 576.207 469.528 578.026 465.607C579.845 461.685 580.781 457.482 580.781 453.238V453.238V43.5825C580.781 39.3379 579.845 35.1348 578.026 31.2133C576.207 27.2918 573.54 23.7287 570.179 20.7273C566.818 17.7259 562.827 15.3451 558.436 13.7207C554.044 12.0964 549.337 11.2604 544.584 11.2604H544.584Z" fill="white"/>
<path d="M460.289 167.266C449.251 167.266 438.461 164.343 429.283 158.867C420.106 153.391 412.953 145.609 408.729 136.503C404.505 127.397 403.399 117.377 405.553 107.71C407.706 98.0432 413.021 89.1637 420.826 82.1943C428.631 75.225 438.575 70.4788 449.401 68.5559C460.227 66.6331 471.448 67.62 481.646 71.3918C491.843 75.1635 500.559 81.5509 506.692 89.746C512.824 97.9411 516.097 107.576 516.097 117.432C516.08 130.644 510.195 143.311 499.733 152.653C489.27 161.996 475.085 167.251 460.289 167.266V167.266ZM460.289 68.9637C449.553 68.9637 439.059 71.8063 430.133 77.1321C421.207 82.4579 414.25 90.0276 410.141 98.884C406.033 107.74 404.958 117.486 407.052 126.888C409.147 136.29 414.316 144.926 421.908 151.704C429.499 158.483 439.17 163.099 449.699 164.969C460.229 166.839 471.142 165.879 481.061 162.211C490.979 158.543 499.456 152.33 505.42 144.36C511.385 136.389 514.568 127.018 514.568 117.432C514.552 104.582 508.828 92.2623 498.652 83.1758C488.476 74.0894 474.68 68.9783 460.289 68.9637V68.9637Z" fill="#3F3D56"/>
<path d="M449.586 454.663C443.991 454.663 438.522 453.181 433.871 450.406C429.219 447.631 425.594 443.686 423.453 439.07C421.312 434.455 420.751 429.377 421.843 424.477C422.934 419.577 425.628 415.077 429.584 411.544C433.54 408.012 438.58 405.606 444.067 404.632C449.554 403.657 455.242 404.157 460.411 406.069C465.579 407.981 469.997 411.218 473.105 415.372C476.213 419.526 477.872 424.409 477.872 429.405C477.864 436.101 474.881 442.521 469.578 447.257C464.275 451.992 457.085 454.655 449.586 454.663ZM449.586 405.512C444.294 405.512 439.12 406.913 434.72 409.538C430.32 412.164 426.89 415.895 424.865 420.261C422.84 424.627 422.31 429.431 423.343 434.066C424.375 438.701 426.923 442.958 430.665 446.299C434.408 449.641 439.175 451.916 444.366 452.838C449.556 453.76 454.936 453.287 459.825 451.479C464.715 449.67 468.894 446.608 471.834 442.679C474.774 438.75 476.343 434.13 476.343 429.405C476.335 423.07 473.513 416.997 468.497 412.518C463.481 408.039 456.68 405.519 449.586 405.512V405.512Z" fill="#3F3D56"/>
<path d="M656 306.114H541.647V204.004H656V306.114ZM543.176 304.749H654.471V205.37H543.176V304.749Z" fill="#3F3D56"/>
<path d="M414.505 360.727H352.495V305.356H414.505V360.727ZM354.024 359.362H412.976V306.721H354.024V359.362Z" fill="#3F3D56"/>
<path d="M65.96 164.087C79.863 164.087 91.1336 154.023 91.1336 141.608C91.1336 129.194 79.863 119.13 65.96 119.13C52.057 119.13 40.7864 129.194 40.7864 141.608C40.7864 154.023 52.057 164.087 65.96 164.087Z" fill="#2F2E41"/>
<path d="M107.916 195.129C124.467 195.129 137.885 183.148 137.885 168.368C137.885 153.589 124.467 141.608 107.916 141.608C91.3648 141.608 77.9474 153.589 77.9474 168.368C77.9474 183.148 91.3648 195.129 107.916 195.129Z" fill="#2F2E41"/>
<path d="M142.466 398.697L127.767 421.919C127.767 421.919 108.545 404.755 118.721 400.212L134.551 395.668L142.466 398.697Z" fill="#FFB8B8"/>
<path d="M116.46 460.79L120.982 477.954L107.414 481.992L102.891 462.304L116.46 460.79Z" fill="#FFB8B8"/>
<path d="M144.751 287.561L147.665 314.114C147.665 314.114 200.13 357.302 182.039 373.456C163.949 389.61 141.335 402.736 141.335 402.736L131.159 396.173L154.338 367.903L107.414 338.119L118.156 462.809L101.761 466.848L65.0137 340.643C65.0137 340.643 53.7069 300.258 81.4086 280.065L144.751 287.561Z" fill="#3F3D56"/>
<path d="M111.372 477.449C111.372 477.449 119.852 467.857 123.809 476.439C126.417 482.341 128.497 488.418 130.028 494.613C130.028 494.613 144.727 514.301 122.113 511.776C99.4996 509.252 106.284 500.166 106.284 500.166C105.081 499.471 104.123 498.485 103.523 497.323C102.922 496.161 102.704 494.871 102.892 493.603C103.457 489.06 106.284 478.458 106.284 478.458C106.284 478.458 109.11 473.915 111.372 477.449Z" fill="#2F2E41"/>
<path d="M134.833 411.57C134.833 411.57 139.639 415.861 131.724 422.928C131.724 422.928 130.593 442.616 120.417 440.597C110.241 438.578 106.849 413.842 107.98 411.318C109.11 408.794 106.284 390.115 113.068 390.62C119.852 391.125 128.332 397.688 128.332 397.688C128.332 397.688 113.633 409.803 127.767 417.88C127.767 417.88 131.441 416.618 134.833 411.57Z" fill="#2F2E41"/>
<path d="M92.7155 216.458L135.681 217.467C126.213 205.469 124.431 191.315 128.332 175.567L100.065 180.616C105.508 193.468 105.602 204.492 92.7155 216.458Z" fill="#FFB8B8"/>
<path d="M158.157 219.46L145.451 297.621L79.621 281.182L75.7289 224.86C75.7288 224.859 75.7287 224.857 75.7286 224.856C75.5642 221.582 76.6423 218.348 78.8002 215.678C80.9601 213.006 84.0767 211.054 87.6506 210.152L100.715 206.856L128.329 204.34L143.613 205.914C147.459 206.311 151.017 207.898 153.673 210.389C156.313 212.864 157.892 216.074 158.157 219.46Z" fill="#F59B00" stroke="black"/>
<path d="M143.031 283.094L153.772 294.2L179.778 269.464L170.11 226.657C168.957 221.551 166.127 216.867 161.982 213.202C157.838 209.537 152.565 207.057 146.835 206.077L139.639 204.847L155.468 262.396L143.031 283.094Z" fill="#F59B00"/>
<path d="M143.564 298.704L151.511 289.152L144.727 283.094L133.708 285.661C132.151 286.023 130.725 286.739 129.569 287.739C128.412 288.738 127.565 289.988 127.109 291.366C126.652 292.744 126.603 294.204 126.964 295.605C127.326 297.005 128.086 298.298 129.172 299.359V299.359C130.101 300.266 131.244 300.979 132.518 301.446C133.792 301.913 135.165 302.123 136.541 302.061C137.916 301.998 139.259 301.665 140.473 301.085C141.687 300.504 142.743 299.692 143.564 298.704Z" fill="#FFB8B8"/>
<path d="M91.0195 286.123L80.278 297.229L54.2723 272.493L63.9406 229.686C65.0938 224.58 67.9231 219.896 72.068 216.231C76.2129 212.566 81.4858 210.086 87.2149 209.106L94.4115 207.876L78.5819 265.425L91.0195 286.123Z" fill="#F59B00"/>
<path d="M90.4866 301.733L82.5393 292.18L89.3234 286.123L100.342 288.689C101.9 289.052 103.325 289.768 104.482 290.768C105.638 291.767 106.485 293.017 106.942 294.395C107.398 295.773 107.448 297.233 107.086 298.633C106.725 300.034 105.964 301.327 104.878 302.388C103.949 303.295 102.806 304.008 101.533 304.475C100.259 304.942 98.8849 305.152 97.5096 305.089C96.1343 305.027 94.7915 304.694 93.5774 304.113C92.3632 303.533 91.3078 302.72 90.4866 301.733V301.733Z" fill="#FFB8B8"/>
<path d="M112.06 188.059C122.899 188.059 131.686 180.212 131.686 170.533C131.686 160.854 122.899 153.008 112.06 153.008C101.22 153.008 92.4328 160.854 92.4328 170.533C92.4328 180.212 101.22 188.059 112.06 188.059Z" fill="#FFB8B8"/>
<path d="M133.09 168.904H99.5248L89.3355 156.594C99.3598 148.759 111.906 147.355 125.897 149.636L133.09 168.904Z" fill="#2F2E41"/>
<path d="M429.709 150.199C455.042 150.199 475.579 131.861 475.579 109.24C475.579 86.6191 455.042 68.281 429.709 68.281C404.376 68.281 383.839 86.6191 383.839 109.24C383.839 131.861 404.376 150.199 429.709 150.199Z" fill="#F59B00"/>
<path d="M623.896 186.497H523.608V276.048H623.896V186.497Z" fill="#3F3D56"/>
<path d="M370.059 344.293H423.82V296.287H370.059V344.293Z" fill="#E6E6E6"/>
<path d="M434.296 445.788C446.962 445.788 457.231 436.619 457.231 425.309C457.231 413.998 446.962 404.829 434.296 404.829C421.629 404.829 411.361 413.998 411.361 425.309C411.361 436.619 421.629 445.788 434.296 445.788Z" fill="#F59B00"/>
</g>
<defs>
<clipPath id="clip0">
<rect width="656" height="512" fill="white"/>
</clipPath>
</defs>
</svg>
