<svg width="650" height="528" viewBox="0 0 650 528" fill="none" xmlns="http://www.w3.org/2000/svg">
<g clip-path="url(#clip0)">
<path d="M185.227 334.156C184.233 333.783 183.332 333.198 182.589 332.44C181.845 331.682 181.277 330.77 180.924 329.769C180.571 328.768 180.442 327.701 180.546 326.645C180.649 325.589 180.984 324.568 181.525 323.654L164.857 303.951L178.175 302.359L191.962 321.314C193.436 322.324 194.489 323.841 194.92 325.575C195.351 327.31 195.13 329.142 194.3 330.725C193.47 332.308 192.088 333.531 190.416 334.164C188.744 334.796 186.897 334.793 185.227 334.156V334.156Z" fill="#FFB6B6"/>
<path d="M116.604 518.823L125.459 518.822L129.673 484.675L116.602 484.676L116.604 518.823Z" fill="#FFB6B6"/>
<path d="M114.345 515.932L116.838 515.932L126.569 511.976L131.785 515.932H131.786C134.733 515.932 137.56 517.102 139.644 519.186C141.729 521.27 142.9 524.096 142.9 527.042V527.403L114.345 527.404L114.345 515.932Z" fill="#2F2E41"/>
<path d="M150.921 513.244L159.56 515.194L171.193 482.813L158.444 479.935L150.921 513.244Z" fill="#FFB6B6"/>
<path d="M149.355 509.927L151.786 510.476L162.15 508.76L166.366 513.767L166.367 513.767C169.242 514.416 171.742 516.181 173.316 518.672C174.89 521.163 175.409 524.178 174.76 527.052L174.681 527.404L146.827 521.117L149.355 509.927Z" fill="#2F2E41"/>
<path d="M100.392 343.176L108.4 432.868C108.4 432.868 105.399 486.716 115.081 505.664H129.123L136.075 427.951L136.948 375.789L167.052 419.796L147.878 504.394L165.16 505.938L196.274 414.13L162.091 327.944L100.392 343.176Z" fill="#2F2E41"/>
<path d="M108.779 200.342C120.184 200.342 129.431 191.098 129.431 179.696C129.431 168.294 120.184 159.05 108.779 159.05C97.3729 159.05 88.1267 168.294 88.1267 179.696C88.1267 191.098 97.3729 200.342 108.779 200.342Z" fill="#FFB8B8"/>
<path d="M152.133 220.016L128.141 212.749L125.018 203.15L99.2886 207.325L93.8219 216.696L76.1252 233.146L96.8589 326.866L96.2313 347.335C96.2313 347.335 109.501 353.307 167.052 339.556C167.742 339.392 166.297 338.67 166.297 338.67L152.133 220.016Z" fill="#3F3D56"/>
<path d="M174.919 323.325L146.794 285.674L138.821 218.947L139.053 218.835C141.231 217.787 143.635 217.296 146.049 217.408C148.464 217.519 150.812 218.229 152.884 219.473C154.956 220.717 156.686 222.457 157.918 224.535C159.15 226.614 159.846 228.966 159.943 231.38L161.601 272.613L189.534 309.464L174.919 323.325Z" fill="#3F3D56"/>
<path d="M87.3037 191.411C87.1598 191.215 87.0174 191.017 86.8763 190.817C86.8195 190.937 86.7743 191.061 86.7094 191.178L87.3037 191.411Z" fill="#2F2E41"/>
<path d="M129.322 164.595C127.941 161.588 125.48 159.211 122.427 157.936C119.401 156.715 116.019 156.718 112.995 157.944C110.265 156.219 107.231 154.852 104.036 154.683C100.841 154.514 97.4636 155.699 95.4949 158.307C95.0552 158.995 94.5558 159.644 94.0026 160.245C92.42 161.71 90.0149 161.499 87.9114 161.199C88.8549 162.007 89.7986 162.816 90.7426 163.624C89.6005 163.922 88.4584 164.221 87.3161 164.519C88.6489 165.327 89.9817 166.135 91.3143 166.943C87.4452 169.265 85.6866 174.332 86.1511 178.934C86.5906 183.291 88.6948 187.276 91.2103 190.817C92.2137 188.7 91.9975 186.167 91.9809 183.783C91.9636 181.264 92.4094 178.403 94.4286 176.995C95.7908 176.046 97.5423 176.003 99.1848 176.012C107.47 176.058 115.746 176.574 123.973 177.559C125.089 177.607 126.177 177.923 127.146 178.479C128.965 179.72 129.32 182.28 129.503 184.527C130.464 180.818 130.934 176.999 130.902 173.167C130.983 170.231 130.444 167.31 129.322 164.595Z" fill="#2F2E41"/>
<path d="M127.291 415.213C145.243 415.213 159.796 400.665 159.796 382.718C159.796 364.772 145.243 350.223 127.291 350.223C109.34 350.223 94.7866 364.772 94.7866 382.718C94.7866 400.665 109.34 415.213 127.291 415.213Z" fill="#F0F0F0"/>
<path d="M127.292 349.501C125.621 349.501 123.952 349.627 122.3 349.877C121.455 349.999 120.632 350.158 119.815 350.353C113.819 351.735 108.324 354.755 103.945 359.077C99.565 363.399 96.4727 368.852 95.0126 374.828C93.5526 380.805 93.7822 387.069 95.676 392.922C97.5697 398.776 101.053 403.988 105.737 407.978C106.294 408.447 106.857 408.902 107.442 409.335C111.659 412.478 116.562 414.576 121.748 415.454C126.935 416.333 132.255 415.968 137.273 414.389C142.29 412.81 146.861 410.063 150.609 406.373C154.356 402.683 157.174 398.156 158.83 393.165C160.486 388.174 160.932 382.861 160.133 377.664C159.333 372.466 157.311 367.533 154.231 363.27C151.152 359.006 147.104 355.535 142.42 353.141C137.737 350.748 132.552 349.5 127.292 349.501H127.292ZM127.292 414.491C120.534 414.498 113.951 412.339 108.511 408.331C107.919 407.898 107.348 407.451 106.792 406.974C102.228 403.125 98.8418 398.069 97.0214 392.384C95.201 386.699 95.0201 380.617 96.4996 374.834C97.9791 369.051 101.059 363.802 105.386 359.69C109.713 355.577 115.112 352.766 120.964 351.581C121.773 351.415 122.582 351.285 123.405 351.184C124.695 351.024 125.992 350.945 127.292 350.945C135.721 350.945 143.805 354.293 149.765 360.251C155.726 366.21 159.074 374.292 159.074 382.718C159.074 391.145 155.726 399.226 149.765 405.185C143.805 411.144 135.721 414.491 127.292 414.491Z" fill="#3F3D56"/>
<path d="M111.4 376.219H143.183C144.38 376.219 145.35 375.249 145.35 374.053C145.35 372.856 144.38 371.887 143.183 371.887H111.4C110.203 371.887 109.233 372.856 109.233 374.053C109.233 375.249 110.203 376.219 111.4 376.219Z" fill="#F59B00"/>
<path d="M111.4 384.885H143.183C144.38 384.885 145.35 383.915 145.35 382.718C145.35 381.522 144.38 380.552 143.183 380.552H111.4C110.203 380.552 109.233 381.522 109.233 382.718C109.233 383.915 110.203 384.885 111.4 384.885Z" fill="#F59B00"/>
<path d="M111.4 393.55H143.183C144.38 393.55 145.35 392.58 145.35 391.384C145.35 390.187 144.38 389.217 143.183 389.217H111.4C110.203 389.217 109.233 390.187 109.233 391.384C109.233 392.58 110.203 393.55 111.4 393.55Z" fill="#F59B00"/>
<path d="M129.372 359.447C128.322 359.285 127.321 358.895 126.439 358.305C125.556 357.714 124.814 356.937 124.265 356.029C123.715 355.121 123.371 354.103 123.258 353.047C123.144 351.992 123.264 350.924 123.607 349.92L103.275 334.024L115.99 329.753L133.349 345.503C134.998 346.193 136.338 347.463 137.113 349.073C137.888 350.684 138.046 352.523 137.555 354.242C137.065 355.96 135.961 357.44 134.453 358.399C132.945 359.359 131.137 359.732 129.372 359.447H129.372Z" fill="#FFB6B6"/>
<path d="M88.6468 232.88L76.1252 233.146C73.6688 235.408 71.7141 238.159 70.3872 241.223C69.0603 244.287 68.3907 247.595 68.4216 250.933V310.081L115.408 349.352L130.601 334.644L95.6288 296.554L88.6468 232.88Z" fill="#3F3D56"/>
<path d="M650 92.1215H184.92V389.889H650V92.1215Z" fill="#E6E6E6"/>
<path d="M636.701 129.469H198.219V372.273H636.701V129.469Z" fill="white"/>
<path d="M649.801 91.8579H184.721V111.61H649.801V91.8579Z" fill="#F59B00"/>
<path d="M199.404 105.617C201.426 105.617 203.066 103.978 203.066 101.956C203.066 99.9345 201.426 98.2954 199.404 98.2954C197.381 98.2954 195.742 99.9345 195.742 101.956C195.742 103.978 197.381 105.617 199.404 105.617Z" fill="white"/>
<path d="M213.304 105.617C215.327 105.617 216.966 103.978 216.966 101.956C216.966 99.9345 215.327 98.2954 213.304 98.2954C211.282 98.2954 209.642 99.9345 209.642 101.956C209.642 103.978 211.282 105.617 213.304 105.617Z" fill="white"/>
<path d="M227.204 105.617C229.227 105.617 230.866 103.978 230.866 101.956C230.866 99.9345 229.227 98.2954 227.204 98.2954C225.182 98.2954 223.542 99.9345 223.542 101.956C223.542 103.978 225.182 105.617 227.204 105.617Z" fill="white"/>
<path d="M464.07 154.662H370.179V207.627H464.07V154.662Z" fill="#F59B00"/>
<path d="M464.07 222.377H370.179V279.365H464.07V222.377Z" fill="#E6E6E6"/>
<path d="M596.859 154.662H484.19V238.517H596.859V154.662Z" fill="#E6E6E6"/>
<path d="M596.859 263.225H484.19V347.08H596.859V263.225Z" fill="#F59B00"/>
<path d="M351.267 154.662H238.597V238.517H351.267V154.662Z" fill="#E6E6E6"/>
<path d="M448.717 57.5103L416.621 178.214L418.092 178.604L449.886 59.031L448.717 57.5103Z" fill="#3F3D56"/>
<path d="M541.36 304.436L509.565 424.01L510.735 425.531L542.831 304.826L541.36 304.436Z" fill="#3F3D56"/>
<path d="M349.047 289.311H240.697C240.027 289.311 239.384 289.045 238.91 288.571C238.435 288.097 238.169 287.454 238.169 286.784C238.169 286.114 238.435 285.471 238.91 284.997C239.384 284.523 240.027 284.257 240.697 284.257H349.047C349.717 284.257 350.36 284.523 350.834 284.997C351.308 285.471 351.575 286.114 351.575 286.784C351.575 287.454 351.308 288.097 350.834 288.571C350.36 289.045 349.717 289.311 349.047 289.311Z" fill="#E6E6E6"/>
<path d="M349.047 274.869H240.697C240.027 274.869 239.384 274.603 238.91 274.129C238.435 273.655 238.169 273.012 238.169 272.342C238.169 271.672 238.435 271.029 238.91 270.555C239.384 270.081 240.027 269.814 240.697 269.814H349.047C349.717 269.814 350.36 270.081 350.834 270.555C351.308 271.029 351.575 271.672 351.575 272.342C351.575 273.012 351.308 273.655 350.834 274.129C350.36 274.603 349.717 274.869 349.047 274.869Z" fill="#E6E6E6"/>
<path d="M349.047 303.754H240.697C240.027 303.754 239.384 303.487 238.91 303.013C238.435 302.539 238.169 301.896 238.169 301.226C238.169 300.556 238.435 299.913 238.91 299.439C239.384 298.965 240.027 298.699 240.697 298.699H349.047C349.717 298.699 350.36 298.965 350.834 299.439C351.308 299.913 351.575 300.556 351.575 301.226C351.575 301.896 351.308 302.539 350.834 303.013C350.36 303.487 349.717 303.754 349.047 303.754V303.754Z" fill="#E6E6E6"/>
<path d="M349.047 318.196H240.697C240.027 318.196 239.384 317.93 238.91 317.456C238.435 316.982 238.169 316.339 238.169 315.668C238.169 314.998 238.435 314.355 238.91 313.881C239.384 313.407 240.027 313.141 240.697 313.141H349.047C349.717 313.141 350.36 313.407 350.834 313.881C351.308 314.355 351.575 314.998 351.575 315.668C351.575 316.339 351.308 316.982 350.834 317.456C350.36 317.93 349.717 318.196 349.047 318.196V318.196Z" fill="#E6E6E6"/>
<path d="M349.047 332.638H240.697C240.027 332.638 239.384 332.372 238.91 331.898C238.435 331.424 238.169 330.781 238.169 330.111C238.169 329.44 238.435 328.797 238.91 328.323C239.384 327.85 240.027 327.583 240.697 327.583H349.047C349.717 327.583 350.36 327.85 350.834 328.323C351.308 328.797 351.575 329.44 351.575 330.111C351.575 330.781 351.308 331.424 350.834 331.898C350.36 332.372 349.717 332.638 349.047 332.638Z" fill="#E6E6E6"/>
<path d="M349.047 347.08H240.697C240.027 347.08 239.384 346.814 238.91 346.34C238.435 345.866 238.169 345.223 238.169 344.553C238.169 343.883 238.435 343.24 238.91 342.766C239.384 342.292 240.027 342.025 240.697 342.025H349.047C349.717 342.025 350.36 342.292 350.834 342.766C351.308 343.24 351.575 343.883 351.575 344.553C351.575 345.223 351.308 345.866 350.834 346.34C350.36 346.814 349.717 347.08 349.047 347.08Z" fill="#E6E6E6"/>
<path d="M461.909 303.754H372.34C371.67 303.754 371.026 303.487 370.552 303.013C370.078 302.539 369.812 301.896 369.812 301.226C369.812 300.556 370.078 299.913 370.552 299.439C371.026 298.965 371.67 298.699 372.34 298.699H461.909C462.579 298.699 463.222 298.965 463.697 299.439C464.171 299.913 464.437 300.556 464.437 301.226C464.437 301.896 464.171 302.539 463.697 303.013C463.222 303.487 462.579 303.754 461.909 303.754V303.754Z" fill="#E6E6E6"/>
<path d="M461.909 318.196H372.34C371.67 318.196 371.026 317.93 370.552 317.456C370.078 316.982 369.812 316.339 369.812 315.668C369.812 314.998 370.078 314.355 370.552 313.881C371.026 313.407 371.67 313.141 372.34 313.141H461.909C462.579 313.141 463.222 313.407 463.697 313.881C464.171 314.355 464.437 314.998 464.437 315.668C464.437 316.339 464.171 316.982 463.697 317.456C463.222 317.93 462.579 318.196 461.909 318.196V318.196Z" fill="#E6E6E6"/>
<path d="M461.909 332.638H372.34C371.67 332.638 371.026 332.372 370.552 331.898C370.078 331.424 369.812 330.781 369.812 330.111C369.812 329.44 370.078 328.797 370.552 328.323C371.026 327.85 371.67 327.583 372.34 327.583H461.909C462.579 327.583 463.222 327.85 463.697 328.323C464.171 328.797 464.437 329.44 464.437 330.111C464.437 330.781 464.171 331.424 463.697 331.898C463.222 332.372 462.579 332.638 461.909 332.638V332.638Z" fill="#E6E6E6"/>
<path d="M461.909 347.08H372.34C371.67 347.08 371.026 346.814 370.552 346.34C370.078 345.866 369.812 345.223 369.812 344.553C369.812 343.883 370.078 343.24 370.552 342.766C371.026 342.292 371.67 342.025 372.34 342.025H461.909C462.579 342.025 463.222 342.292 463.697 342.766C464.171 343.24 464.437 343.883 464.437 344.553C464.437 345.223 464.171 345.866 463.697 346.34C463.222 346.814 462.579 347.08 461.909 347.08V347.08Z" fill="#E6E6E6"/>
<path d="M450.895 65.712C468.847 65.712 483.4 51.1635 483.4 33.2171C483.4 15.2706 468.847 0.722107 450.895 0.722107C432.943 0.722107 418.39 15.2706 418.39 33.2171C418.39 51.1635 432.943 65.712 450.895 65.712Z" fill="#F0F0F0"/>
<path d="M450.895 7.69938e-07C449.224 0.000199665 447.556 0.125715 445.904 0.375496C445.059 0.498254 444.235 0.657085 443.419 0.852091C437.422 2.23391 431.928 5.25417 427.548 9.5759C423.169 13.8976 420.076 19.3508 418.616 25.3271C417.156 31.3034 417.386 37.5677 419.28 43.4211C421.173 49.2745 424.657 54.4868 429.341 58.4765C429.897 58.9458 430.46 59.4008 431.046 59.834C435.263 62.9772 440.166 65.0744 445.352 65.953C450.538 66.8315 455.859 66.4664 460.876 64.8876C465.894 63.3087 470.464 60.5614 474.212 56.8716C477.96 53.1818 480.778 48.655 482.434 43.6638C484.089 38.6726 484.536 33.3597 483.736 28.1623C482.937 22.9649 480.914 18.0316 477.835 13.7683C474.756 9.50509 470.708 6.03379 466.024 3.64013C461.34 1.24647 456.155 -0.00113145 450.895 7.69938e-07V7.69938e-07ZM450.895 64.9899C444.137 64.9972 437.555 62.8383 432.115 58.8303C431.522 58.397 430.952 57.9493 430.396 57.4727C425.832 53.6241 422.445 48.5674 420.625 42.8827C418.805 37.198 418.624 31.1154 420.103 25.3327C421.583 19.5499 424.663 14.3012 428.99 10.1883C433.317 6.0755 438.716 3.26517 444.568 2.07968C445.376 1.91359 446.186 1.78361 447.009 1.68251C448.298 1.52291 449.596 1.44333 450.895 1.44422C459.324 1.44422 467.408 4.7917 473.369 10.7503C479.329 16.7088 482.678 24.7904 482.678 33.2171C482.678 41.6437 479.329 49.7253 473.369 55.6838C467.408 61.6424 459.324 64.9899 450.895 64.9899V64.9899Z" fill="#3F3D56"/>
<path d="M435.004 26.7181L466.786 26.7181C467.983 26.7181 468.953 25.7482 468.953 24.5517C468.953 23.3553 467.983 22.3854 466.786 22.3854L435.004 22.3854C433.807 22.3854 432.837 23.3553 432.837 24.5517C432.837 25.7482 433.807 26.7181 435.004 26.7181Z" fill="#F59B00"/>
<path d="M435.004 35.3834L466.786 35.3834C467.983 35.3834 468.953 34.4135 468.953 33.217C468.953 32.0206 467.983 31.0507 466.786 31.0507L435.004 31.0507C433.807 31.0507 432.837 32.0206 432.837 33.217C432.837 34.4135 433.807 35.3834 435.004 35.3834Z" fill="#F59B00"/>
<path d="M435.004 44.0487L466.786 44.0487C467.983 44.0487 468.953 43.0788 468.953 41.8824C468.953 40.6859 467.983 39.716 466.786 39.716L435.004 39.716C433.807 39.716 432.837 40.6859 432.837 41.8824C432.837 43.0788 433.807 44.0487 435.004 44.0487Z" fill="#F59B00"/>
<path d="M505.792 485.98C523.744 485.98 538.297 471.431 538.297 453.485C538.297 435.539 523.744 420.99 505.792 420.99C487.84 420.99 473.287 435.539 473.287 453.485C473.287 471.431 487.84 485.98 505.792 485.98Z" fill="#F0F0F0"/>
<path d="M505.792 420.268C504.121 420.268 502.453 420.394 500.801 420.643C499.956 420.766 499.133 420.925 498.316 421.12C492.319 422.502 486.825 425.522 482.445 429.844C478.066 434.166 474.973 439.619 473.513 445.595C472.053 451.571 472.283 457.836 474.177 463.689C476.07 469.542 479.554 474.755 484.238 478.744C484.794 479.214 485.357 479.669 485.943 480.102C490.16 483.245 495.063 485.342 500.249 486.221C505.435 487.099 510.756 486.734 515.773 485.155C520.791 483.577 525.361 480.829 529.109 477.14C532.857 473.45 535.675 468.923 537.331 463.932C538.986 458.941 539.433 453.628 538.633 448.43C537.834 443.233 535.811 438.3 532.732 434.036C529.653 429.773 525.605 426.302 520.921 423.908C516.238 421.514 511.052 420.267 505.792 420.268V420.268ZM505.792 485.258C499.034 485.265 492.452 483.106 487.012 479.098C486.419 478.665 485.849 478.217 485.293 477.741C480.729 473.892 477.343 468.835 475.522 463.151C473.702 457.466 473.521 451.383 475 445.601C476.48 439.818 479.56 434.569 483.887 430.456C488.214 426.343 493.613 423.533 499.465 422.348C500.274 422.182 501.083 422.052 501.906 421.95C503.195 421.791 504.493 421.711 505.792 421.712C514.221 421.712 522.305 425.06 528.266 431.018C534.226 436.977 537.575 445.058 537.575 453.485C537.575 461.912 534.226 469.993 528.266 475.952C522.305 481.91 514.221 485.258 505.792 485.258Z" fill="#3F3D56"/>
<path d="M489.901 446.986H521.683C522.88 446.986 523.85 446.016 523.85 444.82C523.85 443.623 522.88 442.653 521.683 442.653H489.901C488.704 442.653 487.734 443.623 487.734 444.82C487.734 446.016 488.704 446.986 489.901 446.986Z" fill="#F59B00"/>
<path d="M489.901 455.651H521.683C522.88 455.651 523.85 454.681 523.85 453.485C523.85 452.289 522.88 451.319 521.683 451.319H489.901C488.704 451.319 487.734 452.289 487.734 453.485C487.734 454.681 488.704 455.651 489.901 455.651Z" fill="#F59B00"/>
<path d="M489.901 464.317H521.683C522.88 464.317 523.85 463.347 523.85 462.15C523.85 460.954 522.88 459.984 521.683 459.984H489.901C488.704 459.984 487.734 460.954 487.734 462.15C487.734 463.347 488.704 464.317 489.901 464.317Z" fill="#F59B00"/>
<path d="M251 528H0.861058C0.633386 527.999 0.415269 527.908 0.254513 527.747C0.0937575 527.586 0.003479 527.368 0.003479 527.14C0.003479 526.913 0.0937575 526.694 0.254513 526.533C0.415269 526.372 0.633386 526.281 0.861058 526.28H251C251.227 526.281 251.445 526.372 251.606 526.533C251.767 526.694 251.857 526.913 251.857 527.14C251.857 527.368 251.767 527.586 251.606 527.747C251.445 527.908 251.227 527.999 251 528V528Z" fill="#CACACA"/>
</g>
<defs>
<clipPath id="clip0">
<rect width="650" height="528" fill="white"/>
</clipPath>
</defs>
</svg>
