<svg width="688" height="464" viewBox="0 0 688 464" fill="none" xmlns="http://www.w3.org/2000/svg">
<path d="M165.57 456.121L148.623 421.146L165.578 459.932L165.587 463.917C166.796 463.899 167.993 463.838 169.178 463.736L167.796 412.541L167.814 412.145L167.783 412.069L167.651 407.232L185.371 368.898L167.633 403.609L167.58 404.634L166.535 365.953L181.769 326.292L166.416 359.157L165.702 278.983L165.699 278.717L165.696 278.979L165.349 342.19L150.792 316.898L165.362 347.635L165.429 382.256L151.923 348.819L165.437 387.346L165.474 406.597L145.854 360.04L165.489 413.313L165.57 456.121Z" fill="#E2E2E2"/>
<path d="M311.005 456.121L294.057 421.146L311.012 459.932L311.022 463.917C312.231 463.899 313.427 463.838 314.612 463.736L313.23 412.541L313.248 412.145L313.217 412.069L313.085 407.232L330.806 368.898L313.067 403.609L313.014 404.634L311.97 365.953L327.203 326.293L311.851 359.157L311.136 278.983L311.133 278.717L311.131 278.979L310.783 342.19L296.226 316.899L310.796 347.635L310.863 382.256L297.357 348.819L310.871 387.346L310.908 406.597L291.289 360.04L310.924 413.313L311.005 456.121Z" fill="#E2E2E2"/>
<path d="M19.998 458.371L7.76007 433.115L20.0036 461.122L20.0102 464C20.8833 463.987 21.7475 463.943 22.603 463.869L21.6048 426.901L21.6179 426.616L21.5954 426.561L21.5004 423.068L34.2962 395.388L21.4872 420.452L21.4489 421.192L20.6948 393.261L31.6951 364.622L20.6089 388.353L20.0932 330.46L20.0908 330.268L20.0891 330.457L19.838 376.102L9.32661 357.839L19.8473 380.033L19.8961 405.033L10.1431 380.888L19.9015 408.708L19.9285 422.61L5.76123 388.991L19.9396 427.459L19.998 458.371Z" fill="#E2E2E2"/>
<path d="M664.714 456.121L647.766 421.146L664.722 459.932L664.731 463.917C665.94 463.899 667.137 463.838 668.322 463.736L666.939 412.541L666.958 412.145L666.926 412.069L666.795 407.232L684.515 368.898L666.777 403.609L666.723 404.634L665.679 365.953L680.913 326.292L665.56 359.157L664.846 278.983L664.843 278.717L664.84 278.979L664.493 342.19L649.936 316.898L664.505 347.635L664.573 382.256L651.066 348.819L664.58 387.346L664.618 406.597L644.998 360.04L664.633 413.313L664.714 456.121Z" fill="#E2E2E2"/>
<path d="M205.094 403.315H296.517V398.278H205.094V403.315Z" fill="#F59B00"/>
<path d="M200.445 398.278H291.868V393.24H200.445V398.278Z" fill="#F59B00"/>
<path d="M205.868 393.24H297.292V388.202H205.868V393.24Z" fill="#F59B00"/>
<path d="M215.166 388.202H306.589V383.164H215.166V388.202Z" fill="#F59B00"/>
<path d="M137.378 390.21H140.552V360.903H137.378V390.21Z" fill="#3F3D56"/>
<path d="M137.371 360.531L138.565 364.356L256.028 302.356L254.834 298.531L137.371 360.531Z" fill="#3F3D56"/>
<path d="M78.6544 433.966H106.27V419.931H78.6544V433.966Z" fill="#3F3D56"/>
<path d="M81.1938 448.001H217.368V432.315H81.1938V448.001Z" fill="#3F3D56"/>
<path d="M103.572 440.158H136.267V386.702H111.825L103.572 413.662V440.158Z" fill="#E2E2E2"/>
<path d="M117.221 408.167H131.188V390.004H117.221V408.167Z" fill="white"/>
<path d="M106.746 408.373H115.634V390.211H111.825L106.746 408.373Z" fill="white"/>
<path d="M127.379 426.329H130.553V418.486H127.379V426.329Z" fill="#3F3D56"/>
<path d="M112.936 409.612H112.777C111.978 409.612 111.211 409.198 110.645 408.463C110.08 407.727 109.762 406.73 109.762 405.69C109.762 404.65 110.08 403.653 110.645 402.917C111.211 402.182 111.978 401.769 112.777 401.769H112.936V409.612V409.612Z" fill="#3F3D56"/>
<path d="M231.017 440.158H230.859C230.059 440.158 229.292 439.745 228.726 439.009C228.161 438.274 227.843 437.276 227.843 436.236V436.236C227.843 435.196 228.161 434.199 228.726 433.463C229.292 432.728 230.059 432.315 230.859 432.315H231.017V440.158V440.158Z" fill="#3F3D56"/>
<path d="M90.8752 432.256C88.5146 432.295 86.1912 433.026 84.0778 434.394C81.9643 435.762 80.1153 437.732 78.6681 440.158H72.4646L78.4957 418.311L106.588 411.106L105.794 440.158H103.082C101.635 437.732 99.786 435.762 97.6726 434.394C95.5592 433.026 93.2358 432.295 90.8752 432.256V432.256Z" fill="#E2E2E2"/>
<path d="M90.5577 463.274C98.1836 463.274 104.366 455.235 104.366 445.318C104.366 435.401 98.1836 427.361 90.5577 427.361C82.9319 427.361 76.7498 435.401 76.7498 445.318C76.7498 455.235 82.9319 463.274 90.5577 463.274Z" fill="#3F3D56"/>
<path d="M90.5577 454.768C94.5714 454.768 97.8251 450.537 97.8251 445.318C97.8251 440.098 94.5714 435.867 90.5577 435.867C86.5441 435.867 83.2904 440.098 83.2904 445.318C83.2904 450.537 86.5441 454.768 90.5577 454.768Z" fill="#E2E2E2"/>
<path d="M215.305 463.068C221.967 463.068 227.367 456.045 227.367 447.382C227.367 438.719 221.967 431.696 215.305 431.696C208.643 431.696 203.243 438.719 203.243 447.382C203.243 456.045 208.643 463.068 215.305 463.068Z" fill="#3F3D56"/>
<path d="M215.305 455.637C218.811 455.637 221.653 451.941 221.653 447.382C221.653 442.822 218.811 439.126 215.305 439.126C211.799 439.126 208.957 442.822 208.957 447.382C208.957 451.941 211.799 455.637 215.305 455.637Z" fill="#E2E2E2"/>
<path d="M135.314 441.809H141.98V379.272H135.314V441.809Z" fill="#3F3D56"/>
<path d="M135.314 434.172H231.176V430.457H135.314V434.172Z" fill="#3F3D56"/>
<path d="M111.032 410.85H114.206V409.199H111.032V410.85Z" fill="#3F3D56"/>
<path d="M251.332 403.284C251.302 403.241 251.28 403.191 251.266 403.135C251.252 403.08 251.247 403.021 251.252 402.964L255.629 349.128C255.638 349.027 255.674 348.934 255.732 348.866C255.79 348.797 255.866 348.759 255.944 348.759H255.945C256.023 348.759 256.098 348.796 256.156 348.864C256.215 348.931 256.252 349.024 256.261 349.125L260.995 402.848C261 402.906 260.996 402.964 260.983 403.019C260.969 403.074 260.947 403.125 260.918 403.169C260.888 403.212 260.852 403.247 260.812 403.271C260.771 403.295 260.727 403.308 260.683 403.308L251.57 403.42H251.567C251.523 403.42 251.479 403.408 251.439 403.384C251.398 403.361 251.362 403.327 251.332 403.284V403.284ZM255.958 352.941L251.921 402.59L260.324 402.487L255.958 352.941Z" fill="#3F3D56"/>
<path d="M78.5541 418.629L78.7025 418.702C79.4506 419.07 80.0556 419.809 80.3845 420.757C80.7134 421.705 80.7392 422.784 80.4563 423.757C80.1734 424.73 79.6048 425.517 78.8758 425.945C78.1468 426.372 77.317 426.406 76.569 426.038L76.4206 425.965L78.5541 418.629V418.629Z" fill="#3F3D56"/>
<path d="M254.507 358.839H257.681V298.572H254.507V358.839Z" fill="#3F3D56"/>
<path d="M138.965 367.507C141.419 367.507 143.409 364.92 143.409 361.728C143.409 358.536 141.419 355.949 138.965 355.949C136.51 355.949 134.521 358.536 134.521 361.728C134.521 364.92 136.51 367.507 138.965 367.507Z" fill="#3F3D56"/>
<path d="M145.436 430.519H236.859V425.481H145.436V430.519Z" fill="#F59B00"/>
<path d="M150.859 425.481H242.283V420.444H150.859V425.481Z" fill="#F59B00"/>
<path d="M146.986 421.451H238.409V416.413H146.986V421.451Z" fill="#F59B00"/>
<path d="M152.409 416.413H243.832V411.376H152.409V416.413Z" fill="#F59B00"/>
<path d="M296.225 123.164C299.139 123.16 301.955 124.525 304.156 127.007C305.895 126.39 307.718 126.286 309.492 126.702C310.961 123.931 313.072 121.843 315.519 120.743C317.965 119.643 320.617 119.59 323.088 120.59C325.56 121.59 327.72 123.592 329.254 126.302C330.789 129.013 331.616 132.291 331.616 135.656H284.357C284.936 132.122 286.431 128.953 288.591 126.679C290.751 124.406 293.446 123.165 296.225 123.164V123.164Z" fill="#E2E2E2"/>
<path d="M225.128 172.885C227.882 172.881 230.545 174.171 232.626 176.518C234.27 175.934 235.993 175.836 237.67 176.23C239.059 173.61 241.055 171.635 243.367 170.596C245.68 169.556 248.188 169.505 250.524 170.451C252.86 171.396 254.903 173.289 256.353 175.851C257.804 178.414 258.586 181.513 258.586 184.695H213.907C214.455 181.353 215.868 178.357 217.91 176.208C219.953 174.058 222.5 172.885 225.128 172.885V172.885Z" fill="#E2E2E2"/>
<path d="M154.044 90.8787C156.91 90.8744 159.68 92.2168 161.845 94.6588C163.556 94.0513 165.349 93.9488 167.094 94.3589C168.539 91.6327 170.616 89.5787 173.022 88.4969C175.428 87.4152 178.037 87.3623 180.468 88.3462C182.899 89.33 185.024 91.299 186.533 93.9653C188.042 96.6317 188.856 99.8558 188.856 103.167H142.37C142.94 99.6897 144.41 96.5727 146.535 94.3361C148.66 92.0996 151.31 90.8792 154.044 90.8787V90.8787Z" fill="#E2E2E2"/>
<path d="M460.99 247.035V372.883H498.624V245.287L489.888 245.693V219.943H483.551L482.507 162.912C485.064 160.745 486.864 155.599 486.864 149.59C486.866 147.865 486.712 146.146 486.404 144.468C487.614 142.765 488.355 140.589 488.512 138.279C488.669 135.969 488.233 133.657 487.271 131.705C488.076 132.618 489.011 133.315 490.024 133.755C491.037 134.195 492.107 134.369 493.172 134.266C494.237 134.164 495.276 133.787 496.228 133.159C497.18 132.53 498.027 131.662 498.719 130.604C499.411 129.546 499.934 128.321 500.259 126.998C500.584 125.675 500.703 124.281 500.61 122.898C500.517 121.514 500.214 120.169 499.718 118.939C499.222 117.709 498.543 116.62 497.721 115.734C499.104 115.07 500.32 113.926 501.238 112.427C502.156 110.928 502.741 109.13 502.929 107.229C503.116 105.327 502.899 103.396 502.302 101.644C501.705 99.8913 500.75 98.3854 499.54 97.2895C498.331 96.1935 496.914 95.5494 495.443 95.4272C493.972 95.3049 492.504 95.7091 491.197 96.5959C489.891 97.4827 488.796 98.8182 488.032 100.457C487.268 102.096 486.864 103.976 486.864 105.893C486.864 106.047 486.867 106.199 486.872 106.351C485.765 105.911 484.598 105.786 483.45 105.985C482.303 106.183 481.201 106.701 480.221 107.502C479.241 108.303 478.404 109.369 477.769 110.628C477.134 111.887 476.714 113.308 476.538 114.797C475.533 114.018 474.409 113.534 473.245 113.378C472.081 113.221 470.905 113.396 469.798 113.89C468.691 114.384 467.68 115.185 466.835 116.238C465.99 117.291 465.331 118.57 464.905 119.988C464.478 121.405 464.294 122.926 464.365 124.445C464.436 125.964 464.76 127.444 465.315 128.784C465.87 130.124 466.643 131.291 467.58 132.203C468.516 133.115 469.594 133.752 470.739 134.068C470.737 134.144 470.734 134.22 470.734 134.296C471.483 137.236 472.437 140.08 473.583 142.795C473.023 144.986 472.742 147.281 472.751 149.59C472.751 155.599 474.55 160.745 477.107 162.912L476.063 219.943H469.727V246.629L460.99 247.035ZM484.49 126.867L484.511 126.868C484.628 126.868 484.743 126.863 484.858 126.856C484.931 127.166 485.014 127.47 485.108 127.767C484.915 127.452 484.709 127.151 484.49 126.867V126.867Z" fill="#E2E2E2"/>
<path d="M440.269 462.463H554.516V290.587H440.269V462.463Z" fill="#3F3D56"/>
<path d="M481.991 462.463H512.793V427.505H481.991V462.463Z" fill="#E2E2E2"/>
<path d="M402.194 64.4373C402.192 64.5643 402.186 64.6901 402.186 64.8177C402.185 67.1551 402.544 69.4691 403.245 71.622C403.945 73.7748 404.971 75.7225 406.262 77.349C406.463 77.9082 406.688 78.4531 406.934 78.9815C405.999 82.6333 405.531 86.4592 405.547 90.3077C405.547 103.581 410.812 114.341 417.307 114.341C423.803 114.341 429.068 103.581 429.068 90.3077C429.073 87.4325 428.816 84.5667 428.302 81.7703C430.318 78.9323 431.554 75.3046 431.816 71.4553C432.078 67.6061 431.35 63.7526 429.748 60.4984C431.088 62.0212 432.647 63.1827 434.336 63.9155C436.024 64.6482 437.807 64.9376 439.582 64.7668C441.357 64.5961 443.088 63.9686 444.675 62.9209C446.261 61.8731 447.672 60.4259 448.826 58.6632C449.979 56.9005 450.852 54.8575 451.393 52.6528C451.934 50.4481 452.133 48.1255 451.978 45.8199C451.824 43.5143 451.319 41.2715 450.492 39.2219C449.666 37.1722 448.534 35.3565 447.164 33.88C449.468 32.774 451.496 30.8679 453.026 28.3688C454.556 25.8697 455.53 22.8731 455.843 19.7046C456.155 16.536 455.794 13.3167 454.799 10.3963C453.803 7.47584 452.211 4.96602 450.196 3.13945C448.181 1.31287 445.819 0.2394 443.368 0.0356226C440.916 -0.168155 438.469 0.505562 436.291 1.98359C434.113 3.46162 432.288 5.68743 431.015 8.41924C429.742 11.1511 429.068 14.2844 429.068 17.4789C429.068 17.7349 429.075 17.9887 429.083 18.2419C427.237 17.5088 425.292 17.3007 423.379 17.6318C421.467 17.9629 419.631 18.8253 417.997 20.1606C416.363 21.4959 414.97 23.2727 413.911 25.3705C412.852 27.4682 412.152 29.8378 411.86 32.3182C410.183 31.0213 408.31 30.2143 406.37 29.9532C404.43 29.6922 402.47 29.9833 400.625 30.8065C398.78 31.6297 397.095 32.9651 395.687 34.7201C394.279 36.4751 393.181 38.6076 392.47 40.9696C391.759 43.3316 391.452 45.8665 391.57 48.3982C391.689 50.93 392.229 53.398 393.154 55.6309C394.079 57.8638 395.367 59.8081 396.928 61.3288C398.489 62.8496 400.286 63.9102 402.194 64.4373V64.4373ZM425.148 52.4367C425.342 52.4367 425.534 52.4283 425.726 52.4177C425.847 52.9343 425.985 53.4401 426.141 53.9351C425.821 53.4101 425.478 52.9094 425.113 52.4356L425.148 52.4367Z" fill="#E2E2E2"/>
<path d="M410.585 233.781H424.027L423.547 207.564V207.554L421.788 111.424C420.439 112.497 418.888 113.064 417.306 113.064C415.725 113.064 414.174 112.497 412.824 111.424L411.066 207.554V207.564L410.585 233.781Z" fill="#F59B00"/>
<path d="M385.947 252.712V462.463H448.666V249.8L434.107 250.476V207.564H400.505V252.037L385.947 252.712Z" fill="#F59B00"/>
<path d="M562.364 64.4373C562.361 64.5643 562.356 64.6901 562.356 64.8177C562.354 67.1551 562.714 69.4691 563.414 71.622C564.114 73.7748 565.141 75.7225 566.431 77.349C566.633 77.9082 566.857 78.4531 567.103 78.9815C566.169 82.6333 565.701 86.4592 565.716 90.3077C565.716 103.581 570.982 114.341 577.477 114.341C583.972 114.341 589.238 103.581 589.238 90.3077C589.243 87.4325 588.985 84.5667 588.471 81.7703C590.488 78.9323 591.724 75.3046 591.986 71.4553C592.248 67.6061 591.52 63.7526 589.918 60.4984C591.258 62.0213 592.817 63.1828 594.505 63.9155C596.194 64.6483 597.977 64.9377 599.752 64.767C601.526 64.5963 603.258 63.9688 604.844 62.921C606.431 61.8733 607.842 60.426 608.996 58.6634C610.149 56.9007 611.021 54.8577 611.563 52.6529C612.104 50.4481 612.303 48.1255 612.148 45.8199C611.994 43.5143 611.489 41.2715 610.662 39.2219C609.835 37.1722 608.704 35.3565 607.334 33.88C609.638 32.774 611.666 30.8679 613.196 28.3688C614.726 25.8697 615.7 22.8731 616.013 19.7046C616.325 16.536 615.964 13.3167 614.969 10.3963C613.973 7.47584 612.381 4.96602 610.366 3.13945C608.351 1.31287 605.989 0.239401 603.537 0.0356227C601.086 -0.168155 598.638 0.505562 596.461 1.98359C594.283 3.46162 592.458 5.68743 591.185 8.41925C589.911 11.1511 589.238 14.2844 589.238 17.4789C589.238 17.7349 589.244 17.9887 589.253 18.2419C587.407 17.5088 585.462 17.3007 583.549 17.6318C581.636 17.9629 579.801 18.8253 578.167 20.1606C576.533 21.4959 575.139 23.2727 574.08 25.3705C573.021 27.4682 572.322 29.8378 572.029 32.3182C570.353 31.0213 568.48 30.2143 566.54 29.9532C564.6 29.6922 562.639 29.9833 560.794 30.8065C558.95 31.6297 557.265 32.9651 555.856 34.7201C554.448 36.4751 553.351 38.6076 552.64 40.9696C551.929 43.3316 551.622 45.8665 551.74 48.3982C551.858 50.93 552.399 53.398 553.324 55.6309C554.249 57.8638 555.537 59.8081 557.098 61.3288C558.659 62.8496 560.456 63.9102 562.364 64.4373V64.4373ZM585.318 52.4367C585.511 52.4367 585.704 52.4283 585.896 52.4177C586.017 52.9343 586.155 53.4401 586.311 53.9351C585.991 53.4101 585.647 52.9094 585.283 52.4356L585.318 52.4367Z" fill="#E2E2E2"/>
<path d="M570.757 233.78H584.197L581.957 111.428C579.061 112.781 575.893 112.781 572.997 111.428L570.757 233.78Z" fill="#F59B00"/>
<path d="M546.116 252.712V462.463H608.842V249.8L603.69 250.042L594.276 250.476V207.564H560.674V252.037L546.116 252.712Z" fill="#F59B00"/>
<path d="M514.437 331.482H529.933V311.331H514.437V331.482Z" fill="white"/>
<path d="M489.644 331.482H505.14V311.331H489.644V331.482Z" fill="white"/>
<path d="M464.852 331.482H480.347V311.331H464.852V331.482Z" fill="white"/>
<path d="M514.437 363.724H529.933V343.573H514.437V363.724Z" fill="white"/>
<path d="M489.644 363.724H505.14V343.573H489.644V363.724Z" fill="white"/>
<path d="M464.852 363.724H480.347V343.573H464.852V363.724Z" fill="white"/>
<path d="M514.437 395.965H529.933V375.814H514.437V395.965Z" fill="white"/>
<path d="M489.644 395.965H505.14V375.814H489.644V395.965Z" fill="white"/>
<path d="M464.852 395.965H480.347V375.814H464.852V395.965Z" fill="white"/>
<path d="M409.56 323.422H425.055V303.271H409.56V323.422Z" fill="white"/>
<path d="M409.56 355.663H425.055V335.512H409.56V355.663Z" fill="white"/>
<path d="M409.56 387.905H425.055V367.754H409.56V387.905Z" fill="white"/>
<path d="M409.56 420.146H425.055V399.995H409.56V420.146Z" fill="white"/>
<path d="M569.6 323.422H585.095V303.271H569.6V323.422Z" fill="white"/>
<path d="M569.6 355.663H585.095V335.512H569.6V355.663Z" fill="white"/>
<path d="M569.6 387.905H585.095V367.754H569.6V387.905Z" fill="white"/>
<path d="M569.6 420.146H585.095V399.995H569.6V420.146Z" fill="white"/>
<path d="M688 461.753H0V463.768H688V461.753Z" fill="#3F3D56"/>
</svg>
