<svg width="768" height="464" viewBox="0 0 768 464" fill="none" xmlns="http://www.w3.org/2000/svg">
<g clip-path="url(#clip0)">
<path d="M722.747 420.951C722.282 434.938 719.371 448.802 714.1 462.136C713.983 462.445 713.854 462.75 713.728 463.059H681.462C681.496 462.782 681.531 462.472 681.565 462.136C683.716 442.227 671.426 322.498 656.596 301.776C657.895 303.457 725.249 357.69 722.747 420.951Z" fill="#F0F0F0"/>
<path d="M720.326 462.136C720.056 462.445 719.775 462.755 719.488 463.059H695.282C695.465 462.796 695.678 462.487 695.924 462.136C699.923 456.326 711.759 438.957 722.745 420.951C734.546 401.6 745.383 381.516 744.47 374.247C744.753 375.885 752.923 425.864 720.326 462.136Z" fill="#F0F0F0"/>
<path d="M609.119 377.463H0V0H609.119V377.463Z" fill="white"/>
<path d="M609.119 377.463H0V0H609.119V377.463ZM8.99969 370.218H600.119V7.24469H8.99969V370.218Z" fill="#E5E5E5"/>
<path d="M159.416 284.535H113.298C112.049 284.534 110.852 284.134 109.969 283.423C109.086 282.712 108.589 281.748 108.588 280.743V229.567C108.589 228.562 109.086 227.598 109.969 226.887C110.852 226.176 112.049 225.776 113.298 225.775H159.416C160.664 225.776 161.862 226.176 162.745 226.887C163.628 227.598 164.125 228.562 164.126 229.567V280.743C164.125 281.748 163.628 282.712 162.745 283.423C161.862 284.134 160.664 284.534 159.416 284.535V284.535Z" fill="#E6E6E6"/>
<path d="M243.517 284.535H197.399C196.151 284.534 194.953 284.134 194.07 283.423C193.187 282.712 192.69 281.748 192.689 280.743V181.027C192.69 180.021 193.187 179.058 194.07 178.347C194.953 177.636 196.151 177.236 197.399 177.235H243.517C244.766 177.236 245.963 177.636 246.846 178.347C247.729 179.058 248.226 180.021 248.227 181.027V280.743C248.226 281.748 247.729 282.712 246.846 283.423C245.963 284.134 244.766 284.534 243.517 284.535Z" fill="#E6E6E6"/>
<path d="M327.618 284.535H281.501C280.252 284.534 279.055 284.134 278.171 283.423C277.288 282.712 276.792 281.748 276.79 280.743V229.567C276.792 228.562 277.288 227.598 278.171 226.887C279.055 226.176 280.252 225.776 281.501 225.775H327.618C328.867 225.776 330.064 226.176 330.947 226.887C331.83 227.598 332.327 228.562 332.329 229.567V280.743C332.327 281.748 331.83 282.712 330.947 283.423C330.064 284.134 328.867 284.534 327.618 284.535V284.535Z" fill="#E6E6E6"/>
<path d="M411.719 284.535H365.602C364.382 284.556 363.2 284.187 362.318 283.508C361.435 282.83 360.922 281.897 360.891 280.915V161.694C360.922 160.712 361.435 159.779 362.318 159.101C363.2 158.422 364.382 158.053 365.602 158.074H411.719C412.94 158.053 414.121 158.422 415.004 159.101C415.887 159.779 416.4 160.712 416.43 161.694V280.915C416.4 281.897 415.887 282.83 415.004 283.508C414.121 284.187 412.94 284.556 411.719 284.535Z" fill="#E6E6E6"/>
<path d="M495.821 284.535H449.703C448.454 284.534 447.257 284.134 446.374 283.423C445.491 282.712 444.994 281.748 444.993 280.743V127.377C444.994 126.371 445.491 125.408 446.374 124.697C447.257 123.986 448.454 123.586 449.703 123.585H495.821C497.07 123.586 498.267 123.986 499.15 124.697C500.033 125.408 500.53 126.371 500.531 127.377V280.743C500.53 281.748 500.033 282.712 499.15 283.423C498.267 284.134 497.07 284.534 495.821 284.535Z" fill="#F2F2F2"/>
<path d="M136.357 210.447C141.615 210.447 145.878 207.015 145.878 202.783C145.878 198.55 141.615 195.118 136.357 195.118C131.099 195.118 126.836 198.55 126.836 202.783C126.836 207.015 131.099 210.447 136.357 210.447Z" fill="#3F3D56"/>
<path d="M220.458 160.629C225.716 160.629 229.979 157.198 229.979 152.965C229.979 148.732 225.716 145.3 220.458 145.3C215.2 145.3 210.937 148.732 210.937 152.965C210.937 157.198 215.2 160.629 220.458 160.629Z" fill="#3F3D56"/>
<path d="M304.559 210.447C309.818 210.447 314.08 207.015 314.08 202.783C314.08 198.55 309.818 195.118 304.559 195.118C299.301 195.118 295.039 198.55 295.039 202.783C295.039 207.015 299.301 210.447 304.559 210.447Z" fill="#3F3D56"/>
<path d="M388.661 136.359C393.919 136.359 398.182 132.927 398.182 128.695C398.182 124.462 393.919 121.03 388.661 121.03C383.402 121.03 379.14 124.462 379.14 128.695C379.14 132.927 383.402 136.359 388.661 136.359Z" fill="#3F3D56"/>
<path d="M472.762 108.256C478.02 108.256 482.283 104.825 482.283 100.592C482.283 96.3594 478.02 92.9279 472.762 92.9279C467.504 92.9279 463.241 96.3594 463.241 100.592C463.241 104.825 467.504 108.256 472.762 108.256Z" fill="#3F3D56"/>
<path d="M304.761 204.499L220.458 153.67L137.309 203.805L135.406 201.76L220.458 150.477L304.359 201.066L387.733 127.618L388.068 127.509L472.168 100.232L473.355 102.602L389.588 129.77L304.761 204.499Z" fill="#3F3D56"/>
<path d="M590.406 451.484L576.081 451.484L569.265 407.004L590.409 407.005L590.406 451.484Z" fill="#FFB6B6"/>
<path d="M594.059 462.663L547.868 462.661V462.191C547.868 458.353 549.763 454.672 553.134 451.958C556.506 449.244 561.079 447.719 565.847 447.719H565.848L594.06 447.719L594.059 462.663Z" fill="#2F2E41"/>
<path d="M539.21 263.22L547.342 367.531L574.649 440.955L595.804 442.188L585.181 352.704L589.839 293.277C589.839 293.277 611.92 280.027 599.711 264.077L539.21 263.22Z" fill="#2F2E41"/>
<path d="M599.754 451.484L585.428 451.484L578.613 407.004L599.755 407.005L599.754 451.484Z" fill="#FFB6B6"/>
<path d="M603.407 462.663L557.216 462.661V462.191C557.216 458.353 559.11 454.672 562.482 451.958C565.854 449.244 570.426 447.719 575.195 447.719H575.196L603.408 447.719L603.407 462.663Z" fill="#2F2E41"/>
<path d="M548.557 263.22L556.69 367.531L583.996 440.955L605.152 442.188L594.529 352.704L599.187 293.277C599.187 293.277 621.268 280.027 609.059 264.077L548.557 263.22Z" fill="#2F2E41"/>
<path d="M592.645 279.373C568.25 279.373 539.538 267.372 537.874 266.667L537.411 266.471L593.4 151.488L621.129 140.943C623.264 140.131 625.63 139.793 627.982 139.962C630.334 140.132 632.587 140.804 634.508 141.909C636.43 143.014 637.95 144.512 638.913 146.247C639.875 147.983 640.244 149.894 639.983 151.784L628.979 231.248L617.493 272.405L617.371 272.502C611.032 277.544 602.166 279.373 592.645 279.373Z" fill="#3F3D56"/>
<path d="M503.176 203.257C504.627 202.516 506.262 202.041 507.965 201.864C509.669 201.687 511.4 201.813 513.037 202.233C514.673 202.653 516.176 203.356 517.438 204.294C518.7 205.232 519.692 206.381 520.342 207.661L562.036 205.828L551.096 220.912L513.181 220.341C510.438 221.078 507.454 220.98 504.794 220.065C502.135 219.15 499.985 217.482 498.752 215.376C497.519 213.27 497.288 210.873 498.103 208.639C498.919 206.406 500.724 204.491 503.176 203.257V203.257Z" fill="#FFB6B6"/>
<path d="M585.456 226.869L543.673 226.011L544.212 203.762L563.969 198.7L596.377 162.109C598 160.277 600.063 158.725 602.443 157.546C604.824 156.367 607.474 155.583 610.237 155.243C613 154.902 615.819 155.011 618.529 155.562C621.239 156.114 623.784 157.098 626.014 158.455C628.243 159.812 630.112 161.515 631.51 163.464C632.907 165.413 633.805 167.567 634.151 169.8C634.496 172.033 634.282 174.299 633.521 176.464C632.759 178.629 631.466 180.649 629.719 182.405L585.456 226.869Z" fill="#3F3D56"/>
<path d="M609.647 136.706C624.981 136.706 637.411 126.7 637.411 114.357C637.411 102.014 624.981 92.008 609.647 92.008C594.314 92.008 581.884 102.014 581.884 114.357C581.884 126.7 594.314 136.706 609.647 136.706Z" fill="#FFB6B6"/>
<path d="M574.523 95.7329C577.325 93.4202 580.966 91.8823 584.922 91.3401C588.778 90.6723 593.008 90.4654 596.093 88.5183C599.599 86.2702 601.141 81.9998 605.441 81.0498C607.312 80.7472 609.25 80.871 611.038 81.4072C617.909 83.0757 624.009 86.3495 628.565 90.8134C629.639 92.0926 631.007 93.1942 632.596 94.0586C633.547 94.3825 634.475 94.7467 635.377 95.1497C636.367 95.7786 637.147 96.5966 637.644 97.5295C640.745 102.568 641.459 108.342 639.654 113.774C638.579 116.982 636.639 119.954 635.494 123.18C634.349 126.407 629.053 132.544 627.815 131.02C626.576 129.496 624.987 128.076 624.309 126.317C622.987 122.857 624.181 119.375 620.818 116.972C618.738 115.486 614.976 114.489 613.562 116.408C613.001 117.151 613.036 118.091 612.557 118.863C611.61 120.368 608.876 120.669 607.065 119.803C605.319 118.833 604.093 117.369 603.63 115.702C600.907 108.29 596.268 103.625 586.418 106.795C582.749 107.98 578.426 108.779 574.897 106.748C570.246 104.076 571.193 98.7805 574.523 95.7329Z" fill="#2F2E41"/>
<path d="M512.18 296.763H466.062C464.813 296.762 463.616 296.362 462.733 295.651C461.85 294.94 461.353 293.977 461.351 292.971V139.605C461.353 138.599 461.85 137.636 462.733 136.925C463.616 136.214 464.813 135.814 466.062 135.813H512.18C513.428 135.814 514.626 136.214 515.509 136.925C516.392 137.636 516.889 138.599 516.89 139.605V292.971C516.889 293.977 516.392 294.94 515.509 295.651C514.626 296.362 513.428 296.762 512.18 296.763V296.763Z" fill="#F59B00"/>
<path d="M502.008 216.425C503.458 215.685 505.093 215.209 506.797 215.032C508.5 214.856 510.232 214.982 511.868 215.402C513.505 215.821 515.007 216.525 516.269 217.463C517.532 218.401 518.523 219.55 519.174 220.83L560.867 218.996L549.928 234.081L512.012 233.51C509.269 234.247 506.285 234.149 503.626 233.234C500.967 232.319 498.817 230.65 497.583 228.545C496.35 226.439 496.12 224.042 496.935 221.808C497.75 219.575 499.555 217.659 502.008 216.425H502.008Z" fill="#FFB6B6"/>
<path d="M584.287 240.038L542.504 239.18L543.043 216.931L562.801 211.869L595.209 175.278C596.831 173.446 598.894 171.894 601.274 170.715C603.655 169.535 606.305 168.752 609.068 168.411C611.831 168.071 614.651 168.179 617.361 168.731C620.071 169.283 622.616 170.266 624.845 171.624C627.075 172.981 628.943 174.684 630.341 176.633C631.739 178.581 632.637 180.736 632.982 182.969C633.328 185.202 633.113 187.468 632.352 189.633C631.591 191.798 630.298 193.818 628.55 195.574L584.287 240.038Z" fill="#3F3D56"/>
<path d="M766.832 464H321.64C321.487 464 321.334 463.976 321.192 463.929C321.05 463.882 320.921 463.813 320.812 463.726C320.703 463.638 320.617 463.534 320.558 463.42C320.499 463.306 320.469 463.183 320.469 463.059C320.469 462.936 320.499 462.813 320.558 462.699C320.617 462.585 320.703 462.481 320.812 462.393C320.921 462.306 321.05 462.237 321.192 462.19C321.334 462.143 321.487 462.118 321.64 462.119H766.832C766.985 462.118 767.138 462.143 767.28 462.19C767.422 462.237 767.551 462.306 767.66 462.393C767.769 462.481 767.855 462.585 767.914 462.699C767.973 462.813 768.003 462.936 768.003 463.059C768.003 463.183 767.973 463.306 767.914 463.42C767.855 463.534 767.769 463.638 767.66 463.726C767.551 463.813 767.422 463.882 767.28 463.929C767.138 463.976 766.985 464 766.832 464V464Z" fill="#CACACA"/>
</g>
<defs>
<clipPath id="clip0">
<rect width="768" height="464" fill="white"/>
</clipPath>
</defs>
</svg>
