<svg width="688" height="464" viewBox="0 0 688 464" fill="none" xmlns="http://www.w3.org/2000/svg">
<g clip-path="url(#clip0)">
<path d="M174.135 15.9644H103.149V95.7865H174.135V15.9644Z" fill="#F2F2F2"/>
<path d="M365.728 62.5273H294.742V142.349H365.728V62.5273Z" fill="#F2F2F2"/>
<path d="M558.01 15.9644H487.024V95.7865H558.01V15.9644Z" fill="#F2F2F2"/>
<path d="M344.324 286.253H157.562V331.2H344.324V286.253Z" fill="#3F3D56"/>
<path d="M540.457 463.168H375.907L422.117 385.92L458.182 325.628L540.457 463.168Z" fill="#3F3D56"/>
<path d="M367.871 343.135H94.3755V463.201H367.871V343.135Z" fill="#3F3D56"/>
<path d="M457.894 325.521C475.804 325.521 490.324 311.508 490.324 294.221C490.324 276.934 475.804 262.921 457.894 262.921C439.984 262.921 425.464 276.934 425.464 294.221C425.464 311.508 439.984 325.521 457.894 325.521Z" fill="#F59B00"/>
<path d="M594.32 462.67H1.07819V464H594.32V462.67Z" fill="#3F3D56"/>
<path opacity="0.1" d="M344.322 289.269V331.202H300.345L327.223 286.255H342.523L344.322 289.269Z" fill="black"/>
<path opacity="0.1" d="M367.871 343.135V463.201H221.385L221.523 462.968L293.205 343.135H367.871Z" fill="black"/>
<path opacity="0.1" d="M468.327 463.168H375.907L422.117 385.92L424.184 389.372L468.327 463.168Z" fill="black"/>
<path d="M458.051 463.268H230.992L231.172 462.968L305.638 338.479L344.522 273.47L413.847 389.372L457.989 463.168L458.051 463.268Z" fill="#F59B00"/>
<path d="M344.179 275.109C351.893 275.109 358.147 269.073 358.147 261.627C358.147 254.181 351.893 248.145 344.179 248.145C336.464 248.145 330.21 254.181 330.21 261.627C330.21 269.073 336.464 275.109 344.179 275.109Z" fill="#3F3D56"/>
<path d="M305.61 265.918C277.291 265.939 249.169 261.383 222.41 252.438C186.537 240.467 157.148 223.954 135.061 203.36C93.2824 164.402 59.0298 158.531 37.6567 160.465C14.5206 162.558 1.05357 173.993 0.920314 174.108L-6.10352e-05 173.118C0.135887 173 13.8805 161.306 37.4386 159.148C51.2536 157.884 65.7006 160.087 80.3794 165.698C98.6845 172.696 117.404 185.045 136.019 202.403C157.96 222.862 187.178 239.273 222.86 251.18C288.365 273.039 362.192 267.747 425.411 236.66C446.342 226.367 467.03 219.341 486.898 215.777C511.952 211.283 535.713 212.326 557.525 218.876C605.457 233.269 638.197 232.505 657.221 229.332C677.748 225.908 687.062 219.054 687.153 218.986L688 220.036C687.614 220.325 678.32 227.162 657.456 230.643C638.281 233.842 605.307 234.617 557.116 220.146C508.321 205.495 458.901 221.684 426.037 237.845C394.79 253.292 360.67 262.582 325.666 265.174C318.957 265.67 312.271 265.918 305.61 265.918Z" fill="#3F3D56"/>
<path d="M150 215.086L149.014 214.157C153.55 209.192 156.989 203.386 159.119 197.094C162.472 187.354 164.11 171.971 152.869 154.001C141.368 135.616 140.851 120.683 142.441 111.393C144.173 101.285 148.589 95.6186 148.777 95.3825L149.872 96.1902C149.828 96.2458 145.449 101.882 143.788 111.689C142.254 120.743 142.789 135.314 154.049 153.314C165.577 171.743 163.87 187.553 160.407 197.57C156.655 208.424 150.27 214.819 150 215.086Z" fill="#3F3D56"/>
<path d="M201.702 96.4517H102.46V0.665176H201.702V96.4517ZM103.838 95.1213H200.324V1.99554H103.838V95.1213Z" fill="#3F3D56"/>
<path d="M342.283 262.314L341.296 261.385C345.832 256.42 349.271 250.614 351.401 244.323C354.755 234.582 356.392 219.199 345.151 201.23C333.65 182.844 333.133 167.911 334.724 158.621C336.455 148.513 340.871 142.847 341.059 142.611L342.154 143.418C342.11 143.474 337.732 149.11 336.07 158.917C334.536 167.971 335.071 182.542 346.332 200.542C357.86 218.971 356.152 234.781 352.689 244.799C348.938 255.653 342.553 262.047 342.283 262.314Z" fill="#3F3D56"/>
<path d="M393.984 143.68H294.742V47.8933H393.984V143.68ZM296.12 142.349H392.606V49.2236H296.12V142.349Z" fill="#3F3D56"/>
<path d="M533.876 214.421L532.889 213.492C537.425 208.527 540.864 202.721 542.994 196.429C546.348 186.689 547.985 171.306 536.744 153.336C525.244 134.951 524.726 120.018 526.317 110.728C528.048 100.619 532.465 94.9534 532.652 94.7173L533.747 95.5251C533.704 95.5806 529.325 101.216 527.663 111.023C526.129 120.077 526.664 134.649 537.925 152.648C549.453 171.077 547.745 186.888 544.282 196.905C540.531 207.759 534.146 214.154 533.876 214.421Z" fill="#3F3D56"/>
<path d="M585.577 95.7865H486.335V0H585.577V95.7865ZM487.713 94.4562H584.199V1.33037H487.713V94.4562Z" fill="#3F3D56"/>
<path d="M183.783 28.6029H123.135V29.9333H183.783V28.6029Z" fill="#3F3D56"/>
<path d="M183.783 43.237H123.135V44.5673H183.783V43.237Z" fill="#3F3D56"/>
<path d="M183.783 57.871H123.135V59.2014H183.783V57.871Z" fill="#3F3D56"/>
<path d="M374.687 73.8354H314.039V75.1658H374.687V73.8354Z" fill="#3F3D56"/>
<path d="M374.687 88.4695H314.039V89.7999H374.687V88.4695Z" fill="#3F3D56"/>
<path d="M374.687 103.104H314.039V104.434H374.687V103.104Z" fill="#3F3D56"/>
<path d="M566.28 28.6029H505.632V29.9333H566.28V28.6029Z" fill="#3F3D56"/>
<path d="M566.28 43.237H505.632V44.5673H566.28V43.237Z" fill="#3F3D56"/>
<path d="M566.28 57.871H505.632V59.2014H566.28V57.871Z" fill="#3F3D56"/>
<path d="M566.109 441.784C569.825 455.04 582.551 463.249 582.551 463.249C582.551 463.249 589.253 449.967 585.538 436.711C581.822 423.455 569.096 415.245 569.096 415.245C569.096 415.245 562.394 428.528 566.109 441.784Z" fill="#F59B00"/>
<path d="M571.569 438.935C581.764 448.514 583.009 463.238 583.009 463.238C583.009 463.238 567.725 462.433 557.53 452.854C547.335 443.275 546.09 428.55 546.09 428.55C546.09 428.55 561.374 429.356 571.569 438.935Z" fill="#3F3D56"/>
<path d="M203.08 371.173H132.094V450.995H203.08V371.173Z" fill="#F2F2F2"/>
<path d="M230.648 450.995H131.405V355.208H230.648V450.995ZM132.784 449.665H229.269V356.539H132.784V449.665Z" fill="white"/>
<path d="M211.351 383.811H150.702V385.142H211.351V383.811Z" fill="#F59B00"/>
<path d="M211.351 398.445H150.702V399.776H211.351V398.445Z" fill="#F59B00"/>
<path d="M211.351 413.079H150.702V414.41H211.351V413.079Z" fill="#F59B00"/>
<path d="M156.127 144.469H156.127C139.564 144.469 126.138 158.851 126.138 176.591V199.131H133.32L137.478 190.78L136.438 199.131H182.603L186.383 191.539L185.438 199.131H190.636V181.433C190.636 161.018 175.186 144.469 156.127 144.469Z" fill="#2F2E41"/>
<path d="M121.764 291.731L103.351 299.284L39.3663 349.489C37.0135 352.28 35.5717 355.682 35.2234 359.264C34.7631 365.04 15.4295 395.252 22.3343 399.25C29.2392 403.249 54.0967 415.245 55.4777 407.248C56.8586 399.25 64.2239 365.04 64.2239 365.04L125.907 311.724L121.764 291.731Z" fill="#2F2E41"/>
<path d="M49.4935 400.583L41.668 422.798C41.668 422.798 49.9538 431.24 45.8109 438.348V462.784H39.3663L37.525 449.9C37.525 449.9 30.1847 462.622 26.4773 462.784C18.7052 463.126 3.31431 465.794 2.85398 461.795C2.39365 457.797 14.5088 453.899 14.5088 453.899L27.3979 419.688L32.9218 398.806L49.4935 400.583Z" fill="#2F2E41"/>
<path d="M169.638 285.955C169.638 285.955 173.781 325.053 161.813 332.162C149.844 339.27 96.9069 361.93 96.9069 361.93C96.9069 361.93 119.463 382.367 114.86 387.254C110.256 392.142 89.5417 405.47 86.7798 402.805C84.0178 400.139 53.1761 368.15 56.8587 357.931C60.5413 347.712 111.637 314.39 111.637 314.39L117.621 293.508L119.463 276.625L138.796 264.629L169.638 285.955Z" fill="#2F2E41"/>
<path d="M148.548 194.925C159.147 194.925 167.739 186.633 167.739 176.403C167.739 166.174 159.147 157.882 148.548 157.882C137.95 157.882 129.358 166.174 129.358 176.403C129.358 186.633 137.95 194.925 148.548 194.925Z" fill="#FFB9B9"/>
<path d="M163.424 183.99C163.424 183.99 162.503 200.873 176.773 206.204C191.043 211.536 141.328 246.191 141.328 246.191V207.537C141.328 207.537 147.773 200.873 141.328 190.654L163.424 183.99Z" fill="#FFB9B9"/>
<path d="M194.035 263.296L190.353 280.624L179.305 340.159C179.305 340.159 188.512 365.484 176.083 365.04C163.654 364.595 169.638 337.493 169.638 337.493L176.083 288.177V269.072L194.035 263.296Z" fill="#FFB9B9"/>
<path d="M114.86 254.855L110.717 270.405L91.8434 314.39C91.8434 314.39 78.9542 335.272 89.5417 334.828C100.129 334.383 100.129 314.39 100.129 314.39L121.764 278.846V258.853L114.86 254.855Z" fill="#FFB9B9"/>
<path d="M111.637 384.589L126.828 398.362C126.828 398.362 137.416 396.14 141.558 408.136C145.701 420.132 148.463 427.685 148.463 427.685L142.939 430.795L136.035 421.465C136.035 421.465 131.892 438.348 127.749 439.681C123.606 441.014 102.891 449.9 104.732 439.681L114.86 425.464C114.86 425.464 116.241 409.469 112.098 408.136C107.955 406.803 96.9069 393.474 96.9069 393.474L111.637 384.589Z" fill="#2F2E41"/>
<path d="M170.368 299.728C170.368 299.728 127.097 284.622 124.335 285.955C122.28 286.832 120.09 287.38 117.852 287.579L117.891 281.512C117.891 281.512 132.161 276.625 139.987 279.735C147.812 282.845 171.749 296.618 171.749 296.618L170.368 299.728Z" fill="#3F3D56"/>
<path d="M144.09 237.305C144.09 237.305 156.519 223.532 160.202 215.09C162.531 209.973 166.808 205.914 172.149 203.751C172.149 203.751 199.789 209.759 199.329 220.422C198.869 231.085 181.837 247.524 181.837 247.524C181.837 247.524 184.138 306.615 171.71 305.726C169.029 302.638 167.137 298.986 166.186 295.063C164.805 288.843 121.995 282.179 121.995 282.179C121.995 282.179 118.312 288.399 117.852 285.733C117.391 283.067 121.534 217.756 121.534 217.756L143.486 203.751L144.09 237.305Z" fill="#D0CDE1"/>
<path d="M195.783 216.13L196.091 216.297C197.075 216.829 197.894 217.606 198.464 218.545C199.034 219.485 199.334 220.554 199.334 221.643L199.33 254.615C199.333 255.512 199.538 256.396 199.932 257.208C200.325 258.02 200.896 258.74 201.607 259.317C203.38 260.773 205.024 262.871 201.631 263.963C196.107 265.74 174.472 274.626 174.011 271.516C173.551 268.406 172.63 264.851 174.011 264.851C175.092 264.851 181.534 232.992 186.71 219.37C187.026 218.536 187.526 217.778 188.175 217.149C188.825 216.52 189.608 216.035 190.471 215.726C191.334 215.418 192.256 215.295 193.173 215.364C194.09 215.434 194.981 215.695 195.783 216.13V216.13Z" fill="#D0CDE1"/>
<path d="M127.749 216.201L121.304 217.978L113.939 248.634C113.939 248.634 105.193 250.412 107.955 253.522C110.717 256.632 122.225 264.629 122.225 264.629L127.749 216.201Z" fill="#D0CDE1"/>
<path d="M164.652 153.318C163.209 151.447 161.339 149.923 159.186 148.863C157.034 147.803 154.658 147.236 152.242 147.205H151.653C140.301 147.205 131.099 157.12 131.099 169.35V169.35H134.903L135.517 164.837L136.418 169.35H158.977L160.867 165.532L160.395 169.35H164.833C166.904 179.277 163.928 189.204 155.906 199.131H163.466L167.246 191.495L166.301 199.131H180.713L183.548 181.568C183.548 168.415 175.63 157.261 164.652 153.318Z" fill="#2F2E41"/>
<path opacity="0.1" d="M286.109 286.253H214.433V308.803H286.109V286.253Z" fill="black"/>
<path d="M283.352 266.896H218.569V305.477H283.352V266.896Z" fill="#F59B00"/>
</g>
<defs>
<clipPath id="clip0">
<rect width="688" height="464" fill="white"/>
</clipPath>
</defs>
</svg>
