<svg width="650" height="528" viewBox="0 0 650 528" fill="none" xmlns="http://www.w3.org/2000/svg">
<path d="M623.643 179.384L620.731 178.513L647.464 107.509C651.567 96.61 650.637 84.7071 644.878 74.4187C639.119 64.1303 629.002 56.299 616.754 52.6477L616.752 52.6471L447.693 2.25659C435.445 -1.39468 422.069 -0.566899 410.507 4.55785C398.945 9.68259 390.144 18.6845 386.041 29.5833L386.04 29.5853L239.397 419.121C237.365 424.517 236.548 430.217 236.991 435.895C237.435 441.572 239.131 447.117 241.983 452.211C244.835 457.305 248.786 461.85 253.611 465.585C258.437 469.321 264.042 472.174 270.106 473.982L270.109 473.983L439.164 524.376C451.412 528.027 464.788 527.198 476.35 522.073C487.912 516.948 496.712 507.946 500.815 497.048L601.702 229.059L604.615 229.927L623.643 179.384Z" fill="#3F3D56"/>
<path d="M614.585 63.8966L592.518 57.3186C592.699 59.835 592.182 62.3525 591.013 64.6492C589.843 66.946 588.057 68.9515 585.811 70.4893C583.565 72.027 580.929 73.0496 578.134 73.4672C575.34 73.8847 572.472 73.6843 569.785 72.8836L472.937 44.0142C470.25 43.2126 467.827 41.8355 465.879 40.0041C463.932 38.1727 462.52 35.9433 461.769 33.5122C461.017 31.0811 460.949 28.5229 461.571 26.0629C462.192 23.603 463.484 21.3167 465.332 19.4054L444.721 13.2615C435.574 10.535 425.585 11.1534 416.95 14.9808C408.316 18.8082 401.743 25.531 398.679 33.6703L252.246 422.634C249.182 430.773 249.877 439.662 254.178 447.345C258.479 455.029 266.034 460.877 275.181 463.604V463.604L445.051 514.24C454.198 516.966 464.187 516.348 472.822 512.52C481.456 508.693 488.028 501.97 491.093 493.831V493.831L637.522 104.867C640.586 96.7273 639.891 87.8381 635.589 80.1547C631.288 72.4713 623.733 66.6232 614.585 63.8967L614.585 63.8966Z" fill="white"/>
<path d="M572.104 194.39L390.821 140.352C389.931 140.086 389.197 139.516 388.778 138.769C388.36 138.021 388.292 137.156 388.589 136.364L403.653 96.3473C403.952 95.5557 404.592 94.9019 405.432 94.5295C406.273 94.1571 407.244 94.0965 408.135 94.3609L589.419 148.4C590.309 148.666 591.043 149.235 591.462 149.983C591.88 150.73 591.948 151.595 591.651 152.388L576.587 192.403C576.288 193.194 575.648 193.848 574.808 194.221C573.968 194.593 572.996 194.654 572.105 194.389L572.104 194.39ZM407.685 95.5571C407.15 95.3985 406.567 95.4349 406.063 95.6584C405.559 95.8819 405.175 96.2743 404.996 96.7493L389.932 136.764C389.753 137.24 389.794 137.759 390.045 138.207C390.297 138.656 390.737 138.997 391.271 139.157L572.555 193.196C573.089 193.354 573.672 193.318 574.176 193.094C574.68 192.871 575.064 192.479 575.243 192.003L590.31 151.99C590.488 151.515 590.447 150.996 590.196 150.548C589.945 150.099 589.504 149.758 588.97 149.598L407.685 95.5571Z" fill="#3F3D56"/>
<path d="M512.501 352.716L331.218 298.678C330.328 298.412 329.594 297.843 329.175 297.095C328.757 296.347 328.689 295.482 328.986 294.69L356.87 220.621C357.169 219.83 357.809 219.176 358.649 218.804C359.489 218.431 360.461 218.371 361.351 218.635L542.636 272.672C543.525 272.938 544.26 273.507 544.678 274.255C545.097 275.002 545.165 275.867 544.868 276.66L516.982 350.73C516.683 351.521 516.043 352.175 515.203 352.547C514.363 352.92 513.392 352.98 512.501 352.716ZM360.901 219.829C360.367 219.671 359.784 219.707 359.28 219.93C358.776 220.154 358.392 220.546 358.213 221.021L330.329 295.09C330.15 295.565 330.191 296.084 330.442 296.533C330.694 296.981 331.134 297.323 331.668 297.483L512.952 351.521C513.487 351.68 514.07 351.644 514.574 351.42C515.078 351.197 515.462 350.804 515.641 350.329L543.527 276.259C543.705 275.784 543.664 275.265 543.413 274.816C543.162 274.368 542.721 274.026 542.187 273.866L360.901 219.829Z" fill="#3F3D56"/>
<path d="M547.368 256.126L466.8 232.105C465.91 231.839 465.176 231.27 464.757 230.522C464.339 229.775 464.27 228.91 464.567 228.117L479.632 188.102C479.931 187.311 480.571 186.657 481.411 186.284C482.251 185.912 483.223 185.851 484.114 186.116L564.684 210.135C565.574 210.402 566.308 210.971 566.727 211.719C567.145 212.466 567.213 213.331 566.916 214.123L551.853 254.138C551.554 254.931 550.913 255.585 550.072 255.958C549.231 256.331 548.259 256.391 547.368 256.126V256.126ZM483.663 187.313C483.129 187.155 482.546 187.191 482.042 187.415C481.538 187.638 481.154 188.031 480.975 188.506L465.911 228.521C465.733 228.996 465.774 229.515 466.025 229.964C466.276 230.412 466.717 230.754 467.251 230.913L547.821 254.93C548.355 255.089 548.938 255.052 549.442 254.829C549.947 254.605 550.33 254.213 550.51 253.738L565.574 213.723C565.752 213.247 565.711 212.728 565.46 212.28C565.209 211.831 564.768 211.49 564.234 211.33L483.663 187.313Z" fill="#E6E6E6"/>
<path d="M375.352 419.483L294.784 395.466C293.894 395.2 293.16 394.631 292.741 393.883C292.323 393.135 292.254 392.271 292.552 391.478L320.661 316.811C320.96 316.019 321.6 315.365 322.44 314.993C323.28 314.62 324.252 314.56 325.142 314.824L405.712 338.841C406.602 339.107 407.336 339.677 407.755 340.424C408.173 341.172 408.241 342.037 407.944 342.829L379.834 417.497C379.534 418.288 378.895 418.942 378.054 419.314C377.214 419.687 376.242 419.747 375.352 419.483V419.483ZM324.69 316.018C324.156 315.86 323.573 315.896 323.069 316.12C322.565 316.343 322.181 316.736 322.001 317.211L293.891 391.878C293.713 392.354 293.754 392.872 294.005 393.321C294.256 393.77 294.697 394.111 295.231 394.271L375.802 418.288C376.336 418.447 376.919 418.41 377.423 418.187C377.928 417.963 378.311 417.571 378.491 417.096L406.6 342.428C406.778 341.953 406.737 341.434 406.486 340.986C406.235 340.537 405.794 340.195 405.26 340.036L324.69 316.018Z" fill="#E6E6E6"/>
<path d="M474.722 449.104L394.151 425.087C393.262 424.821 392.527 424.251 392.108 423.504C391.69 422.756 391.622 421.891 391.919 421.099L420.028 346.431C420.327 345.64 420.967 344.986 421.807 344.614C422.647 344.241 423.619 344.18 424.51 344.445L505.081 368.462C505.97 368.729 506.705 369.298 507.124 370.046C507.542 370.793 507.61 371.658 507.313 372.45L479.204 447.117C478.905 447.909 478.265 448.563 477.425 448.936C476.585 449.308 475.613 449.369 474.722 449.104V449.104ZM424.06 345.64C423.526 345.481 422.943 345.518 422.439 345.741C421.935 345.965 421.551 346.357 421.372 346.832L393.262 421.5C393.083 421.975 393.124 422.494 393.376 422.942C393.627 423.391 394.068 423.732 394.601 423.892L475.172 447.91C475.707 448.069 476.29 448.032 476.794 447.809C477.298 447.585 477.682 447.193 477.861 446.718L505.97 372.05C506.149 371.575 506.108 371.056 505.856 370.608C505.605 370.159 505.164 369.818 504.63 369.658L424.06 345.64Z" fill="#E6E6E6"/>
<path d="M378.299 265.702C386.264 265.702 392.721 259.956 392.721 252.868C392.721 245.781 386.264 240.035 378.299 240.035C370.334 240.035 363.877 245.781 363.877 252.868C363.877 259.956 370.334 265.702 378.299 265.702Z" fill="#F59B00"/>
<path d="M412.933 254.171C412.328 253.99 411.668 254.031 411.098 254.284C410.527 254.537 410.093 254.981 409.89 255.519C409.688 256.057 409.734 256.645 410.018 257.152C410.302 257.66 410.801 258.047 411.406 258.227L518.853 290.255C519.152 290.344 519.468 290.38 519.783 290.361C520.098 290.341 520.406 290.267 520.688 290.142C520.971 290.016 521.223 289.843 521.43 289.631C521.637 289.419 521.796 289.173 521.896 288.906C521.996 288.64 522.036 288.359 522.015 288.079C521.993 287.798 521.909 287.525 521.768 287.273C521.627 287.022 521.432 286.798 521.194 286.613C520.956 286.429 520.68 286.288 520.38 286.199V286.199L412.933 254.171Z" fill="#E6E6E6"/>
<path d="M408.354 266.339C408.055 266.25 407.739 266.214 407.424 266.233C407.109 266.253 406.802 266.327 406.519 266.452C406.237 266.578 405.985 266.751 405.777 266.963C405.57 267.175 405.412 267.421 405.312 267.688C405.211 267.954 405.171 268.235 405.193 268.515C405.215 268.796 405.299 269.069 405.439 269.321C405.58 269.572 405.775 269.796 406.013 269.981C406.251 270.165 406.528 270.306 406.827 270.395L453.062 284.178C453.361 284.267 453.678 284.303 453.993 284.283C454.307 284.264 454.615 284.189 454.897 284.064C455.18 283.939 455.432 283.765 455.639 283.553C455.846 283.341 456.005 283.095 456.105 282.829C456.205 282.562 456.246 282.281 456.224 282.001C456.202 281.721 456.118 281.447 455.977 281.196C455.837 280.944 455.642 280.72 455.403 280.536C455.165 280.351 454.889 280.21 454.589 280.121V280.121L408.354 266.339Z" fill="#E6E6E6"/>
<path d="M358.959 273.252C357.225 272.735 355.472 273.225 355.051 274.346C354.63 275.467 355.698 276.794 357.432 277.311L505.676 321.501C507.41 322.017 509.163 321.528 509.584 320.407C510.005 319.286 508.936 317.958 507.203 317.442L358.959 273.252Z" fill="#E6E6E6"/>
<path d="M354.378 285.421C352.644 284.904 350.891 285.394 350.47 286.515C350.049 287.636 351.118 288.963 352.851 289.48L501.095 333.67C502.829 334.186 504.582 333.697 505.003 332.576C505.424 331.455 504.356 330.127 502.622 329.611L354.378 285.421Z" fill="#E6E6E6"/>
<path d="M428.225 137.052C436.19 137.052 442.647 131.306 442.647 124.218C442.647 117.13 436.19 111.385 428.225 111.385C420.26 111.385 413.803 117.13 413.803 124.218C413.803 131.306 420.26 137.052 428.225 137.052Z" fill="#F59B00"/>
<path d="M462.86 125.52C462.561 125.43 462.245 125.394 461.93 125.414C461.615 125.433 461.308 125.508 461.025 125.633C460.743 125.758 460.491 125.932 460.283 126.144C460.076 126.356 459.918 126.602 459.818 126.868C459.717 127.135 459.677 127.416 459.699 127.696C459.721 127.976 459.805 128.25 459.945 128.501C460.086 128.753 460.281 128.977 460.519 129.162C460.757 129.346 461.034 129.487 461.333 129.576V129.576L568.781 161.604C569.08 161.693 569.396 161.729 569.711 161.71C570.026 161.69 570.333 161.616 570.616 161.491C570.898 161.365 571.15 161.192 571.358 160.98C571.565 160.768 571.723 160.522 571.823 160.255C571.924 159.989 571.964 159.708 571.942 159.428C571.92 159.147 571.836 158.874 571.696 158.622C571.555 158.371 571.36 158.147 571.122 157.962C570.884 157.778 570.607 157.637 570.308 157.548V157.548L462.86 125.52Z" fill="#E6E6E6"/>
<path d="M458.28 137.689C457.98 137.599 457.664 137.563 457.349 137.583C457.034 137.602 456.727 137.677 456.444 137.802C456.162 137.927 455.91 138.101 455.703 138.313C455.495 138.525 455.337 138.771 455.237 139.037C455.137 139.304 455.096 139.585 455.118 139.865C455.14 140.145 455.224 140.419 455.364 140.67C455.505 140.922 455.7 141.146 455.938 141.331C456.177 141.515 456.453 141.656 456.753 141.745L502.987 155.527C503.287 155.616 503.603 155.652 503.918 155.633C504.233 155.613 504.54 155.539 504.823 155.414C505.105 155.288 505.357 155.115 505.565 154.903C505.772 154.691 505.93 154.445 506.03 154.179C506.13 153.912 506.171 153.631 506.149 153.351C506.127 153.07 506.043 152.797 505.903 152.545C505.762 152.294 505.567 152.07 505.329 151.885C505.091 151.701 504.814 151.56 504.515 151.471L458.28 137.689Z" fill="#E6E6E6"/>
<path d="M447.927 226.491L372.344 203.961L400.452 181.848C400.956 181.451 401.568 181.18 402.227 181.06C402.886 180.941 403.569 180.979 404.206 181.169C404.844 181.359 405.414 181.695 405.86 182.143C406.305 182.591 406.61 183.136 406.744 183.723L409.933 197.699L430.35 181.635C430.98 181.139 431.747 180.799 432.572 180.65C433.397 180.501 434.251 180.548 435.05 180.786C435.848 181.024 436.561 181.445 437.119 182.006C437.677 182.567 438.058 183.249 438.226 183.983L447.927 226.491ZM375.12 203.459L446.051 224.603L436.838 184.237C436.72 183.72 436.45 183.239 436.057 182.844C435.664 182.448 435.162 182.152 434.599 181.984C434.037 181.817 433.435 181.784 432.853 181.889C432.272 181.994 431.732 182.233 431.288 182.582L409.034 200.089L405.355 183.974C405.271 183.605 405.079 183.261 404.798 182.979C404.518 182.696 404.158 182.484 403.757 182.365C403.355 182.245 402.925 182.221 402.509 182.296C402.094 182.371 401.708 182.542 401.391 182.792L375.12 203.459Z" fill="#E6E6E6"/>
<path d="M448.001 226.504L367.43 202.487C366.541 202.221 365.806 201.652 365.387 200.904C364.969 200.157 364.901 199.292 365.198 198.499L380.261 158.484C380.561 157.693 381.201 157.039 382.041 156.667C382.881 156.294 383.853 156.233 384.743 156.498L465.314 180.515C466.204 180.782 466.939 181.351 467.357 182.099C467.776 182.846 467.844 183.711 467.547 184.503L452.482 224.518C452.183 225.309 451.543 225.963 450.703 226.336C449.863 226.708 448.891 226.769 448.001 226.504V226.504ZM384.294 157.692C383.76 157.533 383.176 157.57 382.672 157.793C382.168 158.017 381.784 158.409 381.605 158.884L366.541 198.899C366.363 199.375 366.404 199.894 366.655 200.342C366.906 200.791 367.347 201.132 367.881 201.292L448.452 225.309C448.986 225.468 449.57 225.432 450.074 225.208C450.578 224.985 450.962 224.592 451.141 224.117L466.205 184.102C466.384 183.627 466.343 183.108 466.091 182.659C465.84 182.211 465.399 181.869 464.866 181.71L384.294 157.692Z" fill="#E6E6E6"/>
<path d="M336.511 335.339C336.212 335.249 335.895 335.213 335.58 335.232C335.265 335.252 334.957 335.326 334.674 335.451C334.391 335.576 334.139 335.75 333.931 335.962C333.724 336.174 333.566 336.42 333.465 336.687C333.365 336.953 333.325 337.235 333.347 337.515C333.369 337.796 333.453 338.07 333.594 338.321C333.735 338.573 333.93 338.797 334.169 338.981C334.407 339.166 334.684 339.306 334.984 339.395L381.219 353.178C381.823 353.357 382.482 353.316 383.052 353.063C383.622 352.81 384.056 352.365 384.259 351.828C384.461 351.291 384.415 350.704 384.132 350.196C383.848 349.689 383.35 349.302 382.746 349.121L336.511 335.339Z" fill="#E6E6E6"/>
<path d="M332.012 347.288C331.713 347.198 331.397 347.162 331.081 347.181C330.766 347.2 330.458 347.275 330.176 347.4C329.893 347.525 329.64 347.699 329.433 347.911C329.225 348.123 329.067 348.369 328.967 348.636C328.866 348.902 328.826 349.184 328.848 349.464C328.87 349.745 328.954 350.019 329.095 350.27C329.236 350.522 329.431 350.746 329.67 350.93C329.909 351.115 330.186 351.255 330.485 351.344L376.721 365.129C377.325 365.308 377.984 365.265 378.553 365.012C379.122 364.759 379.555 364.315 379.757 363.779C379.959 363.242 379.914 362.655 379.631 362.148C379.348 361.641 378.851 361.254 378.248 361.073L332.012 347.288Z" fill="#E6E6E6"/>
<path d="M463.351 428.589C463.955 428.768 464.614 428.727 465.184 428.474C465.754 428.221 466.188 427.777 466.391 427.239C466.593 426.702 466.547 426.115 466.264 425.608C465.98 425.1 465.482 424.713 464.878 424.533L418.643 410.75C418.039 410.571 417.379 410.612 416.809 410.865C416.239 411.119 415.805 411.563 415.603 412.1C415.401 412.637 415.446 413.224 415.73 413.732C416.014 414.239 416.512 414.626 417.116 414.807L463.351 428.589Z" fill="#E6E6E6"/>
<path d="M467.849 416.639C468.149 416.729 468.465 416.765 468.78 416.746C469.095 416.727 469.403 416.652 469.686 416.527C469.969 416.402 470.221 416.229 470.429 416.017C470.636 415.804 470.795 415.558 470.895 415.292C470.995 415.025 471.036 414.743 471.014 414.463C470.992 414.183 470.908 413.909 470.767 413.657C470.626 413.406 470.43 413.181 470.192 412.997C469.953 412.813 469.676 412.672 469.376 412.583L423.142 398.801C422.842 398.711 422.526 398.675 422.211 398.694C421.895 398.713 421.588 398.788 421.305 398.913C421.022 399.038 420.769 399.212 420.562 399.424C420.355 399.636 420.196 399.882 420.096 400.149C419.995 400.415 419.955 400.697 419.977 400.977C419.999 401.258 420.083 401.531 420.224 401.783C420.365 402.035 420.561 402.259 420.799 402.443C421.038 402.628 421.315 402.768 421.614 402.857L467.849 416.639Z" fill="#E6E6E6"/>
<path d="M540.06 225.238C540.359 225.328 540.676 225.364 540.991 225.345C541.306 225.326 541.614 225.251 541.897 225.126C542.18 225.001 542.432 224.827 542.639 224.615C542.847 224.403 543.005 224.157 543.106 223.89C543.206 223.624 543.246 223.342 543.224 223.062C543.202 222.781 543.118 222.508 542.977 222.256C542.836 222.004 542.641 221.78 542.402 221.596C542.164 221.412 541.887 221.271 541.587 221.182L495.352 207.4C495.053 207.31 494.736 207.274 494.421 207.293C494.106 207.312 493.798 207.387 493.515 207.512C493.232 207.637 492.98 207.81 492.773 208.023C492.565 208.235 492.407 208.481 492.306 208.747C492.206 209.014 492.166 209.296 492.188 209.576C492.21 209.856 492.294 210.13 492.435 210.382C492.576 210.633 492.771 210.858 493.01 211.042C493.248 211.226 493.525 211.367 493.825 211.456L540.06 225.238Z" fill="#E6E6E6"/>
<path d="M536.219 234.808C536.518 234.898 536.835 234.934 537.15 234.915C537.465 234.896 537.773 234.821 538.056 234.696C538.339 234.571 538.591 234.397 538.798 234.185C539.006 233.973 539.164 233.727 539.265 233.46C539.365 233.194 539.405 232.912 539.383 232.632C539.361 232.351 539.277 232.078 539.136 231.826C538.995 231.575 538.8 231.35 538.561 231.166C538.323 230.982 538.046 230.841 537.746 230.752L491.511 216.97C491.212 216.88 490.895 216.844 490.58 216.863C490.265 216.882 489.957 216.957 489.674 217.082C489.391 217.207 489.139 217.381 488.932 217.593C488.724 217.805 488.566 218.051 488.465 218.318C488.365 218.584 488.325 218.866 488.347 219.146C488.369 219.427 488.453 219.7 488.594 219.952C488.735 220.203 488.93 220.428 489.169 220.612C489.407 220.796 489.684 220.937 489.984 221.026L536.219 234.808Z" fill="#E6E6E6"/>
<path d="M149.023 211.244C162.527 211.244 173.475 201.503 173.475 189.486C173.475 177.469 162.527 167.728 149.023 167.728C135.519 167.728 124.571 177.469 124.571 189.486C124.571 201.503 135.519 211.244 149.023 211.244Z" fill="#9F616A"/>
<path d="M134.889 192.178C136.827 192.075 138.72 192.656 140.645 192.885C147.532 193.699 154.695 189.252 156.216 183.22C156.338 182.417 156.607 181.637 157.013 180.911C158.073 179.371 160.487 179.078 162.476 179.432C164.466 179.786 166.353 180.614 168.379 180.709C171.508 180.856 174.512 179.141 176.179 176.781C177.755 174.346 178.425 171.53 178.094 168.735L176.594 170.136C175.984 168.988 175.749 167.712 175.914 166.451C175.12 166.263 174.284 166.259 173.487 166.441C172.69 166.622 171.958 166.983 171.363 167.488C170.04 167.613 171.039 165.305 170.057 164.507C169.579 164.246 169.009 164.151 168.458 164.241C165.644 164.265 163.367 162.351 161.15 160.809C157.309 158.144 152.817 156.321 148.037 155.486C144.859 154.935 141.481 154.846 138.468 155.896C136.035 156.868 133.84 158.254 132.006 159.975C127.288 164.008 123.111 168.754 121.149 174.31C119.553 178.86 119.508 183.729 121.019 188.303C121.809 190.677 124.193 198.811 127.682 199.001C132.063 199.24 129.432 192.468 134.889 192.178Z" fill="#2F2E41"/>
<path d="M101.029 363.692C102.385 362.865 103.521 361.783 104.356 360.523C105.191 359.263 105.706 357.855 105.864 356.399C106.021 354.943 105.818 353.473 105.269 352.094C104.72 350.715 103.837 349.46 102.684 348.418L107.046 261.763L84.8352 263.981L86.1258 348.745C84.2854 350.585 83.2676 352.962 83.2654 355.426C83.2632 357.889 84.2767 360.268 86.1138 362.111C87.9509 363.954 90.484 365.133 93.233 365.425C95.982 365.717 98.7559 365.101 101.029 363.695V363.692Z" fill="#A0616A"/>
<path d="M141.548 510.379L154.189 512.357L166.683 469.907L150.12 466.988L141.548 510.379Z" fill="#A0616A"/>
<path d="M176.417 526.633L136.683 520.387L139.395 506.727L163.777 510.559C167.849 511.199 171.468 513.252 173.838 516.267C176.208 519.281 177.136 523.01 176.417 526.633V526.633Z" fill="#2F2E41"/>
<path d="M106.85 516.011H119.685L125.79 471.958H106.848L106.85 516.011Z" fill="#A0616A"/>
<path d="M144.427 526.616H104.088V512.747H128.842C132.975 512.747 136.939 514.208 139.862 516.809C142.785 519.41 144.427 522.938 144.427 526.616Z" fill="#2F2E41"/>
<path d="M160.401 500.221C160.201 500.221 160.001 500.211 159.802 500.189L144.695 499.083C143.349 498.943 142.121 498.332 141.281 497.386C140.442 496.439 140.059 495.235 140.217 494.037C140.227 493.962 140.239 493.886 140.253 493.811L155.255 427.965L145.829 383.738C145.752 383.378 145.532 383.055 145.209 382.828C144.886 382.602 144.482 382.487 144.071 382.505C143.66 382.523 143.27 382.673 142.974 382.927C142.678 383.181 142.495 383.522 142.459 383.887L128.578 496.264C128.449 497.447 127.807 498.54 126.79 499.311C125.772 500.083 124.458 500.472 123.124 500.397L108.891 499.926C107.644 499.847 106.472 499.365 105.598 498.57C104.723 497.775 104.205 496.723 104.142 495.611L105.279 359.815L179.069 351.608L184.223 422.447L184.203 422.522L165.366 496.747C165.095 497.737 164.459 498.617 163.558 499.247C162.658 499.877 161.547 500.22 160.401 500.221V500.221Z" fill="#2F2E41"/>
<path d="M153.835 370.149C149.812 370.171 145.867 369.167 142.466 367.256C130.01 360.329 115.863 363.082 108.538 365.342C107.811 365.568 107.036 365.646 106.271 365.568C105.506 365.491 104.77 365.26 104.119 364.894C103.476 364.535 102.932 364.05 102.529 363.477C102.126 362.904 101.873 362.258 101.791 361.586L88.4742 255.73C86.2418 237.994 98.248 221.32 117.021 216.082C117.726 215.886 118.443 215.699 119.172 215.523C125.014 214.113 131.133 213.86 137.096 214.781C143.06 215.703 148.725 217.776 153.691 220.854C158.751 223.967 162.982 228.028 166.088 232.752C169.193 237.476 171.098 242.748 171.667 248.197L182.883 354.76C182.959 355.45 182.853 356.147 182.575 356.795C182.297 357.442 181.853 358.024 181.28 358.493C177.349 361.729 165.94 370.148 153.835 370.149Z" fill="#F59B00"/>
<path d="M113.276 278.429L83.2259 275.489C82.3709 275.406 81.5462 275.159 80.808 274.766C80.0699 274.373 79.4355 273.843 78.9482 273.213C78.4608 272.582 78.132 271.865 77.9839 271.111C77.8359 270.357 77.8723 269.584 78.0905 268.844L85.7394 242.902C85.9703 240.969 86.6269 239.096 87.6718 237.389C88.7167 235.682 90.1294 234.175 91.8291 232.954C93.5288 231.734 95.4822 230.823 97.5776 230.274C99.6731 229.726 101.869 229.55 104.041 229.757C106.213 229.964 108.318 230.55 110.235 231.481C112.152 232.412 113.844 233.671 115.215 235.184C116.585 236.698 117.607 238.437 118.222 240.302C118.837 242.167 119.032 244.122 118.798 246.054C118.791 246.11 118.784 246.166 118.777 246.221L119.912 272.935C119.944 273.7 119.791 274.462 119.462 275.169C119.134 275.876 118.638 276.512 118.008 277.034C117.378 277.555 116.629 277.949 115.813 278.19C114.996 278.431 114.131 278.512 113.276 278.429V278.429Z" fill="#F59B00"/>
<path d="M182.758 359.982C183.992 359.015 184.973 357.82 185.632 356.479C186.291 355.138 186.611 353.686 186.57 352.223C186.53 350.76 186.13 349.323 185.397 348.013C184.665 346.703 183.619 345.552 182.333 344.64L174.928 258.15L153.164 262.509L165.94 346.738C164.363 348.763 163.675 351.231 164.007 353.677C164.338 356.122 165.666 358.374 167.739 360.007C169.812 361.639 172.486 362.538 175.254 362.534C178.022 362.529 180.692 361.621 182.758 359.982L182.758 359.982Z" fill="#A0616A"/>
<path d="M144.819 272.991C144.189 272.47 143.693 271.834 143.364 271.126C143.035 270.418 142.883 269.655 142.916 268.89L144.051 242.177C143.583 238.29 144.863 234.397 147.611 231.348C150.358 228.298 154.35 226.341 158.715 225.902C163.08 225.463 167.462 226.58 170.905 229.007C174.347 231.435 176.57 234.976 177.088 238.857L184.737 264.799C184.955 265.539 184.992 266.313 184.844 267.067C184.696 267.821 184.367 268.537 183.879 269.168C183.392 269.799 182.758 270.328 182.02 270.721C181.281 271.114 180.457 271.361 179.602 271.445L149.551 274.384C148.696 274.468 147.831 274.387 147.014 274.146C146.197 273.905 145.449 273.511 144.819 272.989V272.991Z" fill="#F59B00"/>
<path d="M567.1 526.633H0V528H567.1V526.633Z" fill="#CACACA"/>
</svg>
