<svg width="650" height="528" viewBox="0 0 650 528" fill="none" xmlns="http://www.w3.org/2000/svg">
<g clip-path="url(#clip0)">
<path d="M0.847744 465.468C3.42274 444.538 16.2551 423.915 36.0023 417.104C28.2146 438.647 28.2163 462.28 36.0071 483.822C39.0415 492.119 43.2711 501.028 40.4168 509.39C38.641 514.593 34.2965 518.573 29.4403 521.063C24.5838 523.552 19.1941 524.738 13.8719 525.901L12.8244 526.776C4.37544 507.491 -1.72725 486.398 0.847744 465.468Z" fill="#F0F0F0"/>
<path d="M36.1983 417.5C24.6985 430.525 17.551 446.881 15.7711 464.246C15.3222 467.977 15.4581 471.757 16.1736 475.445C16.9854 479.016 18.7283 482.301 21.2212 484.96C23.4962 487.487 26.1128 489.805 27.7407 492.847C28.551 494.417 29.024 496.142 29.1287 497.909C29.2333 499.676 28.9672 501.446 28.3478 503.102C26.9106 507.268 24.0779 510.665 21.1936 513.889C17.9912 517.468 14.6088 521.135 13.2475 525.881C13.0826 526.456 12.2096 526.163 12.3742 525.589C14.7426 517.333 22.6717 512.643 26.453 505.206C28.2175 501.736 28.9581 497.708 27.304 494.045C25.8575 490.841 23.1612 488.449 20.8358 485.91C18.3663 483.352 16.5541 480.222 15.5574 476.792C14.6585 473.153 14.3788 469.385 14.7304 465.65C15.3894 457.229 17.3542 448.965 20.5526 441.161C24.1542 432.234 29.2399 423.996 35.5898 416.803C35.983 416.358 36.5889 417.058 36.1983 417.5V417.5Z" fill="white"/>
<path d="M16.0186 458.62C13.1769 457.923 10.673 456.227 8.95406 453.836C7.23508 451.445 6.41296 448.514 6.63451 445.566C6.68137 444.97 7.60013 445.016 7.55322 445.613C7.34189 448.357 8.10797 451.087 9.71319 453.31C11.3184 455.534 13.657 457.104 16.3069 457.738C16.8826 457.876 16.591 458.758 16.0186 458.62Z" fill="white"/>
<path d="M19.9007 483.833C25.0331 480.735 28.8218 475.796 30.5115 470C30.6785 469.425 31.5515 469.718 31.3848 470.291C29.6153 476.319 25.6622 481.451 20.3143 484.663C19.8043 484.969 19.3935 484.137 19.9007 483.833H19.9007Z" fill="white"/>
<path d="M25.0074 433.115C26.0512 433.617 27.202 433.848 28.3562 433.789C29.5105 433.73 30.6321 433.381 31.6204 432.776C32.1262 432.464 32.5366 433.296 32.034 433.606C30.939 434.27 29.6998 434.653 28.4247 434.721C27.1496 434.79 25.8773 434.541 24.719 433.998C24.6056 433.956 24.5122 433.872 24.4579 433.763C24.4036 433.654 24.3924 433.528 24.4266 433.411C24.4653 433.294 24.5481 433.198 24.6568 433.142C24.7656 433.087 24.8915 433.077 25.0074 433.115V433.115Z" fill="white"/>
<path d="M96.1945 454.488C95.8842 454.692 95.5738 454.896 95.263 455.108C91.1042 457.872 87.1744 460.973 83.5125 464.381C83.2252 464.64 82.938 464.907 82.6587 465.173C73.9229 473.478 66.7883 483.35 61.6177 494.288C59.5641 498.642 57.8413 503.148 56.464 507.767C54.5623 514.145 53.0024 521.214 49.2381 526.431C48.8514 526.98 48.4315 527.504 47.9807 528H13.9625C13.8852 527.961 13.8075 527.929 13.7298 527.89L12.3716 527.953C12.4262 527.71 12.4879 527.459 12.5425 527.215C12.5735 527.074 12.6122 526.933 12.6433 526.792C12.6664 526.698 12.6899 526.603 12.7055 526.517C12.713 526.486 12.721 526.454 12.7286 526.431C12.7441 526.345 12.7676 526.266 12.7831 526.188C13.1246 524.783 13.4764 523.379 13.8386 521.975C13.8386 521.967 13.8386 521.967 13.8462 521.959C16.6328 511.266 20.327 500.713 25.4882 491.064C25.6436 490.773 25.7986 490.475 25.9695 490.185C28.3199 485.848 31.0169 481.713 34.0337 477.82C35.6924 475.694 37.4565 473.655 39.3193 471.709C44.1419 466.691 49.7154 462.47 55.8353 459.203C68.0364 452.691 82.1619 450.197 95.2012 454.174C95.5347 454.276 95.861 454.378 96.1945 454.488Z" fill="#F0F0F0"/>
<path d="M96.118 454.924C79.1783 458.325 63.7293 467.035 51.9653 479.817C49.3845 482.523 47.2418 485.623 45.6161 489.004C44.1377 492.349 43.5724 496.033 43.9789 499.673C44.2905 503.075 44.999 506.518 44.487 509.938C44.1992 511.684 43.5495 513.349 42.5804 514.824C41.6114 516.299 40.3449 517.55 38.864 518.495C35.2346 520.947 30.95 521.935 26.7268 522.754C22.0378 523.663 17.1531 524.532 13.2396 527.493C12.7654 527.852 12.2425 527.087 12.716 526.729C19.5247 521.578 28.649 522.659 36.0976 519.022C39.5732 517.325 42.564 514.56 43.425 510.628C44.1779 507.19 43.4504 503.639 43.1055 500.197C42.6574 496.652 43.075 493.049 44.3217 489.704C45.7719 486.251 47.7929 483.072 50.2981 480.304C55.8399 473.982 62.3306 468.58 69.5326 464.295C77.7252 459.359 86.6929 455.877 96.0474 453.997C96.6264 453.881 96.6933 454.809 96.118 454.924H96.118Z" fill="white"/>
<path d="M55.5136 475.476C53.6601 473.189 52.6709 470.312 52.7226 467.356C52.7744 464.401 53.8637 461.56 55.7961 459.342C56.1887 458.894 56.8951 459.49 56.5021 459.938C54.6988 462 53.6843 464.646 53.6417 467.399C53.5991 470.151 54.5311 472.828 56.2696 474.946C56.6469 475.407 55.8887 475.934 55.5137 475.476H55.5136Z" fill="white"/>
<path d="M43.5962 497.969C49.5392 498.619 55.5062 496.981 60.3075 493.382C60.7829 493.025 61.306 493.789 60.8312 494.146C55.8279 497.882 49.6148 499.574 43.4319 498.884C42.8426 498.817 43.0101 497.903 43.5962 497.969V497.969Z" fill="white"/>
<path d="M77.8819 460.582C78.4168 461.617 79.1977 462.502 80.1546 463.158C81.1115 463.813 82.2144 464.218 83.3642 464.335C83.954 464.394 83.7859 465.308 83.1999 465.25C81.9301 465.114 80.7126 464.665 79.6538 463.944C78.595 463.222 77.7271 462.25 77.126 461.111C77.0604 461.008 77.0359 460.885 77.0575 460.764C77.0791 460.644 77.1451 460.537 77.2421 460.464C77.3426 460.395 77.4661 460.368 77.5859 460.39C77.7057 460.412 77.8121 460.481 77.8819 460.582Z" fill="white"/>
<path d="M577.485 49.5967C549.388 19.4426 510.709 1.63453 469.761 0V158.487L577.485 49.5967Z" fill="#3F3D56"/>
<path d="M577.485 69.3304L469.761 178.221H620.307C620.361 137.719 605.032 98.7413 577.485 69.3304V69.3304Z" fill="#E4E4E4"/>
<path d="M620.468 189.609C620.474 199.487 619.57 209.345 617.767 219.053C617.627 219.822 617.48 220.583 617.325 221.344C613.925 238.28 607.789 254.533 599.163 269.453C598.705 270.253 598.231 271.053 597.758 271.838V271.845C589.257 285.986 578.625 298.699 566.247 309.527C565.634 310.069 565.02 310.602 564.4 311.128C537.799 333.75 504.495 346.759 469.757 348.096V189.609H620.468Z" fill="#F0F0F0"/>
<path d="M454.531 348.234C456.615 348.234 458.687 348.18 460.751 348.099V189.606L346.724 304.868C375.828 332.763 414.424 348.288 454.531 348.234V348.234Z" fill="#CACACA"/>
<path d="M454.744 19.5923C368.075 19.5923 297.816 90.6127 297.816 178.221H461.126V19.7337C459.008 19.648 456.883 19.5923 454.744 19.5923Z" fill="#F59B00"/>
<path d="M417.306 189.609L384.313 222.96L383.234 224.051L383.21 224.074L354.439 253.15L353.345 254.256L322.26 285.677L321.166 286.783V286.791L303.276 304.867C287.742 290.06 275.37 272.195 266.923 252.374C258.475 232.552 254.129 211.192 254.154 189.609H417.306Z" fill="#F59B00"/>
<path d="M161.337 333.979C162.537 333.243 163.564 332.249 164.343 331.069C165.123 329.888 165.637 328.549 165.849 327.146C166.062 325.743 165.967 324.31 165.572 322.948C165.177 321.585 164.492 320.327 163.564 319.262L164.859 247.918L149.391 249.228L149.427 318.781C147.76 320.476 146.766 322.729 146.632 325.115C146.499 327.501 147.236 329.854 148.704 331.727C150.172 333.601 152.269 334.864 154.597 335.279C156.926 335.694 159.324 335.232 161.337 333.979V333.979Z" fill="#FFB6B6"/>
<path d="M167.298 265.382L147.068 263.432C146.492 263.377 145.935 263.196 145.435 262.904C144.935 262.611 144.502 262.213 144.168 261.736C143.833 261.259 143.605 260.715 143.497 260.141C143.389 259.567 143.405 258.976 143.544 258.408L148.402 238.526C148.699 235.551 150.152 232.817 152.441 230.923C154.73 229.028 157.668 228.129 160.613 228.421C163.557 228.714 166.266 230.175 168.146 232.483C170.026 234.792 170.924 237.76 170.643 240.737L171.698 261.122C171.728 261.706 171.633 262.289 171.42 262.832C171.207 263.376 170.88 263.866 170.463 264.27C170.045 264.675 169.546 264.983 169 265.175C168.454 265.367 167.873 265.437 167.298 265.382H167.298Z" fill="#E4E4E4"/>
<path d="M133.652 519.6H141.501L145.235 488.995L133.65 488.996L133.652 519.6Z" fill="#FFB6B6"/>
<path d="M131.649 517.01L147.107 517.009H147.108C149.721 517.009 152.226 518.058 154.074 519.926C155.921 521.793 156.959 524.326 156.959 526.967V527.29L131.65 527.291L131.649 517.01Z" fill="#2F2E41"/>
<path d="M205.999 519.6H213.849L217.583 488.995L205.999 488.996L205.999 519.6Z" fill="#FFB6B6"/>
<path d="M203.997 517.01L219.456 517.009H219.456C222.069 517.009 224.575 518.058 226.422 519.926C228.269 521.793 229.307 524.326 229.308 526.967V527.29L203.998 527.291L203.997 517.01Z" fill="#2F2E41"/>
<path d="M196.523 273.735L201.645 306.741L152.985 307.389L159.388 275.676L196.523 273.735Z" fill="#FFB6B6"/>
<path d="M200.232 298.682C215.672 325.868 216.99 418.05 217.651 513.26H204.526L173.153 374.372L144.342 509.634H131.537L140.501 357.545C140.501 357.545 137.857 327.019 151.385 309.006L154.678 299.39L200.232 298.682Z" fill="#2F2E41"/>
<path d="M161.057 291.964C160.773 291.964 160.49 291.935 160.211 291.879V291.879C159.274 291.69 158.425 291.196 157.792 290.472C157.159 289.748 156.778 288.835 156.706 287.872C156.225 281.211 153.84 269.616 149.618 253.408C148.193 247.9 148.508 242.079 150.521 236.761C152.533 231.443 156.141 226.895 160.84 223.754C165.538 220.614 171.091 219.038 176.72 219.248C182.349 219.458 187.771 221.443 192.228 224.925C195.081 227.135 197.463 229.905 199.229 233.069C200.995 236.234 202.109 239.727 202.505 243.338C204.603 262.018 200.647 280.773 198.849 287.969C198.613 288.909 198.078 289.744 197.327 290.347C196.577 290.95 195.651 291.288 194.692 291.308L161.151 291.963C161.119 291.963 161.088 291.964 161.057 291.964Z" fill="#E4E4E4"/>
<path d="M254.767 232.04C254.566 232.497 254.4 232.969 254.272 233.452L212.287 247.873L204.174 240.709L191.878 251.672L205.021 265.766C206.083 266.904 207.481 267.664 209.006 267.931C210.532 268.198 212.101 267.957 213.48 267.245L258.406 244.048C260.031 245.056 261.92 245.539 263.824 245.435C265.727 245.33 267.553 244.642 269.06 243.463C270.567 242.283 271.683 240.668 272.26 238.831C272.836 236.995 272.846 235.025 272.288 233.182C271.73 231.34 270.63 229.714 269.135 228.519C267.639 227.324 265.82 226.618 263.918 226.493C262.016 226.369 260.121 226.834 258.487 227.825C256.852 228.815 255.555 230.286 254.767 232.04V232.04Z" fill="#FFB6B6"/>
<path d="M210.823 248.662L195.518 262.175C195.083 262.559 194.57 262.844 194.016 263.01C193.462 263.177 192.878 263.22 192.306 263.138C191.734 263.056 191.185 262.85 190.699 262.534C190.212 262.219 189.798 261.801 189.486 261.309L178.538 244.077C176.605 241.814 175.638 238.868 175.85 235.885C176.062 232.902 177.436 230.126 179.67 228.166C181.904 226.205 184.815 225.22 187.767 225.426C190.718 225.633 193.468 227.014 195.414 229.266L210.787 242.503C211.227 242.882 211.581 243.353 211.825 243.883C212.069 244.413 212.197 244.989 212.2 245.574C212.204 246.158 212.082 246.737 211.845 247.27C211.607 247.802 211.259 248.277 210.823 248.662V248.662Z" fill="#E4E4E4"/>
<path d="M190.266 204.221C195.716 194.143 192.052 181.507 182.081 175.998C172.111 170.489 159.611 174.193 154.16 184.271C148.71 194.349 152.374 206.985 162.345 212.494C172.315 218.004 184.815 214.3 190.266 204.221Z" fill="#FFB6B6"/>
<path d="M177.877 165.461H173.705C171.702 164.827 169.616 164.506 167.518 164.509C167.172 164.509 166.828 164.517 166.486 164.534C162.586 164.783 158.856 166.242 155.807 168.713C152.758 171.184 150.537 174.547 149.449 178.341C144.784 194.081 146.799 211.497 146.799 211.497C153.608 214.61 164.015 216.913 179.384 215.019L181.644 205.442L181.455 214.733C183.621 214.429 185.882 214.035 188.236 213.553V193.067H197.653C197.653 177.817 192.963 165.461 177.877 165.461Z" fill="#2F2E41"/>
<path d="M648.06 349.123H352.351C352.145 349.123 351.948 349.041 351.802 348.894C351.657 348.746 351.575 348.547 351.575 348.339C351.575 348.131 351.657 347.931 351.802 347.784C351.948 347.637 352.145 347.554 352.351 347.554H648.06C648.266 347.554 648.463 347.637 648.608 347.784C648.754 347.931 648.836 348.131 648.836 348.339C648.836 348.547 648.754 348.746 648.608 348.894C648.463 349.041 648.266 349.123 648.06 349.123Z" fill="#F0F0F0"/>
<path d="M648.448 449.153V150.241C648.448 150.033 648.529 149.833 648.675 149.686C648.821 149.539 649.018 149.456 649.224 149.456C649.43 149.456 649.627 149.539 649.773 149.686C649.918 149.833 650 150.033 650 150.241V449.153C650 449.361 649.918 449.561 649.773 449.708C649.627 449.855 649.43 449.938 649.224 449.938C649.018 449.938 648.821 449.855 648.675 449.708C648.529 449.561 648.448 449.361 648.448 449.153Z" fill="#F0F0F0"/>
<path d="M604.208 389.135C611.066 389.135 616.626 383.515 616.626 376.582C616.626 369.65 611.066 364.03 604.208 364.03C597.349 364.03 591.79 369.65 591.79 376.582C591.79 383.515 597.349 389.135 604.208 389.135Z" fill="#F0F0F0"/>
<path d="M302.29 35.3046C309.149 35.3046 314.708 29.6846 314.708 22.7519C314.708 15.8192 309.149 10.1991 302.29 10.1991C295.432 10.1991 289.872 15.8192 289.872 22.7519C289.872 29.6846 295.432 35.3046 302.29 35.3046Z" fill="#F0F0F0"/>
<path d="M297.261 527.215C297.261 527.319 297.241 527.421 297.202 527.516C297.164 527.611 297.106 527.698 297.034 527.771C296.962 527.844 296.876 527.902 296.782 527.941C296.688 527.98 296.587 528 296.485 528H0.776107C0.570263 528 0.372848 527.917 0.227294 527.77C0.0817403 527.623 -3.05176e-05 527.424 -3.05176e-05 527.215C-3.05176e-05 527.007 0.0817403 526.808 0.227294 526.661C0.372848 526.514 0.570263 526.431 0.776107 526.431H296.485C296.587 526.431 296.688 526.451 296.782 526.49C296.876 526.529 296.962 526.587 297.034 526.66C297.106 526.733 297.164 526.819 297.202 526.915C297.241 527.01 297.261 527.112 297.261 527.215V527.215Z" fill="#CACACA"/>
<path d="M321.166 286.79C295.417 261.013 280.372 226.275 279.1 189.666L282.203 189.553C283.447 225.366 298.166 259.348 323.354 284.564L321.166 286.79Z" fill="#3F3D56"/>
<path d="M354.47 253.181L352.219 255.331C335.067 237.022 322.96 214.49 317.107 189.978L318.613 189.609H320.211C325.968 213.435 337.764 235.334 354.439 253.15L354.47 253.181Z" fill="#3F3D56"/>
<path d="M384.398 223.07L383.234 224.051L383.21 224.074L382.015 225.079C373.306 214.549 366.13 202.817 360.702 190.237L362.122 189.609H363.823C369.079 201.638 375.976 212.864 384.313 222.96C384.339 222.999 384.367 223.036 384.398 223.07Z" fill="#3F3D56"/>
</g>
<defs>
<clipPath id="clip0">
<rect width="650" height="528" fill="white"/>
</clipPath>
</defs>
</svg>
