<svg width="650" height="528" viewBox="0 0 650 528" fill="none" xmlns="http://www.w3.org/2000/svg">
<g clip-path="url(#clip0)">
<path d="M152.352 356.706C151.152 358.388 149.261 359.641 147.039 360.225C144.816 360.809 142.417 360.685 140.296 359.875C138.175 359.066 136.48 357.628 135.533 355.834C134.586 354.04 134.453 352.016 135.159 350.144L98.4468 286.522L116.02 277.532L147.725 345.113C147.846 345.152 147.966 345.194 148.083 345.238C148.201 345.282 148.318 345.327 148.435 345.374L148.786 345.522C148.904 345.572 149.018 345.627 149.128 345.688C151.287 346.787 152.841 348.565 153.446 350.63C154.052 352.695 153.66 354.879 152.358 356.701L152.352 356.706Z" fill="#FEB8B8"/>
<path d="M105.455 311.054L131.534 305.415C131.534 305.415 130.682 303.791 129.298 301.101C127.915 298.41 125.981 294.656 123.806 290.4C121.631 286.144 119.218 281.383 116.86 276.678C114.503 271.974 112.206 267.327 110.28 263.299C108.353 259.27 106.153 256.854 103.952 255.505C102.127 254.336 99.8288 253.82 97.5564 254.071C95.7904 254.293 94.1023 254.835 92.6084 255.66C91.9011 256.031 91.2362 256.457 90.6222 256.932L84.5757 266.208L105.455 311.054Z" fill="#CCCCCC"/>
<path d="M79.5381 482.417L95.4982 482.364L90.3517 517.544L79.5381 517.59V482.417Z" fill="#FEB8B8"/>
<path d="M76.7809 526.441L111.63 526.285V525.915C111.629 525.16 111.541 524.408 111.366 523.667C111.024 522.208 110.341 520.819 109.357 519.584C108.358 518.332 107.078 517.257 105.588 516.42C104.119 515.596 102.47 515.026 100.737 514.743C99.8585 514.601 98.9656 514.531 98.0711 514.536V514.536L76.7774 514.624L76.7809 526.441Z" fill="#2F2E41"/>
<path d="M130.641 482.251L146.556 482.198L141.426 517.33L130.642 517.376L130.641 482.251Z" fill="#FEB8B8"/>
<path d="M127.892 526.213L162.649 526.059V525.688C162.648 524.935 162.56 524.183 162.386 523.445C162.044 521.987 161.363 520.6 160.382 519.366C159.386 518.115 158.108 517.041 156.622 516.206C155.156 515.383 153.512 514.814 151.784 514.532C150.908 514.39 150.017 514.321 149.125 514.326V514.326L127.89 514.413L127.892 526.213Z" fill="#2F2E41"/>
<path d="M131.317 338.462L158.079 422.709L148.283 503.467L126.594 503.972L131.316 431.052L104.258 394.661L98.3897 504.467L78.7126 503.295L67.7708 408.883C64.0533 401.511 61.3271 393.811 59.6432 385.927C58.3196 379.738 57.6759 373.459 57.7202 367.171C57.7424 362.937 58.128 358.711 58.874 354.524C59.1405 352.964 59.5012 351.417 59.9549 349.887L67.9341 343.064L131.317 338.462Z" fill="#2F2E41"/>
<path d="M95.86 352.553C100.36 352.553 104.584 352.431 108.417 352.19C112.328 351.964 116.219 351.532 120.067 350.897C123.343 350.381 126.533 349.534 129.569 348.373C132.013 347.483 134.138 346.069 135.732 344.271L135.915 344.048L128.6 303.891L120.712 258.739C120.194 255.75 118.391 253.027 115.646 251.087C112.902 249.148 109.408 248.127 105.829 248.22L81.1248 248.859C77.4544 248.954 73.979 250.275 71.4632 252.531C68.9474 254.788 67.5972 257.795 67.7096 260.891C67.7139 261.008 67.7202 261.126 67.7287 261.243L70.9715 306.147L59.0093 350.442L59.8567 350.542C60.1974 350.58 61.5101 350.727 63.5666 350.921C66.2544 351.176 68.9993 351.406 71.724 351.604C75.5788 351.884 79.352 352.105 82.9363 352.26C87.4787 352.454 91.8357 352.549 95.86 352.553Z" fill="#CCCCCC"/>
<path d="M109.569 240.243H109.588C110.635 240.241 111.638 239.889 112.378 239.264C113.117 238.64 113.532 237.793 113.532 236.91V218.332C113.536 215.003 112.747 211.708 111.211 208.641C108.202 202.657 102.571 197.884 95.4929 195.316C91.0168 193.696 86.1344 193.038 81.283 193.401C76.4315 193.764 71.7625 195.136 67.6939 197.395C63.6253 199.653 60.2843 202.728 57.97 206.343C55.6556 209.958 54.4402 214.001 54.4327 218.109V236.717C54.432 237.165 54.5383 237.608 54.7453 238.021C55.1507 238.825 55.9089 239.466 56.8615 239.81C57.3503 239.986 57.8762 240.078 58.4078 240.079L109.569 240.243V240.243Z" fill="#2F2E41"/>
<path d="M70.6422 211.96C68.5814 215.135 67.6822 218.754 68.0582 222.36C68.4341 225.966 70.0685 229.397 72.7547 232.22C75.4409 235.043 79.0586 237.131 83.1508 238.22C87.243 239.31 91.6262 239.352 95.7467 238.341C98.4757 237.68 101.022 236.569 103.238 235.071C105.454 233.574 107.296 231.72 108.656 229.618C110.712 226.444 111.608 222.828 111.231 219.225C110.854 215.623 109.221 212.195 106.538 209.374C103.854 206.553 100.241 204.466 96.1535 203.375C92.0659 202.284 87.6868 202.238 83.5685 203.244C80.8375 203.903 78.2887 205.013 76.0701 206.509C73.8514 208.005 72.0071 209.858 70.6439 211.961L70.6422 211.96Z" fill="#FEB8B8"/>
<path d="M120.518 219.844C120.521 217.212 119.896 214.605 118.681 212.181C116.303 207.449 111.851 203.675 106.255 201.645C103.383 200.607 100.294 200.067 97.1701 200.056L92.7621 200.038H92.6137C86.4489 200.041 80.5382 202.11 76.1818 205.79C71.8254 209.469 69.3801 214.458 69.3839 219.658V220.029L78.7091 220.06L81.8887 212.566L82.5244 220.075L87.3408 220.093L88.9441 216.315L89.2655 220.101L120.514 220.219L120.518 219.844Z" fill="#2F2E41"/>
<path d="M158.062 258.929C159.497 259.226 160.839 259.782 161.996 260.559C162.899 261.162 163.672 261.893 164.279 262.719C165.477 264.354 166.005 266.276 165.781 268.19C165.668 269.156 165.358 270.099 164.863 270.975C164.253 272.068 163.375 273.039 162.287 273.825C161.2 274.61 159.927 275.192 158.553 275.532C157.179 275.872 155.735 275.962 154.317 275.797C152.899 275.631 151.538 275.214 150.325 274.572C150.236 274.523 150.148 274.474 150.062 274.424C149.976 274.375 149.89 274.324 149.804 274.271C149.719 274.218 149.635 274.165 149.552 274.112C149.47 274.058 149.388 274.003 149.307 273.947L97.8515 289.396C96.2681 289.871 94.5447 289.9 92.9406 289.477C91.3366 289.054 89.9387 288.204 88.9573 287.053L76.7528 272.803L91.5046 264.425L99.2424 271.841L146.336 263.938C146.388 263.835 146.441 263.732 146.496 263.63C146.551 263.529 146.609 263.427 146.671 263.326C146.73 263.227 146.793 263.127 146.859 263.025C146.926 262.923 146.994 262.825 147.064 262.729C148.188 261.198 149.857 260.005 151.833 259.323C153.809 258.641 155.99 258.503 158.064 258.93L158.062 258.929Z" fill="#FEB8B8"/>
<path d="M98.4126 267.161C96.8733 265.541 94.7246 263.437 92.5347 261.35C90.3447 259.262 88.1293 257.194 86.4548 255.646C84.7803 254.098 83.6546 253.074 83.6546 253.074C82.1094 251.103 79.8032 249.644 77.1277 248.945C74.4522 248.246 71.5724 248.35 68.9774 249.239C66.3824 250.129 64.2322 251.748 62.8922 253.823C61.5521 255.897 61.1047 258.299 61.626 260.621C61.9238 261.957 62.5391 263.229 63.4348 264.36C63.4348 264.36 65.1137 266.212 67.6496 268.979C70.1855 271.746 73.5741 275.428 76.9943 279.089C80.4144 282.749 83.8679 286.391 86.5303 289.079C89.1926 291.767 91.0674 293.504 91.3308 293.356L100.618 270.066C100.881 269.916 99.9519 268.782 98.4126 267.161Z" fill="#CCCCCC"/>
<path d="M92.8991 239.657C93.0452 240.257 92.9886 240.881 92.7358 241.455C92.6088 241.75 92.4335 242.027 92.215 242.281C92.0283 242.496 91.812 242.693 91.5705 242.866C90.8549 243.376 89.947 243.654 89.01 243.651C88.9515 243.651 88.893 243.649 88.8344 243.646C88.7759 243.643 88.7173 243.64 88.6588 243.636C88.6003 243.632 88.5417 243.627 88.4832 243.62C88.4246 243.613 88.3661 243.605 88.3076 243.596L84.998 243.089L80.439 234.873V242.398L65.3904 240.113V208.176L90.6178 208.278L89.9944 208.89C87.9242 210.94 86.5648 213.432 86.0658 216.092C85.5764 218.787 85.6379 221.532 86.2476 224.208C86.8402 226.917 87.7397 229.571 88.9336 232.134C89.9773 234.405 91.1753 236.624 92.5215 238.778C92.6955 239.055 92.8226 239.351 92.8991 239.657Z" fill="#2F2E41"/>
<path d="M649.042 528H0V526.441H650L649.042 528Z" fill="#CACACA"/>
<path d="M477.008 125.102H473.583V45.8618C473.583 33.6985 467.856 22.0334 457.66 13.4326C447.464 4.83185 433.636 5.98242e-09 419.217 5.98242e-09H220.198C213.059 -9.72678e-05 205.989 1.18606 199.393 3.49074C192.797 5.79542 186.803 9.17349 181.755 13.4321C176.706 17.6907 172.701 22.7464 169.969 28.3106C167.237 33.8747 165.83 39.8384 165.83 45.8611V480.579C165.83 486.602 167.237 492.565 169.969 498.13C172.701 503.694 176.706 508.75 181.754 513.008C186.802 517.267 192.796 520.645 199.392 522.95C205.988 525.255 213.058 526.441 220.197 526.441H419.214C433.633 526.441 447.461 521.609 457.657 513.008C467.853 504.407 473.581 492.742 473.581 480.579V181.507H477.005L477.008 125.102Z" fill="#3F3D56"/>
<path d="M462.496 42.79V483.649C462.494 492.871 458.151 501.715 450.422 508.237C442.692 514.759 432.209 518.424 421.277 518.428H218.175C207.238 518.429 196.749 514.766 189.014 508.244C181.279 501.722 176.932 492.875 176.929 483.649V42.79C176.932 33.5647 181.279 24.7182 189.013 18.1963C196.748 11.6744 207.237 8.01121 218.173 8.01239H242.811C241.601 10.5219 241.14 13.2438 241.47 15.9386C241.799 18.6334 242.908 21.2188 244.699 23.4674C246.49 25.716 248.909 27.559 251.742 28.8345C254.576 30.1099 257.737 30.7788 260.948 30.7822H376.74C379.952 30.7788 383.113 30.1099 385.946 28.8345C388.78 27.559 391.198 25.716 392.989 23.4674C394.78 21.2188 395.889 18.6334 396.219 15.9386C396.548 13.2438 396.088 10.5219 394.878 8.01239H421.269C432.201 8.01396 442.685 11.6776 450.416 18.1979C458.147 24.7182 462.492 33.5614 462.496 42.7834V42.79Z" fill="white"/>
<path d="M321.889 219.16C298.765 219.168 276.585 211.426 260.227 197.639C243.869 183.851 234.673 165.147 234.663 145.641V145.576C234.663 145.421 234.663 145.259 234.673 145.105C234.937 104.81 274.067 71.996 321.889 71.996C345.023 71.9949 367.21 79.7461 383.569 93.5445C399.928 107.343 409.12 126.058 409.121 145.573C409.122 165.088 399.933 183.804 383.576 197.604C367.219 211.404 345.033 219.157 321.899 219.158H321.889V219.16ZM321.889 73.5441C299.345 73.5866 277.732 81.1319 261.745 94.5406C245.758 107.949 236.69 126.138 236.51 145.155C236.501 145.319 236.501 145.451 236.501 145.576C236.499 159.825 241.505 173.754 250.887 185.602C260.27 197.45 273.606 206.685 289.21 212.139C304.815 217.593 321.986 219.022 338.552 216.244C355.119 213.466 370.337 206.606 382.282 196.532C394.227 186.458 402.362 173.623 405.66 159.648C408.957 145.674 407.268 131.189 400.806 118.024C394.344 104.86 383.4 93.6076 369.357 85.6901C355.314 77.7727 338.803 73.5458 321.912 73.5441H321.889V73.5441Z" fill="#CCCCCC"/>
<path d="M412.088 296.524H231.609C230.723 296.523 229.873 296.226 229.247 295.697C228.62 295.169 228.268 294.452 228.267 293.704V255.939C228.268 255.192 228.62 254.476 229.247 253.947C229.873 253.419 230.723 253.121 231.609 253.12H412.088C412.974 253.121 413.824 253.419 414.45 253.947C415.077 254.476 415.429 255.192 415.43 255.939V293.705C415.429 294.453 415.077 295.169 414.45 295.698C413.824 296.226 412.974 296.523 412.088 296.524V296.524ZM231.609 254.248C231.077 254.248 230.567 254.426 230.191 254.744C229.815 255.061 229.604 255.491 229.603 255.939V293.705C229.604 294.154 229.815 294.584 230.191 294.901C230.567 295.218 231.077 295.397 231.609 295.397H412.088C412.62 295.397 413.13 295.218 413.506 294.901C413.882 294.584 414.093 294.154 414.094 293.705V255.939C414.093 255.491 413.882 255.061 413.506 254.744C413.13 254.426 412.62 254.248 412.088 254.248H231.609Z" fill="#E6E6E6"/>
<path d="M255.004 286.662C262.756 286.662 269.041 281.361 269.041 274.821C269.041 268.282 262.756 262.98 255.004 262.98C247.251 262.98 240.967 268.282 240.967 274.821C240.967 281.361 247.251 286.662 255.004 286.662Z" fill="#CCCCCC"/>
<path d="M287.424 266.927C286.803 266.927 286.208 267.135 285.769 267.505C285.33 267.876 285.084 268.378 285.084 268.901C285.084 269.424 285.33 269.926 285.769 270.297C286.208 270.667 286.803 270.875 287.424 270.875H397.716C398.336 270.895 398.94 270.706 399.396 270.35C399.851 269.995 400.12 269.501 400.144 268.978C400.168 268.454 399.944 267.945 399.522 267.561C399.101 267.177 398.515 266.95 397.895 266.929C397.861 266.928 397.826 266.928 397.792 266.928H287.424V266.927Z" fill="#E6E6E6"/>
<path d="M287.424 278.768C286.803 278.768 286.208 278.976 285.769 279.346C285.33 279.716 285.084 280.218 285.084 280.741C285.084 281.265 285.33 281.767 285.769 282.137C286.208 282.507 286.803 282.715 287.424 282.715H397.716C398.336 282.735 398.94 282.547 399.396 282.191C399.851 281.835 400.12 281.341 400.144 280.818C400.168 280.295 399.944 279.785 399.522 279.401C399.101 279.017 398.515 278.79 397.895 278.77C397.861 278.769 397.826 278.768 397.792 278.769H287.424V278.768Z" fill="#E6E6E6"/>
<path d="M412.088 359.677H231.609C230.723 359.676 229.873 359.379 229.247 358.85C228.62 358.322 228.268 357.605 228.267 356.858V319.093C228.268 318.345 228.62 317.629 229.247 317.1C229.873 316.572 230.723 316.274 231.609 316.273H412.088C412.974 316.274 413.824 316.572 414.45 317.1C415.077 317.629 415.429 318.345 415.43 319.093V356.858C415.429 357.606 415.076 358.322 414.45 358.85C413.823 359.379 412.974 359.676 412.088 359.677V359.677ZM231.609 317.401C231.077 317.401 230.567 317.58 230.191 317.897C229.815 318.214 229.604 318.644 229.603 319.093V356.858C229.604 357.307 229.815 357.737 230.191 358.054C230.567 358.371 231.077 358.55 231.609 358.55H412.088C412.62 358.55 413.13 358.371 413.506 358.054C413.882 357.737 414.093 357.307 414.094 356.858V319.093C414.093 318.644 413.882 318.214 413.506 317.897C413.13 317.58 412.62 317.401 412.088 317.401H231.609Z" fill="#E6E6E6"/>
<path d="M255.004 349.816C262.756 349.816 269.041 344.515 269.041 337.975C269.041 331.435 262.756 326.134 255.004 326.134C247.251 326.134 240.967 331.435 240.967 337.975C240.967 344.515 247.251 349.816 255.004 349.816Z" fill="#CCCCCC"/>
<path d="M287.424 330.078C286.803 330.078 286.208 330.286 285.769 330.656C285.33 331.027 285.084 331.529 285.084 332.052C285.084 332.575 285.33 333.077 285.769 333.448C286.208 333.818 286.803 334.026 287.424 334.026H397.716C398.327 334.023 398.914 333.818 399.348 333.455C399.783 333.092 400.032 332.6 400.042 332.084C400.052 331.568 399.822 331.069 399.402 330.694C398.981 330.32 398.403 330.099 397.792 330.079H287.424V330.078Z" fill="#E6E6E6"/>
<path d="M287.424 341.922C286.803 341.922 286.208 342.13 285.769 342.5C285.33 342.87 285.084 343.372 285.084 343.895C285.084 344.419 285.33 344.921 285.769 345.291C286.208 345.661 286.803 345.869 287.424 345.869H397.716C398.327 345.866 398.914 345.661 399.348 345.298C399.783 344.935 400.032 344.443 400.042 343.927C400.052 343.411 399.822 342.913 399.402 342.538C398.981 342.163 398.403 341.942 397.792 341.922H287.424V341.922Z" fill="#E6E6E6"/>
<path d="M412.088 422.829H231.609C230.723 422.829 229.873 422.531 229.247 422.003C228.62 421.474 228.268 420.758 228.267 420.01V382.245C228.268 381.498 228.62 380.781 229.247 380.253C229.873 379.724 230.723 379.427 231.609 379.426H412.088C412.974 379.427 413.824 379.724 414.45 380.253C415.077 380.781 415.429 381.498 415.43 382.245V420.011C415.429 420.758 415.077 421.475 414.45 422.003C413.824 422.532 412.974 422.829 412.088 422.83V422.829ZM231.609 380.553C231.077 380.554 230.567 380.732 230.191 381.049C229.815 381.366 229.604 381.797 229.603 382.245V420.011C229.604 420.459 229.815 420.89 230.191 421.207C230.567 421.524 231.077 421.702 231.609 421.703H412.088C412.62 421.702 413.13 421.524 413.506 421.207C413.882 420.89 414.093 420.459 414.094 420.011V382.245C414.093 381.797 413.882 381.366 413.506 381.049C413.13 380.732 412.62 380.554 412.088 380.553H231.609Z" fill="#E6E6E6"/>
<path d="M255.004 412.97C262.756 412.97 269.041 407.668 269.041 401.128C269.041 394.589 262.756 389.287 255.004 389.287C247.251 389.287 240.967 394.589 240.967 401.128C240.967 407.668 247.251 412.97 255.004 412.97Z" fill="#CCCCCC"/>
<path d="M287.424 393.233C286.803 393.233 286.208 393.441 285.769 393.811C285.33 394.181 285.084 394.683 285.084 395.207C285.084 395.73 285.33 396.232 285.769 396.602C286.208 396.972 286.803 397.18 287.424 397.18H397.716C398.336 397.2 398.94 397.012 399.396 396.656C399.851 396.3 400.12 395.806 400.144 395.283C400.168 394.76 399.944 394.25 399.522 393.866C399.101 393.482 398.515 393.255 397.895 393.235C397.861 393.234 397.826 393.234 397.792 393.234H287.424V393.233Z" fill="#E6E6E6"/>
<path d="M287.424 405.075C286.803 405.075 286.208 405.283 285.769 405.653C285.33 406.023 285.084 406.525 285.084 407.049C285.084 407.572 285.33 408.074 285.769 408.444C286.208 408.814 286.803 409.022 287.424 409.022H397.716C398.023 409.032 398.329 408.991 398.617 408.901C398.906 408.811 399.17 408.674 399.396 408.498C399.621 408.322 399.803 408.11 399.931 407.874C400.06 407.639 400.132 407.384 400.144 407.125C400.156 406.866 400.107 406.608 400 406.365C399.893 406.122 399.731 405.898 399.522 405.708C399.313 405.518 399.062 405.365 398.783 405.256C398.504 405.148 398.202 405.087 397.895 405.077C397.861 405.076 397.826 405.076 397.792 405.076H287.424V405.075Z" fill="#E6E6E6"/>
<path d="M213.699 320.344H246.973C249.054 307.39 244.462 295.297 246.973 286.662H213.699C207.435 297.89 207.435 309.117 213.699 320.344Z" fill="#FF6584"/>
<path d="M429.719 385.34H396.444C397.692 372.389 401.713 360.295 396.444 351.658H429.718C435.983 362.885 435.983 374.112 429.719 385.34Z" fill="#F59B00"/>
<path d="M368.172 450.598H334.897C336.145 437.647 340.166 425.554 334.897 416.916H368.171C374.436 428.143 374.436 439.37 368.172 450.598Z" fill="#F59B00"/>
<path d="M366.466 209.044C352.788 216.043 336.996 219.545 321.005 219.126C305.015 218.707 289.511 214.384 276.375 206.681C279.13 201.792 283.47 197.662 288.894 194.769C294.318 191.876 300.603 190.338 307.02 190.334H334.643C341.579 190.334 348.349 192.127 354.04 195.473C359.731 198.819 364.068 203.557 366.468 209.047L366.466 209.044Z" fill="#F59B00"/>
<path d="M284.21 141.492C288.388 130.26 297.889 119.959 311.027 116.159C324.166 112.359 347.089 115.911 353.285 126.451C362.215 141.641 358.203 160.243 353.468 176.735C350.999 176.624 348.507 176.538 346.004 176.459L342.469 166.52V176.361C322.962 175.853 302.654 176.171 282.335 176.501C280.517 164.827 280.032 152.724 284.21 141.492Z" fill="#2F2E41"/>
<path d="M312.837 177.647C329.358 177.647 342.751 166.349 342.751 152.412C342.751 138.476 329.358 127.178 312.837 127.178C296.316 127.178 282.923 138.476 282.923 152.412C282.923 166.349 296.316 177.647 312.837 177.647Z" fill="#FEB8B8"/>
<path d="M293.325 122.01C298.74 119.225 304.942 117.719 311.283 117.648C317.624 117.577 323.87 118.945 329.37 121.608C334.87 124.272 339.42 128.132 342.546 132.787C345.671 137.441 347.257 142.719 347.137 148.067C331.385 148.678 314.838 148.838 298.061 148.865L294.093 140.678L291.755 148.87C286.643 148.87 281.521 148.865 276.389 148.853C276.18 143.52 277.634 138.234 280.606 133.523C283.578 128.812 287.964 124.842 293.325 122.01V122.01Z" fill="#2F2E41"/>
<path d="M592.08 504.174C591.845 511.57 590.376 518.901 587.717 525.951C587.657 526.115 587.593 526.276 587.529 526.439H571.247C571.265 526.291 571.282 526.129 571.299 525.951C572.384 515.423 578.643 451.349 571.16 440.391C571.815 441.281 593.339 470.722 592.08 504.174Z" fill="#F0F0F0"/>
<path d="M589.467 525.419C589.182 525.762 588.885 526.104 588.582 526.441H563.04C563.235 526.15 563.458 525.807 563.718 525.419C567.938 518.994 580.427 499.79 592.022 479.875C604.481 458.476 615.911 436.266 614.949 428.227C615.245 430.04 623.863 485.308 589.467 525.419Z" fill="#F0F0F0"/>
</g>
<defs>
<clipPath id="clip0">
<rect width="650" height="528" fill="white"/>
</clipPath>
</defs>
</svg>
