<svg width="656" height="512" viewBox="0 0 656 512" fill="none" xmlns="http://www.w3.org/2000/svg">
<g clip-path="url(#clip0)">
<path d="M571.891 -16.5161H8.09902C5.95158 -16.5135 3.89266 -15.3802 2.37421 -13.365C0.855767 -11.3498 0.00188386 -8.61725 0 -5.76732V501.251C0.00188386 504.101 0.855767 506.834 2.37421 508.849C3.89266 510.864 5.95158 511.997 8.09902 512H571.891C573.062 512 574.219 511.663 575.283 511.012C576.346 510.36 577.29 509.411 578.05 508.228C578.114 508.135 578.173 508.037 578.226 507.932C578.71 507.148 579.101 506.271 579.387 505.331C579.795 504.039 580.003 502.652 580 501.251V-5.76732C579.998 -8.61925 579.142 -11.3533 577.622 -13.3688C576.101 -15.3842 574.04 -16.5163 571.891 -16.5161V-16.5161ZM577.687 501.251C577.688 502.751 577.355 504.217 576.73 505.467C576.175 506.567 575.422 507.465 574.539 508.08C573.72 508.641 572.812 508.933 571.891 508.931H8.09902C6.56491 508.928 5.09416 508.118 4.00938 506.679C2.9246 505.239 2.31435 503.287 2.31249 501.251V-5.76732C2.31435 -7.80328 2.9246 -9.75515 4.00938 -11.1948C5.09416 -12.6344 6.56491 -13.4443 8.09902 -13.4468H571.891C573.427 -13.4471 574.9 -12.6385 575.987 -11.1986C577.073 -9.7587 577.685 -7.80528 577.687 -5.76732V501.251Z" fill="#3F3D56"/>
<path d="M578.625 41.7343H1.15378V44.7111H578.625V41.7343Z" fill="#3F3D56"/>
<path d="M20.8271 31.2561C24.6619 31.2561 27.7707 27.2579 27.7707 22.3258C27.7707 17.3937 24.6619 13.3955 20.8271 13.3955C16.9923 13.3955 13.8836 17.3937 13.8836 22.3258C13.8836 27.2579 16.9923 31.2561 20.8271 31.2561Z" fill="#3F3D56"/>
<path d="M40.7898 31.2561C44.6246 31.2561 47.7333 27.2579 47.7333 22.3258C47.7333 17.3937 44.6246 13.3955 40.7898 13.3955C36.955 13.3955 33.8463 17.3937 33.8463 22.3258C33.8463 27.2579 36.955 31.2561 40.7898 31.2561Z" fill="#3F3D56"/>
<path d="M60.7525 31.2561C64.5873 31.2561 67.696 27.2579 67.696 22.3258C67.696 17.3937 64.5873 13.3955 60.7525 13.3955C56.9177 13.3955 53.8089 17.3937 53.8089 22.3258C53.8089 27.2579 56.9177 31.2561 60.7525 31.2561Z" fill="#3F3D56"/>
<path d="M69.6835 228.972H49.2571C48.1494 228.97 47.0873 228.404 46.3041 227.396C45.5208 226.389 45.0802 225.023 45.0789 223.598V197.327C45.0802 195.903 45.5208 194.537 46.3041 193.529C47.0873 192.522 48.1494 191.955 49.2571 191.954H69.6835C70.7913 191.955 71.8533 192.522 72.6365 193.529C73.4198 194.537 73.8604 195.903 73.8617 197.327V223.598C73.8604 225.023 73.4198 226.389 72.6365 227.396C71.8533 228.404 70.7913 228.97 69.6835 228.972Z" fill="#F59B00"/>
<path d="M69.6835 297.038H49.2571C48.1494 297.036 47.0873 296.47 46.3041 295.462C45.5208 294.455 45.0802 293.089 45.0789 291.664V265.393C45.0802 263.969 45.5208 262.603 46.3041 261.595C47.0873 260.588 48.1494 260.021 49.2571 260.02H69.6835C70.7913 260.021 71.8533 260.588 72.6365 261.595C73.4198 262.603 73.8604 263.969 73.8617 265.393V291.664C73.8604 293.089 73.4198 294.455 72.6365 295.462C71.8533 296.47 70.7913 297.036 69.6835 297.038V297.038Z" fill="#3F3D56"/>
<path d="M69.6835 365.104H49.2571C48.1494 365.103 47.0873 364.536 46.3041 363.528C45.5208 362.521 45.0802 361.155 45.0789 359.73V333.459C45.0802 332.035 45.5208 330.669 46.3041 329.661C47.0873 328.654 48.1494 328.087 49.2571 328.086H69.6835C70.7913 328.087 71.8533 328.654 72.6365 329.661C73.4198 330.669 73.8604 332.035 73.8617 333.459V359.73C73.8604 361.155 73.4198 362.521 72.6365 363.528C71.8533 364.536 70.7913 365.103 69.6835 365.104Z" fill="#CCCCCC"/>
<path d="M203.384 215.836H104.966C103.857 215.836 102.795 215.27 102.011 214.263C101.228 213.255 100.787 211.888 100.787 210.463C100.787 209.038 101.228 207.671 102.011 206.663C102.795 205.655 103.857 205.089 104.966 205.089H203.384C204.492 205.089 205.555 205.655 206.338 206.663C207.122 207.671 207.562 209.038 207.562 210.463C207.562 211.888 207.122 213.255 206.338 214.263C205.555 215.27 204.492 215.836 203.384 215.836V215.836Z" fill="#CCCCCC"/>
<path d="M203.384 283.902H104.966C103.857 283.902 102.795 283.336 102.011 282.329C101.228 281.321 100.787 279.954 100.787 278.529C100.787 277.104 101.228 275.737 102.011 274.729C102.795 273.721 103.857 273.155 104.966 273.155H203.384C204.492 273.155 205.555 273.721 206.338 274.729C207.122 275.737 207.562 277.104 207.562 278.529C207.562 279.954 207.122 281.321 206.338 282.329C205.555 283.336 204.492 283.902 203.384 283.902V283.902Z" fill="#CCCCCC"/>
<path d="M203.384 351.969H104.966C103.857 351.969 102.795 351.402 102.011 350.395C101.228 349.387 100.787 348.02 100.787 346.595C100.787 345.17 101.228 343.803 102.011 342.795C102.795 341.787 103.857 341.221 104.966 341.221H203.384C204.492 341.221 205.555 341.787 206.338 342.795C207.122 343.803 207.562 345.17 207.562 346.595C207.562 348.02 207.122 349.387 206.338 350.395C205.555 351.402 204.492 351.969 203.384 351.969V351.969Z" fill="#CCCCCC"/>
<path d="M541.135 205.172C541.59 205.44 542.028 205.755 542.445 206.113L584.089 183.253L585.575 169.144L602.215 169.013L601.232 201.372L546.266 220.067C546.151 220.559 546.012 221.041 545.851 221.51C545.056 223.691 543.778 225.521 542.177 226.771C540.577 228.021 538.724 228.635 536.853 228.535C534.982 228.435 533.176 227.627 531.661 226.211C530.146 224.796 528.99 222.836 528.338 220.578C527.686 218.32 527.568 215.864 527.997 213.52C528.427 211.176 529.386 209.047 530.753 207.401C532.12 205.755 533.835 204.666 535.682 204.269C537.529 203.873 539.426 204.187 541.135 205.172V205.172Z" fill="#FFB8B8"/>
<path d="M608.267 498.406L596.884 498.405L591.469 441.936L608.269 441.937L608.267 498.406Z" fill="#FFB8B8"/>
<path d="M588.753 494.222H610.705V511.999H574.931C574.931 509.664 575.288 507.353 575.983 505.196C576.677 503.039 577.696 501.079 578.979 499.429C580.263 497.778 581.786 496.469 583.463 495.575C585.14 494.682 586.938 494.222 588.753 494.222V494.222Z" fill="#2F2E41"/>
<path d="M652.536 494.268L641.208 495.704L631.514 440.19L648.233 438.072L652.536 494.268Z" fill="#FFB8B8"/>
<path d="M632.798 492.566L654.645 489.798L656 507.49L620.397 512C620.22 509.677 620.399 507.331 620.926 505.097C621.453 502.863 622.317 500.784 623.468 498.98C624.62 497.175 626.036 495.68 627.637 494.58C629.238 493.479 630.992 492.795 632.798 492.566V492.566Z" fill="#2F2E41"/>
<path d="M611.435 109.251C624.03 109.251 634.239 96.1199 634.239 79.9218C634.239 63.7236 624.03 50.5924 611.435 50.5924C598.841 50.5924 588.631 63.7236 588.631 79.9218C588.631 96.1199 598.841 109.251 611.435 109.251Z" fill="#FFB8B8"/>
<path d="M594.34 486.986C593.362 486.989 592.414 486.548 591.664 485.74C590.914 484.932 590.41 483.81 590.241 482.571C584.349 440.506 565.09 302.965 564.63 299.156C564.619 299.068 564.615 298.98 564.615 298.891V288.636C564.614 288.262 564.705 287.898 564.874 287.594L567.419 283.011C567.54 282.791 567.698 282.609 567.882 282.48C568.066 282.35 568.271 282.277 568.48 282.265C582.985 281.39 630.488 278.827 632.783 282.515C635.088 286.221 634.273 297.45 634.087 299.663L634.096 299.894L655.437 475.427C655.604 476.827 655.336 478.255 654.69 479.402C654.045 480.55 653.074 481.324 651.988 481.558L638.658 484.383C637.666 484.588 636.648 484.328 635.792 483.65C634.936 482.972 634.297 481.922 633.992 480.69C629.869 463.747 616.046 406.751 611.255 384.697C611.225 384.557 611.156 384.436 611.062 384.356C610.968 384.277 610.854 384.244 610.743 384.265C610.631 384.285 610.529 384.357 610.456 384.467C610.383 384.577 610.343 384.717 610.344 384.862C610.584 405.886 611.162 459.524 611.362 478.049L611.383 480.045C611.392 481.396 611.007 482.701 610.303 483.704C609.6 484.707 608.629 485.334 607.583 485.462L594.73 486.964C594.599 486.979 594.469 486.986 594.34 486.986Z" fill="#2F2E41"/>
<path d="M596.962 120.784C592.983 123.826 590.601 129.418 589.235 135.107C586.705 145.641 585.182 156.532 584.7 167.54L583.256 200.498L565.378 287.873C580.873 304.735 589.811 300.903 610.669 287.111C631.527 273.318 633.911 291.709 633.911 291.709L638.082 217.364L644.041 136.124C642.704 134.052 641.19 132.18 639.528 130.542C634.019 125.033 627.611 121.204 620.785 119.344C613.959 117.483 606.893 117.639 600.121 119.801L596.962 120.784Z" fill="#B3B3B3"/>
<path d="M591.156 222.819C591.636 223.052 592.102 223.333 592.549 223.659L633.725 197.153L634.408 182.793L651.394 181.287L652.304 214.021L597.277 237.426C596.828 239.904 595.803 242.148 594.337 243.859C592.872 245.57 591.037 246.666 589.076 247.003C587.114 247.34 585.119 246.9 583.357 245.743C581.594 244.587 580.147 242.767 579.208 240.527C578.269 238.286 577.883 235.731 578.101 233.202C578.318 230.672 579.129 228.288 580.426 226.365C581.723 224.443 583.444 223.074 585.361 222.441C587.277 221.807 589.299 221.939 591.155 222.819H591.156Z" fill="#FFB8B8"/>
<path d="M643.743 136.496C653.874 141.095 655.659 190.917 655.659 190.917C643.74 182.486 629.437 196.283 629.437 196.283C629.437 196.283 626.458 183.253 622.882 166.391C621.802 161.648 621.673 156.63 622.507 151.806C623.34 146.982 625.109 142.507 627.649 138.798C627.649 138.798 633.612 131.894 643.743 136.496Z" fill="#B3B3B3"/>
<path d="M631.883 87.678C629.042 84.7543 625.165 90.0684 625.165 90.0684L622.892 63.7573C622.892 63.7573 608.685 65.946 599.593 63.0269C590.501 60.1078 589.08 73.6251 589.08 73.6251C588.612 68.1649 588.517 62.6622 588.796 57.1807C589.364 50.6029 596.752 44.0251 609.822 39.6396C622.892 35.254 629.711 54.257 629.711 54.257C638.804 60.1032 634.724 90.6017 631.883 87.678Z" fill="#2F2E41"/>
<path d="M545.761 280.917C545.907 277.756 545.991 274.573 545.991 271.364C545.991 229.559 533.078 189.466 510.094 159.905C487.11 130.344 455.937 113.737 423.432 113.737V280.917H545.761Z" fill="#F59B00"/>
<path d="M414.147 295.247V128.067C390.224 128.066 366.823 137.07 346.831 153.969C326.838 170.868 311.128 194.923 301.639 223.167C292.149 251.412 289.294 282.611 293.426 312.918C297.558 343.224 308.496 371.313 324.891 393.72C341.287 416.127 362.423 431.872 385.693 439.015C408.963 446.157 433.35 444.384 455.846 433.914C478.342 423.444 497.963 404.736 512.291 380.095C526.619 355.454 535.026 325.959 536.476 295.247H414.147Z" fill="#3F3D56"/>
</g>
<defs>
<clipPath id="clip0">
<rect width="656" height="512" fill="white"/>
</clipPath>
</defs>
</svg>
