<svg width="656" height="512" viewBox="0 0 656 512" fill="none" xmlns="http://www.w3.org/2000/svg">
<g clip-path="url(#clip0)">
<path d="M68.5264 145.323H54.3024V167.186H68.5264V145.323Z" fill="#3F3D56"/>
<path d="M383.658 451.716H369.434V473.579H383.658V451.716Z" fill="#3F3D56"/>
<path d="M599.111 243.542V226.724H580.62V243.542H599.111Z" fill="#3F3D56"/>
<path d="M551.5 470.857C582.53 470.857 607.685 441.116 607.685 404.427C607.685 367.739 582.53 337.997 551.5 337.997C520.47 337.997 495.315 367.739 495.315 404.427C495.315 441.116 520.47 470.857 551.5 470.857Z" fill="#2F2E41"/>
<path d="M573.2 495.397L589.996 491.802L584.548 450.336L567.753 453.931L573.2 495.397Z" fill="#2F2E41"/>
<path d="M539.609 496.701L556.405 493.106L550.957 457.526L534.161 461.121L539.609 496.701Z" fill="#2F2E41"/>
<path d="M548.525 504.189C554.52 498.186 557.836 491.165 555.932 488.507C554.028 485.849 547.625 488.56 541.63 494.563C535.636 500.566 532.319 507.587 534.223 510.245C536.127 512.903 542.53 510.191 548.525 504.189Z" fill="#2F2E41"/>
<path d="M581.417 503.035C587.411 497.032 590.728 490.011 588.824 487.353C586.92 484.695 580.517 487.407 574.522 493.409C568.527 499.412 565.211 506.433 567.115 509.091C569.019 511.749 575.422 509.037 581.417 503.035Z" fill="#2F2E41"/>
<path d="M547.567 410.882C558.172 410.882 566.769 400.717 566.769 388.178C566.769 375.639 558.172 365.474 547.567 365.474C536.962 365.474 528.364 375.639 528.364 388.178C528.364 400.717 536.962 410.882 547.567 410.882Z" fill="white"/>
<path d="M539.675 387.608C543.21 387.608 546.075 384.219 546.075 380.04C546.075 375.86 543.21 372.472 539.675 372.472C536.14 372.472 533.274 375.86 533.274 380.04C533.274 384.219 536.14 387.608 539.675 387.608Z" fill="#3F3D56"/>
<path d="M595.822 332.158C596.667 307.564 578.74 286.734 555.781 285.631C532.822 284.528 513.525 303.571 512.68 328.165C511.835 352.758 527.795 358.346 550.754 359.449C573.713 360.552 594.977 356.751 595.822 332.158Z" fill="#F59B00"/>
<path d="M527.004 399.746C528.092 394.132 516.714 386.259 501.592 382.161C486.469 378.062 473.327 379.29 472.239 384.904C471.151 390.517 482.528 398.39 497.651 402.488C512.774 406.587 525.915 405.359 527.004 399.746Z" fill="#2F2E41"/>
<path d="M637.292 421.431C638.38 415.818 627.003 407.945 611.88 403.846C596.757 399.748 583.616 400.976 582.528 406.589C581.439 412.202 592.817 420.075 607.939 424.174C623.062 428.272 636.204 427.044 637.292 421.431Z" fill="#2F2E41"/>
<path d="M566.931 430.606C567.232 432.563 567.204 434.57 566.848 436.514C566.492 438.457 565.816 440.299 564.858 441.934C563.9 443.568 562.679 444.963 561.265 446.04C559.851 447.116 558.271 447.852 556.616 448.207C554.961 448.561 553.264 448.526 551.62 448.104C549.977 447.682 548.419 446.882 547.038 445.748C545.656 444.614 544.477 443.17 543.567 441.497C542.658 439.824 542.036 437.956 541.738 435.999C540.478 427.773 545.857 424.862 552.814 423.373C559.771 421.884 565.672 422.381 566.931 430.606Z" fill="white"/>
<path d="M259.479 448.432L257.526 478.456L276.408 480.765L271.85 444.583L259.479 448.432Z" fill="#FFB9B9"/>
<path d="M193.693 175.025H193.693C209.788 180.889 218.373 202.763 212.869 223.881L205.876 250.713L198.897 248.17L197.447 236.756L195.866 247.066L151.005 230.72L149.687 220.344L148.25 229.717L143.199 227.876L148.69 206.809C155.024 182.507 175.173 168.277 193.693 175.025Z" fill="#2F2E41"/>
<path d="M168.696 255.557C167.241 255.272 165.752 255.35 164.324 255.786C162.896 256.222 161.561 257.006 160.405 258.089C159.249 259.171 158.297 260.528 157.611 262.071C156.925 263.615 156.52 265.311 156.422 267.051C156.141 271.703 157.499 277.149 163.598 281.182C176.625 289.797 204.875 308.577 204.875 308.577L258.775 320.816C258.775 320.816 286.013 346.514 289.426 331.898C292.838 317.282 263.58 308.358 263.58 308.358L214.062 293.343L182.509 266.358C182.509 266.358 176.727 257.233 168.696 255.557Z" fill="#FFB9B9"/>
<path d="M151.469 315.436L156.886 333.487L189.392 324.17L181.019 310.777L151.469 315.436Z" fill="#FFB9B9"/>
<path d="M64.5401 485.183L39.9149 482.271L57.1527 462.472L69.4656 472.372L64.5401 485.183Z" fill="#FFB9B9"/>
<path d="M188 235.44C199.17 235.44 208.225 224.733 208.225 211.526C208.225 198.32 199.17 187.613 188 187.613C176.83 187.613 167.775 198.32 167.775 211.526C167.775 224.733 176.83 235.44 188 235.44Z" fill="#FFB9B9"/>
<path d="M172.154 215.276C172.154 215.276 160.826 230.998 154.916 233.328C149.006 235.657 134.231 257.785 141.618 272.343C149.006 286.901 176.094 268.849 176.094 268.849L175.109 254.291C175.109 254.291 186.437 230.998 188.899 229.251C191.362 227.504 172.154 215.276 172.154 215.276Z" fill="#FFB9B9"/>
<path d="M170.185 243.391C162.654 229.986 145.187 232.384 140.855 247.64C140.777 247.911 140.704 248.187 140.633 248.468C136.693 264.191 142.603 290.978 142.603 290.978L151.468 322.423C151.468 322.423 174.617 309.612 191.362 331.158L188.899 309.03C188.899 309.03 195.794 290.395 186.929 277.002C181.287 268.478 176.044 253.822 170.185 243.391Z" fill="#575A89"/>
<path d="M53.705 481.106L52.72 489.841C52.72 489.841 20.2142 482.271 13.3191 489.259C6.42391 496.247 6.42391 500.905 1.00629 496.247C-1.2962 494.267 0.671379 489.447 3.69536 484.559C8.48439 476.89 14.7779 470.711 22.0343 466.555C30.1626 461.85 41.3922 455.013 41.3922 453.155C41.3922 450.243 50.2574 441.508 53.705 446.167C57.1526 450.826 63.5552 463.637 63.5552 463.637L53.705 481.106Z" fill="#2F2E41"/>
<path d="M256.439 464.599C256.439 464.599 249.22 494.862 251.845 496.414C254.47 497.966 259.721 502.621 267.596 502.621C272.25 502.621 279.195 505.602 284.098 508.04C289.815 510.928 296.025 512.191 302.229 511.728C306.363 511.391 309.878 510.245 309.599 507.277C308.942 500.293 296.473 498.741 296.473 498.741L283.347 478.566C283.347 478.566 281.05 465.763 279.081 465.763C278.009 465.823 276.955 465.408 276.128 464.599L256.439 464.599Z" fill="#2F2E41"/>
<path d="M182.663 182.54C184.646 180.824 186.936 179.672 189.357 179.172C191.777 178.672 194.262 178.838 196.619 179.657L197.191 179.866C208.222 183.885 214.089 198.946 210.294 213.505V213.505L206.598 212.158L207.401 206.568L205.126 211.622L183.203 203.634L182.551 198.42L181.826 203.132L177.513 201.561C172.421 212.645 172.233 225.515 176.948 240.173L169.602 237.496L168.298 227.068L166.847 236.492L152.842 231.39L155.536 209.478C159.617 193.821 170.772 183.347 182.663 182.54Z" fill="#2F2E41"/>
<path d="M440.538 40.801H273.206V411.089H440.538V40.801Z" fill="#F2F2F2"/>
<path d="M480.906 411.859H272.555V0H480.906V411.859ZM273.857 410.319H479.604V1.53966H273.857V410.319Z" fill="#3F3D56"/>
<path d="M656 510.275H28.6609V512H656V510.275Z" fill="#3F3D56"/>
<path d="M455.513 216.322H297.948V45.42H455.513V216.322ZM299.25 214.783H454.211V46.9596H299.25V214.783Z" fill="#3F3D56"/>
<path d="M299.059 171.009L298.138 169.921L347.246 111.858L376.079 145.949L454.076 53.7288L454.997 54.8173L376.079 148.126L347.246 114.035L299.059 171.009Z" fill="#3F3D56"/>
<path d="M347.431 124.712C352.825 124.712 357.197 119.542 357.197 113.165C357.197 106.788 352.825 101.618 347.431 101.618C342.037 101.618 337.665 106.788 337.665 113.165C337.665 119.542 342.037 124.712 347.431 124.712Z" fill="#F59B00"/>
<path d="M376.73 156.275C382.124 156.275 386.497 151.106 386.497 144.728C386.497 138.351 382.124 133.181 376.73 133.181C371.337 133.181 366.964 138.351 366.964 144.728C366.964 151.106 371.337 156.275 376.73 156.275Z" fill="#F59B00"/>
<path d="M454.862 65.4355C460.256 65.4355 464.629 60.2656 464.629 53.8881C464.629 47.5106 460.256 42.3406 454.862 42.3406C449.468 42.3406 445.096 47.5106 445.096 53.8881C445.096 60.2656 449.468 65.4355 454.862 65.4355Z" fill="#F59B00"/>
<path d="M435.98 264.052H317.481V277.909H435.98V264.052Z" fill="#3F3D56"/>
<path d="M404.077 377.987H349.384V313.321H386.497V314.86H350.687V376.447H402.774V345.654H404.077V377.987Z" fill="#3F3D56"/>
<path d="M376.448 361.12L364.88 342.882L369.047 339.187L377.012 351.743L413.629 308.449L417.312 312.804L376.448 361.12Z" fill="#F59B00"/>
<path d="M191.608 332.614C191.608 332.614 179.788 313.979 155.655 325.044L151.222 339.602C151.222 339.602 125.612 363.477 139.894 400.163L138.909 454.902L134.969 470.625L63.5552 463.637L61.0927 490.424L73.898 491.588C73.898 491.588 146.297 525.363 157.625 504.399C168.953 483.436 192.593 400.746 192.593 400.746L253.915 411.603C253.915 411.603 252.12 434.293 254.09 437.205C256.06 440.117 255.075 452.345 256.06 454.675C257.045 457.004 256.224 463.059 256.224 463.059L276.57 462.265V450.618C276.57 450.618 279.033 434.896 279.033 430.819C279.033 426.743 293.808 373.169 268.198 368.511C242.587 363.852 198.503 355.324 198.503 355.324L191.608 332.614Z" fill="#2F2E41"/>
<path d="M168.597 241.593C167.975 239.717 167.027 238.017 165.815 236.601C164.603 235.185 163.154 234.084 161.561 233.37C159.968 232.655 158.266 232.343 156.565 232.453C154.863 232.563 153.2 233.093 151.683 234.008C147.614 236.436 143.85 241.255 144.081 250.797C144.573 271.179 145.558 315.435 145.558 315.435L167.229 385.897C167.229 385.897 161.811 433.065 176.094 428.406C190.377 423.748 180.527 384.15 180.527 384.15L163.781 317.182L167.721 264.191C167.721 264.191 171.95 252.003 168.597 241.593Z" fill="#FFB9B9"/>
</g>
<defs>
<clipPath id="clip0">
<rect width="656" height="512" fill="white"/>
</clipPath>
</defs>
</svg>
